<?xml version="1.0" encoding="utf-8"?>
<!-- Generator: Adobe Illustrator 21.0.2, SVG Export Plug-In . SVG Version: 6.00 Build 0)  -->
<svg version="1.1" id="Layer_1" xmlns="http://www.w3.org/2000/svg" xmlns:xlink="http://www.w3.org/1999/xlink" x="0px" y="0px"
	 viewBox="0 0 972 1000" style="enable-background:new 0 0 972 1000;" xml:space="preserve">
<style type="text/css">
	.st0{clip-path:url(#SVGID_2_);fill-rule:evenodd;clip-rule:evenodd;fill:#241F21;}
	.st1{font-family:'PragmaticaWeb-Book';}
	.st2{font-size:22.4578px;}
	.st3{clip-path:url(#SVGID_4_);fill-rule:evenodd;clip-rule:evenodd;fill:#241F21;}
	.st4{clip-path:url(#SVGID_4_);fill-rule:evenodd;clip-rule:evenodd;}
	.st5{clip-path:url(#SVGID_4_);enable-background:new    ;}
	.st6{filter:url(#Adobe_OpacityMaskFilter);}
	.st7{clip-path:url(#SVGID_6_);}
	.st8{clip-path:url(#SVGID_6_);mask:url(#SVGID_7_);enable-background:new    ;}
	.st9{clip-path:url(#SVGID_9_);}
	.st10{clip-path:url(#SVGID_11_);fill-rule:evenodd;clip-rule:evenodd;}
	.st11{filter:url(#Adobe_OpacityMaskFilter_1_);}
	.st12{enable-background:new    ;}
	.st13{clip-path:url(#SVGID_6_);fill-rule:evenodd;clip-rule:evenodd;fill:#FFFFFF;}
	.st14{clip-path:url(#SVGID_6_);mask:url(#SVGID_12_);enable-background:new    ;}
	.st15{clip-path:url(#SVGID_14_);}
	.st16{clip-path:url(#SVGID_16_);fill-rule:evenodd;clip-rule:evenodd;}
	.st17{clip-path:url(#SVGID_18_);fill-rule:evenodd;clip-rule:evenodd;fill:#241F21;}
	.st18{clip-path:url(#SVGID_20_);fill-rule:evenodd;clip-rule:evenodd;fill:#241F21;}
	.st19{clip-path:url(#SVGID_22_);fill-rule:evenodd;clip-rule:evenodd;fill:#241F21;}
	.st20{clip-path:url(#SVGID_24_);enable-background:new    ;}
	.st21{filter:url(#Adobe_OpacityMaskFilter_2_);}
	.st22{clip-path:url(#SVGID_26_);}
	.st23{clip-path:url(#SVGID_26_);mask:url(#SVGID_27_);enable-background:new    ;}
	.st24{clip-path:url(#SVGID_29_);}
	.st25{clip-path:url(#SVGID_31_);fill-rule:evenodd;clip-rule:evenodd;}
	.st26{filter:url(#Adobe_OpacityMaskFilter_3_);}
	.st27{clip-path:url(#SVGID_34_);fill-rule:evenodd;clip-rule:evenodd;fill:#FFFFFF;}
	.st28{clip-path:url(#SVGID_26_);mask:url(#SVGID_32_);enable-background:new    ;}
	.st29{clip-path:url(#SVGID_36_);}
	.st30{clip-path:url(#SVGID_38_);fill-rule:evenodd;clip-rule:evenodd;}
	.st31{clip-path:url(#SVGID_24_);fill-rule:evenodd;clip-rule:evenodd;fill:#241F21;}
	.st32{filter:url(#Adobe_OpacityMaskFilter_4_);}
	.st33{clip-path:url(#SVGID_40_);}
	.st34{clip-path:url(#SVGID_40_);mask:url(#SVGID_41_);enable-background:new    ;}
	.st35{clip-path:url(#SVGID_43_);}
	.st36{clip-path:url(#SVGID_45_);fill-rule:evenodd;clip-rule:evenodd;fill:#241F21;}
	.st37{filter:url(#Adobe_OpacityMaskFilter_5_);}
	.st38{clip-path:url(#SVGID_48_);fill-rule:evenodd;clip-rule:evenodd;fill:#FFFFFF;}
	.st39{clip-path:url(#SVGID_40_);mask:url(#SVGID_46_);enable-background:new    ;}
	.st40{clip-path:url(#SVGID_50_);}
	.st41{clip-path:url(#SVGID_52_);fill-rule:evenodd;clip-rule:evenodd;fill:#241F21;}
	.st42{clip-path:url(#SVGID_54_);fill-rule:evenodd;clip-rule:evenodd;}
	.st43{clip-path:url(#SVGID_56_);fill-rule:evenodd;clip-rule:evenodd;fill:#211F1F;}
	.st44{clip-path:url(#SVGID_58_);fill-rule:evenodd;clip-rule:evenodd;fill:#241F21;}
	.st45{clip-path:url(#SVGID_60_);fill-rule:evenodd;clip-rule:evenodd;fill:#241F21;}
	.st46{clip-path:url(#SVGID_62_);fill-rule:evenodd;clip-rule:evenodd;fill:#241F21;}
	.st47{clip-path:url(#SVGID_64_);fill-rule:evenodd;clip-rule:evenodd;}
	.st48{clip-path:url(#SVGID_66_);fill:none;stroke:#241F21;stroke-width:1.5021;stroke-linecap:round;stroke-linejoin:round;}
	.st49{clip-path:url(#SVGID_68_);fill-rule:evenodd;clip-rule:evenodd;fill:#241F21;}
	.st50{clip-path:url(#SVGID_70_);fill-rule:evenodd;clip-rule:evenodd;fill:#241F21;}
	.st51{clip-path:url(#SVGID_72_);fill-rule:evenodd;clip-rule:evenodd;fill:#241F21;}
</style>
<g>
	<g>
		<defs>
			<rect id="SVGID_1_" x="83.9" y="60.1" width="82.3" height="60.7"/>
		</defs>
		<clipPath id="SVGID_2_">
			<use xlink:href="#SVGID_1_"  style="overflow:visible;"/>
		</clipPath>
		<path class="st0" d="M120.6,120c-2.1,0-4.2-0.8-5.7-2.4c-3.2-3.2-3.2-8.3,0-11.5c1.5-1.5,3.6-2.4,5.7-2.4h0c2,0,3.8,0.7,5.3,2
			l9.1-9.1c-3.9-3.7-9-5.8-14.5-5.8c-5.6,0-10.9,2.2-14.9,6.2l-1.2-1.2l0,0c4.2-4.2,9.7-6.5,15.5-6.6l0.1,0c6-0.1,11.8,2.1,16.1,6.2
			l9.1-9.1c-8.8-8.5-20.8-11.6-32-9.3c-6.5,1.3-12.8,4.5-17.8,9.6c0,0,0,0-0.1,0.1c0,0,0,0,0,0C95.2,86.9,95,87,94.8,87
			c-0.5,0-0.8-0.4-0.8-0.8v0c0-0.2,0.1-0.4,0.2-0.6c14.4-14.4,37.7-14.5,52.3-0.4l9.1-9.1c-19.6-19.2-51.1-19-70.6,0.4l-1.2-1.2
			c20.1-20.1,52.7-20.2,72.9-0.4l7.3-7.3c0.3-0.3,0.9-0.3,1.2,0c0.3,0.3,0.3,0.9,0,1.2L127,107c1.1,1.4,1.7,3.1,1.7,4.9
			c0,2.2-0.8,4.2-2.4,5.7C124.7,119.3,122.6,120,120.6,120 M120.6,105.5L120.6,105.5c-1.7,0-3.3,0.7-4.6,1.9c-2.5,2.5-2.5,6.6,0,9.1
			c2.5,2.5,6.6,2.5,9.1,0c1.2-1.2,1.9-2.8,1.9-4.6c0-1.4-0.4-2.6-1.2-3.7l-4.3,4.3c-0.3,0.3-0.9,0.3-1.2,0c-0.3-0.3-0.3-0.9,0-1.2
			l4.4-4.4C123.5,106,122.1,105.5,120.6,105.5"/>
	</g>
	<text transform="matrix(1 0 0 1 65.6472 164.9102)" class="st1 st2">R</text>
	<text transform="matrix(1 0 0 1 80.9411 164.9102)" class="st1 st2">az</text>
	<text transform="matrix(1 0 0 1 103.8708 164.9102)" class="st1 st2">e</text>
	<text transform="matrix(1 0 0 1 116.6716 164.9102)" class="st1 st2">n</text>
	<text transform="matrix(1 0 0 1 129.5397 164.9102)" class="st1 st2">d</text>
	<text transform="matrix(1 0 0 1 142.9919 164.9102)" class="st1 st2">s</text>
	<text transform="matrix(1 0 0 1 154.3552 164.9102)" class="st1 st2">n</text>
	<text transform="matrix(1 0 0 1 167.2243 164.9102)" class="st1 st2">e</text>
	<text transform="matrix(1 0 0 1 180.0241 164.9102)" class="st1 st2">l</text>
	<text transform="matrix(1 0 0 1 85.8825 191.5264)" class="st1 st2">i</text>
	<text transform="matrix(1 0 0 1 91.0026 191.5264)" class="st1 st2">n</text>
	<text transform="matrix(1 0 0 1 103.8718 191.5264)" class="st1 st2">t</text>
	<text transform="matrix(1 0 0 1 111.0583 191.5264)" class="st1 st2">e</text>
	<text transform="matrix(1 0 0 1 123.8591 191.5264)" class="st1 st2">r</text>
	<text transform="matrix(1 0 0 1 132.1462 191.5264)" class="st1 st2">n</text>
	<text transform="matrix(1 0 0 1 145.0143 191.5264)" class="st1 st2">e</text>
	<text transform="matrix(1 0 0 1 157.8151 191.5264)" class="st1 st2">t</text>
</g>
<g>
	<g>
		<defs>
			<rect id="SVGID_3_" x="333" y="60.1" width="58.2" height="74"/>
		</defs>
		<clipPath id="SVGID_4_">
			<use xlink:href="#SVGID_3_"  style="overflow:visible;"/>
		</clipPath>
		<path class="st3" d="M389.9,121.9c-0.3,0-0.6-0.1-0.7-0.4l-24.7-41.2c-1.6,0.7-3.6,0.7-5.2,0l-24.7,41.2c-0.2,0.4-0.7,0.5-1.1,0.3
			c-0.4-0.2-0.5-0.7-0.3-1.1l24.7-41.2c-1.7-1.2-2.8-3.2-2.8-5.5c0-3.5,2.6-6.4,6-6.8v-6.2c0-0.5,0.4-0.8,0.8-0.8
			c0.5,0,0.8,0.4,0.8,0.8v6.2c3.4,0.4,6,3.3,6,6.8c0,2.3-1.1,4.3-2.8,5.5l24.7,41.2c0.2,0.4,0.1,0.9-0.3,1.1
			C390.2,121.9,390.1,121.9,389.9,121.9 M361.9,68.8c-2.9,0-5.2,2.3-5.2,5.2c0,2.9,2.3,5.2,5.2,5.2c2.9,0,5.2-2.3,5.2-5.2
			C367.1,71.1,364.7,68.8,361.9,68.8 M361.9,97.8c-0.5,0-0.8-0.4-0.8-0.8v-8c0-0.5,0.4-0.8,0.8-0.8c0.5,0,0.8,0.4,0.8,0.8v8
			C362.7,97.5,362.3,97.8,361.9,97.8"/>
		<path class="st3" d="M381.9,93.8h-40.1c-0.5,0-0.8-0.4-0.8-0.8c0-0.5,0.4-0.8,0.8-0.8h40.1c0.5,0,0.8,0.4,0.8,0.8
			C382.7,93.5,382.4,93.8,381.9,93.8"/>
		<path class="st4" d="M365.1,133.9c-0.4,0-0.8-0.4-0.8-0.8c0-0.5,0.3-0.8,0.8-0.9l0.2,0c0.4,0,0.8,0.3,0.9,0.8
			c0,0.5-0.3,0.8-0.8,0.9L365.1,133.9C365.2,133.9,365.1,133.9,365.1,133.9 M367.8,133.7c-0.4,0-0.8-0.3-0.8-0.8
			c0-0.5,0.3-0.9,0.8-0.9l0.2,0c0.5,0,0.9,0.3,0.9,0.8c0,0.5-0.3,0.9-0.8,0.9L367.8,133.7C367.8,133.7,367.8,133.7,367.8,133.7
			 M370.4,133.5c-0.4,0-0.8-0.3-0.8-0.8c0-0.5,0.3-0.9,0.8-0.9l0.2,0c0.5,0,0.9,0.3,0.9,0.8c0,0.5-0.3,0.9-0.8,0.9L370.4,133.5
			C370.5,133.5,370.4,133.5,370.4,133.5 M373.1,133.3c-0.4,0-0.8-0.3-0.8-0.7c-0.1-0.5,0.2-0.9,0.7-0.9l0.2,0
			c0.5-0.1,0.9,0.3,0.9,0.7c0.1,0.5-0.3,0.9-0.7,0.9l-0.2,0C373.2,133.2,373.1,133.3,373.1,133.3 M375.7,132.9
			c-0.4,0-0.8-0.3-0.8-0.7c-0.1-0.5,0.2-0.9,0.7-1l0.2,0c0.5-0.1,0.9,0.2,1,0.7c0.1,0.5-0.2,0.9-0.7,1l-0.2,0
			C375.8,132.9,375.7,132.9,375.7,132.9 M378.3,132.4c-0.4,0-0.7-0.3-0.8-0.7c-0.1-0.4,0.2-0.9,0.6-1l0.2,0c0.5-0.1,0.9,0.2,1,0.6
			c0.1,0.4-0.2,0.9-0.6,1l-0.2,0C378.4,132.4,378.3,132.4,378.3,132.4 M380.9,131.8c-0.4,0-0.7-0.2-0.8-0.6c-0.1-0.4,0.2-0.9,0.6-1
			l0.2,0c0.4-0.1,0.9,0.1,1,0.6c0.1,0.4-0.1,0.9-0.6,1l-0.2,0.1C381,131.8,380.9,131.8,380.9,131.8 M383.4,131
			c-0.3,0-0.7-0.2-0.8-0.6c-0.1-0.4,0.1-0.9,0.5-1.1l0.2-0.1c0.4-0.1,0.9,0.1,1.1,0.5c0.1,0.4-0.1,0.9-0.5,1.1l-0.2,0.1
			C383.6,131,383.5,131,383.4,131 M385.8,130.1c-0.3,0-0.6-0.2-0.8-0.5c-0.2-0.4,0-0.9,0.4-1.1l0.2-0.1c0.4-0.2,0.9,0,1.1,0.4
			c0.2,0.4,0,0.9-0.4,1.1l-0.2,0.1C386.1,130,386,130.1,385.8,130.1 M388.1,128.7c-0.3,0-0.5-0.1-0.7-0.3c-0.3-0.4-0.2-0.9,0.2-1.2
			l0.1-0.1c0.4-0.3,0.9-0.2,1.2,0.1c0.3,0.4,0.2,0.9-0.1,1.2l-0.2,0.1C388.5,128.7,388.3,128.7,388.1,128.7"/>
		<path class="st4" d="M358.6,133.9C358.6,133.9,358.6,133.9,358.6,133.9l-0.2,0c-0.5,0-0.8-0.4-0.8-0.9c0-0.5,0.4-0.8,0.9-0.8
			l0.2,0c0.5,0,0.8,0.4,0.8,0.9C359.4,133.5,359,133.9,358.6,133.9 M355.9,133.7C355.9,133.7,355.9,133.7,355.9,133.7l-0.3,0
			c-0.5,0-0.8-0.4-0.8-0.9c0-0.5,0.4-0.8,0.9-0.8l0.2,0c0.5,0,0.8,0.4,0.8,0.9C356.8,133.4,356.4,133.7,355.9,133.7 M353.3,133.5
			C353.3,133.5,353.3,133.5,353.3,133.5l-0.3,0c-0.5,0-0.8-0.5-0.7-0.9c0-0.5,0.5-0.8,0.9-0.7l0.2,0c0.5,0,0.8,0.4,0.8,0.9
			C354.1,133.2,353.7,133.5,353.3,133.5 M350.7,133.3c0,0-0.1,0-0.1,0l-0.2,0c-0.5-0.1-0.8-0.5-0.7-0.9c0.1-0.5,0.5-0.8,0.9-0.7
			l0.2,0c0.5,0.1,0.8,0.5,0.7,0.9C351.5,132.9,351.1,133.3,350.7,133.3 M348.1,132.9c0,0-0.1,0-0.1,0l-0.2,0c-0.5-0.1-0.8-0.5-0.7-1
			c0.1-0.5,0.5-0.8,1-0.7l0.2,0c0.5,0.1,0.8,0.5,0.7,1C348.8,132.6,348.5,132.9,348.1,132.9 M345.5,132.4c-0.1,0-0.1,0-0.2,0l-0.2,0
			c-0.4-0.1-0.7-0.5-0.6-1c0.1-0.4,0.5-0.7,1-0.6l0.2,0c0.4,0.1,0.7,0.5,0.6,1C346.2,132.1,345.8,132.4,345.5,132.4 M342.9,131.8
			c-0.1,0-0.1,0-0.2,0l-0.2-0.1c-0.4-0.1-0.7-0.6-0.6-1c0.1-0.4,0.6-0.7,1-0.6l0.2,0.1c0.4,0.1,0.7,0.6,0.6,1
			C343.6,131.6,343.2,131.8,342.9,131.8 M340.3,131c-0.1,0-0.2,0-0.3,0l-0.2-0.1c-0.4-0.2-0.7-0.6-0.5-1.1c0.2-0.4,0.6-0.7,1.1-0.5
			l0.2,0.1c0.4,0.1,0.7,0.6,0.5,1.1C341,130.8,340.7,131,340.3,131 M337.9,130.1c-0.1,0-0.2,0-0.4-0.1l-0.2-0.1
			c-0.4-0.2-0.6-0.7-0.4-1.1c0.2-0.4,0.7-0.6,1.1-0.4l0.2,0.1c0.4,0.2,0.6,0.7,0.4,1.1C338.5,129.9,338.2,130.1,337.9,130.1
			 M335.6,128.7c-0.2,0-0.4-0.1-0.5-0.2l-0.2-0.1c-0.4-0.3-0.4-0.8-0.1-1.2c0.3-0.4,0.8-0.4,1.2-0.1l0.1,0.1
			c0.4,0.3,0.4,0.8,0.2,1.2C336.1,128.6,335.9,128.7,335.6,128.7"/>
		<path class="st4" d="M335.5,123.2c-0.2,0-0.5-0.1-0.7-0.3c-0.3-0.4-0.2-0.9,0.1-1.2l0.2-0.1c0.4-0.3,0.9-0.2,1.2,0.2
			c0.3,0.4,0.2,0.9-0.2,1.2L336,123C335.8,123.1,335.6,123.2,335.5,123.2 M337.7,121.8c-0.3,0-0.6-0.2-0.8-0.5
			c-0.2-0.4,0-0.9,0.4-1.1l0.2-0.1c0.4-0.2,0.9,0,1.1,0.4c0.2,0.4,0,0.9-0.4,1.1l-0.2,0.1C338,121.8,337.8,121.8,337.7,121.8
			 M340.2,120.8c-0.3,0-0.7-0.2-0.8-0.6c-0.1-0.4,0.1-0.9,0.5-1.1l0.2-0.1c0.4-0.1,0.9,0.1,1.1,0.5c0.1,0.4-0.1,0.9-0.5,1.1
			l-0.2,0.1C340.3,120.8,340.3,120.8,340.2,120.8 M342.7,120.1c-0.4,0-0.7-0.2-0.8-0.6c-0.1-0.4,0.1-0.9,0.6-1l0.2-0.1
			c0.4-0.1,0.9,0.2,1,0.6c0.1,0.4-0.2,0.9-0.6,1l-0.2,0C342.8,120,342.8,120.1,342.7,120.1 M345.3,119.4c-0.4,0-0.7-0.3-0.8-0.7
			c-0.1-0.4,0.2-0.9,0.6-1l0.2,0c0.4-0.1,0.9,0.2,1,0.6c0.1,0.4-0.2,0.9-0.6,1l-0.2,0C345.4,119.4,345.3,119.4,345.3,119.4
			 M347.9,119c-0.4,0-0.8-0.3-0.8-0.7c-0.1-0.5,0.2-0.9,0.7-1l0.2,0c0.5-0.1,0.9,0.2,1,0.7c0.1,0.5-0.2,0.9-0.7,1l-0.2,0
			C348,119,347.9,119,347.9,119 M350.5,118.6c-0.4,0-0.8-0.3-0.8-0.7c-0.1-0.5,0.3-0.9,0.7-0.9l0.2,0c0.5-0.1,0.9,0.3,0.9,0.7
			c0.1,0.5-0.3,0.9-0.7,0.9l-0.2,0C350.6,118.6,350.5,118.6,350.5,118.6 M353.1,118.3c-0.4,0-0.8-0.3-0.8-0.8c0-0.5,0.3-0.9,0.8-0.9
			l0.2,0c0.5,0,0.9,0.3,0.9,0.8c0,0.5-0.3,0.9-0.8,0.9L353.1,118.3C353.2,118.3,353.1,118.3,353.1,118.3 M355.8,118.1
			c-0.4,0-0.8-0.3-0.8-0.8c0-0.5,0.3-0.9,0.8-0.9l0.2,0c0.5,0,0.9,0.3,0.9,0.8c0,0.5-0.3,0.9-0.8,0.9L355.8,118.1
			C355.8,118.1,355.8,118.1,355.8,118.1 M358.4,117.9c-0.4,0-0.8-0.4-0.8-0.8c0-0.5,0.3-0.8,0.8-0.9l0.2,0c0.5,0,0.8,0.3,0.9,0.8
			c0,0.5-0.3,0.8-0.8,0.9L358.4,117.9L358.4,117.9"/>
		<path class="st4" d="M388.3,123.2c-0.2,0-0.4-0.1-0.5-0.2l-0.1-0.1c-0.4-0.3-0.4-0.8-0.2-1.2c0.3-0.4,0.8-0.4,1.2-0.2l0.2,0.1
			c0.4,0.3,0.4,0.8,0.1,1.2C388.8,123.1,388.5,123.2,388.3,123.2 M386,121.8c-0.1,0-0.2,0-0.4-0.1l-0.2-0.1
			c-0.4-0.2-0.6-0.7-0.4-1.1c0.2-0.4,0.7-0.6,1.1-0.4l0.2,0.1c0.4,0.2,0.6,0.7,0.4,1.1C386.6,121.7,386.3,121.8,386,121.8
			 M383.6,120.8c-0.1,0-0.2,0-0.3,0l-0.2-0.1c-0.4-0.1-0.7-0.6-0.5-1.1c0.1-0.4,0.6-0.7,1.1-0.5l0.2,0.1c0.4,0.2,0.7,0.6,0.5,1.1
			C384.2,120.6,383.9,120.8,383.6,120.8 M381.1,120.1c-0.1,0-0.1,0-0.2,0l-0.2-0.1c-0.4-0.1-0.7-0.6-0.6-1c0.1-0.4,0.6-0.7,1-0.6
			l0.2,0.1c0.4,0.1,0.7,0.6,0.6,1C381.8,119.8,381.4,120.1,381.1,120.1 M378.5,119.4c-0.1,0-0.1,0-0.2,0l-0.2,0
			c-0.4-0.1-0.7-0.5-0.6-1c0.1-0.5,0.5-0.7,1-0.6l0.2,0c0.4,0.1,0.7,0.5,0.6,1C379.2,119.2,378.9,119.4,378.5,119.4 M375.9,119
			c0,0-0.1,0-0.1,0l-0.2,0c-0.5-0.1-0.8-0.5-0.7-1c0.1-0.5,0.5-0.8,1-0.7l0.2,0c0.5,0.1,0.8,0.5,0.7,1
			C376.6,118.7,376.3,119,375.9,119 M373.3,118.6c0,0-0.1,0-0.1,0l-0.2,0c-0.5-0.1-0.8-0.5-0.7-0.9c0.1-0.5,0.5-0.8,0.9-0.7l0.2,0
			c0.5,0.1,0.8,0.5,0.7,0.9C374,118.3,373.7,118.6,373.3,118.6 M370.6,118.3C370.6,118.3,370.6,118.3,370.6,118.3l-0.3,0
			c-0.5,0-0.8-0.4-0.8-0.9c0-0.5,0.4-0.8,0.9-0.8l0.2,0c0.5,0,0.8,0.5,0.7,0.9C371.4,118,371.1,118.3,370.6,118.3 M368,118.1
			C368,118.1,368,118.1,368,118.1l-0.3,0c-0.5,0-0.8-0.4-0.8-0.9c0-0.5,0.4-0.8,0.9-0.8l0.2,0c0.5,0,0.8,0.4,0.8,0.9
			C368.8,117.7,368.4,118.1,368,118.1 M365.3,117.9L365.3,117.9l-0.2,0c-0.5,0-0.8-0.4-0.8-0.9c0-0.5,0.4-0.8,0.9-0.8l0.2,0
			c0.5,0,0.8,0.4,0.8,0.9C366.2,117.6,365.8,117.9,365.3,117.9"/>
		<g class="st5">
			<g>
				<defs>
					<rect id="SVGID_5_" x="332.6" y="115.1" width="58.7" height="18.8"/>
				</defs>
				<clipPath id="SVGID_6_">
					<use xlink:href="#SVGID_5_"  style="overflow:visible;"/>
				</clipPath>
				<defs>
					<filter id="Adobe_OpacityMaskFilter" filterUnits="userSpaceOnUse" x="332.6" y="115.1" width="58.7" height="18.8">
						
							<feColorMatrix  type="matrix" values="-1 0 0 0 1  0 -1 0 0 1  0 0 -1 0 1  0 0 0 1 0" color-interpolation-filters="sRGB" result="source"/>
						<feFlood  style="flood-color:white;flood-opacity:1" result="back"/>
						<feBlend  in="source" in2="back" mode="normal"/>
					</filter>
				</defs>
				<mask maskUnits="userSpaceOnUse" x="332.6" y="115.1" width="58.7" height="18.8" id="SVGID_7_">
					<g class="st6">
						<rect x="332.6" y="115.1" class="st7" width="58.7" height="18.8"/>
					</g>
				</mask>
				<g class="st8">
					<g>
						<defs>
							<rect id="SVGID_8_" x="332.6" y="115.1" width="58.7" height="18.8"/>
						</defs>
						<clipPath id="SVGID_9_">
							<use xlink:href="#SVGID_8_"  style="overflow:visible;"/>
						</clipPath>
						<g class="st9">
							<defs>
								<rect id="SVGID_10_" x="332.6" y="115.1" width="58.7" height="18.8"/>
							</defs>
							<clipPath id="SVGID_11_">
								<use xlink:href="#SVGID_10_"  style="overflow:visible;"/>
							</clipPath>
							<path class="st10" d="M361.9,133.9l-0.8,0c-0.5,0-0.8-0.4-0.8-0.8c0-0.5,0.4-0.8,0.8-0.8h0l0.8,0l0.8,0
								c0.4,0,0.8,0.4,0.8,0.8c0,0.5-0.4,0.8-0.8,0.8L361.9,133.9z M334,126.7c-0.3,0-0.7-0.2-0.8-0.6c-0.1-0.4-0.2-0.7-0.2-1.1
								c0-0.4,0.1-0.7,0.2-1.1c0.2-0.4,0.6-0.7,1.1-0.5c0.4,0.2,0.7,0.6,0.5,1.1c-0.1,0.2-0.1,0.4-0.1,0.5c0,0.2,0,0.4,0.1,0.5
								c0.2,0.4-0.1,0.9-0.5,1.1C334.1,126.7,334,126.7,334,126.7z M389.8,126.7c-0.1,0-0.2,0-0.3,0c-0.4-0.2-0.7-0.6-0.5-1.1
								c0.1-0.2,0.1-0.4,0.1-0.5c0-0.2,0-0.4-0.1-0.5c-0.2-0.4,0.1-0.9,0.5-1.1c0.4-0.2,0.9,0.1,1.1,0.5c0.1,0.4,0.2,0.7,0.2,1.1
								c0,0.4-0.1,0.7-0.2,1.1C390.4,126.5,390.1,126.7,389.8,126.7z M362.7,117.9L362.7,117.9l-0.8,0l-0.8,0h0
								c-0.5,0-0.8-0.4-0.8-0.8c0-0.5,0.4-0.8,0.8-0.8l0.8,0l0.8,0c0.5,0,0.8,0.4,0.8,0.8C363.5,117.5,363.2,117.9,362.7,117.9z"/>
						</g>
					</g>
				</g>
				<defs>
					<filter id="Adobe_OpacityMaskFilter_1_" filterUnits="userSpaceOnUse" x="332.6" y="115.1" width="58.7" height="18.8">
						<feColorMatrix  type="matrix" values="1 0 0 0 0  0 1 0 0 0  0 0 1 0 0  0 0 0 1 0"/>
					</filter>
				</defs>
				<mask maskUnits="userSpaceOnUse" x="332.6" y="115.1" width="58.7" height="18.8" id="SVGID_12_">
					<g class="st11">
						<g class="st12">
							<polygon class="st13" points="361.9,133.9 333,133.9 333,116.2 390.8,116.2 390.8,133.9 							"/>
						</g>
					</g>
				</mask>
				<g class="st14">
					<g>
						<defs>
							<rect id="SVGID_13_" x="332.6" y="115.1" width="58.7" height="18.8"/>
						</defs>
						<clipPath id="SVGID_14_">
							<use xlink:href="#SVGID_13_"  style="overflow:visible;"/>
						</clipPath>
						<g class="st15">
							<defs>
								<rect id="SVGID_15_" x="332.6" y="115.1" width="58.7" height="18.8"/>
							</defs>
							<clipPath id="SVGID_16_">
								<use xlink:href="#SVGID_15_"  style="overflow:visible;"/>
							</clipPath>
							<path class="st16" d="M361.9,133.9l-0.8,0c-0.5,0-0.8-0.4-0.8-0.8c0-0.5,0.4-0.8,0.8-0.8h0l0.8,0l0.8,0
								c0.4,0,0.8,0.4,0.8,0.8c0,0.5-0.4,0.8-0.8,0.8L361.9,133.9z M334,126.7c-0.3,0-0.7-0.2-0.8-0.6c-0.1-0.4-0.2-0.7-0.2-1.1
								c0-0.4,0.1-0.7,0.2-1.1c0.2-0.4,0.6-0.7,1.1-0.5c0.4,0.2,0.7,0.6,0.5,1.1c-0.1,0.2-0.1,0.4-0.1,0.5c0,0.2,0,0.4,0.1,0.5
								c0.2,0.4-0.1,0.9-0.5,1.1C334.1,126.7,334,126.7,334,126.7z M389.8,126.7c-0.1,0-0.2,0-0.3,0c-0.4-0.2-0.7-0.6-0.5-1.1
								c0.1-0.2,0.1-0.4,0.1-0.5c0-0.2,0-0.4-0.1-0.5c-0.2-0.4,0.1-0.9,0.5-1.1c0.4-0.2,0.9,0.1,1.1,0.5c0.1,0.4,0.2,0.7,0.2,1.1
								c0,0.4-0.1,0.7-0.2,1.1C390.4,126.5,390.1,126.7,389.8,126.7z M362.7,117.9L362.7,117.9l-0.8,0l-0.8,0h0
								c-0.5,0-0.8-0.4-0.8-0.8c0-0.5,0.4-0.8,0.8-0.8l0.8,0l0.8,0c0.5,0,0.8,0.4,0.8,0.8C363.5,117.5,363.2,117.9,362.7,117.9z"/>
						</g>
					</g>
				</g>
			</g>
		</g>
	</g>
	<g>
		<text transform="matrix(1 0 0 1 318.202 164.9102)" class="st1 st2">B</text>
		<text transform="matrix(1 0 0 1 333.6757 164.9102)" class="st1 st2">o</text>
		<text transform="matrix(1 0 0 1 346.8358 164.9102)" class="st1 st2">u</text>
		<text transform="matrix(1 0 0 1 359.705 164.9102)" class="st1 st2">w</text>
		<text transform="matrix(1 0 0 1 375.8739 164.9102)" class="st1 st2"> </text>
		<text transform="matrix(1 0 0 1 381.1063 164.9102)" class="st1 st2">e</text>
		<text transform="matrix(1 0 0 1 393.9071 164.9102)" class="st1 st2">n</text>
		<text transform="matrix(1 0 0 1 291.9354 191.5264)" class="st1 st2">o</text>
		<text transform="matrix(1 0 0 1 305.0956 191.5264)" class="st1 st2">n</text>
		<text transform="matrix(1 0 0 1 317.9647 191.5264)" class="st1 st2">t</text>
		<text transform="matrix(1 0 0 1 325.1503 191.5264)" class="st1 st2">w</text>
		<text transform="matrix(1 0 0 1 341.3202 191.5264)" class="st1 st2">e</text>
		<text transform="matrix(1 0 0 1 354.1219 191.5264)" class="st1 st2">r</text>
		<text transform="matrix(1 0 0 1 362.4081 191.5264)" class="st1 st2">p</text>
		<text transform="matrix(1 0 0 1 375.8163 191.5264)" class="st1 st2"> </text>
		<text transform="matrix(1 0 0 1 381.0487 191.5264)" class="st1 st2">t</text>
		<text transform="matrix(1 0 0 1 388.2352 191.5264)" class="st1 st2">e</text>
		<text transform="matrix(1 0 0 1 401.036 191.5264)" class="st1 st2">am</text>
	</g>
</g>
<g>
	<g>
		<defs>
			<rect id="SVGID_17_" x="576.2" y="60.1" width="38.3" height="74"/>
		</defs>
		<clipPath id="SVGID_18_">
			<use xlink:href="#SVGID_17_"  style="overflow:visible;"/>
		</clipPath>
		<path class="st17" d="M595.1,133.9c-0.2,0-0.4-0.1-0.6-0.2l-4-4c-0.2-0.2-0.2-0.4-0.2-0.6V97.2c-8.1-2.1-14-9.5-14-18.2
			c0-5,2-9.8,5.6-13.3h-3.7c-0.5,0-0.8-0.4-0.8-0.8s0.4-0.8,0.8-0.8h5.7c0.5,0,0.8,0.4,0.8,0.8v5.7c0,0.5-0.4,0.8-0.8,0.8
			s-0.8-0.4-0.8-0.8v-3.6c-3.2,3.2-5,7.6-5,12.1c0,9.5,7.7,17.2,17.2,17.2c1.3,0,2.5-0.1,3.8-0.4c0.4-0.1,0.9,0.2,1,0.6
			c0,0.1,0,0.3,0,0.4c0,0.1,0,0.2,0,0.2v16c0,0.2-0.1,0.4-0.2,0.5l-2.6,3.5l2.6,3.5c0.2,0.3,0.2,0.7,0,1l-2.6,3.5l2.6,3.5
			c0.2,0.3,0.2,0.8-0.1,1.1l-4,4C595.6,133.8,595.3,133.9,595.1,133.9z M591.9,128.7l3.2,3.2l2.9-2.9l-2.6-3.4c-0.2-0.3-0.2-0.7,0-1
			l2.6-3.5l-2.6-3.5c-0.2-0.3-0.2-0.7,0-1l2.8-3.8V97.6c-2.2,0.4-4.3,0.4-6.4,0V128.7z M612.1,94h-5.7c-0.5,0-0.8-0.4-0.8-0.8v-5.7
			c0-0.5,0.4-0.8,0.8-0.8s0.8,0.4,0.8,0.8v3.6c3.2-3.2,5-7.6,5-12.1c0-9.5-7.7-17.2-17.2-17.2c-1.3,0-2.5,0.1-3.8,0.4
			c-0.5,0.1-0.9-0.2-1-0.6c-0.1-0.4,0.2-0.9,0.6-1c1.4-0.3,2.8-0.5,4.2-0.5c10.4,0,18.9,8.5,18.9,18.9c0,5-2,9.8-5.6,13.3h3.7
			c0.5,0,0.8,0.4,0.8,0.8C613,93.6,612.6,94,612.1,94z M601.1,86.8c-0.5,0-0.8-0.4-0.8-0.8v-2c0-0.1,0-0.2,0-0.2
			c-1.4-0.2-2.5-1-3.3-2.1l-1.4,1.4c-0.3,0.3-0.9,0.3-1.2,0c-0.3-0.3-0.3-0.9,0-1.2l1.4-1.4c0.1-0.1,0.3-0.2,0.5-0.2
			c-0.1-0.4-0.1-0.8-0.1-1.2c0-0.6,0.1-1.2,0.3-1.8c-0.2,0-0.5-0.1-0.7-0.2l-1.4-1.4c-0.3-0.3-0.3-0.9,0-1.2c0.3-0.3,0.9-0.3,1.2,0
			l1.4,1.4c0.1,0.1,0.1,0.2,0.2,0.2c0.7-1,1.8-1.6,3-1.8c0-0.1,0-0.2,0-0.2v-2c0-0.5,0.4-0.8,0.8-0.8c0.5,0,0.8,0.4,0.8,0.8v2
			c0,0.1,0,0.2,0,0.2c1.2,0.2,2.3,0.9,3,1.8c0-0.1,0.1-0.2,0.2-0.2l1.4-1.4c0.3-0.3,0.9-0.3,1.2,0c0.3,0.3,0.3,0.9,0,1.2l-1.4,1.4
			c-0.2,0.2-0.4,0.3-0.7,0.2c0.2,0.5,0.3,1.1,0.3,1.8c0,0.4-0.1,0.8-0.1,1.2c0.2,0,0.4,0.1,0.5,0.2l1.4,1.4c0.3,0.3,0.3,0.9,0,1.2
			c-0.3,0.3-0.9,0.3-1.2,0l-1.4-1.4c-0.7,1.1-1.9,1.9-3.3,2.1c0,0.1,0,0.2,0,0.2v2C602,86.4,601.6,86.8,601.1,86.8z M601.1,75.8
			c-1.8,0-3.2,1.4-3.2,3.2c0,1.8,1.4,3.2,3.2,3.2c1.8,0,3.2-1.4,3.2-3.2C604.3,77.2,602.9,75.8,601.1,75.8z M588.5,85.8
			c-3.8,0-6.8-3.1-6.8-6.8c0-3.8,3.1-6.8,6.8-6.8c1,0,2,0.2,2.9,0.7c0.3,0.1,0.5,0.4,0.5,0.8c0,0.3-0.2,0.6-0.5,0.8
			c-1.8,0.9-3,2.7-3,4.7c0,2,1.2,3.8,3,4.7c0.3,0.1,0.5,0.4,0.5,0.8c0,0.3-0.2,0.6-0.5,0.8C590.5,85.6,589.6,85.8,588.5,85.8z
			 M588.5,73.8c-2.9,0-5.2,2.3-5.2,5.2c0,2.9,2.3,5.2,5.2,5.2c0.2,0,0.4,0,0.6,0c-1.5-1.3-2.3-3.2-2.3-5.1c0-2,0.9-3.9,2.3-5.1
			C589,73.8,588.8,73.8,588.5,73.8z"/>
	</g>
	<g>
		<text transform="matrix(1 0 0 1 525.8231 191.5264)" class="st1 st2">2</text>
		<text transform="matrix(1 0 0 1 538.8485 191.5264)" class="st1 st2">4</text>
		<text transform="matrix(1 0 0 1 551.8739 191.5264)" class="st1 st2">/</text>
		<text transform="matrix(1 0 0 1 561.3065 191.5264)" class="st1 st2">7</text>
		<text transform="matrix(1 0 0 1 574.3329 191.5264)" class="st1 st2"> </text>
		<text transform="matrix(1 0 0 1 579.5653 191.5264)" class="st1 st2">t</text>
		<text transform="matrix(1 0 0 1 586.7518 191.5264)" class="st1 st2">o</text>
		<text transform="matrix(1 0 0 1 599.9125 191.5264)" class="st1 st2">e</text>
		<text transform="matrix(1 0 0 1 612.7133 191.5264)" class="st1 st2">g</text>
		<text transform="matrix(1 0 0 1 626.1879 191.5264)" class="st1 st2">an</text>
		<text transform="matrix(1 0 0 1 651.475 191.5264)" class="st1 st2">g</text>
	</g>
</g>
<g>
	<g>
		<defs>
			<rect id="SVGID_19_" x="803.5" y="60.1" width="55.7" height="66.5"/>
		</defs>
		<clipPath id="SVGID_20_">
			<use xlink:href="#SVGID_19_"  style="overflow:visible;"/>
		</clipPath>
		<path class="st18" d="M813.9,125.9c-1.5,0-3.1-0.2-4.8-0.6c-4-1-6-3.9-5.5-8.3c0-0.3,0.2-0.6,0.5-0.7c0.9-0.4,1.6,0.1,2,0.3
			c3.4,2.3,4.3,2.2,6.8-0.9c0.6-0.8,1.2-1.6,1.7-2.4c0.5-0.8,1.1-1.6,1.7-2.4c3-3.8,6.5-4.5,10.7-2.3c0.7,0.4,1.1,0.4,1.9,0
			c4.3-2.2,7.9-1.3,10.9,2.6c0.5,0.7,1,1.4,1.4,2c0.6,0.9,1.3,1.9,2,2.7c2.3,2.9,3.4,3,6.4,0.8c0.2-0.2,0.5-0.3,0.8-0.5l0.5-0.4
			c0.2-0.2,0.6-0.2,0.8-0.1c0.3,0.1,0.5,0.4,0.5,0.7c0.4,5.1-1.4,7.9-6,8.9c-6.5,1.4-11.7-0.2-15.5-5c-1.1-1.3-2.1-2.5-2.8-2.5h0
			c-0.7,0-1.7,1.2-2.8,2.5C822.2,124,818.4,125.9,813.9,125.9 M805.2,118c0,3.1,1.4,4.9,4.3,5.6c6.1,1.5,10.8,0.1,14.4-4.4
			c1.6-2,2.7-3.1,4.1-3.1h0c1.3,0,2.5,1.1,4.1,3.1c3.5,4.3,8,5.7,13.9,4.4c3.2-0.7,4.6-2.4,4.7-5.7c0,0,0,0-0.1,0
			c-3.7,2.6-5.7,2.4-8.6-1.2c-0.7-0.9-1.4-1.9-2.1-2.8c-0.5-0.7-0.9-1.3-1.4-2c-2.5-3.3-5.2-4-8.8-2.1c-1.3,0.7-2.2,0.7-3.4,0
			c-3.5-1.9-6.2-1.3-8.7,1.9c-0.6,0.7-1.1,1.5-1.7,2.3c-0.6,0.8-1.2,1.7-1.8,2.5C811.1,120.5,809.3,120.8,805.2,118 M850.4,92.1
			C850.3,92.1,850.3,92.1,850.4,92.1c-14.7-1.2-28-4.4-39.7-9.4c-1.4-0.6-2.6-1.4-3.8-2.2l-0.2-0.1c-0.5-0.3-1.9-1.3-1.4-2.9
			c0.3-1.2,1.4-1.5,2.1-1.7l0.2-0.1c2.1-0.6,4.2-0.5,6.3-0.4l0.7,0c0.7,0,1.1,0,1.3-0.2c0.2-0.2,0.2-0.6,0.3-0.9
			c0-0.4,0.1-0.7,0.2-0.9c0-0.1,0.1-0.2,0.1-0.3c2.3-9.8,8.1-13.8,18.1-12.7c4.1,0.5,7.7,1.9,10.8,4.2c5.8,4.4,7.4,9.1,5.3,14.9
			c-0.2,0.5-0.3,1-0.4,1.6c-0.1,0.4-0.2,0.8-0.3,1.2c-0.2,0.7-0.1,0.9,0.7,1.2c2.7,1,4.7,2,6.4,3.2l0.2,0.1c0.8,0.5,2,1.4,1.6,3
			c-0.4,1.6-2,1.8-3,2l-0.2,0c-1.1,0.1-2.1,0.2-3.4,0.2C851.7,92.1,851.1,92.1,850.4,92.1C850.4,92.1,850.4,92.1,850.4,92.1
			 M811.2,76.9c-1.1,0-2.2,0.1-3.3,0.4l-0.2,0.1c-0.6,0.2-0.9,0.3-0.9,0.5c-0.1,0.3-0.1,0.5,0.7,1.1l0.2,0.1
			c1.2,0.8,2.3,1.6,3.6,2.1c11.5,5,24.7,8.1,39.1,9.3c0.7,0,1.3-0.1,1.8-0.1c1.2,0,2.2-0.1,3.2-0.2l0.2,0c1-0.1,1.4-0.3,1.6-0.7
			c0.1-0.4-0.2-0.7-1-1.3l-0.2-0.2c-1.6-1.1-3.5-2.1-6-3c-1.6-0.6-2.2-1.7-1.7-3.2c0.1-0.4,0.2-0.7,0.3-1.1c0.1-0.6,0.3-1.2,0.5-1.8
			c1.8-5,0.4-9-4.8-13c-2.8-2.2-6.2-3.5-10-3.9c-9.2-1-14.2,2.5-16.3,11.4c0,0.2-0.1,0.3-0.2,0.5c-0.1,0.1-0.1,0.3-0.1,0.4
			c0,0.9-0.3,1.6-0.8,2.1c-0.7,0.7-1.7,0.7-2.5,0.6l-0.7,0C812.8,76.9,812,76.9,811.2,76.9"/>
	</g>
	<g>
		<text transform="matrix(1 0 0 1 798.8394 164.9092)" class="st1 st2">O</text>
		<text transform="matrix(1 0 0 1 815.8608 164.9092)" class="st1 st2">n</text>
		<text transform="matrix(1 0 0 1 828.73 164.9092)" class="st1 st2">l</text>
		<text transform="matrix(1 0 0 1 833.9399 164.9092)" class="st1 st2">i</text>
		<text transform="matrix(1 0 0 1 839.0601 164.9092)" class="st1 st2">n</text>
		<text transform="matrix(1 0 0 1 851.9292 164.9092)" class="st1 st2">e</text>
		<text transform="matrix(1 0 0 1 774.8599 191.5264)" class="st1 st2">c</text>
		<text transform="matrix(1 0 0 1 787.1675 191.5264)" class="st1 st2">o</text>
		<text transform="matrix(1 0 0 1 800.3267 191.5264)" class="st1 st2">m</text>
		<text transform="matrix(1 0 0 1 819.9106 191.5264)" class="st1 st2">m</text>
		<text transform="matrix(1 0 0 1 839.4937 191.5264)" class="st1 st2">u</text>
		<text transform="matrix(1 0 0 1 852.3618 191.5264)" class="st1 st2">n</text>
		<text transform="matrix(1 0 0 1 865.23 191.5264)" class="st1 st2">i</text>
		<text transform="matrix(1 0 0 1 870.3511 191.5264)" class="st1 st2">t</text>
		<text transform="matrix(1 0 0 1 877.5376 191.5264)" class="st1 st2">y</text>
	</g>
</g>
<g>
	<g>
		<defs>
			<rect id="SVGID_21_" x="89.7" y="310.2" width="74" height="45.7"/>
		</defs>
		<clipPath id="SVGID_22_">
			<use xlink:href="#SVGID_21_"  style="overflow:visible;"/>
		</clipPath>
		<path class="st19" d="M101.8,334.2V323c0-0.5,0.4-0.8,0.8-0.8h48.1c0.5,0,0.8,0.4,0.8,0.8v11.2h6.5l3.9-23.4
			c0.1-0.5,0.5-0.8,1-0.7c0.5,0.1,0.8,0.5,0.7,1l-4,23.9l4,19.9c0.1,0.4-0.2,0.9-0.7,1c-0.1,0-0.1,0-0.2,0c-0.4,0-0.7-0.3-0.8-0.7
			l-3.9-19.4h-6.5v19.2c0,0.5-0.4,0.8-0.8,0.8c-0.5,0-0.8-0.4-0.8-0.8v-19.2h-10.4c0,4,0.1,18.3,0,19.3c-0.1,0.5-0.5,0.8-0.9,0.7
			c-0.5-0.1-0.8-0.5-0.7-0.9c0.1-0.8,0-12.3,0-19.9c0-0.2,0.1-0.4,0.2-0.6c0.2-0.2,0.4-0.2,0.6-0.2h11.2v-10.4h-46.4v10.4h11.2
			c0.2,0,0.4,0.1,0.6,0.2c0.2,0.2,0.2,0.4,0.2,0.6c0,7.6-0.1,19.2,0,19.9c0.1,0.5-0.3,0.9-0.7,0.9c-0.5,0.1-0.9-0.3-0.9-0.7
			c-0.1-1,0-15.3,0-19.3h-10.4v19.2c0,0.5-0.4,0.8-0.8,0.8c-0.5,0-0.8-0.4-0.8-0.8v-19.2h-6.5l-3.9,19.4c-0.1,0.4-0.4,0.7-0.8,0.7
			c-0.1,0-0.1,0-0.2,0c-0.5-0.1-0.7-0.5-0.7-1l4-19.9l-4-23.9c-0.1-0.5,0.2-0.9,0.7-1c0.5-0.1,0.9,0.2,1,0.7l3.9,23.4H101.8z"/>
	</g>
	<g>
		<text transform="matrix(1 0 0 1 49.2075 439.0904)" class="st1 st2">M</text>
		<text transform="matrix(1 0 0 1 69.1948 439.0904)" class="st1 st2">e</text>
		<text transform="matrix(1 0 0 1 81.9965 439.0904)" class="st1 st2">e</text>
		<text transform="matrix(1 0 0 1 94.7973 439.0904)" class="st1 st2">t</text>
		<text transform="matrix(1 0 0 1 101.9838 439.0904)" class="st1 st2">i</text>
		<text transform="matrix(1 0 0 1 107.1049 439.0904)" class="st1 st2">n</text>
		<text transform="matrix(1 0 0 1 119.9731 439.0904)" class="st1 st2">g</text>
		<text transform="matrix(1 0 0 1 133.4477 439.0904)" class="st1 st2"> </text>
		<text transform="matrix(1 0 0 1 138.6801 439.0904)" class="st1 st2">r</text>
		<text transform="matrix(1 0 0 1 146.9672 439.0904)" class="st1 st2">o</text>
		<text transform="matrix(1 0 0 1 160.1274 439.0904)" class="st1 st2">o</text>
		<text transform="matrix(1 0 0 1 173.2875 439.0904)" class="st1 st2">m</text>
		<text transform="matrix(1 0 0 1 192.8705 439.0904)" class="st1 st2">s</text>
	</g>
</g>
<g>
	<g>
		<defs>
			<rect id="SVGID_23_" x="332.9" y="308.9" width="59.1" height="69.9"/>
		</defs>
		<clipPath id="SVGID_24_">
			<use xlink:href="#SVGID_23_"  style="overflow:visible;"/>
		</clipPath>
		<g class="st20">
			<g>
				<defs>
					<rect id="SVGID_25_" x="346.1" y="308.5" width="18.8" height="15.5"/>
				</defs>
				<clipPath id="SVGID_26_">
					<use xlink:href="#SVGID_25_"  style="overflow:visible;"/>
				</clipPath>
				<defs>
					<filter id="Adobe_OpacityMaskFilter_2_" filterUnits="userSpaceOnUse" x="346.1" y="308.5" width="18.8" height="15.5">
						
							<feColorMatrix  type="matrix" values="-1 0 0 0 1  0 -1 0 0 1  0 0 -1 0 1  0 0 0 1 0" color-interpolation-filters="sRGB" result="source"/>
						<feFlood  style="flood-color:white;flood-opacity:1" result="back"/>
						<feBlend  in="source" in2="back" mode="normal"/>
					</filter>
				</defs>
				<mask maskUnits="userSpaceOnUse" x="346.1" y="308.5" width="18.8" height="15.5" id="SVGID_27_">
					<g class="st21">
						<rect x="346.1" y="308.5" class="st22" width="18.8" height="15.5"/>
					</g>
				</mask>
				<g class="st23">
					<g>
						<defs>
							<rect id="SVGID_28_" x="346.1" y="308.5" width="18.8" height="15.5"/>
						</defs>
						<clipPath id="SVGID_29_">
							<use xlink:href="#SVGID_28_"  style="overflow:visible;"/>
						</clipPath>
						<g class="st24">
							<defs>
								<rect id="SVGID_30_" x="346.1" y="308.5" width="18.8" height="15.5"/>
							</defs>
							<clipPath id="SVGID_31_">
								<use xlink:href="#SVGID_30_"  style="overflow:visible;"/>
							</clipPath>
							<path class="st25" d="M349.2,323.1c-0.3,0-0.5-0.1-0.7-0.4c-1-1.5-1.5-3.2-1.5-5c0-4.9,4-8.8,8.8-8.8c4.9,0,8.8,4,8.8,8.8
								c0,1.8-0.5,3.5-1.5,5c-0.3,0.4-0.8,0.5-1.2,0.2s-0.5-0.8-0.2-1.2c0.8-1.2,1.2-2.6,1.2-4c0-4-3.2-7.2-7.2-7.2
								c-4,0-7.2,3.2-7.2,7.2c0,1.4,0.4,2.8,1.2,4c0.3,0.4,0.2,0.9-0.2,1.2C349.5,323,349.3,323.1,349.2,323.1"/>
						</g>
					</g>
				</g>
				<defs>
					<filter id="Adobe_OpacityMaskFilter_3_" filterUnits="userSpaceOnUse" x="346.1" y="308.5" width="18.8" height="15.5">
						<feColorMatrix  type="matrix" values="1 0 0 0 0  0 1 0 0 0  0 0 1 0 0  0 0 0 1 0"/>
					</filter>
				</defs>
				<mask maskUnits="userSpaceOnUse" x="346.1" y="308.5" width="18.8" height="15.5" id="SVGID_32_">
					<g class="st26">
						<g class="st12">
							<g>
								<defs>
									<rect id="SVGID_33_" x="346.1" y="308.5" width="18.8" height="15.5"/>
								</defs>
								<clipPath id="SVGID_34_" class="st22">
									<use xlink:href="#SVGID_33_"  style="overflow:visible;"/>
								</clipPath>
								<polygon class="st27" points="375.1,327.2 346.2,327.2 346.2,309.5 404,309.5 404,327.2 								"/>
							</g>
						</g>
					</g>
				</mask>
				<g class="st28">
					<g>
						<defs>
							<rect id="SVGID_35_" x="346.1" y="308.5" width="18.8" height="15.5"/>
						</defs>
						<clipPath id="SVGID_36_">
							<use xlink:href="#SVGID_35_"  style="overflow:visible;"/>
						</clipPath>
						<g class="st29">
							<defs>
								<rect id="SVGID_37_" x="346.1" y="308.5" width="18.8" height="15.5"/>
							</defs>
							<clipPath id="SVGID_38_">
								<use xlink:href="#SVGID_37_"  style="overflow:visible;"/>
							</clipPath>
							<path class="st30" d="M349.2,323.1c-0.3,0-0.5-0.1-0.7-0.4c-1-1.5-1.5-3.2-1.5-5c0-4.9,4-8.8,8.8-8.8c4.9,0,8.8,4,8.8,8.8
								c0,1.8-0.5,3.5-1.5,5c-0.3,0.4-0.8,0.5-1.2,0.2s-0.5-0.8-0.2-1.2c0.8-1.2,1.2-2.6,1.2-4c0-4-3.2-7.2-7.2-7.2
								c-4,0-7.2,3.2-7.2,7.2c0,1.4,0.4,2.8,1.2,4c0.3,0.4,0.2,0.9-0.2,1.2C349.5,323,349.3,323.1,349.2,323.1"/>
						</g>
					</g>
				</g>
			</g>
		</g>
		<path class="st31" d="M355.8,378.7c-10,0-18.1-9.8-18.5-22.1c-2.5-0.4-4.4-2.6-4.4-5.2c0-2.9,2.4-5.2,5.2-5.2c0,0,3.3-0.4,9.7-6.7
			c6.4-6.4,7.1-10.5,7.1-10.5c0.1-0.4,0.4-0.7,0.8-0.7c0.4,0,0.8,0.2,0.9,0.6c0,0,1.3,4.8,7.1,10.6c5.4,5.4,9.2,6.6,9.8,6.7
			c2.6,0.1,4.7,2,5.1,4.5c3.9-3,6.6-5.4,6.7-5.5c0.3-0.3,0.9-0.3,1.2,0.1c0.3,0.3,0.3,0.9-0.1,1.2c-0.4,0.4-5.7,4.9-12.1,9.6
			C374.2,368.6,365.9,378.7,355.8,378.7 M355.9,331.4c-0.9,2-2.8,5.2-6.8,9.2c-6.8,6.8-10.4,7.2-10.8,7.2c-2,0-3.6,1.6-3.6,3.6
			c0,2,1.6,3.6,3.6,3.6c0.5,0,0.8,0.4,0.8,0.8c0,11.7,7.5,21.2,16.8,21.2c8.9,0,16.2-8.8,16.8-19.8c-5.7,3.9-11.9,7.7-16.6,8.7
			c-0.4,0.1-0.9-0.2-1-0.6c-0.1-0.4,0.2-0.9,0.6-1c5.9-1.2,14.9-7.4,21.5-12.4c-0.1-0.1-0.1-0.2-0.1-0.4c0-2-1.6-3.6-3.6-3.6
			c-0.1,0-0.1,0-0.2,0c-0.2,0-4.5-1-10.7-7.2C358.8,336.9,356.8,333.5,355.9,331.4"/>
		<path class="st31" d="M360.8,364.3c0,1.7-2.2,3-5,3c-2.8,0-5-1.3-5-3c0-1.7,2.2-3,5-3C358.6,361.3,360.8,362.6,360.8,364.3"/>
		<path class="st31" d="M351.8,349.8c0,1.1-0.9,2-2,2c-1.1,0-2-0.9-2-2s0.9-2,2-2C350.9,347.8,351.8,348.7,351.8,349.8"/>
		<path class="st31" d="M363.8,349.8c0,1.1-0.9,2-2,2c-1.1,0-2-0.9-2-2s0.9-2,2-2C362.9,347.8,363.8,348.7,363.8,349.8"/>
		<g class="st20">
			<g>
				<defs>
					<rect id="SVGID_39_" x="332.9" y="319.6" width="58.7" height="35.4"/>
				</defs>
				<clipPath id="SVGID_40_">
					<use xlink:href="#SVGID_39_"  style="overflow:visible;"/>
				</clipPath>
				<defs>
					<filter id="Adobe_OpacityMaskFilter_4_" filterUnits="userSpaceOnUse" x="332.9" y="319.6" width="58.8" height="35.4">
						
							<feColorMatrix  type="matrix" values="-1 0 0 0 1  0 -1 0 0 1  0 0 -1 0 1  0 0 0 1 0" color-interpolation-filters="sRGB" result="source"/>
						<feFlood  style="flood-color:white;flood-opacity:1" result="back"/>
						<feBlend  in="source" in2="back" mode="normal"/>
					</filter>
				</defs>
				<mask maskUnits="userSpaceOnUse" x="332.9" y="319.6" width="58.8" height="35.4" id="SVGID_41_">
					<g class="st32">
						<rect x="332.9" y="319.6" class="st33" width="58.7" height="35.4"/>
					</g>
				</mask>
				<g class="st34">
					<g>
						<defs>
							<rect id="SVGID_42_" x="332.9" y="319.6" width="58.7" height="35.4"/>
						</defs>
						<clipPath id="SVGID_43_">
							<use xlink:href="#SVGID_42_"  style="overflow:visible;"/>
						</clipPath>
						<g class="st35">
							<defs>
								<rect id="SVGID_44_" x="332.9" y="319.6" width="58.7" height="35.4"/>
							</defs>
							<clipPath id="SVGID_45_">
								<use xlink:href="#SVGID_44_"  style="overflow:visible;"/>
							</clipPath>
							<path class="st36" d="M382.9,354.7c-0.5,0-0.8-0.4-0.8-0.8v-16c0-0.5,0.4-0.8,0.8-0.8c4.9,0,8.8,4,8.8,8.8
								C391.7,350.7,387.7,354.7,382.9,354.7 M383.7,338.7V353c3.6-0.4,6.4-3.5,6.4-7.1C390,342.1,387.3,339.1,383.7,338.7
								 M377.8,353c-0.5,0-0.8-0.4-0.8-0.8v-10.3c0-10.9-9.5-19.7-21.2-19.7c-11.7,0-21.2,8.9-21.2,19.7v10.3c0,0.5-0.4,0.8-0.8,0.8
								c-0.5,0-0.8-0.4-0.8-0.8v-10.3c0-11.8,10.3-21.4,22.9-21.4c12.6,0,22.9,9.6,22.9,21.4v10.3C378.7,352.6,378.3,353,377.8,353"
								/>
						</g>
					</g>
				</g>
				<defs>
					<filter id="Adobe_OpacityMaskFilter_5_" filterUnits="userSpaceOnUse" x="332.9" y="319.6" width="58.8" height="35.4">
						<feColorMatrix  type="matrix" values="1 0 0 0 0  0 1 0 0 0  0 0 1 0 0  0 0 0 1 0"/>
					</filter>
				</defs>
				<mask maskUnits="userSpaceOnUse" x="332.9" y="319.6" width="58.8" height="35.4" id="SVGID_46_">
					<g class="st37">
						<g class="st12">
							<g>
								<defs>
									<rect id="SVGID_47_" x="332.9" y="319.6" width="58.7" height="35.4"/>
								</defs>
								<clipPath id="SVGID_48_" class="st33">
									<use xlink:href="#SVGID_47_"  style="overflow:visible;"/>
								</clipPath>
								<rect x="332.9" y="320.5" class="st38" width="58.8" height="34.2"/>
							</g>
						</g>
					</g>
				</mask>
				<g class="st39">
					<g>
						<defs>
							<rect id="SVGID_49_" x="332.9" y="319.6" width="58.7" height="35.4"/>
						</defs>
						<clipPath id="SVGID_50_">
							<use xlink:href="#SVGID_49_"  style="overflow:visible;"/>
						</clipPath>
						<g class="st40">
							<defs>
								<rect id="SVGID_51_" x="332.9" y="319.6" width="58.7" height="35.4"/>
							</defs>
							<clipPath id="SVGID_52_">
								<use xlink:href="#SVGID_51_"  style="overflow:visible;"/>
							</clipPath>
							<path class="st41" d="M382.9,354.7c-0.5,0-0.8-0.4-0.8-0.8v-16c0-0.5,0.4-0.8,0.8-0.8c4.9,0,8.8,4,8.8,8.8
								C391.7,350.7,387.7,354.7,382.9,354.7 M383.7,338.7V353c3.6-0.4,6.4-3.5,6.4-7.1C390,342.1,387.3,339.1,383.7,338.7
								 M377.8,353c-0.5,0-0.8-0.4-0.8-0.8v-10.3c0-10.9-9.5-19.7-21.2-19.7c-11.7,0-21.2,8.9-21.2,19.7v10.3c0,0.5-0.4,0.8-0.8,0.8
								c-0.5,0-0.8-0.4-0.8-0.8v-10.3c0-11.8,10.3-21.4,22.9-21.4c12.6,0,22.9,9.6,22.9,21.4v10.3C378.7,352.6,378.3,353,377.8,353"
								/>
						</g>
					</g>
				</g>
			</g>
		</g>
	</g>
	<g>
		<text transform="matrix(1 0 0 1 316.1783 440.3381)" class="st1 st2">R</text>
		<text transform="matrix(1 0 0 1 331.4723 440.3381)" class="st1 st2">e</text>
		<text transform="matrix(1 0 0 1 344.274 440.3381)" class="st1 st2">c</text>
		<text transform="matrix(1 0 0 1 356.5807 440.3381)" class="st1 st2">e</text>
		<text transform="matrix(1 0 0 1 369.3815 440.3381)" class="st1 st2">p</text>
		<text transform="matrix(1 0 0 1 382.7887 440.3381)" class="st1 st2">t</text>
		<text transform="matrix(1 0 0 1 389.9752 440.3381)" class="st1 st2">i</text>
		<text transform="matrix(1 0 0 1 395.0963 440.3381)" class="st1 st2">e</text>
	</g>
</g>
<g>
	<g>
		<defs>
			<rect id="SVGID_53_" x="548.3" y="313.1" width="94" height="39.9"/>
		</defs>
		<clipPath id="SVGID_54_">
			<use xlink:href="#SVGID_53_"  style="overflow:visible;"/>
		</clipPath>
		<path class="st42" d="M624.1,352.9h-57.6c-6.7,0-12.2-5.4-12.4-12c-3.5-1.1-5.8-3.3-5.8-5.9c0-2.6,2.2-4.9,5.8-5.9v-3.6
			c0-6.8,5.5-12.3,12.4-12.3c3.8,0,7.3,1.7,9.6,4.5c2.3-2.9,5.8-4.5,9.6-4.5c3.8,0,7.3,1.7,9.6,4.5c2.3-2.9,5.8-4.5,9.6-4.5
			c3.8,0,7.3,1.7,9.6,4.5c2.3-2.9,5.8-4.5,9.6-4.5c6.8,0,12.4,5.5,12.4,12.3v3.6c3.5,1.1,5.8,3.3,5.8,5.9c0,2.6-2.2,4.9-5.8,5.9
			C636.3,347.5,630.8,352.9,624.1,352.9z M555.8,341.3c0.3,5.6,5,10,10.7,10h57.6c5.7,0,10.4-4.4,10.7-10c-0.8,0.1-1.7,0.2-2.6,0.2
			c-2.8,0-5.5-0.7-7.4-2.1c-1.9,1.3-4.5,2.1-7.4,2.1s-5.5-0.7-7.4-2.1c-1.9,1.3-4.5,2.1-7.4,2.1c-2.8,0-5.5-0.7-7.4-2.1
			c-1.9,1.3-4.5,2.1-7.4,2.1c-2.8,0-5.5-0.7-7.4-2.1c-1.9,1.3-4.5,2.1-7.4,2.1c-2.8,0-5.5-0.7-7.4-2.1c-1.9,1.3-4.5,2.1-7.4,2.1
			C557.5,341.5,556.6,341.4,555.8,341.3z M626.1,338.3c1.6,1,3.8,1.5,6.1,1.5c1.1,0,2.2-0.1,3.3-0.4l0,0c3.1-0.8,5.1-2.6,5.1-4.5
			c0-1.7-1.6-3.3-4.1-4.2v3.1h-9.1c0.1,0.4,0.1,0.7,0.1,1.1c0,0.8-0.2,1.6-0.6,2.3c0,0,0,0,0,0C626.6,337.6,626.3,337.9,626.1,338.3
			z M611.3,338.3c1.6,1,3.8,1.5,6.1,1.5c2.7,0,5.3-0.8,6.8-2.1l0,0c0.5-0.4,0.9-0.8,1.1-1.3v0c0.3-0.5,0.4-1,0.4-1.5
			c0-0.4-0.1-0.7-0.2-1.1h-13c0.1,0.4,0.1,0.7,0.1,1.1c0,0.8-0.2,1.6-0.6,2.3c0,0,0,0,0,0C611.8,337.6,611.6,337.9,611.3,338.3z
			 M596.6,338.3c1.6,1,3.8,1.5,6.1,1.5c2.7,0,5.3-0.8,6.8-2.1l0,0c0.5-0.4,0.9-0.8,1.1-1.3h0c0.3-0.5,0.4-1,0.4-1.5
			c0-0.4-0.1-0.7-0.2-1.1h-13c0.1,0.4,0.1,0.7,0.1,1.1c0,0.8-0.2,1.6-0.6,2.3c0,0,0,0,0,0C597.1,337.6,596.9,337.9,596.6,338.3z
			 M581.8,338.3c1.6,1,3.8,1.5,6.1,1.5c2.7,0,5.3-0.8,6.8-2.1l0,0c0.5-0.4,0.9-0.8,1.1-1.3l0,0c0.3-0.5,0.4-1,0.4-1.5
			c0-0.4-0.1-0.7-0.2-1.1h-13c0.1,0.4,0.1,0.7,0.1,1.1c0,0.8-0.2,1.6-0.6,2.3l0,0C582.3,337.6,582.1,337.9,581.8,338.3z
			 M567.1,338.3c1.6,1,3.8,1.5,6.1,1.5c2.7,0,5.3-0.8,6.8-2.1l0,0c0.5-0.4,0.9-0.8,1.1-1.3c0,0,0,0,0,0c0.3-0.5,0.4-1,0.4-1.5
			c0-0.4-0.1-0.7-0.2-1.1h-13c0.1,0.4,0.1,0.7,0.1,1.1c0,0.8-0.2,1.6-0.6,2.3l0,0C567.6,337.6,567.3,337.9,567.1,338.3z
			 M555.1,339.4L555.1,339.4c1,0.3,2.1,0.4,3.3,0.4c2.7,0,5.2-0.8,6.8-2.1l0,0c0.5-0.4,0.9-0.8,1.1-1.3v0c0.3-0.5,0.4-1,0.4-1.5
			c0-0.4-0.1-0.7-0.2-1.1h-12.5v-3.1c-2.5,0.9-4.1,2.5-4.1,4.2C550,336.8,552.1,338.6,555.1,339.4z M624.6,332.2h10.1v-6.8
			c0-5.8-4.8-10.6-10.7-10.6c-3.6,0-6.9,1.8-8.9,4.7c0,0,0,0,0,0c-1.2,1.7-1.8,3.8-1.8,5.8c0,0.5-0.4,0.8-0.8,0.8
			c-0.5,0-0.8-0.4-0.8-0.8c0-2.2,0.6-4.4,1.8-6.3c-2-2.7-5.2-4.3-8.6-4.3c-3.6,0-6.9,1.8-8.9,4.7h0c-0.6,0.9-1.1,1.9-1.4,3v0
			c-0.3,0.9-0.4,1.9-0.4,2.8c0,0.5-0.4,0.8-0.8,0.8c-0.5,0-0.8-0.4-0.8-0.8c0-1.1,0.2-2.2,0.5-3.3c0,0,0,0,0,0c0.3-1,0.7-2.1,1.3-3
			c-2-2.7-5.2-4.3-8.6-4.3c-3.6,0-6.9,1.8-8.9,4.7l0,0c-1.2,1.7-1.8,3.8-1.8,5.8c0,0.5-0.4,0.8-0.8,0.8c-0.5,0-0.8-0.4-0.8-0.8
			c0-2.2,0.6-4.4,1.8-6.3c-2-2.7-5.2-4.3-8.6-4.3c-5.9,0-10.7,4.8-10.7,10.6v6.8H624.6z"/>
	</g>
	<g>
		<text transform="matrix(1 0 0 1 525.0819 436.1792)" class="st1 st2">L</text>
		<text transform="matrix(1 0 0 1 536.9628 436.1792)" class="st1 st2">u</text>
		<text transform="matrix(1 0 0 1 549.8309 436.1792)" class="st1 st2">n</text>
		<text transform="matrix(1 0 0 1 562.6991 436.1792)" class="st1 st2">c</text>
		<text transform="matrix(1 0 0 1 575.0057 436.1792)" class="st1 st2">h </text>
		<text transform="matrix(1 0 0 1 593.0839 436.1792)" class="st1 st2">s</text>
		<text transform="matrix(1 0 0 1 604.4481 436.1792)" class="st1 st2">e</text>
		<text transform="matrix(1 0 0 1 617.2489 436.1792)" class="st1 st2">r</text>
		<text transform="matrix(1 0 0 1 625.536 436.1792)" class="st1 st2">v</text>
		<text transform="matrix(1 0 0 1 636.0917 436.1792)" class="st1 st2">i</text>
		<text transform="matrix(1 0 0 1 641.2118 436.1792)" class="st1 st2">c</text>
		<text transform="matrix(1 0 0 1 653.5184 436.1792)" class="st1 st2">e</text>
	</g>
</g>
<g>
	<g>
		<defs>
			<rect id="SVGID_55_" x="793.5" y="308.9" width="78.2" height="58.2"/>
		</defs>
		<clipPath id="SVGID_56_">
			<use xlink:href="#SVGID_55_"  style="overflow:visible;"/>
		</clipPath>
		<path class="st43" d="M862.4,366.7h-30.1c-3.8,0-6.8-3.1-6.8-6.8c0-1.1,0.3-2.2,0.8-3.2h-32.8v-47.8h25.3l4,6h36.5v34.7
			c1-0.4,2.1-0.6,3.2-0.6c4.9,0,8.8,4,8.8,8.8C871.3,362.7,867.3,366.7,862.4,366.7z M828.5,356.4c-0.9,0.9-1.3,2.2-1.3,3.5
			c0,2.9,2.3,5.2,5.2,5.2h30.1c4,0,7.2-3.2,7.2-7.2c0-4-3.2-7.2-7.2-7.2c-1.3,0-2.5,0.3-3.6,1l0,0c-0.1,0.1-0.2,0.1-0.3,0.2l-1,0.6
			l-0.3-1.2c-1.2-5.1-5.7-8.6-10.9-8.6c-6.2,0-11.2,5-11.2,11.2c0,0.1,0,0.1,0,0.2l0.1,1.4l-1.2-0.4c-0.6-0.2-1.2-0.3-1.7-0.3
			C830.9,354.7,829.5,355.3,828.5,356.4L828.5,356.4z M795.1,355h32.4c1.6-1.6,3.8-2.3,6-1.9c0.4-6.8,6-12.1,12.8-12.1
			c4.8,0,9,2.6,11.2,6.5v-30.9h-35.7l-4-6h-22.8V355z"/>
	</g>
	<g>
		<text transform="matrix(1 0 0 1 770.335 413.7209)" class="st1 st2">S</text>
		<text transform="matrix(1 0 0 1 785.0664 413.7209)" class="st1 st2">har</text>
		<text transform="matrix(1 0 0 1 818.6191 413.7209)" class="st1 st2">e</text>
		<text transform="matrix(1 0 0 1 831.4199 413.7209)" class="st1 st2">d</text>
		<text transform="matrix(1 0 0 1 844.8721 413.7209)" class="st1 st2"> </text>
		<text transform="matrix(1 0 0 1 850.1055 413.7209)" class="st1 st2">d</text>
		<text transform="matrix(1 0 0 1 863.5576 413.7209)" class="st1 st2">ata</text>
		<text transform="matrix(1 0 0 1 793.624 440.3381)" class="st1 st2">s</text>
		<text transform="matrix(1 0 0 1 804.9883 440.3381)" class="st1 st2">t</text>
		<text transform="matrix(1 0 0 1 812.1748 440.3381)" class="st1 st2">o</text>
		<text transform="matrix(1 0 0 1 825.334 440.3381)" class="st1 st2">r</text>
		<text transform="matrix(1 0 0 1 833.6221 440.3381)" class="st1 st2">ag</text>
		<text transform="matrix(1 0 0 1 859.5156 440.3381)" class="st1 st2">e</text>
	</g>
</g>
<g>
	<g>
		<defs>
			<rect id="SVGID_57_" x="85.2" y="557.7" width="82.3" height="69.9"/>
		</defs>
		<clipPath id="SVGID_58_">
			<use xlink:href="#SVGID_57_"  style="overflow:visible;"/>
		</clipPath>
		<path class="st44" d="M147.5,627.5c-6.4,0-11.5-5.2-11.5-11.5c0-3.9,1.9-7.3,4.9-9.4l-4.2-6.9l-6.2,16.7c-0.1,0.3-0.3,0.5-0.6,0.5
			c-0.3,0.1-0.6,0-0.8-0.2l-17.2-17.2l-2.3,6.2c4,1.8,6.7,5.8,6.7,10.5c0,6.4-5.2,11.5-11.5,11.5c-6.4,0-11.5-5.2-11.5-11.5
			c0-6.4,5.2-11.5,11.5-11.5c1.1,0,2.2,0.2,3.3,0.5l6.2-16.6h-9.5c-0.5,0-0.8-0.4-0.8-0.8s0.4-0.8,0.8-0.8h10.7
			c0.3,0,0.5,0.1,0.7,0.4c0.2,0.2,0.2,0.5,0.1,0.8l-3.6,9.6h23.2l3.4-9h-5.9c-0.5,0-0.8-0.4-0.8-0.8s0.4-0.8,0.8-0.8h7.1h0h3.5
			c0.5,0,0.8,0.4,0.8,0.8s-0.4,0.8-0.8,0.8h-3l-3.5,9.3c0,0,0,0.1,0.1,0.1l4.8,8c1.6-0.8,3.3-1.2,5.2-1.2c6.4,0,11.5,5.2,11.5,11.5
			C159,622.4,153.8,627.5,147.5,627.5z M141.7,608c-2.5,1.8-4.1,4.7-4.1,8c0,5.4,4.4,9.9,9.9,9.9s9.9-4.4,9.9-9.9s-4.4-9.9-9.9-9.9
			c-1.6,0-3,0.4-4.3,1l5.1,8.4c0.2,0.4,0.1,0.9-0.3,1.1c-0.4,0.2-0.9,0.1-1.1-0.3L141.7,608z M104.7,606.2c-5.4,0-9.9,4.4-9.9,9.9
			c0,5.4,4.4,9.9,9.9,9.9c5.4,0,9.9-4.4,9.9-9.9c0-3.9-2.3-7.3-5.6-8.9l-3.4,9.2c-0.2,0.4-0.6,0.6-1.1,0.5c-0.4-0.2-0.6-0.6-0.5-1.1
			l3.4-9.2C106.5,606.3,105.6,606.2,104.7,606.2z M113.9,599l15.5,15.5l5.8-15.5H113.9z"/>
		<path class="st44" d="M96,596.6H86c-0.5,0-0.8-0.4-0.8-0.8v-8.4c0-0.5,0.4-0.8,0.8-0.8h1.2l0-2c0-2.1,1.7-3.8,3.8-3.8
			c2.1,0,3.8,1.7,3.8,3.8v2H96c0.5,0,0.8,0.4,0.8,0.8v8.4C96.9,596.3,96.5,596.6,96,596.6z M86.9,595h8.4v-6.7h-8.4V595z
			 M88.9,586.6h4.3v-2c0-1.2-1-2.2-2.2-2.2c-1.2,0-2.2,1-2.2,2.2L88.9,586.6z M166.2,575.4c-0.1,0-0.2,0-0.3-0.1l-39.8-15.9
			l-39.8,15.9c-0.4,0.2-0.9,0-1.1-0.5c-0.2-0.4,0-0.9,0.5-1.1l40.1-16c0.2-0.1,0.4-0.1,0.6,0l40.1,16c0.4,0.2,0.6,0.7,0.5,1.1
			C166.8,575.2,166.5,575.4,166.2,575.4z"/>
	</g>
	<g>
		<text transform="matrix(1 0 0 1 52.071 689.1498)" class="st1 st2">F</text>
		<text transform="matrix(1 0 0 1 64.8268 689.1498)" class="st1 st2">i</text>
		<text transform="matrix(1 0 0 1 69.947 689.1498)" class="st1 st2">e</text>
		<text transform="matrix(1 0 0 1 82.7477 689.1498)" class="st1 st2">t</text>
		<text transform="matrix(1 0 0 1 89.9352 689.1498)" class="st1 st2">s</text>
		<text transform="matrix(1 0 0 1 101.2975 689.1498)" class="st1 st2">e</text>
		<text transform="matrix(1 0 0 1 114.0993 689.1498)" class="st1 st2">n</text>
		<text transform="matrix(1 0 0 1 126.9675 689.1498)" class="st1 st2">s</text>
		<text transform="matrix(1 0 0 1 138.3317 689.1498)" class="st1 st2">t</text>
		<text transform="matrix(1 0 0 1 145.5173 689.1498)" class="st1 st2">al</text>
		<text transform="matrix(1 0 0 1 163.1472 689.1498)" class="st1 st2">l</text>
		<text transform="matrix(1 0 0 1 168.3571 689.1498)" class="st1 st2">i</text>
		<text transform="matrix(1 0 0 1 173.4782 689.1498)" class="st1 st2">n</text>
		<text transform="matrix(1 0 0 1 186.3464 689.1498)" class="st1 st2">g</text>
	</g>
</g>
<g>
	<g>
		<defs>
			<rect id="SVGID_59_" x="328.5" y="557.7" width="66.5" height="69.9"/>
		</defs>
		<clipPath id="SVGID_60_">
			<use xlink:href="#SVGID_59_"  style="overflow:visible;"/>
		</clipPath>
		<path class="st45" d="M382.8,627.6c-6.4,0-11.5-5.2-11.5-11.5c0-3.9,1.9-7.3,4.9-9.4l-4.2-6.9l-6.2,16.7c-0.1,0.3-0.3,0.5-0.6,0.5
			c-0.3,0.1-0.6,0-0.8-0.2l-17.2-17.2l-2.3,6.2c4,1.8,6.7,5.8,6.7,10.5c0,6.4-5.2,11.5-11.5,11.5s-11.5-5.2-11.5-11.5
			c0-6.4,5.2-11.5,11.5-11.5c1.1,0,2.2,0.2,3.3,0.5l6.2-16.6H340c-0.5,0-0.8-0.4-0.8-0.8s0.4-0.8,0.8-0.8h10.7
			c0.3,0,0.5,0.1,0.7,0.4c0.2,0.2,0.2,0.5,0.1,0.8l-3.6,9.6h23.2l3.4-9h-5.9c-0.5,0-0.8-0.4-0.8-0.8s0.4-0.8,0.8-0.8h7.1h0h3.5
			c0.5,0,0.8,0.4,0.8,0.8s-0.4,0.8-0.8,0.8h-3l-3.5,9.3c0,0,0,0.1,0.1,0.1l4.8,8c1.6-0.8,3.3-1.2,5.2-1.2c6.4,0,11.5,5.2,11.5,11.5
			C394.3,622.4,389.1,627.6,382.8,627.6z M377,608.1c-2.5,1.8-4.1,4.7-4.1,8c0,5.4,4.4,9.9,9.9,9.9c5.4,0,9.9-4.4,9.9-9.9
			c0-5.4-4.4-9.9-9.9-9.9c-1.6,0-3,0.4-4.3,1l5.1,8.4c0.2,0.4,0.1,0.9-0.3,1.1c-0.4,0.2-0.9,0.1-1.1-0.3L377,608.1z M340,606.2
			c-5.4,0-9.9,4.4-9.9,9.9c0,5.4,4.4,9.9,9.9,9.9c5.4,0,9.9-4.4,9.9-9.9c0-3.9-2.3-7.3-5.6-8.9l-3.4,9.2c-0.2,0.4-0.6,0.6-1.1,0.5
			c-0.4-0.2-0.6-0.6-0.5-1.1l3.4-9.2C341.8,606.4,341,606.2,340,606.2z M349.2,599.1l15.5,15.5l5.8-15.5H349.2z M341.4,575.5
			c-3.6,0-6.8-2.2-8.2-5.5c-0.1-0.3-0.1-0.5,0.1-0.8c0.2-0.2,0.4-0.4,0.7-0.4h6.6v-4.3h-6.6c-0.3,0-0.5-0.1-0.7-0.4
			c-0.2-0.2-0.2-0.5-0.1-0.8c1.4-3.4,4.6-5.5,8.2-5.5c3.4,0,6.5,1.9,8,5h36.1c0.5,0,0.8,0.4,0.8,0.8v6c0,0.5-0.4,0.8-0.8,0.8h-36.1
			C347.9,573.6,344.8,575.5,341.4,575.5z M335.3,570.5c1.3,2.1,3.6,3.3,6.1,3.3c2.9,0,5.6-1.8,6.7-4.5c0.1-0.3,0.4-0.5,0.8-0.5h35.8
			v-4.3h-35.8c-0.3,0-0.6-0.2-0.8-0.5c-1.1-2.7-3.7-4.5-6.7-4.5c-2.5,0-4.8,1.3-6.1,3.3h6.1c0.5,0,0.8,0.4,0.8,0.8v6
			c0,0.5-0.4,0.8-0.8,0.8H335.3z"/>
	</g>
	<g>
		<text transform="matrix(1 0 0 1 306.3868 689.1498)" class="st1 st2">B</text>
		<text transform="matrix(1 0 0 1 321.8605 689.1498)" class="st1 st2">i</text>
		<text transform="matrix(1 0 0 1 326.9796 689.1498)" class="st1 st2">k</text>
		<text transform="matrix(1 0 0 1 338.7257 689.1498)" class="st1 st2">e</text>
		<text transform="matrix(1 0 0 1 351.5265 689.1498)" class="st1 st2"> </text>
		<text transform="matrix(1 0 0 1 356.7589 689.1498)" class="st1 st2">r</text>
		<text transform="matrix(1 0 0 1 365.047 689.1498)" class="st1 st2">e</text>
		<text transform="matrix(1 0 0 1 377.8478 689.1498)" class="st1 st2">p</text>
		<text transform="matrix(1 0 0 1 391.254 689.1498)" class="st1 st2">ai</text>
		<text transform="matrix(1 0 0 1 408.795 689.1498)" class="st1 st2">r</text>
	</g>
</g>
<g>
	<g>
		<defs>
			<rect id="SVGID_61_" x="554" y="557.7" width="82.3" height="66.5"/>
		</defs>
		<clipPath id="SVGID_62_">
			<use xlink:href="#SVGID_61_"  style="overflow:visible;"/>
		</clipPath>
		<path class="st46" d="M558.6,623.5c-0.2,0-0.4-0.1-0.6-0.2l-3.8-3.8c-0.3-0.3-0.3-0.9,0-1.2l13.2-13.2c0.2-0.2,0.4-0.2,0.6-0.2
			c0.2,0,0.4,0.1,0.6,0.2l3.8,3.8c0.3,0.3,0.3,0.9,0,1.2l-13.2,13.2C559,623.4,558.8,623.5,558.6,623.5z M556,618.9l2.6,2.6l12-12
			l-2.6-2.6L556,618.9z M614.9,611.5c-9.1,0-16.5-9-16.9-20.1c-2.3-0.4-4-2.3-4-4.7c0,0,0,0,0-0.1v-9.4c0-10.8,9.4-19.5,20.9-19.5
			c11.5,0,20.9,8.8,20.9,19.5v9.4c0,0,0,0,0,0c0,2.4-1.8,4.3-4,4.7C631.5,602.5,624,611.5,614.9,611.5z M601.3,599.1
			c2.5,6.4,7.7,10.7,13.6,10.7s11.2-4.4,13.6-10.7c-1.6,1.1-3.8,2.4-6,2.4s-3.4-1.2-4.4-2.3c-0.9-1-1.7-1.7-3.2-1.7
			c-1.5,0-2.3,0.8-3.2,1.7c-1,1.1-2.1,2.3-4.4,2.3S602.8,600.2,601.3,599.1z M614.9,595.8c2.3,0,3.4,1.2,4.4,2.3
			c0.9,1,1.7,1.7,3.2,1.7c3.2,0,6.5-3.2,7-3.7c0.4-1.7,0.6-3.6,0.6-5.5c0-0.5,0.4-0.8,0.8-0.8c1.8,0,3.2-1.4,3.2-3.2
			c0-1.6-1.3-3-2.9-3.2l-6.3,5.8c-0.1,0.1-0.2,0.1-0.2,0.2c0,0.1,0,0.2,0,0.2c0,2.1-1.7,3.8-3.8,3.8c-2.1,0-3.8-1.7-3.8-3.8
			c0-0.1,0-0.1,0-0.2h-4.4c0,0.1,0,0.1,0,0.2c0,2.1-1.7,3.8-3.8,3.8s-3.8-1.7-3.8-3.8c0-0.1,0-0.2,0-0.2c-0.1,0-0.2-0.1-0.2-0.2
			l-6.3-5.8c-1.6,0.2-2.9,1.5-2.9,3.2c0,1.8,1.4,3.2,3.2,3.2c0.5,0,0.8,0.4,0.8,0.8c0,1.9,0.2,3.8,0.6,5.5c0.5,0.5,3.8,3.7,6.9,3.7
			c1.5,0,2.3-0.8,3.2-1.7C611.5,597,612.7,595.8,614.9,595.8z M620.9,587.5c-1.2,0-2.2,1-2.2,2.2c0,1.2,1,2.2,2.2,2.2
			c1.2,0,2.2-1,2.2-2.2C623.1,588.4,622.1,587.5,620.9,587.5z M608.9,587.5c-1.2,0-2.2,1-2.2,2.2c0,1.2,1,2.2,2.2,2.2
			c1.2,0,2.2-1,2.2-2.2C611.1,588.4,610.1,587.5,608.9,587.5z M612.3,587.8h5.3c0.7-1.2,1.9-2,3.4-2c1.4,0,2.6,0.8,3.3,1.9l5.8-5.3
			c-1.6-5.5-4.8-12.9-7.1-12.9c-1.8,0-2.7,0.4-3.6,0.9c-1,0.5-2.2,1.1-4.4,1.1c-2.2,0-3.4-0.6-4.4-1.1c-1-0.5-1.8-0.9-3.6-0.9
			c-2.3,0-5.4,7.4-7.1,12.9l5.8,5.3c0.7-1.1,1.9-1.9,3.3-1.9C610.4,585.8,611.6,586.6,612.3,587.8z M614.9,559.4
			c-10.6,0-19.2,8-19.2,17.9v5.7c0.7-0.6,1.6-1,2.5-1.2c1-3.3,4.5-14.1,8.7-14.1c2.2,0,3.4,0.6,4.4,1.1c1,0.5,1.8,0.9,3.6,0.9
			c1.8,0,2.7-0.4,3.6-0.9c1-0.5,2.2-1.1,4.4-1.1c4.1,0,7.7,10.7,8.7,14.1c1,0.1,1.8,0.5,2.5,1.2v-5.7
			C634.1,567.4,625.5,559.4,614.9,559.4z M577,609.8c-0.2,0-0.4-0.1-0.6-0.2l0,0l-8.4-8.4c-0.2-0.2-0.2-0.4-0.2-0.6v0v0v0v0
			c0,0,0,0,0,0v0v0v0c0,0,0,0,0,0c0.1-2.2,1-4.2,2.6-5.8c3.4-3.4,9.1-3.5,12.5,0c1.7,1.7,2.6,3.9,2.6,6.3c0,2.4-0.9,4.6-2.6,6.3
			C581.3,608.8,579.2,609.7,577,609.8C577,609.8,577,609.8,577,609.8z M569.4,600.2l7.9,7.9c1.6-0.2,3.2-0.9,4.3-2.1h0
			c1.4-1.4,2.1-3.2,2.1-5.1c0-1.9-0.7-3.7-2.1-5.1c-2.8-2.8-7.4-2.8-10.2,0C570.3,597,569.6,598.6,569.4,600.2z M616.9,603.5h-4
			c-0.5,0-0.8-0.4-0.8-0.8c0-0.5,0.4-0.8,0.8-0.8h4c0.5,0,0.8,0.4,0.8,0.8C617.8,603.1,617.4,603.5,616.9,603.5z"/>
	</g>
	<g>
		<text transform="matrix(1 0 0 1 548.9662 689.1496)" class="st1 st2">L</text>
		<text transform="matrix(1 0 0 1 560.8451 689.1496)" class="st1 st2">e</text>
		<text transform="matrix(1 0 0 1 573.6469 689.1496)" class="st1 st2">z</text>
		<text transform="matrix(1 0 0 1 584.1566 689.1496)" class="st1 st2">i</text>
		<text transform="matrix(1 0 0 1 589.2767 689.1496)" class="st1 st2">n</text>
		<text transform="matrix(1 0 0 1 602.1459 689.1496)" class="st1 st2">g</text>
		<text transform="matrix(1 0 0 1 615.6205 689.1496)" class="st1 st2">e</text>
		<text transform="matrix(1 0 0 1 628.4222 689.1496)" class="st1 st2">n</text>
	</g>
</g>
<g>
	<g>
		<defs>
			<rect id="SVGID_63_" x="802" y="557.7" width="60.7" height="64"/>
		</defs>
		<clipPath id="SVGID_64_">
			<use xlink:href="#SVGID_63_"  style="overflow:visible;"/>
		</clipPath>
		<path class="st47" d="M814.8,621.5c-7.7,0-12.9-4.6-12.9-11.5c0-7.1,6-12.9,13.5-12.9c3.5,0,6.8,1.3,9.3,3.6
			c2.9-2,6.5-3.1,10.4-3.1c3.6,0,7.1,1,9.9,2.7c-3-11.5-1.7-24.4-0.5-30.3l-1.1,0.8c-0.7,0.5-1.6,0.5-2.3,0.1l-5.3-1.3
			c-0.6-0.2-1.1-0.6-1.4-1.2c-0.3-0.6-0.4-1.2-0.2-1.9l0,0c-0.1-0.1-0.2-0.3-0.3-0.4c-0.4-0.5-0.5-1.3-0.2-2.2
			c0.6-2.2,3.1-5.4,4.7-6c1.6-0.7,5.4,1,6.5,1.5c1.4,0.7,6.2,3.1,7.1,5.9c0.7,3,1.9,6.9,3.4,11.3c4.5,14,10.7,33.1,4.4,42.6
			c-0.2,0.2-0.4,0.4-0.7,0.4H823C821,620.6,817.2,621.5,814.8,621.5 M815.4,598.8c-6.5,0-11.8,5-11.8,11.2c0,6,4.4,9.8,11.2,9.8
			c2.2,0,5.9-0.9,7.6-1.9c0.1-0.1,0.3-0.1,0.4-0.1h35.6c5.5-9-0.5-27.3-4.8-40.8c-1.4-4.5-2.7-8.3-3.4-11.4
			c-0.4-1.3-2.9-3.3-6.2-4.8c-2.9-1.3-4.8-1.6-5.1-1.5c-1.1,0.4-3.3,3.2-3.8,4.9c-0.1,0.5-0.1,0.7-0.1,0.8c0.1,0.1,0.3,0.3,0.5,0.4
			c0.4,0.2,0.5,0.7,0.3,1.1c-0.1,0.1-0.1,0.2-0.1,0.3c-0.1,0.2,0,0.5,0.1,0.7c0.1,0.1,0.2,0.3,0.4,0.3l5.4,1.4c0.1,0,0.1,0,0.2,0.1
			c0.3,0.1,0.5,0.1,0.7,0l2.9-2c0.3-0.2,0.7-0.2,1,0c0.3,0.2,0.4,0.6,0.3,0.9c-0.8,2.7-4,19.4,0.7,33.9c0.1,0.3,0,0.7-0.3,0.9
			c-0.3,0.2-0.8,0.2-1.1-0.1c-2.7-2.5-6.6-3.9-10.8-3.9c-3.8,0-7.3,1.1-10,3.1c-0.3,0.3-0.8,0.2-1.1-0.1
			C821.8,600,818.7,598.8,815.4,598.8"/>
	</g>
	<text transform="matrix(1 0 0 1 786.6816 662.5326)" class="st1 st2">P</text>
	<text transform="matrix(1 0 0 1 801.0322 662.5326)" class="st1 st2">e</text>
	<text transform="matrix(1 0 0 1 813.832 662.5326)" class="st1 st2">r</text>
	<text transform="matrix(1 0 0 1 822.1201 662.5326)" class="st1 st2">s</text>
	<text transform="matrix(1 0 0 1 833.4834 662.5326)" class="st1 st2">o</text>
	<text transform="matrix(1 0 0 1 846.6436 662.5326)" class="st1 st2">n</text>
	<text transform="matrix(1 0 0 1 859.5117 662.5326)" class="st1 st2">al</text>
	<text transform="matrix(1 0 0 1 771.5928 689.1498)" class="st1 st2">t</text>
	<text transform="matrix(1 0 0 1 778.7783 689.1498)" class="st1 st2">r</text>
	<text transform="matrix(1 0 0 1 787.0664 689.1498)" class="st1 st2">ai</text>
	<text transform="matrix(1 0 0 1 804.6055 689.1498)" class="st1 st2">n</text>
	<text transform="matrix(1 0 0 1 817.4736 689.1498)" class="st1 st2">e</text>
	<text transform="matrix(1 0 0 1 830.2744 689.1498)" class="st1 st2">r</text>
	<text transform="matrix(1 0 0 1 838.5615 689.1498)" class="st1 st2">/</text>
	<text transform="matrix(1 0 0 1 847.9932 689.1498)" class="st1 st2">g</text>
	<text transform="matrix(1 0 0 1 861.4678 689.1498)" class="st1 st2">y</text>
	<text transform="matrix(1 0 0 1 872.6523 689.1498)" class="st1 st2">m</text>
</g>
<g>
	<g>
		<defs>
			<rect id="SVGID_65_" x="76.3" y="806.5" width="98.1" height="66.5"/>
		</defs>
		<clipPath id="SVGID_66_">
			<use xlink:href="#SVGID_65_"  style="overflow:visible;"/>
		</clipPath>
		<path class="st48" d="M145.3,871.5h24v-24h-24V871.5z M157.3,833.4v38.1V833.4z M137.3,835.4h-12c0,0-4,12-16,12
			c-12,0-16-12-16-12s-12,4-16-8c12,0,16,0,20,0c-12-12,0-20,0-20l24,20h16c0,0,2-4,8-4c6,0,8,6,8,6l20,2l-20,2c0,0-2.4,6-8,6
			C139.7,839.4,137.3,835.4,137.3,835.4z"/>
	</g>
	<g>
		<text transform="matrix(1 0 0 1 74.506 937.961)" class="st1 st2">K</text>
		<text transform="matrix(1 0 0 1 89.4855 937.961)" class="st1 st2">i</text>
		<text transform="matrix(1 0 0 1 94.6057 937.961)" class="st1 st2">al</text>
		<text transform="matrix(1 0 0 1 112.2346 937.961)" class="st1 st2">a </text>
		<text transform="matrix(1 0 0 1 129.8869 937.961)" class="st1 st2">p</text>
		<text transform="matrix(1 0 0 1 143.2941 937.961)" class="st1 st2">u</text>
		<text transform="matrix(1 0 0 1 156.1623 937.961)" class="st1 st2">n</text>
		<text transform="matrix(1 0 0 1 169.0314 937.961)" class="st1 st2">t</text>
	</g>
</g>
<g>
	<g>
		<defs>
			<rect id="SVGID_67_" x="327.8" y="806.5" width="66.5" height="68.2"/>
		</defs>
		<clipPath id="SVGID_68_">
			<use xlink:href="#SVGID_67_"  style="overflow:visible;"/>
		</clipPath>
		<path class="st49" d="M328.6,874.3c-0.2,0-0.4-0.1-0.6-0.2c-0.3-0.3-0.3-0.6-0.2-1l17-34c0,0,0,0,0-0.1c0,0,0,0,0,0c0,0,0,0,0,0
			l0,0c0,0,0,0,0,0c0,0,0,0,0,0v0c0,0,0,0,0,0c0,0,0,0,0,0c0.1-0.2,0.3-0.3,0.5-0.3c0,0,0,0,0,0h0v0c0.2,0,0.4,0,0.6,0.1
			c0,0,0,0,0,0c0,0,0,0,0,0s0,0,0,0c0,0,0,0,0,0c0,0,0,0,0,0c0,0,0,0,0,0c0,0,0,0,0,0h0c0,0,0,0,0,0c0.1,0,0.1,0.1,0.1,0.1l17,17
			c0.2,0.2,0.3,0.5,0.2,0.7c0,0.3-0.2,0.5-0.4,0.6l-34,17C328.9,874.3,328.8,874.3,328.6,874.3z M339.6,853.3l-9.1,18.3l11.9-5.9
			c-0.2-0.1-0.3-0.3-0.4-0.5L339.6,853.3z M340.8,850.9l2.8,13.9c0,0.1,0,0.2,0,0.2l6.7-3.4l-5-19.8L340.8,850.9z M347.2,842.2
			l4.7,18.8l9.4-4.7L347.2,842.2z M370.7,860.3c-0.5,0-0.8-0.4-0.8-0.8c0-0.5,0.4-0.8,0.8-0.8c2.9,0,5.2-2.3,5.2-5.2
			c0-2.9-2.3-5.2-5.2-5.2c-0.5,0-0.8-0.4-0.8-0.8c0-0.5,0.4-0.8,0.8-0.8c3.8,0,6.8,3.1,6.8,6.8C377.6,857.2,374.5,860.3,370.7,860.3
			z M390.8,844.3c-1.6,0-2.8-1.3-2.8-2.8s1.3-2.8,2.8-2.8c1.6,0,2.8,1.3,2.8,2.8S392.3,844.3,390.8,844.3z M390.8,840.3
			c-0.6,0-1.2,0.5-1.2,1.2c0,0.6,0.5,1.2,1.2,1.2c0.6,0,1.2-0.5,1.2-1.2C391.9,840.8,391.4,840.3,390.8,840.3z M362.7,840.3
			c-3.8,0-6.8-3.1-6.8-6.8c0-3.8,3.1-6.8,6.8-6.8c0.5,0,0.8,0.4,0.8,0.8c0,0.5-0.4,0.8-0.8,0.8c-2.9,0-5.2,2.3-5.2,5.2
			c0,2.9,2.3,5.2,5.2,5.2c0.5,0,0.8,0.4,0.8,0.8C363.5,839.9,363.2,840.3,362.7,840.3z M382.7,834.3c-3.8,0-6.8-3.1-6.8-6.8
			c0-0.5,0.4-0.8,0.8-0.8c0.5,0,0.8,0.4,0.8,0.8c0,2.9,2.3,5.2,5.2,5.2c2.9,0,5.2-2.3,5.2-5.2c0-0.5,0.4-0.8,0.8-0.8
			c0.5,0,0.8,0.4,0.8,0.8C389.6,831.2,386.5,834.3,382.7,834.3z M338.6,828.2c-1.6,0-2.8-1.3-2.8-2.8c0-1.6,1.3-2.8,2.8-2.8
			c1.6,0,2.8,1.3,2.8,2.8C341.5,827,340.2,828.2,338.6,828.2z M338.6,824.2c-0.6,0-1.2,0.5-1.2,1.2c0,0.6,0.5,1.2,1.2,1.2
			s1.2-0.5,1.2-1.2C339.8,824.8,339.3,824.2,338.6,824.2z M360.7,818.2c-0.5,0-0.8-0.4-0.8-0.8c0-2.9-2.3-5.2-5.2-5.2
			c-2.9,0-5.2,2.3-5.2,5.2c0,0.5-0.4,0.8-0.8,0.8c-0.5,0-0.8-0.4-0.8-0.8c0-3.8,3.1-6.8,6.8-6.8c3.8,0,6.8,3.1,6.8,6.8
			C361.5,817.9,361.1,818.2,360.7,818.2z M376.7,816.2c-2.7,0-4.8-2.2-4.8-4.8c0-2.7,2.2-4.8,4.8-4.8c2.7,0,4.8,2.2,4.8,4.8
			C381.6,814.1,379.4,816.2,376.7,816.2z M376.7,808.2c-1.8,0-3.2,1.4-3.2,3.2c0,1.8,1.4,3.2,3.2,3.2c1.8,0,3.2-1.4,3.2-3.2
			C379.9,809.6,378.5,808.2,376.7,808.2z"/>
	</g>
	<g>
		<text transform="matrix(1 0 0 1 291.0265 937.9606)" class="st1 st2">E</text>
		<text transform="matrix(1 0 0 1 304.7706 937.9606)" class="st1 st2">v</text>
		<text transform="matrix(1 0 0 1 315.3253 937.9606)" class="st1 st2">e</text>
		<text transform="matrix(1 0 0 1 328.1261 937.9606)" class="st1 st2">n</text>
		<text transform="matrix(1 0 0 1 340.9943 937.9606)" class="st1 st2">e</text>
		<text transform="matrix(1 0 0 1 353.795 937.9606)" class="st1 st2">m</text>
		<text transform="matrix(1 0 0 1 373.379 937.9606)" class="st1 st2">e</text>
		<text transform="matrix(1 0 0 1 386.1798 937.9606)" class="st1 st2">n</text>
		<text transform="matrix(1 0 0 1 399.049 937.9606)" class="st1 st2">t</text>
		<text transform="matrix(1 0 0 1 406.2345 937.9606)" class="st1 st2">e</text>
		<text transform="matrix(1 0 0 1 419.0353 937.9606)" class="st1 st2">n</text>
	</g>
</g>
<g>
	<g>
		<defs>
			<rect id="SVGID_69_" x="566" y="806.5" width="58.2" height="69.9"/>
		</defs>
		<clipPath id="SVGID_70_">
			<use xlink:href="#SVGID_69_"  style="overflow:visible;"/>
		</clipPath>
		<path class="st50" d="M623,876.3h-56.1c-0.5,0-0.8-0.4-0.8-0.8c0-0.5,0.4-0.8,0.8-0.8h11.1l-3.9-31.1c0-0.2,0-0.5,0.2-0.7
			c0.2-0.2,0.4-0.3,0.6-0.3h40.1h0h0c4.9,0,8.8,4,8.8,8.8c0,4.9-4,8.8-8.8,8.8h-1.3l-1.8,14.4H623c0.5,0,0.8,0.4,0.8,0.8
			C623.8,876,623.4,876.3,623,876.3z M579.6,874.7h30.6l3.8-30.4h-38.2L579.6,874.7z M613.9,858.6h1.1c4,0,7.2-3.2,7.2-7.2
			c0-3.7-2.8-6.8-6.5-7.1L613.9,858.6z M590.9,832.3c-3.8,0-4.8-3.2-4.8-4.8c0-1.7,1-4.8,4.8-4.8c1.4,0,2.4,0.4,3.2,1.1v-16.3
			c0-0.3,0.2-0.6,0.5-0.8c0.3-0.1,0.7-0.1,0.9,0.2l4,4c0.3,0.3,0.3,0.9,0,1.2c-0.3,0.3-0.9,0.3-1.2,0l-2.6-2.6v18v0
			C595.7,829.1,594.7,832.3,590.9,832.3z M590.9,824.2c-3.1,0-3.2,3-3.2,3.2c0,0.3,0.1,3.2,3.2,3.2c3,0,3.2-2.8,3.2-3.2
			C594.1,827.1,593.9,824.2,590.9,824.2z"/>
	</g>
	<g>
		<text transform="matrix(1 0 0 1 513.8759 937.9604)" class="st1 st2">K</text>
		<text transform="matrix(1 0 0 1 528.8553 937.9604)" class="st1 st2">o</text>
		<path d="M544.4,925c0-1,0.2-1.7,0.7-2.2c0.5-0.5,1.2-0.7,2.3-0.7c0.2,0,0.5,0,0.8,0c0.3,0,0.5,0,0.7,0.1v1.4c-0.5,0-0.8,0-1,0
			c-0.2,0-0.3,0-0.4,0c-0.3,0-0.5,0.1-0.6,0.2c-0.1,0.1-0.3,0.3-0.3,0.4c-0.1,0.2-0.1,0.3-0.1,0.5c0,0.2,0,0.3,0,0.4v1.4h3.5V925
			c0-1,0.2-1.7,0.7-2.2c0.5-0.5,1.2-0.7,2.3-0.7c0.2,0,0.5,0,0.8,0c0.3,0,0.5,0,0.7,0.1v1.4c-0.1,0-0.2,0-0.3,0c-0.1,0-0.2,0-0.3,0
			c-0.1,0-0.2,0-0.4,0c-0.1,0-0.3,0-0.4,0c-0.3,0-0.5,0.1-0.6,0.2c-0.1,0.1-0.3,0.3-0.3,0.4c-0.1,0.2-0.1,0.3-0.1,0.5
			c0,0.2,0,0.3,0,0.4v1.4h5.5V938h-2v-10h-3.5v10h-2v-10h-3.5v10h-2v-10h-2.1v-1.4h2.1V925z M555.4,922.2h2v2.1h-2V922.2z"/>
		<text transform="matrix(1 0 0 1 558.993 937.9604)" class="st1 st2">e</text>
		<text transform="matrix(1 0 0 1 571.7938 937.9604)" class="st1 st2">c</text>
		<text transform="matrix(1 0 0 1 584.1014 937.9604)" class="st1 st2">o</text>
		<text transform="matrix(1 0 0 1 597.2626 937.9604)" class="st1 st2">n</text>
		<text transform="matrix(1 0 0 1 610.1307 937.9604)" class="st1 st2">c</text>
		<text transform="matrix(1 0 0 1 622.4374 937.9604)" class="st1 st2">e</text>
		<text transform="matrix(1 0 0 1 635.2382 937.9604)" class="st1 st2">r</text>
		<text transform="matrix(1 0 0 1 643.5243 937.9604)" class="st1 st2">t</text>
		<text transform="matrix(1 0 0 1 650.7118 937.9604)" class="st1 st2">e</text>
		<text transform="matrix(1 0 0 1 663.5126 937.9604)" class="st1 st2">n</text>
	</g>
</g>
<g>
	<g>
		<defs>
			<rect id="SVGID_71_" x="809.9" y="806.5" width="44.1" height="69"/>
		</defs>
		<clipPath id="SVGID_72_">
			<use xlink:href="#SVGID_71_"  style="overflow:visible;"/>
		</clipPath>
		<path class="st51" d="M814.9,875.4c-0.2,0-0.4-0.1-0.6-0.2c-0.3-0.3-0.3-0.9,0-1.2l16.5-16.5v-15.6h-20.2c-0.5,0-0.8-0.4-0.8-0.8
			v-27.3c0-0.5,0.4-0.8,0.8-0.8h10l4-5.9c0.2-0.2,0.4-0.4,0.7-0.4H838c0.3,0,0.5,0.1,0.7,0.4l4,5.9h10c0.5,0,0.8,0.4,0.8,0.8v27.3
			c0,0.5-0.4,0.8-0.8,0.8h-20.2v15.6l16.5,16.5c0.3,0.3,0.3,0.9,0,1.2c-0.3,0.3-0.9,0.3-1.2,0l-15.4-15.4v10.6
			c0,0.5-0.4,0.8-0.8,0.8c-0.5,0-0.8-0.4-0.8-0.8v-10.6l-15.4,15.4C815.3,875.3,815.1,875.4,814.9,875.4 M831.7,840.1h20.1v-25.6
			h-9.7c-0.3,0-0.5-0.1-0.7-0.4l-4-5.9h-11.7l-3.9,5.9c-0.2,0.2-0.4,0.4-0.7,0.4h-9.7v25.6H831.7
			C831.7,840.1,831.7,840.1,831.7,840.1 M831.7,836.5c-5.7,0-10.3-4.6-10.3-10.3c0-5.7,4.6-10.3,10.3-10.3c5.7,0,10.3,4.6,10.3,10.3
			C842,831.9,837.4,836.5,831.7,836.5 M831.7,817.6c-4.7,0-8.6,3.9-8.6,8.6c0,4.7,3.9,8.6,8.6,8.6c4.7,0,8.6-3.9,8.6-8.6
			C840.3,821.5,836.4,817.6,831.7,817.6 M831.7,832.3c-3.4,0-6.1-2.7-6.1-6.1c0-3.4,2.7-6.1,6.1-6.1c3.4,0,6.1,2.7,6.1,6.1
			C837.8,829.6,835,832.3,831.7,832.3 M831.7,821.8c-2.4,0-4.4,2-4.4,4.4c0,2.4,2,4.4,4.4,4.4s4.4-2,4.4-4.4
			C836.1,823.8,834.1,821.8,831.7,821.8 M846.4,822.9c-1.6,0-2.9-1.3-2.9-2.9c0-1.6,1.3-2.9,2.9-2.9c1.6,0,2.9,1.3,2.9,2.9
			C849.3,821.6,848,822.9,846.4,822.9 M846.4,818.7c-0.7,0-1.3,0.6-1.3,1.3c0,0.7,0.6,1.3,1.3,1.3c0.7,0,1.3-0.6,1.3-1.3
			C847.7,819.3,847.1,818.7,846.4,818.7"/>
	</g>
	<g>
		<text transform="matrix(1 0 0 1 777.1958 937.9608)" class="st1 st2">F</text>
		<text transform="matrix(1 0 0 1 789.9517 937.9608)" class="st1 st2">o</text>
		<text transform="matrix(1 0 0 1 803.1128 937.9608)" class="st1 st2">t</text>
		<text transform="matrix(1 0 0 1 810.2983 937.9608)" class="st1 st2">o</text>
		<text transform="matrix(1 0 0 1 823.4585 937.9608)" class="st1 st2">s</text>
		<text transform="matrix(1 0 0 1 834.8218 937.9608)" class="st1 st2">t</text>
		<text transform="matrix(1 0 0 1 842.0083 937.9608)" class="st1 st2">u</text>
		<text transform="matrix(1 0 0 1 854.8765 937.9608)" class="st1 st2">d</text>
		<text transform="matrix(1 0 0 1 868.3296 937.9608)" class="st1 st2">i</text>
		<text transform="matrix(1 0 0 1 873.4497 937.9608)" class="st1 st2">o</text>
	</g>
</g>
</svg>
