<?xml version="1.0" encoding="utf-8"?>
<!-- Generator: Adobe Illustrator 19.1.0, SVG Export Plug-In . SVG Version: 6.00 Build 0)  -->
<svg version="1.1" id="Layer_1" xmlns="http://www.w3.org/2000/svg" xmlns:xlink="http://www.w3.org/1999/xlink" x="0px" y="0px"
	 viewBox="-143 149.6 447 318.1" style="enable-background:new -143 149.6 447 318.1;" xml:space="preserve">
<style type="text/css">
	.st0{fill:#231F20;}
</style>
<g>
	<path class="st0" d="M79.4,396.7c-65.7,0-119.1-53.4-119.1-119.1S13.7,158.5,79.4,158.5s119.1,53.4,119.1,119.1
		C198.4,343.3,145.1,396.7,79.4,396.7 M79.4,149.6c-70.6,0-128,57.4-128,128v0.1c0.1,70.5,57.4,127.9,127.9,128h0.3
		c70.5-0.1,127.9-57.5,127.9-128C207.4,207,150,149.6,79.4,149.6"/>
</g>
<polygon class="st0" points="104.7,190.5 104.7,224.3 53.2,224.3 53.2,190.5 45.5,190.5 45.5,248.9 53.2,248.9 53.2,233 104.7,233 
	104.7,248.9 112.4,248.9 112.4,190.5 "/>
<polygon class="st0" points="104.7,264.8 104.7,273.2 53.2,273.2 53.2,264.8 45.5,264.8 45.5,290.4 53.2,290.4 53.2,281.9 
	104.7,281.9 104.7,290.4 112.4,290.4 112.4,264.8 "/>
<g>
	<path class="st0" d="M78.8,371.8c-19.3,0-34.4-15.3-34.4-34.8c0-19.6,15.1-34.9,34.4-34.9c9.2,0,17.8,3.6,24.3,9.9l0.8,0.8
		l-5.9,6.3l-0.8-0.8c-4.9-4.9-11.4-7.6-18.4-7.6C64.4,310.7,53,322.2,53,337c0,14.7,11.4,26.3,25.9,26.3c11.6,0,21.3-7.3,24.6-18.4
		H81.7v-9.1h32.2l-1.3,8.2C109.2,360.4,95.4,371.8,78.8,371.8"/>
</g>
<path d="M-129,444.3h3.5v22.9h-3.5h-0.1v-9.8h-10.4v9.8h-3.5v-22.9h3.5v9.9h10.4L-129,444.3L-129,444.3z M-114.6,457.6h9v-3.2h-9
	v-6.8h10.3v-3.3h-13.8v22.9h14.1V464h-10.6V457.6z M-98.2,447.6h6.8v19.6h3.6v-19.6h6.8v-3.3h-17.2V447.6z M-24.4,460.6l-9.8-16.3
	h-3.4v22.9h3.5v-16.4l9.9,16.4h3.3v-22.9h-3.5V460.6z M7.7,455.8c0,6.5-3.8,11.4-10.3,11.4h-8.9v-22.9h8.9
	C3.9,444.3,7.7,449.3,7.7,455.8z M4.2,455.8c0-4.6-2.3-8.2-6.8-8.2H-8V464h5.4C1.9,464,4.2,460.4,4.2,455.8z M27.6,459.3
	c0,3-2.3,4.9-4.9,4.9c-2.6,0-4.9-1.9-4.9-4.9v-15h-3.6v15c0,5,3.9,8.3,8.5,8.3s8.5-3.3,8.5-8.3v-15h-3.6V459.3z M48.5,454.3
	l-2.9-0.8c-2.7-0.7-3.1-2.1-3.1-3c0-1.9,1.9-3.2,4-3.2c2.4,0,4,1.4,4,3.5H54c0-4.2-3.2-6.8-7.5-6.8c-4,0-7.6,2.6-7.6,6.6
	c0,2,0.8,4.8,5.7,6.2l2.9,0.7c2.1,0.5,3.8,1.6,3.6,3.7c-0.2,1.7-1.6,3.1-4.3,3.1s-4.5-1.9-4.6-3.8h-3.5c0,3.7,3.3,7,8.1,7
	c4.4,0,7.5-2.6,7.8-6.2C55.1,458.1,53.1,455.5,48.5,454.3z M60,447.6h6.8v19.6h3.6v-19.6h6.8v-3.3H60V447.6z M94.9,458.7l6,8.6h-4.3
	l-5.7-8.4h-2.5v8.4h-3.6v-23h9c4.9,0,7,3.6,7,7.3C100.8,455,99.1,458.2,94.9,458.7z M93.6,455.6c2.6,0,3.6-2,3.6-4c0-1.9-1-4-3.5-4
	h-5.3v8H93.6z M133.2,457.6h9v-3.2h-9v-6.8h10.3v-3.3h-13.8v22.9h14.2V464h-10.6v-6.4H133.2z M161.8,458.6h6.4
	c-0.2,3.4-3.2,5.6-6.9,5.6c-4.6,0-8.1-3.8-8.1-8.4s3.5-8.4,8.1-8.4c2.1,0,4,0.8,5.4,2.2l2.6-2.3c-2-2-4.8-3.2-8-3.2
	c-6.5,0-11.6,5.3-11.6,11.8s5.1,11.8,11.6,11.8c6.6,0,11-3.8,11-12h-10.5V458.6z M183,457.6h9v-3.2h-9v-6.8h10.3v-3.3h-13.8v22.9
	h14.2V464H183V457.6z M217.8,460.5c0,3.6-2.6,6.7-6.9,6.7h-9.5v-22.9h8.8c3.9,0,6.4,2.3,6.4,6.1c0,1.8-0.7,3.8-3,4.7
	C216.3,455.6,217.8,458.3,217.8,460.5z M205,453.7h5.1c1.9,0,2.8-1.5,2.8-3.2c0-1.9-1.2-3-3.1-3H205V453.7z M214.1,460.5
	c0-1.7-1.3-3.7-3.5-3.7H205v7.3h5.8C212.9,464,214.1,462.2,214.1,460.5z M246.2,455.8c0,6.5-5.1,11.8-11.7,11.8
	c-6.5,0-11.6-5.3-11.6-11.8S228,444,234.5,444C241.1,444,246.2,449.3,246.2,455.8z M242.7,455.8c0-4.6-3.5-8.3-8.1-8.3
	c-4.5,0-8.1,3.7-8.1,8.3s3.5,8.3,8.1,8.3C239.1,464.1,242.7,460.4,242.7,455.8z M266.1,459.3c0,3-2.3,4.9-4.9,4.9s-4.9-1.9-4.9-4.9
	v-15h-3.6v15c0,5,3.9,8.3,8.5,8.3s8.5-3.3,8.5-8.3v-15h-3.6V459.3z M300.2,444.3l-5.5,17.1l-3.9-14H288l-3.9,14l-5.5-17.1h-3.8
	l7.8,22.9h3l3.8-13.8l3.9,13.8h3l7.7-22.9H300.2z M-57.4,447.6h3.9V464h-3.9v3.3H-46V464h-3.9v-16.4h3.9v-3.3h-11.4V447.6z
	 M108.9,447.6h3.9V464h-3.9v3.3h11.3V464h-3.9v-16.4h3.9v-3.3h-11.3L108.9,447.6L108.9,447.6z"/>
</svg>
