<?xml version="1.0" encoding="UTF-8" standalone="no"?>
<svg width="46px" height="89px" viewBox="0 0 46 89" version="1.1" xmlns="http://www.w3.org/2000/svg" xmlns:xlink="http://www.w3.org/1999/xlink">
    <!-- Generator: Sketch 41.1 (35376) - http://www.bohemiancoding.com/sketch -->
    <title>acces</title>
    <desc>Created with Sketch.</desc>
    <defs></defs>
    <g id="Page-1" stroke="none" stroke-width="1" fill="none" fill-rule="evenodd">
        <g id="acces" fill="#241F21">
            <path d="M14.7695,16.456 C11.3345,16.456 8.5405,19.25 8.5405,22.685 C8.5405,26.119 11.3345,28.913 14.7695,28.913 C15.0315,28.913 15.2905,28.896 15.5465,28.864 C13.7935,27.322 12.7375,25.072 12.7375,22.685 C12.7375,20.299 13.7945,18.048 15.5475,16.505 C15.2905,16.473 15.0315,16.456 14.7695,16.456 L14.7695,16.456 Z M14.7695,30.913 C10.2325,30.913 6.5405,27.222 6.5405,22.685 C6.5405,18.147 10.2325,14.456 14.7695,14.456 C15.9915,14.456 17.1785,14.726 18.2965,15.257 C18.6455,15.423 18.8675,15.774 18.8675,16.16 C18.8675,16.546 18.6455,16.897 18.2965,17.063 C16.1345,18.094 14.7375,20.3 14.7375,22.685 C14.7375,25.071 16.1345,27.277 18.2965,28.305 C18.6445,28.471 18.8675,28.822 18.8675,29.207 C18.8675,29.593 18.6465,29.944 18.2975,30.11 C17.1835,30.643 15.9965,30.913 14.7695,30.913 L14.7695,30.913 Z M29.9145,18.866 C27.8095,18.866 26.0965,20.579 26.0965,22.685 C26.0965,24.79 27.8095,26.503 29.9145,26.503 C32.0205,26.503 33.7335,24.79 33.7335,22.685 C33.7335,20.579 32.0205,18.866 29.9145,18.866 L29.9145,18.866 Z M29.9145,32.117 C29.3615,32.117 28.9145,31.669 28.9145,31.117 L28.9145,28.708 C28.9145,28.609 28.9285,28.514 28.9555,28.424 C27.3195,28.151 25.9125,27.194 25.0405,25.858 L23.3935,27.504 C23.0025,27.894 22.3705,27.894 21.9795,27.504 C21.5885,27.113 21.5885,26.48 21.9795,26.09 L23.6825,24.387 C23.8475,24.222 24.0555,24.126 24.2705,24.101 C24.1575,23.647 24.0965,23.173 24.0965,22.685 C24.0965,21.936 24.2385,21.221 24.4975,20.563 C24.2025,20.593 23.9055,20.498 23.6825,20.276 L21.9795,18.572 C21.5885,18.181 21.5885,17.548 21.9795,17.157 C22.3705,16.768 23.0025,16.767 23.3935,17.158 L25.0965,18.862 C25.1825,18.947 25.2485,19.044 25.2965,19.148 C26.1765,18.002 27.4715,17.192 28.9555,16.945 C28.9285,16.854 28.9145,16.759 28.9145,16.66 L28.9145,14.251 C28.9145,13.699 29.3615,13.251 29.9145,13.251 C30.4665,13.251 30.9145,13.699 30.9145,14.251 L30.9145,16.66 C30.9145,16.759 30.8995,16.854 30.8735,16.945 C32.3565,17.192 33.6525,18.002 34.5325,19.148 C34.5805,19.044 34.6465,18.947 34.7325,18.862 L36.4365,17.158 C36.8275,16.767 37.4595,16.767 37.8505,17.158 C38.2415,17.548 38.2415,18.181 37.8505,18.572 L36.1465,20.276 C35.9245,20.498 35.6235,20.596 35.3325,20.563 C35.5915,21.221 35.7335,21.936 35.7335,22.685 C35.7335,23.173 35.6725,23.647 35.5595,24.101 C35.7735,24.126 35.9815,24.222 36.1465,24.386 L37.8505,26.089 C38.2415,26.48 38.2415,27.113 37.8505,27.504 C37.4595,27.894 36.8275,27.894 36.4365,27.504 L34.7905,25.858 C33.9165,27.194 32.5085,28.151 30.8735,28.424 C30.8995,28.514 30.9145,28.609 30.9145,28.708 L30.9145,31.117 C30.9145,31.669 30.4665,32.117 29.9145,32.117 L29.9145,32.117 Z M43.1295,40.723 L36.3155,40.723 C35.7625,40.723 35.3155,40.275 35.3155,39.723 L35.3155,32.908 C35.3155,32.355 35.7625,31.908 36.3155,31.908 C36.8685,31.908 37.3155,32.355 37.3155,32.908 L37.3155,37.274 C41.1765,33.402 43.3705,28.148 43.3705,22.685 C43.3705,11.279 34.0905,2 22.6855,2 C21.1695,2 19.6245,2.18 18.0915,2.534 C17.5485,2.66 17.0165,2.323 16.8915,1.785 C16.7675,1.247 17.1025,0.71 17.6405,0.586 C19.3215,0.197 21.0185,0 22.6855,0 C35.1945,0 45.3705,10.176 45.3705,22.685 C45.3705,28.696 42.9515,34.474 38.6955,38.723 L43.1295,38.723 C43.6825,38.723 44.1295,39.171 44.1295,39.723 C44.1295,40.275 43.6825,40.723 43.1295,40.723 L43.1295,40.723 Z M18.8675,82.506 L22.6865,86.325 L26.1845,82.826 L23.0905,78.702 C22.8245,78.347 22.8245,77.858 23.0905,77.502 L26.2545,73.283 L23.0905,69.064 C22.8245,68.708 22.8245,68.219 23.0905,67.864 L26.5045,63.311 L26.5045,45.033 C23.9115,45.487 21.3125,45.465 18.8675,45.048 L18.8675,82.506 Z M22.6865,88.74 C22.4205,88.74 22.1665,88.634 21.9795,88.447 L17.1605,83.627 C16.9725,83.439 16.8675,83.185 16.8675,82.92 L16.8675,44.613 C7.1675,42.039 -0.0005,33.183 -0.0005,22.685 C-0.0005,16.675 2.4185,10.897 6.6765,6.647 L2.2395,6.647 C1.6865,6.647 1.2395,6.199 1.2395,5.647 C1.2395,5.095 1.6865,4.647 2.2395,4.647 L9.0555,4.647 C9.6085,4.647 10.0555,5.095 10.0555,5.647 L10.0555,12.462 C10.0555,13.014 9.6085,13.462 9.0555,13.462 C8.5025,13.462 8.0555,13.014 8.0555,12.462 L8.0555,8.096 C4.1935,11.969 1.9995,17.223 1.9995,22.685 C1.9995,34.09 11.2795,43.37 22.6855,43.37 C24.2005,43.37 25.7465,43.19 27.2805,42.836 C27.8175,42.713 28.3545,43.047 28.4795,43.585 C28.5195,43.758 28.5115,43.93 28.4645,44.089 C28.4915,44.178 28.5045,44.271 28.5045,44.369 L28.5045,63.645 C28.5045,63.861 28.4345,64.072 28.3045,64.245 L25.1405,68.464 L28.3045,72.683 C28.5715,73.038 28.5715,73.527 28.3045,73.883 L25.1405,78.102 L28.3045,82.32 C28.6035,82.718 28.5635,83.275 28.2115,83.627 L23.3935,88.447 C23.2065,88.634 22.9525,88.74 22.6865,88.74 L22.6865,88.74 Z" id="Fill-1"></path>
        </g>
    </g>
</svg>