<?xml version="1.0" encoding="UTF-8" standalone="no"?>
<svg width="70px" height="89px" viewBox="0 0 70 89" version="1.1" xmlns="http://www.w3.org/2000/svg" xmlns:xlink="http://www.w3.org/1999/xlink">
    <!-- Generator: Sketch 41.1 (35376) - http://www.bohemiancoding.com/sketch -->
    <title>bouw-team</title>
    <desc>Created with Sketch.</desc>
    <defs>
        <polygon id="path-1" points="34.73245 22 0 22 0 0.725 69.4649 0.725 69.4649 22 34.73245 22"></polygon>
    </defs>
    <g id="Page-1" stroke="none" stroke-width="1" fill="none" fill-rule="evenodd">
        <g id="bouw-team" transform="translate(0.000000, -1.000000)">
            <g id="Group-3" transform="translate(0.000000, 0.740200)" fill="#241F21">
                <path d="M34.7329,45.6294 C34.1809,45.6294 33.7329,45.1814 33.7329,44.6294 L33.7329,34.9924 C33.7329,34.4404 34.1809,33.9924 34.7329,33.9924 C35.2849,33.9924 35.7329,34.4404 35.7329,34.9924 L35.7329,44.6294 C35.7329,45.1814 35.2849,45.6294 34.7329,45.6294 M34.7329,10.6924 C31.2989,10.6924 28.5049,13.4864 28.5049,16.9214 C28.5049,20.3554 31.2989,23.1484 34.7329,23.1484 C38.1679,23.1484 40.9619,20.3554 40.9619,16.9214 C40.9619,13.4864 38.1679,10.6924 34.7329,10.6924 M68.4669,74.5434 C68.1279,74.5434 67.7959,74.3704 67.6089,74.0584 L37.8869,24.5204 C35.9429,25.3294 33.5229,25.3304 31.5809,24.5204 L1.8579,74.0584 C1.5739,74.5324 0.9589,74.6844 0.4859,74.4004 C0.0129,74.1164 -0.1411,73.5024 0.1439,73.0284 L29.8409,23.5324 C27.8179,22.0324 26.5049,19.6274 26.5049,16.9214 C26.5049,12.7224 29.6659,9.2474 33.7329,8.7534 L33.7329,1.2594 C33.7329,0.7074 34.1809,0.2594 34.7329,0.2594 C35.2849,0.2594 35.7329,0.7074 35.7329,1.2594 L35.7329,8.7534 C39.7999,9.2474 42.9619,12.7224 42.9619,16.9214 C42.9619,19.6274 41.6479,22.0314 39.6269,23.5314 L69.3239,73.0284 C69.6079,73.5024 69.4549,74.1164 68.9809,74.4004 C68.8199,74.4974 68.6419,74.5434 68.4669,74.5434" id="Fill-1"></path>
            </g>
            <path d="M58.8276,41.5507 L10.6386,41.5507 C10.0866,41.5507 9.6386,41.1027 9.6386,40.5507 C9.6386,39.9987 10.0866,39.5507 10.6386,39.5507 L58.8276,39.5507 C59.3806,39.5507 59.8276,39.9987 59.8276,40.5507 C59.8276,41.1027 59.3806,41.5507 58.8276,41.5507" id="Fill-4" fill="#241F21"></path>
            <g id="Group-17" transform="translate(0.000000, 67.740200)">
                <path d="M66.3022,15.7656 C65.9992,15.7656 65.7002,15.6286 65.5042,15.3696 C65.1702,14.9296 65.2572,14.3026 65.6982,13.9686 L65.8672,13.8356 C66.3012,13.4926 66.9292,13.5636 67.2732,13.9976 C67.6162,14.4306 67.5442,15.0586 67.1122,15.4026 L66.9052,15.5626 C66.7242,15.6996 66.5122,15.7656 66.3022,15.7656 M63.5612,17.3696 C63.1862,17.3696 62.8262,17.1586 62.6562,16.7976 C62.4202,16.2976 62.6332,15.7016 63.1322,15.4656 L63.3432,15.3656 C63.8432,15.1246 64.4382,15.3366 64.6772,15.8346 C64.9162,16.3326 64.7062,16.9306 64.2082,17.1686 L63.9882,17.2736 C63.8492,17.3386 63.7032,17.3696 63.5612,17.3696 M60.6072,18.5466 C60.1922,18.5466 59.8042,18.2856 59.6612,17.8706 C59.4822,17.3486 59.7592,16.7806 60.2812,16.5996 L60.5072,16.5226 C61.0292,16.3456 61.5982,16.6206 61.7782,17.1426 C61.9572,17.6646 61.6802,18.2336 61.1572,18.4136 L60.9322,18.4916 C60.8242,18.5286 60.7142,18.5466 60.6072,18.5466 M57.5582,19.4586 C57.1142,19.4586 56.7082,19.1596 56.5912,18.7086 C56.4522,18.1746 56.7732,17.6286 57.3082,17.4906 L57.5332,17.4306 C58.0662,17.2896 58.6152,17.6066 58.7572,18.1406 C58.8992,18.6736 58.5812,19.2216 58.0472,19.3636 L57.8102,19.4256 C57.7262,19.4476 57.6412,19.4586 57.5582,19.4586 M54.4592,20.1806 C53.9942,20.1806 53.5782,19.8556 53.4812,19.3826 C53.3692,18.8416 53.7172,18.3126 54.2582,18.2016 L54.4922,18.1526 C55.0372,18.0396 55.5632,18.3906 55.6742,18.9306 C55.7852,19.4716 55.4382,19.9996 54.8972,20.1116 L54.6622,20.1606 C54.5942,20.1746 54.5262,20.1806 54.4592,20.1806 M51.3292,20.7536 C50.8472,20.7536 50.4222,20.4036 50.3432,19.9126 C50.2552,19.3676 50.6262,18.8536 51.1722,18.7666 L51.4062,18.7286 C51.9502,18.6366 52.4652,19.0106 52.5542,19.5556 C52.6422,20.1006 52.2722,20.6146 51.7272,20.7026 L51.4892,20.7416 C51.4352,20.7496 51.3822,20.7536 51.3292,20.7536 M48.2282,21.1976 C47.7282,21.1976 47.2782,20.8296 47.2142,20.3246 C47.1462,19.7756 47.5112,19.2796 48.0592,19.2106 L48.2902,19.1816 C48.8362,19.1066 49.3402,19.4966 49.4112,20.0446 C49.4822,20.5926 49.0952,21.0946 48.5482,21.1646 L48.3542,21.1896 C48.3112,21.1946 48.2692,21.1976 48.2282,21.1976 M45.0182,21.5436 C44.5072,21.5436 44.0722,21.1546 44.0232,20.6366 C43.9722,20.0866 44.3762,19.5986 44.9272,19.5486 L45.1642,19.5266 C45.7232,19.4706 46.2002,19.8806 46.2522,20.4296 C46.3032,20.9796 45.8992,21.4666 45.3482,21.5176 L45.1112,21.5396 C45.0792,21.5426 45.0482,21.5436 45.0182,21.5436 M41.8452,21.7856 C41.3232,21.7856 40.8842,21.3806 40.8482,20.8516 C40.8112,20.3016 41.2282,19.8246 41.7792,19.7876 L42.0232,19.7716 C42.5722,19.7366 43.0492,20.1576 43.0822,20.7086 C43.1162,21.2596 42.6982,21.7336 42.1462,21.7676 L41.9132,21.7826 C41.8902,21.7846 41.8672,21.7856 41.8452,21.7856 M38.6672,21.9356 C38.1292,21.9356 37.6852,21.5076 37.6682,20.9656 C37.6512,20.4136 38.0852,19.9526 38.6372,19.9356 L38.8702,19.9276 C39.4012,19.8906 39.8852,20.3386 39.9062,20.8906 C39.9272,21.4426 39.4952,21.9066 38.9442,21.9266 L38.6982,21.9346 C38.6882,21.9356 38.6772,21.9356 38.6672,21.9356" id="Fill-6" fill="#000000"></path>
                <path d="M3.1592,15.7632 C2.9492,15.7632 2.7372,15.6972 2.5562,15.5602 L2.3492,15.4002 C1.9172,15.0562 1.8452,14.4282 2.1882,13.9952 C2.5322,13.5622 3.1622,13.4912 3.5932,13.8332 L3.7642,13.9662 C4.2042,14.3002 4.2902,14.9272 3.9572,15.3672 C3.7612,15.6262 3.4622,15.7632 3.1592,15.7632 M5.9002,17.3672 C5.7572,17.3672 5.6132,17.3372 5.4752,17.2722 L5.2522,17.1662 C4.7542,16.9282 4.5442,16.3302 4.7832,15.8322 C5.0212,15.3342 5.6202,15.1232 6.1172,15.3632 L6.3262,15.4622 C6.8262,15.6972 7.0402,16.2922 6.8052,16.7922 C6.6352,17.1552 6.2752,17.3672 5.9002,17.3672 M8.8542,18.5452 C8.7462,18.5452 8.6382,18.5282 8.5302,18.4912 L8.2972,18.4102 C7.7762,18.2272 7.5012,17.6572 7.6842,17.1362 C7.8672,16.6142 8.4362,16.3422 8.9592,16.5232 L9.1782,16.5982 C9.7002,16.7772 9.9792,17.3462 9.8002,17.8682 C9.6582,18.2842 9.2702,18.5452 8.8542,18.5452 M11.9022,19.4572 C11.8172,19.4572 11.7312,19.4462 11.6452,19.4232 L11.4122,19.3612 C10.8792,19.2192 10.5622,18.6702 10.7052,18.1372 C10.8472,17.6032 11.3942,17.2842 11.9292,17.4302 L12.1592,17.4912 C12.6922,17.6322 13.0102,18.1802 12.8682,18.7142 C12.7492,19.1612 12.3452,19.4572 11.9022,19.4572 M15.0002,20.1802 C14.9332,20.1802 14.8662,20.1732 14.7972,20.1592 L14.5562,20.1092 C14.0162,19.9932 13.6722,19.4622 13.7872,18.9222 C13.9032,18.3822 14.4372,18.0392 14.9742,18.1532 L15.2012,18.2002 C15.7422,18.3122 16.0902,18.8412 15.9792,19.3822 C15.8812,19.8542 15.4652,20.1802 15.0002,20.1802 M18.1302,20.7532 C18.0772,20.7532 18.0232,20.7492 17.9692,20.7412 L17.7272,20.7012 C17.1832,20.6102 16.8152,20.0942 16.9072,19.5492 C16.9982,19.0052 17.5082,18.6372 18.0582,18.7282 L18.2882,18.7662 C18.8332,18.8542 19.2042,19.3672 19.1162,19.9122 C19.0362,20.4042 18.6122,20.7532 18.1302,20.7532 M21.2802,21.2032 C21.2392,21.2032 21.1972,21.2002 21.1562,21.1962 L20.9062,21.1632 C20.3592,21.0892 19.9752,20.5852 20.0502,20.0382 C20.1242,19.4912 20.6262,19.1062 21.1762,19.1822 L21.4012,19.2102 C21.9492,19.2782 22.3382,19.7772 22.2712,20.3252 C22.2082,20.8322 21.7772,21.2032 21.2802,21.2032 M24.4422,21.5432 C24.4112,21.5432 24.3812,21.5422 24.3492,21.5392 L24.1052,21.5162 C23.5552,21.4622 23.1542,20.9722 23.2082,20.4232 C23.2632,19.8742 23.7552,19.4672 24.3022,19.5262 L24.5332,19.5482 C25.0832,19.5982 25.4882,20.0852 25.4372,20.6352 C25.3892,21.1542 24.9532,21.5432 24.4422,21.5432 M27.6152,21.7842 C27.5952,21.7842 27.5742,21.7842 27.5532,21.7832 L27.3142,21.7682 C26.7632,21.7342 26.3442,21.2602 26.3782,20.7082 C26.4122,20.1572 26.8932,19.7352 27.4372,19.7722 L27.6752,19.7862 C28.2262,19.8202 28.6462,20.2942 28.6122,20.8462 C28.5802,21.3762 28.1392,21.7842 27.6152,21.7842 M30.7922,21.9352 C30.7822,21.9352 30.7722,21.9352 30.7612,21.9342 L30.5222,21.9272 C29.9712,21.9092 29.5362,21.4492 29.5542,20.8962 C29.5702,20.3442 30.0062,19.8872 30.5842,19.9282 L30.8232,19.9352 C31.3742,19.9522 31.8082,20.4132 31.7912,20.9662 C31.7752,21.5072 31.3302,21.9352 30.7922,21.9352" id="Fill-8" fill="#000000"></path>
                <path d="M30.5576,2.7974 C30.0216,2.7974 29.5786,2.3734 29.5586,1.8344 C29.5386,1.2824 29.9696,0.8184 30.5216,0.7974 L30.7666,0.7894 C31.3096,0.7464 31.7796,1.2064 31.7966,1.7584 C31.8136,2.3104 31.3796,2.7724 30.8276,2.7884 L30.5946,2.7974 L30.5576,2.7974 M27.3796,2.9544 C26.8546,2.9544 26.4146,2.5464 26.3826,2.0154 C26.3486,1.4644 26.7676,0.9894 27.3196,0.9564 L27.5516,0.9414 C28.1116,0.9024 28.5796,1.3214 28.6166,1.8714 C28.6546,2.4224 28.2376,2.8994 27.6866,2.9364 L27.4416,2.9524 C27.4206,2.9534 27.3996,2.9544 27.3796,2.9544 M24.2076,3.2024 C23.6966,3.2024 23.2606,2.8134 23.2126,2.2954 C23.1616,1.7454 23.5666,1.2574 24.1166,1.2074 L24.3556,1.1854 C24.9206,1.1354 25.3916,1.5404 25.4426,2.0894 C25.4936,2.6394 25.0876,3.1264 24.5376,3.1764 L24.3006,3.1984 C24.2696,3.2014 24.2386,3.2024 24.2076,3.2024 M21.0446,3.5504 C20.5496,3.5504 20.1196,3.1834 20.0546,2.6794 C19.9836,2.1314 20.3696,1.6304 20.9176,1.5594 L21.1606,1.5284 C21.7056,1.4644 22.2076,1.8504 22.2756,2.3984 C22.3436,2.9464 21.9536,3.4454 21.4056,3.5134 L21.1746,3.5424 C21.1306,3.5484 21.0876,3.5504 21.0446,3.5504 M17.8966,4.0084 C17.4146,4.0084 16.9906,3.6594 16.9106,3.1684 C16.8226,2.6224 17.1936,2.1094 17.7386,2.0214 L17.9746,1.9834 C18.5236,1.8944 19.0326,2.2654 19.1206,2.8104 C19.2086,3.3564 18.8386,3.8694 18.2926,3.9574 L18.0576,3.9954 C18.0036,4.0044 17.9496,4.0084 17.8966,4.0084 M14.7696,4.5924 C14.3066,4.5924 13.8896,4.2674 13.7916,3.7954 C13.6796,3.2554 14.0266,2.7254 14.5676,2.6134 L14.8046,2.5644 C15.3426,2.4504 15.8746,2.8014 15.9846,3.3434 C16.0956,3.8844 15.7466,4.4124 15.2056,4.5234 L14.9746,4.5714 C14.9056,4.5854 14.8376,4.5924 14.7696,4.5924 M11.6746,5.3284 C11.2326,5.3284 10.8286,5.0334 10.7096,4.5864 C10.5666,4.0524 10.8836,3.5044 11.4166,3.3614 L11.6556,3.2984 C12.1886,3.1574 12.7356,3.4814 12.8736,4.0154 C13.0126,4.5494 12.6916,5.0954 12.1576,5.2344 L11.9336,5.2934 C11.8476,5.3174 11.7606,5.3284 11.6746,5.3284 M8.6326,6.2564 C8.2186,6.2564 7.8306,5.9974 7.6876,5.5834 C7.5076,5.0624 7.7836,4.4924 8.3056,4.3114 L8.5366,4.2324 C9.0616,4.0534 9.6276,4.3344 9.8056,4.8574 C9.9836,5.3804 9.7036,5.9474 9.1806,6.1254 L8.9596,6.2014 C8.8516,6.2384 8.7416,6.2564 8.6326,6.2564 M5.6886,7.4574 C5.3166,7.4574 4.9586,7.2484 4.7866,6.8894 C4.5476,6.3914 4.7586,5.7944 5.2566,5.5554 L5.4786,5.4494 C5.9786,5.2144 6.5746,5.4294 6.8096,5.9294 C7.0446,6.4294 6.8296,7.0254 6.3296,7.2594 L6.1206,7.3594 C5.9816,7.4254 5.8336,7.4574 5.6886,7.4574 M2.9756,9.1054 C2.6816,9.1054 2.3896,8.9754 2.1926,8.7264 C1.8496,8.2944 1.9216,7.6654 2.3536,7.3214 L2.5576,7.1634 C2.9956,6.8274 3.6236,6.9124 3.9586,7.3514 C4.2936,7.7904 4.2096,8.4184 3.7706,8.7534 L3.5976,8.8884 C3.4136,9.0344 3.1936,9.1054 2.9756,9.1054" id="Fill-10" fill="#000000"></path>
                <path d="M38.9131,2.7974 L38.8821,2.7974 L38.6431,2.7894 C38.0911,2.7724 37.6571,2.3114 37.6741,1.7584 C37.6911,1.2064 38.1261,0.7474 38.7051,0.7904 L38.9431,0.7974 C39.4961,0.8154 39.9291,1.2764 39.9131,1.8284 C39.8961,2.3694 39.4521,2.7974 38.9131,2.7974 M42.0921,2.9544 C42.0721,2.9544 42.0511,2.9544 42.0311,2.9524 L41.7911,2.9384 C41.2401,2.9044 40.8201,2.4304 40.8541,1.8794 C40.8871,1.3284 41.3771,0.9094 41.9131,0.9424 L42.1521,0.9564 C42.7041,0.9904 43.1231,1.4644 43.0891,2.0154 C43.0571,2.5464 42.6171,2.9544 42.0921,2.9544 M45.2631,3.2034 C45.2311,3.2034 45.1981,3.2024 45.1651,3.1984 L44.9321,3.1764 C44.3811,3.1264 43.9771,2.6384 44.0281,2.0894 C44.0801,1.5404 44.5601,1.1354 45.1161,1.1854 L45.3591,1.2084 C45.9091,1.2624 46.3111,1.7514 46.2571,2.3004 C46.2071,2.8174 45.7721,3.2034 45.2631,3.2034 M48.4251,3.5524 C48.3801,3.5524 48.3351,3.5494 48.2891,3.5434 L48.0651,3.5144 C47.5161,3.4464 47.1261,2.9474 47.1951,2.3994 C47.2631,1.8524 47.7711,1.4654 48.3091,1.5294 L48.5591,1.5614 C49.1061,1.6354 49.4901,2.1394 49.4151,2.6874 C49.3471,3.1884 48.9181,3.5524 48.4251,3.5524 M51.5731,4.0094 C51.5171,4.0094 51.4601,4.0054 51.4041,3.9954 L51.1781,3.9584 C50.6321,3.8714 50.2611,3.3584 50.3491,2.8124 C50.4371,2.2674 50.9511,1.8944 51.4951,1.9844 L51.7401,2.0244 C52.2851,2.1174 52.6511,2.6334 52.5571,3.1784 C52.4741,3.6654 52.0511,4.0094 51.5731,4.0094 M54.7011,4.5944 C54.6311,4.5944 54.5601,4.5874 54.4901,4.5714 L54.2641,4.5254 C53.7231,4.4134 53.3751,3.8844 53.4871,3.3434 C53.5981,2.8024 54.1261,2.4544 54.6681,2.5664 L54.9101,2.6164 C55.4501,2.7334 55.7931,3.2644 55.6771,3.8044 C55.5771,4.2734 55.1621,4.5944 54.7011,4.5944 M57.7971,5.3304 C57.7121,5.3304 57.6251,5.3184 57.5391,5.2964 L57.3081,5.2344 C56.7741,5.0924 56.4561,4.5454 56.5981,4.0114 C56.7401,3.4774 57.2901,3.1604 57.8221,3.3014 L58.0531,3.3634 C58.5871,3.5054 58.9051,4.0524 58.7631,4.5864 C58.6441,5.0344 58.2401,5.3304 57.7971,5.3304 M60.8381,6.2584 C60.7291,6.2584 60.6171,6.2404 60.5071,6.2024 L60.2901,6.1274 C59.7671,5.9494 59.4881,5.3814 59.6641,4.8584 C59.8421,4.3364 60.4111,4.0564 60.9331,4.2334 L61.1691,4.3144 C61.6911,4.4974 61.9641,5.0684 61.7821,5.5894 C61.6371,6.0014 61.2511,6.2584 60.8381,6.2584 M63.7811,7.4604 C63.6361,7.4604 63.4891,7.4284 63.3491,7.3614 L63.1381,7.2614 C62.6391,7.0254 62.4261,6.4294 62.6621,5.9294 C62.8971,5.4314 63.4901,5.2164 63.9941,5.4534 L64.2141,5.5584 C64.7121,5.7974 64.9221,6.3944 64.6831,6.8924 C64.5111,7.2514 64.1541,7.4604 63.7811,7.4604 M66.4931,9.1084 C66.2751,9.1084 66.0561,9.0374 65.8711,8.8914 L65.7021,8.7584 C65.2611,8.4254 65.1741,7.7984 65.5081,7.3584 C65.8401,6.9184 66.4671,6.8294 66.9091,7.1654 L67.1161,7.3254 C67.5481,7.6684 67.6211,8.2974 67.2771,8.7304 C67.0801,8.9794 66.7881,9.1084 66.4931,9.1084" id="Fill-12" fill="#000000"></path>
                <g id="Group-16">
                    <mask id="mask-2" fill="white">
                        <use xlink:href="#path-1"></use>
                    </mask>
                    <g id="Clip-15"></g>
                    <path d="M35.7329,2.729 L35.7239,2.729 L34.7329,2.725 L33.7419,2.729 L33.7329,2.729 C33.1849,2.729 32.7379,2.287 32.7329,1.738 C32.7279,1.186 33.1719,0.734 33.7239,0.729 L34.7329,0.725 L35.7419,0.729 C36.2939,0.734 36.7379,1.186 36.7329,1.738 C36.7279,2.287 36.2809,2.729 35.7329,2.729 L35.7329,2.729 Z M68.2939,13.342 C68.1839,13.342 68.0729,13.324 67.9639,13.286 C67.4429,13.104 67.1679,12.534 67.3489,12.012 C67.4259,11.792 67.4649,11.573 67.4649,11.362 C67.4649,11.148 67.4269,10.937 67.3489,10.716 C67.1649,10.195 67.4369,9.624 67.9579,9.439 C68.4739,9.254 69.0489,9.527 69.2339,10.048 C69.3869,10.48 69.4649,10.923 69.4649,11.362 C69.4649,11.798 69.3889,12.238 69.2379,12.671 C69.0929,13.083 68.7069,13.342 68.2939,13.342 L68.2939,13.342 Z M1.1729,13.342 C0.7609,13.342 0.3749,13.085 0.2299,12.675 C0.0779,12.243 -0.0001,11.802 -0.0001,11.362 C-0.0001,10.923 0.0769,10.481 0.2299,10.049 C0.4139,9.528 0.9829,9.253 1.5059,9.439 C2.0259,9.623 2.2999,10.194 2.1159,10.715 C2.0379,10.936 1.9999,11.147 1.9999,11.362 C1.9999,11.574 2.0389,11.792 2.1159,12.008 C2.2999,12.529 2.0269,13.101 1.5059,13.285 C1.3959,13.324 1.2839,13.342 1.1729,13.342 L1.1729,13.342 Z M34.7329,22 L33.7239,21.996 C33.1719,21.991 32.7279,21.54 32.7329,20.987 C32.7379,20.438 33.1849,19.996 33.7329,19.996 L33.7419,19.996 L34.7329,20 L35.7239,19.996 C36.2499,19.952 36.7279,20.435 36.7329,20.987 C36.7379,21.54 36.2939,21.991 35.7419,21.996 L34.7329,22 Z" id="Fill-14" fill="#000000" mask="url(#mask-2)"></path>
                </g>
            </g>
        </g>
    </g>
</svg>