<?xml version="1.0" encoding="UTF-8" standalone="no"?>
<svg width="94px" height="70px" viewBox="0 0 94 70" version="1.1" xmlns="http://www.w3.org/2000/svg" xmlns:xlink="http://www.w3.org/1999/xlink">
    <!-- Generator: Sketch 41.1 (35376) - http://www.bohemiancoding.com/sketch -->
    <title>cloud</title>
    <desc>Created with Sketch.</desc>
    <defs></defs>
    <g id="Page-1" stroke="none" stroke-width="1" fill="none" fill-rule="evenodd">
        <path d="M2,55.4179 L40.963,55.4179 C42.838,53.5459 45.528,52.6329 48.213,53.1449 C48.662,45.0219 55.414,38.5509 63.648,38.5509 C69.362,38.5509 74.427,41.6279 77.103,46.3989 L77.103,9.2289 L34.196,9.2289 L29.378,1.9999 L2,1.9999 L2,55.4179 Z M42.137,57.0859 C41.115,58.2279 40.552,59.7019 40.552,61.2369 C40.552,64.6709 43.347,67.4649 46.782,67.4649 L82.922,67.4649 C87.685,67.4649 91.559,63.5899 91.559,58.8269 C91.559,54.0639 87.685,50.1889 82.922,50.1889 C81.419,50.1889 79.934,50.5869 78.625,51.3409 L78.603,51.3539 C78.486,51.4209 78.371,51.4909 78.257,51.5639 L77.063,52.3349 L76.741,50.9499 C75.316,44.8269 69.932,40.5509 63.648,40.5509 C56.227,40.5509 50.189,46.5869 50.189,54.0079 C50.189,54.0709 50.194,54.1329 50.199,54.1949 L50.266,55.8969 L48.875,55.3979 C48.144,55.1359 47.459,55.0079 46.782,55.0079 C45.013,55.0079 43.32,55.7649 42.138,57.0849 L42.137,57.0859 Z M82.922,69.4649 L46.782,69.4649 C42.244,69.4649 38.552,65.7739 38.552,61.2369 C38.552,59.8939 38.878,58.5859 39.491,57.4179 L0,57.4179 L0,-0.0001 L30.448,-0.0001 L35.266,7.2289 L79.103,7.2289 L79.103,48.9029 C80.319,48.4329 81.615,48.1889 82.922,48.1889 C88.788,48.1889 93.559,52.9609 93.559,58.8269 C93.559,64.6919 88.788,69.4649 82.922,69.4649 L82.922,69.4649 Z" id="cloud" fill="#211F1F"></path>
    </g>
</svg>