<?xml version="1.0" encoding="UTF-8" standalone="no"?>
<svg width="80px" height="82px" viewBox="0 0 80 82" version="1.1" xmlns="http://www.w3.org/2000/svg" xmlns:xlink="http://www.w3.org/1999/xlink">
    <!-- Generator: Sketch 41.1 (35376) - http://www.bohemiancoding.com/sketch -->
    <title>events</title>
    <desc>Created with Sketch.</desc>
    <defs></defs>
    <g id="Page-1" stroke="none" stroke-width="1" fill="none" fill-rule="evenodd">
        <path d="M58.8247,2 C56.7207,2 55.0077,3.713 55.0077,5.819 C55.0077,7.926 56.7207,9.64 58.8247,9.64 C60.9317,9.64 62.6457,7.926 62.6457,5.819 C62.6457,3.713 60.9317,2 58.8247,2 L58.8247,2 Z M58.8247,11.64 C55.6167,11.64 53.0077,9.028 53.0077,5.819 C53.0077,2.61 55.6167,0 58.8247,0 C62.0347,0 64.6457,2.61 64.6457,5.819 C64.6457,9.028 62.0347,11.64 58.8247,11.64 L58.8247,11.64 Z M39.5497,14.047 C38.9977,14.047 38.5497,13.6 38.5497,13.047 C38.5497,9.612 35.7547,6.818 32.3187,6.818 C28.8857,6.818 26.0917,9.612 26.0917,13.047 C26.0917,13.6 25.6437,14.047 25.0917,14.047 C24.5397,14.047 24.0917,13.6 24.0917,13.047 C24.0917,8.51 27.7827,4.818 32.3187,4.818 C36.8577,4.818 40.5497,8.51 40.5497,13.047 C40.5497,13.6 40.1017,14.047 39.5497,14.047 L39.5497,14.047 Z M13.0477,21.275 C12.2707,21.275 11.6387,21.908 11.6387,22.686 C11.6387,23.463 12.2707,24.096 13.0477,24.096 C13.8247,24.096 14.4577,23.463 14.4577,22.686 C14.4577,21.908 13.8247,21.275 13.0477,21.275 L13.0477,21.275 Z M13.0477,26.096 C11.1687,26.096 9.6387,24.565 9.6387,22.686 C9.6387,20.806 11.1687,19.275 13.0477,19.275 C14.9287,19.275 16.4577,20.806 16.4577,22.686 C16.4577,24.565 14.9287,26.096 13.0477,26.096 L13.0477,26.096 Z M66.0577,33.323 C61.5187,33.323 57.8267,29.631 57.8267,25.093 C57.8267,24.54 58.2737,24.093 58.8267,24.093 C59.3797,24.093 59.8267,24.54 59.8267,25.093 C59.8267,28.528 62.6217,31.323 66.0577,31.323 C69.4917,31.323 72.2847,28.528 72.2847,25.093 C72.2847,24.54 72.7317,24.093 73.2847,24.093 C73.8377,24.093 74.2847,24.54 74.2847,25.093 C74.2847,29.631 70.5947,33.323 66.0577,33.323 L66.0577,33.323 Z M41.9607,40.551 C37.4237,40.551 33.7327,36.861 33.7327,32.326 C33.7327,27.787 37.4237,24.094 41.9607,24.094 C42.5127,24.094 42.9607,24.541 42.9607,25.094 C42.9607,25.646 42.5127,26.094 41.9607,26.094 C38.5267,26.094 35.7327,28.89 35.7327,32.326 C35.7327,35.759 38.5267,38.551 41.9607,38.551 C42.5127,38.551 42.9607,38.998 42.9607,39.551 C42.9607,40.104 42.5127,40.551 41.9607,40.551 L41.9607,40.551 Z M75.6917,40.55 C74.9147,40.55 74.2827,41.183 74.2827,41.96 C74.2827,42.737 74.9147,43.37 75.6917,43.37 C76.4707,43.37 77.1027,42.737 77.1027,41.96 C77.1027,41.183 76.4707,40.55 75.6917,40.55 L75.6917,40.55 Z M75.6917,45.37 C73.8117,45.37 72.2827,43.84 72.2827,41.96 C72.2827,40.08 73.8117,38.55 75.6917,38.55 C77.5727,38.55 79.1027,40.08 79.1027,41.96 C79.1027,43.84 77.5727,45.37 75.6917,45.37 L75.6917,45.37 Z M51.5997,64.646 C51.0477,64.646 50.5997,64.199 50.5997,63.646 C50.5997,63.094 51.0477,62.646 51.5997,62.646 C55.0337,62.646 57.8277,59.851 57.8277,56.414 C57.8277,52.981 55.0337,50.189 51.5997,50.189 C51.0477,50.189 50.5997,49.742 50.5997,49.189 C50.5997,48.637 51.0477,48.189 51.5997,48.189 C56.1367,48.189 59.8277,51.879 59.8277,56.414 C59.8277,60.953 56.1367,64.646 51.5997,64.646 L51.5997,64.646 Z M23.2917,42.811 L28.9287,65.358 L40.2047,59.721 L23.2917,42.811 Z M15.6797,53.319 L19.0207,70.021 C19.0397,70.117 19.0447,70.212 19.0367,70.305 L27.0957,66.274 L21.1317,42.416 L15.6797,53.319 Z M14.2227,56.232 L3.2367,78.205 L17.5117,71.067 C17.2857,70.927 17.1157,70.696 17.0597,70.414 L14.2227,56.232 Z M1.0007,81.441 C0.7407,81.441 0.4847,81.341 0.2927,81.148 C-0.0113,80.844 -0.0873,80.379 0.1057,79.994 L20.5487,39.11 C20.5587,39.088 20.5707,39.066 20.5827,39.046 C20.5827,39.046 20.5827,39.045 20.5837,39.044 L20.5837,39.044 C20.5847,39.043 20.5847,39.042 20.5847,39.042 L20.5857,39.041 C20.5927,39.029 20.5997,39.018 20.6077,39.006 C20.6077,39.005 20.6087,39.004 20.6087,39.004 L20.6087,39.003 C20.6097,39.003 20.6097,39.002 20.6107,39.001 C20.6107,39.001 20.6107,39 20.6117,39 C20.7407,38.804 20.9387,38.652 21.1817,38.586 C21.1927,38.583 21.2037,38.58 21.2147,38.578 L21.2157,38.578 L21.2157,38.577 C21.4737,38.518 21.7327,38.562 21.9477,38.686 C21.9477,38.686 21.9457,38.685 21.9497,38.687 C21.9507,38.688 21.9517,38.688 21.9517,38.688 C21.9517,38.688 21.9527,38.688 21.9537,38.689 C21.9607,38.693 21.9687,38.698 21.9747,38.702 C21.9757,38.703 21.9767,38.704 21.9777,38.704 C21.9777,38.704 21.9787,38.705 21.9797,38.705 C21.9807,38.706 21.9817,38.708 21.9837,38.708 L21.9847,38.708 C21.9857,38.709 21.9857,38.709 21.9867,38.71 C22.0517,38.752 22.1117,38.801 22.1657,38.856 L42.5997,59.287 C42.8277,59.515 42.9317,59.837 42.8807,60.154 C42.8287,60.472 42.6277,60.745 42.3407,60.889 L1.4477,81.336 C1.3047,81.407 1.1517,81.441 1.0007,81.441 L1.0007,81.441 Z" id="events" fill="#241F21"></path>
    </g>
</svg>