<?xml version="1.0" encoding="UTF-8" standalone="no"?>
<svg width="80px" height="84px" viewBox="0 0 80 84" version="1.1" xmlns="http://www.w3.org/2000/svg" xmlns:xlink="http://www.w3.org/1999/xlink">
    <!-- Generator: Sketch 41.1 (35376) - http://www.bohemiancoding.com/sketch -->
    <title>fiets-repair</title>
    <desc>Created with Sketch.</desc>
    <defs></defs>
    <g id="Page-1" stroke="none" stroke-width="1" fill="none" fill-rule="evenodd">
        <g id="fiets-repair" transform="translate(0.000000, 0.097600)" fill="#241F21">
            <path d="M8.1553,15.252 C9.7173,17.736 12.4443,19.275 15.4543,19.275 C18.9883,19.275 22.1313,17.156 23.4593,13.877 C23.6123,13.499 23.9783,13.252 24.3853,13.252 L67.4643,13.252 L67.4643,8.023 L24.3853,8.023 C23.9783,8.023 23.6123,7.776 23.4593,7.398 C22.1313,4.119 18.9883,2 15.4543,2 C12.4443,2 9.7173,3.539 8.1553,6.023 L15.4553,6.023 C16.0073,6.023 16.4553,6.471 16.4553,7.023 L16.4553,14.252 C16.4553,14.805 16.0073,15.252 15.4553,15.252 L8.1553,15.252 Z M15.4543,21.275 C11.1033,21.275 7.2343,18.666 5.5983,14.627 C5.4733,14.319 5.5093,13.969 5.6963,13.693 C5.8813,13.417 6.1923,13.252 6.5253,13.252 L14.4553,13.252 L14.4553,8.023 L6.5253,8.023 C6.1923,8.023 5.8813,7.858 5.6963,7.582 C5.5093,7.307 5.4733,6.956 5.5983,6.648 C7.2343,2.609 11.1033,0 15.4543,0 C19.5783,0 23.2693,2.343 25.0363,6.023 L68.4643,6.023 C69.0163,6.023 69.4643,6.471 69.4643,7.023 L69.4643,14.252 C69.4643,14.805 69.0163,15.252 68.4643,15.252 L25.0363,15.252 C23.2693,18.933 19.5783,21.275 15.4543,21.275 L15.4543,21.275 Z M24.8313,49.651 L43.4433,68.263 L50.4233,49.651 L24.8313,49.651 Z M13.8503,58.219 C7.3163,58.219 2.0003,63.535 2.0003,70.069 C2.0003,76.604 7.3163,81.92 13.8503,81.92 C20.3843,81.92 25.6993,76.604 25.6993,70.069 C25.6993,65.353 22.9293,61.271 18.9313,59.364 L14.7863,70.42 C14.5923,70.938 14.0173,71.197 13.4993,71.005 C12.9823,70.811 12.7193,70.234 12.9133,69.717 L17.0603,58.66 C16.0383,58.373 14.9623,58.219 13.8503,58.219 L13.8503,58.219 Z M58.3213,60.462 C55.3423,62.616 53.4013,66.121 53.4013,70.07 C53.4013,76.605 58.7173,81.921 65.2513,81.921 C71.7853,81.921 77.1023,76.605 77.1023,70.07 C77.1023,63.535 71.7853,58.219 65.2513,58.219 C63.3803,58.219 61.6093,58.654 60.0343,59.43 L66.1093,69.554 C66.3933,70.027 66.2403,70.642 65.7663,70.926 C65.2923,71.209 64.6783,71.057 64.3943,70.583 L58.3213,60.462 Z M65.2513,83.921 C57.6133,83.921 51.4013,77.708 51.4013,70.07 C51.4013,65.394 53.7303,61.251 57.2893,58.742 L52.2803,50.394 L44.7703,70.42 C44.6513,70.738 44.3783,70.974 44.0463,71.046 C43.7143,71.115 43.3673,71.016 43.1273,70.775 L22.4183,50.066 L19.6363,57.486 C24.3913,59.682 27.6993,64.497 27.6993,70.069 C27.6993,77.707 21.4873,83.92 13.8503,83.92 C6.2133,83.92 0.0003,77.707 0.0003,70.069 C0.0003,62.432 6.2133,56.219 13.8503,56.219 C15.2093,56.219 16.5223,56.415 17.7643,56.782 L25.2573,36.801 L13.8503,36.801 C13.2983,36.801 12.8503,36.354 12.8503,35.801 C12.8503,35.248 13.2983,34.801 13.8503,34.801 L26.6993,34.801 C27.0283,34.801 27.3353,34.962 27.5213,35.231 C27.7083,35.501 27.7513,35.845 27.6363,36.152 L23.3243,47.651 L51.1733,47.651 L55.2423,36.801 L48.1173,36.801 C47.5653,36.801 47.1173,36.354 47.1173,35.801 C47.1173,35.248 47.5653,34.801 48.1173,34.801 L56.6613,34.801 L56.7083,34.801 L60.9683,34.801 C61.5203,34.801 61.9683,35.248 61.9683,35.801 C61.9683,36.354 61.5203,36.801 60.9683,36.801 L57.3783,36.801 L53.1723,48.016 C53.2033,48.053 53.2323,48.094 53.2583,48.137 L59.0023,57.71 C60.8813,56.757 63.0043,56.219 65.2513,56.219 C72.8883,56.219 79.1023,62.433 79.1023,70.07 C79.1023,77.708 72.8883,83.921 65.2513,83.921 L65.2513,83.921 Z" id="Fill-1"></path>
        </g>
    </g>
</svg>