<?xml version="1.0" encoding="UTF-8" standalone="no"?>
<svg width="99px" height="84px" viewBox="0 0 99 84" version="1.1" xmlns="http://www.w3.org/2000/svg" xmlns:xlink="http://www.w3.org/1999/xlink">
    <!-- Generator: Sketch 41.1 (35376) - http://www.bohemiancoding.com/sketch -->
    <title>fiets</title>
    <desc>Created with Sketch.</desc>
    <defs></defs>
    <g id="Page-1" stroke="none" stroke-width="1" fill="none" fill-rule="evenodd">
        <g id="fiets" transform="translate(0.000000, -1.000000)" fill="#241F21">
            <g id="Group-3" transform="translate(9.000000, 34.921400)">
                <path d="M25.4701,15.7305 L44.0821,34.3435 L51.0621,15.7305 L25.4701,15.7305 Z M14.4881,24.2985 C7.9541,24.2985 2.6391,29.6145 2.6391,36.1495 C2.6391,42.6835 7.9541,47.9995 14.4881,47.9995 C21.0231,47.9995 26.3391,42.6835 26.3391,36.1495 C26.3391,31.4325 23.5701,27.3505 19.5701,25.4445 L15.4241,36.4995 C15.2301,37.0175 14.6521,37.2755 14.1361,37.0845 C13.6191,36.8905 13.3581,36.3145 13.5511,35.7975 L17.6981,24.7405 C16.6771,24.4525 15.6001,24.2985 14.4881,24.2985 L14.4881,24.2985 Z M58.9601,26.5415 C55.9821,28.6955 54.0401,32.2005 54.0401,36.1495 C54.0401,42.6845 59.3561,48.0005 65.8901,48.0005 C72.4241,48.0005 77.7411,42.6845 77.7411,36.1495 C77.7411,29.6145 72.4241,24.2985 65.8901,24.2985 C64.0191,24.2985 62.2481,24.7335 60.6741,25.5095 L66.7481,35.6335 C67.0331,36.1075 66.8791,36.7215 66.4061,37.0055 C65.9321,37.2905 65.3181,37.1365 65.0331,36.6635 L58.9601,26.5415 Z M65.8901,50.0005 C58.2531,50.0005 52.0401,43.7865 52.0401,36.1495 C52.0401,31.4735 54.3691,27.3305 57.9291,24.8215 L52.9191,16.4735 L45.4091,36.4995 C45.2901,36.8175 45.0171,37.0535 44.6851,37.1265 C44.3501,37.1965 44.0061,37.0955 43.7661,36.8555 L23.0571,16.1465 L20.2751,23.5655 C25.0311,25.7615 28.3391,30.5765 28.3391,36.1495 C28.3391,43.7865 22.1251,49.9995 14.4881,49.9995 C6.8521,49.9995 0.6391,43.7865 0.6391,36.1495 C0.6391,28.5115 6.8521,22.2985 14.4881,22.2985 C15.8471,22.2985 17.1601,22.4955 18.4031,22.8615 L25.8961,2.8795 L14.4891,2.8795 C13.9361,2.8795 13.4891,2.4315 13.4891,1.8795 C13.4891,1.3275 13.9361,0.8795 14.4891,0.8795 L27.3391,0.8795 C27.6671,0.8795 27.9741,1.0405 28.1611,1.3095 C28.3481,1.5795 28.3911,1.9235 28.2761,2.2305 L23.9631,13.7305 L51.8121,13.7305 L55.8811,2.8795 L48.7571,2.8795 C48.2041,2.8795 47.7571,2.4315 47.7571,1.8795 C47.7571,1.3275 48.2041,0.8795 48.7571,0.8795 L57.3021,0.8795 L57.3481,0.8795 L61.6071,0.8795 C62.1591,0.8795 62.6071,1.3275 62.6071,1.8795 C62.6071,2.4315 62.1591,2.8795 61.6071,2.8795 L58.0181,2.8795 L53.8121,14.0945 C53.8431,14.1325 53.8721,14.1725 53.8981,14.2155 L59.6421,23.7895 C61.5201,22.8355 63.6431,22.2985 65.8901,22.2985 C73.5281,22.2985 79.7411,28.5115 79.7411,36.1495 C79.7411,43.7865 73.5281,50.0005 65.8901,50.0005 L65.8901,50.0005 Z" id="Fill-1"></path>
            </g>
            <g id="Group-6" transform="translate(0.000000, 0.921400)">
                <path d="M97.3793,21.3569 C97.2553,21.3569 97.1293,21.3339 97.0083,21.2849 L49.1903,2.1559 L1.3713,21.2849 C0.8623,21.4889 0.2763,21.2409 0.0713,20.7279 C-0.1337,20.2149 0.1163,19.6329 0.6293,19.4279 L48.8183,0.1499 C49.0573,0.0549 49.3223,0.0549 49.5613,0.1499 L97.7503,19.4279 C98.2633,19.6329 98.5133,20.2149 98.3083,20.7279 C98.1513,21.1189 97.7753,21.3569 97.3793,21.3569 L97.3793,21.3569 Z M4.4103,34.8139 L9.6383,34.8139 L9.6383,32.3989 C9.6383,30.9579 8.4653,29.7849 7.0243,29.7849 C5.5813,29.7849 4.4083,30.9579 4.4083,32.3989 L4.4103,34.8139 Z M2.0013,44.8529 L12.0483,44.8529 L12.0483,36.8139 L2.0013,36.8139 L2.0013,44.8529 Z M13.0483,46.8529 L1.0013,46.8529 C0.4483,46.8529 0.0013,46.4049 0.0013,45.8529 L0.0013,35.8139 C0.0013,35.2609 0.4483,34.8139 1.0013,34.8139 L2.4103,34.8139 L2.4083,32.3999 C2.4083,29.8549 4.4793,27.7849 7.0243,27.7849 C9.5673,27.7849 11.6383,29.8549 11.6383,32.3989 L11.6383,34.8139 L13.0483,34.8139 C13.6013,34.8139 14.0483,35.2609 14.0483,35.8139 L14.0483,45.8529 C14.0483,46.4049 13.6013,46.8529 13.0483,46.8529 L13.0483,46.8529 Z" id="Fill-4"></path>
            </g>
        </g>
    </g>
</svg>