<?xml version="1.0" encoding="UTF-8" standalone="no"?>
<svg width="73px" height="77px" viewBox="0 0 73 77" version="1.1" xmlns="http://www.w3.org/2000/svg" xmlns:xlink="http://www.w3.org/1999/xlink">
    <!-- Generator: Sketch 41.1 (35376) - http://www.bohemiancoding.com/sketch -->
    <title>gym</title>
    <desc>Created with Sketch.</desc>
    <defs></defs>
    <g id="Page-1" stroke="none" stroke-width="1" fill="none" fill-rule="evenodd">
        <path d="M16.1904,49.3437 C8.3664,49.3437 2.0004,55.4037 2.0004,62.8527 C2.0004,70.0437 7.2824,74.6907 15.4574,74.6907 C18.0664,74.6907 22.5124,73.5817 24.6044,72.4087 C24.7534,72.3247 24.9224,72.2807 25.0934,72.2807 L67.9164,72.2807 C74.4964,61.5107 67.3744,39.4377 62.1544,23.2597 C60.4194,17.8827 58.9214,13.2397 58.0904,9.6037 C57.5724,8.0147 54.5544,5.6507 50.6044,3.8067 C47.1394,2.1887 44.8634,1.8577 44.4184,2.0367 C43.1484,2.5497 40.4954,5.8297 39.8824,7.9877 C39.7064,8.6087 39.7724,8.8887 39.8134,8.9447 C39.9384,9.1147 40.1274,9.2837 40.3774,9.4517 C40.8194,9.7447 40.9554,10.3317 40.6874,10.7887 C40.6174,10.9097 40.5724,11.0127 40.5464,11.1127 C40.4764,11.3957 40.5064,11.6937 40.6284,11.9267 C40.6894,12.0417 40.8284,12.2437 41.0824,12.3067 L47.6054,13.9337 C47.6904,13.9547 47.7714,13.9877 47.8484,14.0307 C48.1494,14.1967 48.4644,14.2037 48.6874,14.0487 L52.1604,11.6557 C52.5084,11.4137 52.9744,11.4217 53.3174,11.6717 C53.6614,11.9227 53.8074,12.3637 53.6844,12.7707 C52.6994,16.0107 48.8744,36.1307 54.4754,53.5457 C54.6134,53.9547 54.4744,54.4167 54.1204,54.6757 C53.7344,54.9567 53.2094,54.9347 52.8574,54.6127 C49.6284,51.6547 44.8764,49.9567 39.8204,49.9567 C35.3044,49.9567 31.0534,51.2937 27.8504,53.7217 C27.4514,54.0257 26.8854,53.9867 26.5334,53.6257 C23.8154,50.8647 20.1424,49.3437 16.1904,49.3437 M15.4574,76.6907 C6.2114,76.6907 0.0004,71.1297 0.0004,62.8527 C0.0004,54.3007 7.2624,47.3437 16.1904,47.3437 C20.3894,47.3437 24.3154,48.8577 27.3384,51.6247 C30.7924,49.2537 35.1884,47.9567 39.8204,47.9567 C44.1994,47.9567 48.3884,49.1327 51.7264,51.2457 C48.1194,37.4067 49.6484,21.9407 51.1284,14.7947 L49.8214,15.6967 C49.0074,16.2567 47.9404,16.3097 47.0054,15.8457 L40.5984,14.2477 C39.8494,14.0617 39.2304,13.5677 38.8574,12.8557 C38.5054,12.1837 38.4174,11.3937 38.6064,10.6287 L38.6154,10.5967 C38.4574,10.4457 38.3184,10.2867 38.1994,10.1247 C37.7204,9.4727 37.6384,8.5687 37.9594,7.4407 C38.7154,4.7747 41.7044,0.9757 43.6694,0.1827 C45.6054,-0.6043 50.1154,1.3697 51.4514,1.9937 C53.1854,2.8037 58.9284,5.7077 60.0164,9.0727 C60.8514,12.7087 62.3364,17.3137 64.0574,22.6457 C69.4754,39.4377 76.8954,62.4357 69.2954,73.8357 C69.1104,74.1147 68.7974,74.2807 68.4634,74.2807 L25.3464,74.2807 C22.8744,75.5787 18.3454,76.6907 15.4574,76.6907" id="gym" fill="#000000"></path>
    </g>
</svg>