<?xml version="1.0" encoding="UTF-8" standalone="no"?>
<svg width="99px" height="73px" viewBox="0 0 99 73" version="1.1" xmlns="http://www.w3.org/2000/svg" xmlns:xlink="http://www.w3.org/1999/xlink">
    <!-- Generator: Sketch 41.1 (35376) - http://www.bohemiancoding.com/sketch -->
    <title>Fill 1</title>
    <desc>Created with Sketch.</desc>
    <defs></defs>
    <g id="Page-1" stroke="none" stroke-width="1" fill="none" fill-rule="evenodd">
        <path d="M44.0728,54.5414 L44.0718,54.5414 C41.9988,54.5414 40.0498,55.3494 38.5838,56.8154 C35.5588,59.8424 35.5598,64.7674 38.5868,67.7944 C41.6118,70.8194 46.5348,70.8174 49.5608,67.7914 C51.0278,66.3264 51.8348,64.3764 51.8348,62.3024 C51.8358,60.6724 51.3368,59.1204 50.4118,57.8194 L45.2188,63.0124 C44.8278,63.4024 44.1948,63.4024 43.8038,63.0124 C43.4138,62.6214 43.4138,61.9884 43.8038,61.5984 L49.0528,56.3494 C47.6578,55.1784 45.9138,54.5414 44.0728,54.5414 M44.0708,72.0614 C41.5718,72.0614 39.0738,71.1104 37.1728,69.2084 C33.3658,65.4024 33.3648,59.2084 37.1698,55.4014 C39.0128,53.5574 41.4648,52.5414 44.0718,52.5414 L44.0728,52.5414 C46.4488,52.5414 48.6958,53.3844 50.4718,54.9304 L61.4578,43.9454 C56.7438,39.4734 50.5958,37.0194 44.0718,37.0194 C37.3178,37.0194 30.9698,39.6484 26.1968,44.4224 L24.7798,43.0114 L24.7818,43.0084 C29.7818,38.0074 36.3838,35.1874 43.4318,35.0264 L43.5068,35.0244 C50.7348,34.8794 57.6438,37.5514 62.8728,42.5314 L73.8518,31.5524 C63.3228,21.3534 48.8048,17.6364 35.3708,20.4044 C27.5108,22.0234 20.0228,25.8614 13.9198,31.9194 C13.8898,31.9494 13.8598,31.9794 13.8298,32.0084 C13.8288,32.0094 13.8278,32.0104 13.8268,32.0124 C13.6438,32.2064 13.3858,32.3274 13.0978,32.3274 C12.5458,32.3274 12.0978,31.8814 12.0978,31.3294 L12.0978,31.3264 C12.0978,31.0614 12.2038,30.8064 12.3908,30.6194 C29.6968,13.3144 57.7578,13.1524 75.2668,30.1374 L86.2468,19.1574 C62.6858,-3.8796 24.7768,-3.7196 1.4168,19.6414 L-0.0002,18.2294 C24.1418,-5.9136 63.3188,-6.0756 87.6618,17.7434 L96.3788,9.0264 C96.7698,8.6364 97.4028,8.6364 97.7928,9.0264 C98.1838,9.4174 98.1838,10.0504 97.7928,10.4404 L51.8428,56.3884 C53.1358,58.0794 53.8358,60.1374 53.8348,62.3034 C53.8348,64.9114 52.8188,67.3624 50.9748,69.2064 C49.0718,71.1094 46.5708,72.0604 44.0708,72.0614" id="Fill-1" fill="#241F21"></path>
    </g>
</svg>