<?xml version="1.0" encoding="UTF-8" standalone="no"?>
<svg width="118px" height="80px" viewBox="0 0 118 80" version="1.1" xmlns="http://www.w3.org/2000/svg" xmlns:xlink="http://www.w3.org/1999/xlink">
    <!-- Generator: Sketch 41.1 (35376) - http://www.bohemiancoding.com/sketch -->
    <title>kiala</title>
    <desc>Created with Sketch.</desc>
    <defs></defs>
    <g id="Page-1" stroke="none" stroke-width="1" fill="none" fill-rule="evenodd" stroke-linecap="round" stroke-linejoin="round">
        <path d="M73.284,34.732 L58.827,34.732 C58.827,34.732 54.006,49.189 39.552,49.189 C25.096,49.189 20.276,34.732 20.276,34.732 C20.276,34.732 5.82,39.551 1,25.094 C15.457,25.094 20.275,25.095 25.095,25.094 C10.638,10.636 25.095,1.001 25.095,1.001 L54.008,25.094 L73.284,25.094 C73.284,25.094 75.651,20.275 82.923,20.275 C90.195,20.275 92.56,27.503 92.56,27.503 L116.654,29.914 L92.56,32.324 C92.56,32.324 89.676,39.551 82.923,39.551 C76.17,39.551 73.284,34.732 73.284,34.732 Z M97.378,32.324 L97.378,78.102 L97.378,32.324 Z M82.922,78.102 L111.835,78.102 L111.835,49.189 L82.922,49.189 L82.922,78.102 Z" id="kiala" stroke="#241F21" stroke-width="2"></path>
    </g>
</svg>