<?xml version="1.0" encoding="UTF-8" standalone="no"?>
<svg width="70px" height="84px" viewBox="0 0 70 84" version="1.1" xmlns="http://www.w3.org/2000/svg" xmlns:xlink="http://www.w3.org/1999/xlink">
    <!-- Generator: Sketch 41.1 (35376) - http://www.bohemiancoding.com/sketch -->
    <title>koffie-concert</title>
    <desc>Created with Sketch.</desc>
    <defs></defs>
    <g id="Page-1" stroke="none" stroke-width="1" fill="none" fill-rule="evenodd">
        <path d="M29.915,21.2752 C26.139,21.2752 26.096,24.9372 26.096,25.0932 C26.1,25.4802 26.237,28.9122 29.915,28.9122 C33.581,28.9122 33.728,25.5002 33.733,25.0922 C33.729,24.6952 33.585,21.2752 29.915,21.2752 L29.915,21.2752 Z M29.915,30.9122 C25.311,30.9122 24.096,27.1062 24.096,25.0932 C24.096,23.0812 25.311,19.2752 29.915,19.2752 C31.612,19.2752 32.849,19.7932 33.733,20.5462 L33.733,1.0002 C33.733,0.5952 33.977,0.2302 34.351,0.0762 C34.726,-0.0788 35.154,0.0062 35.44,0.2932 L40.259,5.1102 C40.649,5.5012 40.649,6.1332 40.259,6.5242 C39.868,6.9152 39.235,6.9152 38.845,6.5242 L35.733,3.4142 L35.733,25.0932 L35.733,25.0942 C35.733,27.1072 34.517,30.9122 29.915,30.9122 L29.915,30.9122 Z M57.55,62.6452 L58.828,62.6452 C63.592,62.6452 67.467,58.7702 67.467,54.0072 C67.467,49.5392 64.058,45.8522 59.703,45.4122 L57.55,62.6452 Z M16.341,81.9212 L53.126,81.9212 L57.693,45.3682 L11.769,45.3682 L16.341,81.9212 Z M68.465,83.9212 L1,83.9212 C0.447,83.9212 0,83.4732 0,82.9212 C0,82.3682 0.447,81.9212 1,81.9212 L14.325,81.9212 L9.644,44.4922 C9.608,44.2082 9.697,43.9212 9.887,43.7062 C10.077,43.4912 10.35,43.3682 10.637,43.3682 L58.826,43.3682 L58.827,43.3682 L58.828,43.3682 C64.694,43.3682 69.467,48.1402 69.467,54.0072 C69.467,59.8732 64.694,64.6452 58.828,64.6452 L57.3,64.6452 L55.142,81.9212 L68.465,81.9212 C69.018,81.9212 69.465,82.3682 69.465,82.9212 C69.465,83.4732 69.018,83.9212 68.465,83.9212 L68.465,83.9212 Z" id="koffie-concert" fill="#241F21"></path>
    </g>
</svg>