<?xml version="1.0" encoding="UTF-8" standalone="no"?>
<svg width="99px" height="80px" viewBox="0 0 99 80" version="1.1" xmlns="http://www.w3.org/2000/svg" xmlns:xlink="http://www.w3.org/1999/xlink">
    <!-- Generator: Sketch 41.1 (35376) - http://www.bohemiancoding.com/sketch -->
    <title>lezingen</title>
    <desc>Created with Sketch.</desc>
    <defs></defs>
    <g id="Page-1" stroke="none" stroke-width="1" fill="none" fill-rule="evenodd">
        <path d="M75.6924,55.0078 L70.8744,55.0078 C70.3214,55.0078 69.8744,54.5608 69.8744,54.0078 C69.8744,53.4548 70.3214,53.0078 70.8744,53.0078 L75.6924,53.0078 C76.2454,53.0078 76.6924,53.4548 76.6924,54.0078 C76.6924,54.5608 76.2454,55.0078 75.6924,55.0078 L75.6924,55.0078 Z M18.5454,51.0688 L28.0324,60.5568 C30.0044,60.3498 31.8374,59.4808 33.2324,58.0838 L33.2334,58.0838 C34.8644,56.4528 35.7624,54.2838 35.7624,51.9768 C35.7624,49.6698 34.8634,47.4998 33.2324,45.8678 C29.8624,42.5008 24.3844,42.5008 21.0174,45.8678 C19.6194,47.2648 18.7514,49.0978 18.5454,51.0688 L18.5454,51.0688 Z M27.6514,62.5898 C27.3974,62.5898 27.1424,62.4928 26.9464,62.2988 L26.9444,62.2968 L16.8044,52.1558 C16.6204,51.9718 16.5224,51.7328 16.5124,51.4908 L16.5124,51.4888 L16.5124,51.4878 L16.5124,51.4858 L16.5124,51.4828 C16.5114,51.4678 16.5114,51.4538 16.5114,51.4408 L16.5114,51.4378 L16.5114,51.4368 L16.5114,51.4348 C16.5124,51.4188 16.5124,51.4038 16.5134,51.3898 C16.6584,48.7638 17.7554,46.3008 19.6034,44.4538 C23.7494,40.3078 30.4974,40.3058 34.6464,44.4538 C36.6554,46.4638 37.7624,49.1358 37.7624,51.9768 C37.7624,54.8188 36.6564,57.4888 34.6474,59.4978 C32.8024,61.3448 30.3394,62.4418 27.7134,62.5878 C27.6924,62.5888 27.6724,62.5898 27.6514,62.5898 L27.6514,62.5898 Z M73.2824,1.9998 C60.5474,1.9998 50.1884,11.6398 50.1884,23.4878 L50.1884,30.3468 C51.0294,29.6118 52.0834,29.1158 53.2434,28.9628 C54.4414,24.9398 58.6694,12.0468 63.6444,12.0468 C66.2904,12.0468 67.6824,12.7428 68.9114,13.3578 C70.0904,13.9468 71.1094,14.4568 73.2834,14.4568 C75.4564,14.4568 76.4744,13.9468 77.6544,13.3578 C78.8824,12.7428 80.2754,12.0468 82.9214,12.0468 C87.8954,12.0468 92.1254,24.9398 93.3234,28.9628 C94.4834,29.1158 95.5374,29.6118 96.3784,30.3458 L96.3784,23.4878 C96.3784,11.6398 86.0174,1.9998 73.2824,1.9998 L73.2824,1.9998 Z M70.1064,36.1418 L76.4574,36.1418 C77.2404,34.7068 78.7634,33.7318 80.5094,33.7318 C82.2004,33.7318 83.6814,34.6448 84.4854,36.0038 L91.4254,29.5988 C89.4524,22.9458 85.6404,14.0468 82.9214,14.0468 C80.7474,14.0468 79.7284,14.5568 78.5484,15.1468 C77.3204,15.7608 75.9284,16.4568 73.2834,16.4568 C70.6374,16.4568 69.2454,15.7608 68.0164,15.1468 C66.8374,14.5568 65.8184,14.0468 63.6444,14.0468 C60.9214,14.0468 57.1124,22.9458 55.1404,29.5988 L62.0794,36.0038 C62.8824,34.6448 64.3634,33.7318 66.0534,33.7318 C67.7994,33.7318 69.3234,34.7068 70.1064,36.1418 L70.1064,36.1418 Z M66.0534,35.7318 C64.6124,35.7318 63.4394,36.9038 63.4394,38.3458 C63.4394,39.7868 64.6124,40.9598 66.0534,40.9598 C67.4954,40.9598 68.6684,39.7868 68.6684,38.3458 C68.6684,36.9038 67.4954,35.7318 66.0534,35.7318 L66.0534,35.7318 Z M80.5094,35.7318 C79.0684,35.7318 77.8954,36.9038 77.8954,38.3458 C77.8954,39.7868 79.0684,40.9598 80.5094,40.9598 C81.9524,40.9598 83.1254,39.7868 83.1254,38.3458 C83.1254,36.9038 81.9524,35.7318 80.5094,35.7318 L80.5094,35.7318 Z M73.2834,45.7788 C76.0024,45.7788 77.3754,47.2248 78.5864,48.4998 C79.7004,49.6718 80.5794,50.5978 82.4384,50.5978 C86.2384,50.5978 90.2004,46.7658 90.7944,46.1678 C91.2914,44.0698 91.5584,41.8498 91.5584,39.5508 C91.5584,38.9978 92.0054,38.5508 92.5584,38.5508 C94.6644,38.5508 96.3774,36.8378 96.3774,34.7328 C96.3774,32.7518 94.8624,31.1178 92.9294,30.9308 L85.4064,37.8758 C85.3184,37.9568 85.2194,38.0198 85.1164,38.0638 C85.1224,38.1558 85.1254,38.2508 85.1254,38.3458 C85.1254,40.8898 83.0544,42.9598 80.5094,42.9598 C77.9654,42.9598 75.8954,40.8898 75.8954,38.3458 C75.8954,38.2778 75.8974,38.2088 75.9004,38.1418 L70.6634,38.1418 C70.6664,38.2088 70.6684,38.2778 70.6684,38.3458 C70.6684,40.8898 68.5974,42.9598 66.0534,42.9598 C63.5094,42.9598 61.4394,40.8898 61.4394,38.3458 C61.4394,38.2508 61.4424,38.1558 61.4484,38.0638 C61.3434,38.0198 61.2464,37.9568 61.1584,37.8758 L53.6364,30.9308 C51.7044,31.1178 50.1904,32.7518 50.1904,34.7328 C50.1904,36.8378 51.9024,38.5508 54.0074,38.5508 C54.5604,38.5508 55.0074,38.9978 55.0074,39.5508 C55.0074,41.8498 55.2744,44.0708 55.7724,46.1678 C56.3704,46.7678 60.3394,50.5978 64.1274,50.5978 C65.9874,50.5978 66.8664,49.6718 67.9804,48.4998 C69.1914,47.2248 70.5644,45.7788 73.2834,45.7788 L73.2834,45.7788 Z M56.8854,49.7418 C59.8704,57.3798 66.0984,62.6458 73.2824,62.6458 C80.4664,62.6458 86.6954,57.3798 89.6804,49.7418 C87.8084,51.1138 85.1564,52.5978 82.4384,52.5978 C79.7204,52.5978 78.3474,51.1528 77.1364,49.8768 C76.0224,48.7048 75.1434,47.7788 73.2834,47.7788 C71.4224,47.7788 70.5444,48.7048 69.4294,49.8768 C68.2184,51.1528 66.8454,52.5978 64.1274,52.5978 C61.4094,52.5978 58.7574,51.1148 56.8854,49.7418 L56.8854,49.7418 Z M73.2824,64.6458 C62.3504,64.6458 53.4114,53.8818 53.0214,40.4668 C50.3034,40.0008 48.2234,37.6428 48.1904,34.8018 C48.1894,34.7788 48.1884,34.7558 48.1884,34.7328 L48.1884,23.4878 C48.1884,10.5368 59.4454,-0.0002 73.2824,-0.0002 C87.1204,-0.0002 98.3784,10.5368 98.3784,23.4878 L98.3784,34.7328 C98.3784,34.7488 98.3784,34.7658 98.3774,34.7808 C98.3524,37.6318 96.2694,39.9998 93.5454,40.4668 C93.1534,53.8818 84.2134,64.6458 73.2824,64.6458 L73.2824,64.6458 Z M2.4144,73.5568 L5.5434,76.6878 L20.0304,62.2008 L16.9004,59.0688 L2.4144,73.5568 Z M5.5434,79.1018 L5.5434,79.1018 C5.2774,79.1018 5.0234,78.9958 4.8364,78.8088 L0.2934,74.2638 C-0.0976,73.8728 -0.0976,73.2398 0.2934,72.8498 L16.1934,56.9468 C16.3814,56.7598 16.6354,56.6538 16.9004,56.6538 C17.1664,56.6538 17.4214,56.7598 17.6084,56.9468 L22.1524,61.4938 C22.5424,61.8848 22.5424,62.5178 22.1514,62.9078 L6.2504,78.8088 C6.0624,78.9958 5.8084,79.1018 5.5434,79.1018 L5.5434,79.1018 Z" id="lezingen" fill="#241F21"></path>
    </g>
</svg>