<?xml version="1.0" encoding="UTF-8" standalone="no"?>
<svg width="113px" height="48px" viewBox="0 0 113 48" version="1.1" xmlns="http://www.w3.org/2000/svg" xmlns:xlink="http://www.w3.org/1999/xlink">
    <!-- Generator: Sketch 41.1 (35376) - http://www.bohemiancoding.com/sketch -->
    <title>lunch</title>
    <desc>Created with Sketch.</desc>
    <defs></defs>
    <g id="Page-1" stroke="none" stroke-width="1" fill="none" fill-rule="evenodd">
        <path d="M91.7456,22.9878 L103.9036,22.9878 L103.9036,14.8328 C103.9036,7.8108 98.1376,2.0978 91.0496,2.0978 C86.7416,2.0978 82.7426,4.2228 80.3466,7.7848 C80.3386,7.7968 80.3306,7.8088 80.3226,7.8208 C78.9316,9.9068 78.1956,12.3308 78.1956,14.8328 C78.1956,15.3848 77.7476,15.8328 77.1956,15.8328 C76.6436,15.8328 76.1956,15.3848 76.1956,14.8328 C76.1956,12.1578 76.9216,9.5588 78.3006,7.2748 C75.8766,4.0218 72.0586,2.0978 67.9586,2.0978 C63.6416,2.0978 59.6366,4.2298 57.2446,7.8018 L57.2436,7.8018 C56.4976,8.9168 55.9366,10.1298 55.5756,11.4088 L55.5756,11.4108 C55.2636,12.5208 55.1046,13.6718 55.1046,14.8328 C55.1046,15.3848 54.6576,15.8328 54.1046,15.8328 C53.5526,15.8328 53.1046,15.3848 53.1046,14.8328 C53.1046,13.4888 53.2886,12.1548 53.6496,10.8688 C53.6506,10.8678 53.6506,10.8668 53.6516,10.8648 C54.0066,9.6048 54.5306,8.3998 55.2096,7.2748 C52.7876,4.0208 48.9696,2.0978 44.8696,2.0978 C40.5586,2.0978 36.5606,4.2228 34.1686,7.7828 L34.1556,7.8018 C32.7556,9.8918 32.0156,12.3228 32.0156,14.8328 C32.0156,15.3848 31.5676,15.8328 31.0156,15.8328 C30.4626,15.8328 30.0156,15.3848 30.0156,14.8328 C30.0156,12.1558 30.7416,9.5578 32.1216,7.2748 C29.6976,4.0218 25.8786,2.0978 21.7786,2.0978 C14.6906,2.0978 8.9246,7.8108 8.9246,14.8328 L8.9246,22.9878 L91.7456,22.9878 Z M8.1556,31.6708 L8.1676,31.6738 C9.4106,31.9858 10.7276,32.1438 12.0816,32.1438 C15.3176,32.1438 18.3886,31.2078 20.2996,29.6378 L20.3156,29.6258 C20.8956,29.1478 21.3506,28.6248 21.6666,28.0718 L21.6666,28.0708 C21.9986,27.4888 22.1666,26.8858 22.1666,26.2778 C22.1666,25.8428 22.0806,25.4118 21.9116,24.9878 L6.9246,24.9878 L6.9246,21.2538 C3.9326,22.3158 1.9996,24.2448 1.9996,26.2778 C1.9996,28.5778 4.4736,30.7438 8.1556,31.6708 L8.1556,31.6708 Z M22.5136,30.2858 C24.4166,31.4618 27.0576,32.1438 29.8166,32.1438 C33.0576,32.1438 36.1326,31.2028 38.0446,29.6268 L38.0456,29.6258 C38.6286,29.1458 39.0836,28.6218 39.3986,28.0708 C39.3986,28.0698 39.3996,28.0698 39.3996,28.0688 C39.7306,27.4878 39.8976,26.8848 39.8976,26.2778 C39.8976,25.8428 39.8116,25.4118 39.6416,24.9878 L24.0096,24.9878 C24.1146,25.4118 24.1666,25.8418 24.1666,26.2778 C24.1666,27.2378 23.9106,28.1738 23.4056,29.0618 L23.4026,29.0658 C23.1596,29.4908 22.8616,29.8988 22.5136,30.2858 L22.5136,30.2858 Z M40.2446,30.2858 C42.1486,31.4618 44.7896,32.1438 47.5496,32.1438 C50.7876,32.1438 53.8626,31.2038 55.7746,29.6308 L55.7816,29.6258 C56.3626,29.1468 56.8176,28.6248 57.1326,28.0738 L57.1346,28.0708 C57.4656,27.4898 57.6336,26.8858 57.6336,26.2778 C57.6336,25.8428 57.5476,25.4108 57.3776,24.9878 L41.7406,24.9878 C41.8456,25.4118 41.8976,25.8418 41.8976,26.2778 C41.8976,27.2378 41.6416,28.1738 41.1366,29.0618 L41.1336,29.0658 C40.8906,29.4898 40.5936,29.8978 40.2446,30.2858 L40.2446,30.2858 Z M57.9796,30.2858 C59.8836,31.4618 62.5236,32.1438 65.2836,32.1438 C68.5256,32.1438 71.6036,31.2018 73.5156,29.6258 L73.5236,29.6198 C74.1036,29.1398 74.5556,28.6188 74.8676,28.0708 L74.8686,28.0708 C75.2006,27.4888 75.3696,26.8858 75.3696,26.2778 C75.3696,25.8438 75.2836,25.4118 75.1126,24.9878 L59.4756,24.9878 C59.5806,25.4108 59.6336,25.8418 59.6336,26.2778 C59.6336,27.2378 59.3776,28.1738 58.8726,29.0588 C58.8726,29.0608 58.8716,29.0618 58.8706,29.0628 C58.6276,29.4878 58.3296,29.8978 57.9796,30.2858 L57.9796,30.2858 Z M75.7146,30.2858 C77.6186,31.4618 80.2586,32.1438 83.0186,32.1438 C86.2596,32.1438 89.3356,31.2018 91.2476,29.6258 L91.2556,29.6198 C91.8336,29.1408 92.2866,28.6198 92.6006,28.0708 L92.6006,28.0698 C92.9326,27.4878 93.0996,26.8848 93.0996,26.2778 C93.0996,25.8428 93.0146,25.4108 92.8446,24.9878 L77.2106,24.9878 C77.3166,25.4118 77.3696,25.8428 77.3696,26.2778 C77.3696,27.2388 77.1116,28.1758 76.6046,29.0628 C76.6046,29.0638 76.6036,29.0648 76.6026,29.0658 C76.3606,29.4898 76.0636,29.8978 75.7146,30.2858 L75.7146,30.2858 Z M93.4466,30.2858 C95.3496,31.4618 97.9906,32.1438 100.7496,32.1438 C102.1026,32.1438 103.4186,31.9858 104.6606,31.6748 L104.6746,31.6708 C108.3596,30.7438 110.8336,28.5778 110.8336,26.2778 C110.8336,24.2428 108.8996,22.3128 105.9036,21.2528 L105.9036,24.9878 L94.9426,24.9878 C95.0476,25.4118 95.0996,25.8418 95.0996,26.2778 C95.0996,27.2368 94.8436,28.1728 94.3386,29.0588 C94.3386,29.0598 94.3376,29.0618 94.3366,29.0628 C94.0936,29.4878 93.7956,29.8968 93.4466,30.2858 L93.4466,30.2858 Z M8.9466,33.8808 C9.3326,40.5598 14.9406,45.8778 21.7786,45.8778 L91.0496,45.8778 C97.8876,45.8778 103.4956,40.5608 103.8826,33.8808 C102.8666,34.0548 101.8176,34.1438 100.7496,34.1438 C97.3356,34.1438 94.1566,33.2428 91.8836,31.6528 C89.6116,33.2428 86.4326,34.1438 83.0186,34.1438 C79.6046,34.1438 76.4246,33.2428 74.1516,31.6528 C71.8796,33.2428 68.6986,34.1438 65.2836,34.1438 C61.8696,34.1438 58.6896,33.2428 56.4166,31.6528 C54.1446,33.2428 50.9646,34.1438 47.5496,34.1438 C44.1346,34.1438 40.9546,33.2428 38.6826,31.6528 C36.4096,33.2428 33.2306,34.1438 29.8166,34.1438 C26.4016,34.1438 23.2226,33.2428 20.9516,31.6528 C18.6796,33.2428 15.4986,34.1438 12.0816,34.1438 C11.0136,34.1438 9.9626,34.0548 8.9466,33.8808 L8.9466,33.8808 Z M91.0496,47.8778 L21.7786,47.8778 C13.6766,47.8778 7.0686,41.4098 6.9276,33.4048 C2.6926,32.1258 -0.0004,29.3838 -0.0004,26.2778 C-0.0004,23.1728 2.6916,20.4298 6.9246,19.1488 L6.9246,14.8328 C6.9246,6.7078 13.5886,0.0978 21.7786,0.0978 C26.2936,0.0978 30.5146,2.1188 33.3246,5.5658 C36.1336,2.1188 40.3536,0.0978 44.8696,0.0978 C49.3846,0.0978 53.6046,2.1188 56.4136,5.5658 C59.2236,2.1188 63.4446,0.0978 67.9586,0.0978 C72.4736,0.0978 76.6936,2.1188 79.5036,5.5668 C82.3146,2.1188 86.5366,0.0978 91.0496,0.0978 C99.2406,0.0978 105.9036,6.7078 105.9036,14.8328 L105.9036,19.1478 C110.1406,20.4268 112.8336,23.1708 112.8336,26.2778 C112.8336,29.3838 110.1396,32.1268 105.9016,33.4058 C105.7596,41.4098 99.1516,47.8778 91.0496,47.8778 L91.0496,47.8778 Z" id="lunch" fill="#000000"></path>
    </g>
</svg>