<?xml version="1.0" encoding="UTF-8" standalone="no"?>
<svg width="89px" height="55px" viewBox="0 0 89 55" version="1.1" xmlns="http://www.w3.org/2000/svg" xmlns:xlink="http://www.w3.org/1999/xlink">
    <!-- Generator: Sketch 41.1 (35376) - http://www.bohemiancoding.com/sketch -->
    <title>meeting-rooms</title>
    <desc>Created with Sketch.</desc>
    <defs></defs>
    <g id="Page-1" stroke="none" stroke-width="1" fill="none" fill-rule="evenodd">
        <path d="M14.4568,28.9137 L14.4568,15.4567 C14.4568,14.9047 14.9048,14.4567 15.4568,14.4567 L73.2838,14.4567 C73.8368,14.4567 74.2838,14.9047 74.2838,15.4567 L74.2838,28.9137 L82.0749,28.9137 L86.7549,0.8367 C86.8439,0.2917 87.3579,-0.0773 87.9049,0.0147 C88.4499,0.1057 88.8179,0.6207 88.7269,1.1657 L83.9379,29.8977 L88.7209,53.8127 C88.8299,54.3537 88.4779,54.8807 87.9369,54.9887 C87.8709,55.0027 87.8039,55.0087 87.7399,55.0087 C87.2729,55.0087 86.8549,54.6797 86.7609,54.2047 L82.1019,30.9137 L74.2838,30.9137 L74.2838,54.0087 C74.2838,54.5607 73.8368,55.0087 73.2838,55.0087 C72.7308,55.0087 72.2838,54.5607 72.2838,54.0087 L72.2838,30.9137 L59.8339,30.9137 C59.8629,35.6997 59.9589,52.9507 59.8199,54.1267 C59.7549,54.6727 59.2649,55.0697 58.7129,54.9987 C58.1659,54.9357 57.7719,54.4397 57.8339,53.8917 C57.9379,52.9607 57.8859,39.0467 57.8269,29.9207 C57.8249,29.6547 57.9289,29.3987 58.1179,29.2097 C58.3049,29.0207 58.5599,28.9137 58.8269,28.9137 L72.2838,28.9137 L72.2838,16.4567 L16.4568,16.4567 L16.4568,28.9137 L29.9139,28.9137 C30.1799,28.9137 30.4359,29.0207 30.6239,29.2097 C30.8109,29.3987 30.9159,29.6547 30.9139,29.9207 C30.8549,39.0467 30.8029,52.9607 30.9069,53.8917 C30.9689,54.4397 30.5749,54.9357 30.0279,54.9987 C29.4839,55.0637 28.9859,54.6727 28.9209,54.1267 C28.7819,52.9507 28.8789,35.6997 28.9079,30.9137 L16.4568,30.9137 L16.4568,54.0087 C16.4568,54.5607 16.0098,55.0087 15.4568,55.0087 C14.9048,55.0087 14.4568,54.5607 14.4568,54.0087 L14.4568,30.9137 L6.6389,30.9137 L1.9809,54.2047 C1.8859,54.6797 1.4679,55.0087 1.0009,55.0087 C0.9359,55.0087 0.8699,55.0027 0.8039,54.9887 C0.2619,54.8807 -0.0891,54.3537 0.0199,53.8127 L4.8019,29.8977 L0.0139,1.1657 C-0.0771,0.6207 0.2909,0.1057 0.8359,0.0147 C1.3859,-0.0793 1.8959,0.2927 1.9869,0.8367 L6.6659,28.9137 L14.4568,28.9137 Z" id="meeting-rooms" fill="#241F21"></path>
    </g>
</svg>