<?xml version="1.0" encoding="UTF-8" standalone="no"?>
<svg width="67px" height="80px" viewBox="0 0 67 80" version="1.1" xmlns="http://www.w3.org/2000/svg" xmlns:xlink="http://www.w3.org/1999/xlink">
    <!-- Generator: Sketch 41.1 (35376) - http://www.bohemiancoding.com/sketch -->
    <title>online-community</title>
    <desc>Created with Sketch.</desc>
    <defs></defs>
    <g id="Page-1" stroke="none" stroke-width="1" fill="none" fill-rule="evenodd">
        <path d="M9.21387722,20.1386 C7.84787722,20.1386 6.51987722,20.2556 5.21287722,20.6586 L4.96987722,20.7306 C4.19587722,20.9616 3.94087722,21.0796 3.85587722,21.3716 C3.76587722,21.6816 3.76987722,21.9926 4.73787722,22.6346 L4.98387722,22.7966 C6.37187722,23.7176 7.80687722,24.6706 9.29687722,25.3136 C23.1818772,31.3096 38.9938772,35.0716 56.2938772,36.4966 C57.0968772,36.4576 57.8288772,36.4326 58.5108772,36.4096 C59.9488772,36.3616 61.1908772,36.3196 62.3668772,36.1576 L62.5658772,36.1306 C63.7758772,35.9666 64.3038772,35.8096 64.4398772,35.2646 C64.5658772,34.7536 64.2568772,34.4306 63.2638772,33.7226 L63.0028772,33.5356 C61.1068772,32.1546 58.8118772,31.0056 55.7818772,29.9216 C53.8668772,29.2376 53.1598772,27.9306 53.6788772,26.0396 C53.7978772,25.6076 53.8908772,25.1676 53.9838772,24.7276 C54.1368772,24.0036 54.2958772,23.2556 54.5638772,22.5226 C56.7858772,16.4756 55.0098772,11.6596 48.8078772,6.9036 C45.4158772,4.3026 41.3878772,2.7236 36.8368772,2.2106 C25.8028772,0.9676 19.7448772,5.2066 17.2088772,15.9616 C17.1618772,16.1596 17.0938772,16.3526 17.0248772,16.5456 C16.9608772,16.7216 16.8948772,16.9046 16.8918772,17.0046 C16.8598772,18.1316 16.5498772,18.9536 15.9418772,19.5146 C15.0868772,20.3036 13.8608772,20.3456 12.8858772,20.2946 L12.0548772,20.2476 C11.0878772,20.1926 10.1418772,20.1386 9.21387722,20.1386 M56.2768772,38.4986 C56.2498772,38.4986 56.2218772,38.4976 56.1948772,38.4946 C38.6528772,37.0566 22.6078772,33.2396 8.50487722,27.1496 C6.84987722,26.4356 5.33887722,25.4326 3.87787722,24.4636 L3.63387722,24.3016 C3.07087722,23.9296 1.35987722,22.7956 1.93587722,20.8116 C2.34087722,19.4266 3.57987722,19.0576 4.40087722,18.8136 L4.62287722,18.7466 C7.16387722,17.9656 9.70887722,18.1106 12.1688772,18.2516 L12.9908772,18.2976 C13.8218772,18.3426 14.3568772,18.2566 14.5858772,18.0446 C14.8198772,17.8286 14.8818772,17.3266 14.8928772,16.9446 C14.9058772,16.5236 15.0378772,16.1586 15.1438772,15.8646 C15.1878772,15.7436 15.2338772,15.6236 15.2628772,15.5006 C18.0418772,3.7146 24.9708772,-1.1394 37.0608772,0.2226 C41.9788772,0.7776 46.3398772,2.4916 50.0248772,5.3166 C56.9408772,10.6186 58.9798772,16.3046 56.4418772,23.2106 C56.2228772,23.8086 56.0858772,24.4566 55.9398772,25.1426 C55.8388772,25.6216 55.7358772,26.1006 55.6078772,26.5706 C55.3808772,27.3916 55.4648772,27.6846 56.4558772,28.0386 C59.6708772,29.1886 62.1258772,30.4216 64.1808772,31.9196 L64.4248772,32.0946 C65.3338772,32.7426 66.8548772,33.8266 66.3808772,35.7466 C65.8918772,37.6976 63.9778772,37.9566 62.8338772,38.1126 L62.6418772,38.1386 C61.3608772,38.3146 60.0708772,38.3586 58.5778772,38.4086 C57.8868772,38.4316 57.1438772,38.4566 56.3258772,38.4966 C56.3098772,38.4976 56.2938772,38.4986 56.2768772,38.4986 M1.99987722,69.6596 C1.96587722,73.3336 3.67587722,75.5486 7.19887722,76.4166 C14.5118772,78.2186 20.1558772,76.5026 24.4538772,71.1766 C26.3988772,68.7696 27.7558772,67.4656 29.3588772,67.4646 L29.3598772,67.4646 C30.9728772,67.4646 32.3528772,68.7916 34.3338772,71.2396 C38.4958772,76.3816 43.9498772,78.1136 51.0038772,76.5306 C54.8968772,75.6576 56.5848772,73.6956 56.6688772,69.7246 C56.6418772,69.7436 56.6148772,69.7626 56.5888772,69.7816 C52.1048772,72.9526 49.6808772,72.6286 46.2118772,68.3986 C45.3138772,67.3026 44.5098772,66.1286 43.7328772,64.9926 C43.1808772,64.1876 42.6298772,63.3816 42.0438772,62.6026 C39.0388772,58.6046 35.7718772,57.8166 31.4528772,60.0496 C29.9158772,60.8446 28.7988772,60.8526 27.3308772,60.0826 C23.1008772,57.8536 19.8928772,58.5436 16.9248772,62.3136 C16.2288772,63.1976 15.5688772,64.1556 14.9308772,65.0816 C14.2468772,66.0746 13.5398772,67.1006 12.7678772,68.0696 C9.11187722,72.6596 6.89187722,72.9916 1.99987722,69.6596 M12.4388772,79.0976 C10.6308772,79.0976 8.72387722,78.8516 6.72087722,78.3586 C1.86487722,77.1626 -0.43512278,73.7036 0.0678772202,68.3546 C0.10087722,68.0006 0.31987722,67.6896 0.64387722,67.5406 C1.72087722,67.0436 2.54487722,67.6096 3.03687722,67.9466 C7.13687722,70.7476 8.19887722,70.5966 11.2038772,66.8236 C11.9318772,65.9086 12.6188772,64.9116 13.2838772,63.9476 C13.9398772,62.9946 14.6178772,62.0106 15.3538772,61.0766 C18.9348772,56.5276 23.1588772,55.6226 28.2608772,58.3116 C29.1358772,58.7716 29.5828772,58.7636 30.5338772,58.2726 C35.6738772,55.6146 40.0838772,56.6676 43.6428772,61.4006 C44.2508772,62.2096 44.8258772,63.0506 45.3828772,63.8636 C46.1358772,64.9636 46.9158772,66.1016 47.7578772,67.1306 C50.5728772,70.5626 51.7918772,70.7226 55.4328772,68.1496 C55.7128772,67.9506 55.9948772,67.7546 56.3758772,67.4916 L57.0368772,67.0316 C57.3308772,66.8266 57.7128772,66.7956 58.0358772,66.9486 C58.3598772,67.1026 58.5768772,67.4176 58.6048772,67.7746 C59.0868772,73.9606 56.8778772,77.2626 51.4408772,78.4816 C43.6788772,80.2226 37.4008772,78.2076 32.7788772,72.4976 C31.5048772,70.9226 30.2078772,69.4646 29.3598772,69.4646 L29.3588772,69.4646 C28.5228772,69.4646 27.2558772,70.8916 26.0098772,72.4326 C22.4308772,76.8676 17.8808772,79.0976 12.4388772,79.0976" id="online-community" fill="#241F21"></path>
    </g>
</svg>