<?xml version="1.0" encoding="UTF-8" standalone="no"?>
<svg width="71px" height="84px" viewBox="0 0 71 84" version="1.1" xmlns="http://www.w3.org/2000/svg" xmlns:xlink="http://www.w3.org/1999/xlink">
    <!-- Generator: Sketch 41.1 (35376) - http://www.bohemiancoding.com/sketch -->
    <title>receptie</title>
    <desc>Created with Sketch.</desc>
    <defs>
        <polygon id="path-1" points="22.1385 0.081 0.8635 0.081 0.8635 17.1196 22.1385 17.1196 22.1385 0.081"></polygon>
        <polygon id="path-3" points="0 0.9726 0 42.0866 70.6688 42.0866 70.6688 0.9726 0 0.9726"></polygon>
    </defs>
    <g id="Page-1" stroke="none" stroke-width="1" fill="none" fill-rule="evenodd">
        <g id="receptie" transform="translate(0.000000, -1.000000)">
            <g id="Group-3" transform="translate(16.000000, 0.919400)">
                <mask id="mask-2" fill="white">
                    <use xlink:href="#path-1"></use>
                </mask>
                <g id="Clip-2"></g>
                <path d="M3.5225,17.1196 C3.2025,17.1196 2.8875,16.9666 2.6945,16.6816 C1.4965,14.9166 0.8635,12.8536 0.8635,10.7166 C0.8635,4.8516 5.6345,0.0806 11.4995,0.0806 C17.3665,0.0806 22.1385,4.8516 22.1385,10.7166 C22.1385,12.8536 21.5065,14.9156 20.3105,16.6796 C20.0015,17.1376 19.3775,17.2566 18.9205,16.9466 C18.4635,16.6366 18.3445,16.0146 18.6545,15.5576 C19.6265,14.1256 20.1385,12.4516 20.1385,10.7166 C20.1385,5.9546 16.2625,2.0806 11.4995,2.0806 C6.7375,2.0806 2.8635,5.9546 2.8635,10.7166 C2.8635,12.4526 3.3765,14.1256 4.3485,15.5576 C4.6595,16.0156 4.5405,16.6366 4.0835,16.9476 C3.9115,17.0636 3.7155,17.1196 3.5225,17.1196" id="Fill-1" fill="#000000" mask="url(#mask-2)"></path>
            </g>
            <path d="M27.5713,28.0883 C26.5013,30.4773 24.2173,34.2923 19.3813,39.1283 C11.1753,47.3343 6.8223,47.7873 6.3533,47.8123 C3.9293,47.8133 2.0013,49.7433 2.0013,52.1153 C2.0013,54.4863 3.9293,56.4163 6.3003,56.4163 C6.8533,56.4163 7.3003,56.8633 7.3003,57.4163 C7.3003,71.4783 16.3633,82.9193 27.5023,82.9193 C38.2003,82.9193 46.9853,72.3663 47.6653,59.0723 C40.8653,63.8103 33.3053,68.3013 27.7093,69.4773 C27.1703,69.5903 26.6373,69.2453 26.5243,68.7043 C26.4113,68.1643 26.7573,67.6333 27.2973,67.5203 C34.4133,66.0253 45.2553,58.5823 53.1233,52.5793 C53.0503,52.4413 53.0083,52.2823 53.0083,52.1153 C53.0083,49.7433 51.0793,47.8133 48.7073,47.8133 C48.6353,47.8133 48.5643,47.8053 48.4943,47.7903 C48.2753,47.7433 43.0443,46.5393 35.6343,39.1283 C31.1153,34.6093 28.7453,30.5893 27.5713,28.0883 M27.5023,84.9193 C15.5093,84.9193 5.7083,73.0783 5.3133,58.3383 C2.3063,57.8633 0.0013,55.2533 0.0013,52.1153 C0.0013,48.6403 2.8273,45.8133 6.3003,45.8133 C6.2713,45.8123 10.2953,45.3853 17.9673,37.7143 C25.7173,29.9633 26.5043,25.0813 26.5113,25.0333 C26.5803,24.5623 26.9713,24.2013 27.4463,24.1743 C27.9213,24.1543 28.3503,24.4573 28.4693,24.9183 C28.4843,24.9723 30.0733,30.7393 37.0493,37.7143 C43.4843,44.1503 48.1563,45.6263 48.8383,45.8153 C51.9363,45.8783 54.4923,48.1893 54.9393,51.1793 C59.6353,47.5213 62.9023,44.6903 62.9893,44.6143 C63.4043,44.2533 64.0363,44.2953 64.3993,44.7123 C64.7623,45.1293 64.7183,45.7603 64.3013,46.1233 C63.8023,46.5583 57.4683,52.0463 49.7063,57.6263 C49.6123,72.6953 39.6873,84.9193 27.5023,84.9193" id="Fill-4" fill="#241F21"></path>
            <path d="M33.5273,67.5366 C33.5273,69.5316 30.8313,71.1496 27.5043,71.1496 C24.1803,71.1496 21.4803,69.5316 21.4803,67.5366 C21.4803,65.5406 24.1803,63.9216 27.5043,63.9216 C30.8313,63.9216 33.5273,65.5406 33.5273,67.5366" id="Fill-6" fill="#241F21"></path>
            <path d="M22.6885,50.1875 C22.6885,51.5185 21.6095,52.5965 20.2795,52.5965 C18.9485,52.5965 17.8695,51.5185 17.8695,50.1875 C17.8695,48.8565 18.9485,47.7785 20.2795,47.7785 C21.6095,47.7785 22.6885,48.8565 22.6885,50.1875" id="Fill-8" fill="#241F21"></path>
            <path d="M37.1455,50.1875 C37.1455,51.5185 36.0665,52.5965 34.7365,52.5965 C33.4055,52.5965 32.3265,51.5185 32.3265,50.1875 C32.3265,48.8565 33.4055,47.7785 34.7365,47.7785 C36.0665,47.7785 37.1455,48.8565 37.1455,50.1875" id="Fill-10" fill="#241F21"></path>
            <g id="Group-14" transform="translate(0.000000, 13.919400)">
                <mask id="mask-4" fill="white">
                    <use xlink:href="#path-3"></use>
                </mask>
                <g id="Clip-13"></g>
                <path d="M54.0078,40.0786 C53.4548,40.0786 53.0078,39.6306 53.0078,39.0786 L53.0078,26.7116 C53.0078,13.6216 41.5668,2.9726 27.5018,2.9726 C13.4408,2.9726 1.9998,13.6216 1.9998,26.7116 L1.9998,39.0786 C1.9998,39.6306 1.5528,40.0786 0.9998,40.0786 C0.4468,40.0786 -0.0002,39.6306 -0.0002,39.0786 L-0.0002,26.7116 C-0.0002,12.5186 12.3368,0.9726 27.5018,0.9726 C42.6688,0.9726 55.0078,12.5186 55.0078,26.7116 L55.0078,39.0786 C55.0078,39.6306 54.5608,40.0786 54.0078,40.0786 M61.0308,22.8696 L61.0308,40.0296 C65.3248,39.5326 68.6688,35.8736 68.6688,31.4496 C68.6688,27.0246 65.3248,23.3666 61.0308,22.8696 M60.0308,42.0866 C59.4788,42.0866 59.0308,41.6396 59.0308,41.0866 L59.0308,21.8116 C59.0308,21.2596 59.4788,20.8116 60.0308,20.8116 C65.8968,20.8116 70.6688,25.5836 70.6688,31.4496 C70.6688,37.3146 65.8968,42.0866 60.0308,42.0866" id="Fill-12" fill="#241F21" mask="url(#mask-4)"></path>
            </g>
        </g>
    </g>
</svg>