<?xml version="1.0" encoding="UTF-8" standalone="no"?>
<svg width="53px" height="83px" viewBox="0 0 53 83" version="1.1" xmlns="http://www.w3.org/2000/svg" xmlns:xlink="http://www.w3.org/1999/xlink">
    <!-- Generator: Sketch 41.1 (35376) - http://www.bohemiancoding.com/sketch -->
    <title>studio</title>
    <desc>Created with Sketch.</desc>
    <defs></defs>
    <g id="Page-1" stroke="none" stroke-width="1" fill="none" fill-rule="evenodd">
        <path d="M43.8882,14.6133 C43.0482,14.6133 42.3652,15.2963 42.3652,16.1353 C42.3652,16.9753 43.0482,17.6593 43.8882,17.6593 C44.7282,17.6593 45.4102,16.9753 45.4102,16.1353 C45.4102,15.2963 44.7282,14.6133 43.8882,14.6133 M43.8882,19.6593 C41.9462,19.6593 40.3652,18.0783 40.3652,16.1353 C40.3652,14.1933 41.9462,12.6133 43.8882,12.6133 C45.8302,12.6133 47.4102,14.1933 47.4102,16.1353 C47.4102,18.0783 45.8302,19.6593 43.8882,19.6593 M26.2272,18.3983 C23.3012,18.3983 20.9202,20.7793 20.9202,23.7063 C20.9202,26.6323 23.3012,29.0113 26.2272,29.0113 C29.1532,29.0113 31.5342,26.6323 31.5342,23.7063 C31.5342,20.7793 29.1532,18.3983 26.2272,18.3983 M26.2272,31.0113 C22.1982,31.0113 18.9202,27.7343 18.9202,23.7063 C18.9202,19.6763 22.1982,16.3983 26.2272,16.3983 C30.2562,16.3983 33.5342,19.6763 33.5342,23.7063 C33.5342,27.7343 30.2562,31.0113 26.2272,31.0113 M26.2272,13.3513 C20.5182,13.3513 15.8742,17.9963 15.8742,23.7063 C15.8742,29.4143 20.5182,34.0573 26.2272,34.0573 C31.9352,34.0573 36.5792,29.4143 36.5792,23.7063 C36.5792,17.9963 31.9352,13.3513 26.2272,13.3513 M26.2272,36.0573 C19.4152,36.0573 13.8742,30.5163 13.8742,23.7063 C13.8742,16.8933 19.4152,11.3513 26.2272,11.3513 C33.0382,11.3513 38.5792,16.8933 38.5792,23.7063 C38.5792,30.5163 33.0382,36.0573 26.2272,36.0573 M26.2722,40.3653 L50.4562,40.3653 L50.4562,9.5673 L38.8392,9.5673 C38.5052,9.5673 38.1932,9.4003 38.0072,9.1223 L33.2582,2.0003 L19.1922,2.0003 L14.4442,9.1223 C14.2582,9.4003 13.9462,9.5673 13.6122,9.5673 L2.0002,9.5673 L2.0002,40.3653 L26.1832,40.3653 C26.2132,40.3633 26.2432,40.3633 26.2722,40.3653 M6.0452,82.7303 C5.7892,82.7303 5.5332,82.6333 5.3382,82.4373 C4.9472,82.0473 4.9472,81.4143 5.3382,81.0233 L25.2282,61.1343 L25.2282,42.3653 L1.0002,42.3653 C0.4482,42.3653 0.0002,41.9183 0.0002,41.3653 L0.0002,8.5673 C0.0002,8.0143 0.4482,7.5673 1.0002,7.5673 L13.0762,7.5673 L17.8252,0.4453 C18.0102,0.1673 18.3222,0.0003 18.6572,0.0003 L33.7932,0.0003 C34.1272,0.0003 34.4402,0.1673 34.6252,0.4453 L39.3742,7.5673 L51.4562,7.5673 C52.0092,7.5673 52.4562,8.0143 52.4562,8.5673 L52.4562,41.3653 C52.4562,41.9183 52.0092,42.3653 51.4562,42.3653 L27.2282,42.3653 L27.2282,61.1343 L47.1172,81.0233 C47.5082,81.4143 47.5082,82.0473 47.1172,82.4373 C46.7272,82.8283 46.0942,82.8283 45.7032,82.4373 L27.2282,63.9623 L27.2282,76.6843 C27.2282,77.2373 26.7802,77.6843 26.2282,77.6843 C25.6762,77.6843 25.2282,77.2373 25.2282,76.6843 L25.2282,63.9623 L6.7522,82.4373 C6.5562,82.6333 6.3012,82.7303 6.0452,82.7303" id="studio" fill="#241F21"></path>
    </g>
</svg>