<?xml version="1.0" encoding="utf-8"?>
<!-- Generator: Adobe Illustrator 24.2.3, SVG Export Plug-In . SVG Version: 6.00 Build 0)  -->
<svg version="1.1" id="Layer_1" xmlns="http://www.w3.org/2000/svg" xmlns:xlink="http://www.w3.org/1999/xlink" x="0px" y="0px"
	 viewBox="0 0 634 300" style="enable-background:new 0 0 634 300;" xml:space="preserve">
<style type="text/css">
	.st0{fill:none;stroke:#000000;stroke-width:0.72;stroke-linecap:round;stroke-linejoin:round;stroke-miterlimit:10;}
	.st1{font-family:'Helvetica';}
	.st2{font-size:12px;}
	.st3{fill:none;stroke:#000000;stroke-miterlimit:10;}
</style>
<g id="outline">
	<polyline class="st0" points="550.2,153.9 548.8,153.9 548.8,161.9 550.2,161.9 550.2,153.9 	"/>
	<polyline class="st0" points="548.8,153.9 547.5,153.9 547.5,161.9 548.8,161.9 548.8,153.9 	"/>
	<polyline class="st0" points="547.5,153.9 546.1,153.9 546.1,161.9 547.5,161.9 547.5,153.9 	"/>
	<polyline class="st0" points="546.1,153.9 544.6,153.9 544.6,161.9 546.1,161.9 546.1,153.9 	"/>
	<polyline class="st0" points="283.1,224.4 288.9,224.4 288.9,230.6 283.1,230.6 283.1,224.4 	"/>
	<polyline class="st0" points="540.9,167.5 548.8,167.5 548.8,173.6 540.9,173.6 540.9,167.5 	"/>
	<polyline class="st0" points="536.1,165.7 527.4,165.7 527.4,174.8 536.1,174.8 536.1,165.7 	"/>
	<line class="st0" x1="313.2" y1="228.9" x2="315" y2="222.3"/>
	<line class="st0" x1="313.2" y1="236.5" x2="315" y2="243.1"/>
	<line class="st0" x1="313.2" y1="228.9" x2="315" y2="222.3"/>
	<line class="st0" x1="312.5" y1="228.8" x2="313.1" y2="222"/>
	<line class="st0" x1="311.8" y1="228.8" x2="311" y2="222"/>
	<line class="st0" x1="311" y1="228.9" x2="309.1" y2="222.3"/>
	<line class="st0" x1="310.4" y1="229.2" x2="307.4" y2="223.1"/>
	<line class="st0" x1="309.8" y1="229.5" x2="305.6" y2="224.1"/>
	<line class="st0" x1="309.1" y1="230" x2="304.1" y2="225.5"/>
	<line class="st0" x1="308.8" y1="230.6" x2="303" y2="227"/>
	<line class="st0" x1="308.5" y1="231.3" x2="302" y2="228.8"/>
	<line class="st0" x1="308.1" y1="232.1" x2="301.5" y2="230.7"/>
	<line class="st0" x1="308.1" y1="232.8" x2="301.4" y2="232.8"/>
	<line class="st0" x1="308.1" y1="233.5" x2="301.5" y2="234.7"/>
	<line class="st0" x1="308.5" y1="234.2" x2="302" y2="236.6"/>
	<line class="st0" x1="308.8" y1="234.8" x2="303" y2="238.4"/>
	<line class="st0" x1="309.1" y1="235.4" x2="304.1" y2="240"/>
	<line class="st0" x1="309.8" y1="235.9" x2="305.6" y2="241.3"/>
	<line class="st0" x1="310.4" y1="236.3" x2="307.4" y2="242.4"/>
	<line class="st0" x1="311" y1="236.5" x2="309.1" y2="243.1"/>
	<line class="st0" x1="311.8" y1="236.7" x2="311" y2="243.5"/>
	<line class="st0" x1="312.5" y1="236.7" x2="313.1" y2="243.5"/>
	<line class="st0" x1="313.2" y1="236.5" x2="315" y2="243.1"/>
	<path class="st0" d="M313.1,228.9c-1.6-0.5-3.4,0.2-4.4,1.5c-1,1.4-1,3.3,0,4.6c1,1.4,2.7,2,4.4,1.5"/>
	<path class="st0" d="M315,222.4c-4.4-1.2-9.1,0.4-11.7,4.1c-2.6,3.7-2.6,8.7,0,12.4s7.3,5.4,11.7,4.1"/>
	<polyline class="st0" points="341.6,242.9 348.1,243.8 357.1,243.8 357.1,221.1 348.1,221.1 341.6,222 341.6,242.9 	"/>
	<polyline class="st0" points="548.8,167.5 548.8,168.3 551.8,168.3 551.8,162.7 525.8,162.7 525.8,166.5 527.4,166.5 527.4,165.7 
		536.1,165.7 536.1,174.8 527.4,174.8 527.4,174 525.8,174 525.8,177.8 551.8,177.8 551.8,172.8 548.8,172.8 548.8,173.6 
		540.9,173.6 540.9,167.5 548.8,167.5 	"/>
	<polyline class="st0" points="283.1,240.5 288.9,240.5 288.9,234.2 283.1,234.2 283.1,240.5 	"/>
	<polyline class="st0" points="291.6,225.2 291.6,222 285.2,221.1 276.2,221.1 276.2,243.8 285.2,243.8 291.6,242.9 291.6,239.6 
		288.9,239.6 288.9,240.5 283.1,240.5 283.1,234.2 288.9,234.2 288.9,235.1 291.6,235.1 291.6,229.8 288.9,229.8 288.9,230.6 
		283.1,230.6 283.1,224.4 288.9,224.4 288.9,225.2 291.6,225.2 	"/>
	<line class="st0" x1="551.8" y1="177.8" x2="525.8" y2="177.8"/>
	<polyline class="st0" points="525.8,162.7 551.8,162.7 551.8,141.8 525.8,141.8 525.8,162.7 	"/>
	<polyline class="st0" points="83,153.9 84.5,153.9 84.5,161.9 83,161.9 83,153.9 	"/>
	<polyline class="st0" points="84.5,153.9 85.8,153.9 85.8,161.9 84.5,161.9 84.5,153.9 	"/>
	<polyline class="st0" points="85.8,153.9 87.2,153.9 87.2,161.9 85.8,161.9 85.8,153.9 	"/>
	<polyline class="st0" points="87.2,153.9 88.7,153.9 88.7,161.9 87.2,161.9 87.2,153.9 	"/>
	<polyline class="st0" points="92.4,167.5 84.5,167.5 84.5,173.6 92.4,173.6 92.4,167.5 	"/>
	<polyline class="st0" points="97.1,165.7 105.9,165.7 105.9,174.8 97.1,174.8 97.1,165.7 	"/>
	<polyline class="st0" points="291.6,242.9 285.2,243.8 276.2,243.8 276.2,221.1 285.2,221.1 291.6,222 291.6,242.9 	"/>
	<polyline class="st0" points="84.5,167.5 84.5,168.3 81.5,168.3 81.5,162.7 107.5,162.7 107.5,166.5 105.9,166.5 105.9,165.7 
		97.1,165.7 97.1,174.8 105.9,174.8 105.9,174 107.5,174 107.5,177.8 81.5,177.8 81.5,172.8 84.5,172.8 84.5,173.6 92.4,173.6 
		92.4,167.5 84.5,167.5 	"/>
	<polyline class="st0" points="107.5,162.7 81.5,162.7 81.5,141.8 107.5,141.8 107.5,162.7 	"/>
	<polyline class="st0" points="8.4,177.8 8.4,3.2 111.5,3.2 111.5,141.8 107.5,141.8 	"/>
	<polyline class="st0" points="624.8,210.8 624.8,295.4 8.4,295.4 8.4,210.8 	"/>
	<polyline class="st0" points="525.8,141.8 521.8,141.8 521.8,3.2 624.8,3.2 624.8,177.8 	"/>
</g>
<g id="F1JH">
	<path class="st0" d="M551.8,177.8"/>
	<line class="st0" x1="551.8" y1="177.8" x2="526.4" y2="177.8"/>
</g>
<g id="F0214">
	<text transform="matrix(1 0 0 1 577.8501 269.8353)" class="st1 st2">214</text>
	<path class="st0" d="M555.8,210.8"/>
	<rect x="555.8" y="210.8" class="st0" width="69" height="84.6"/>
</g>
<g id="F052_1_">
	<text transform="matrix(1 0 0 1 36.3951 269.8353)" class="st1 st2">52</text>
	<path class="st0" d="M8.4,210.8"/>
	<rect x="8.4" y="210.8" class="st0" width="69" height="84.6"/>
</g>
<g id="F052">
	<text transform="matrix(1 0 0 1 30.4501 269.8353)" class="st1 st2">52</text>
	<path class="st0" d="M8.4,210.8"/>
</g>
<g id="F0208">
	<polyline class="st0" points="453.8,210.8 487.8,210.8 487.8,295.4 453.8,295.4 453.8,210.8 	"/>
	<text transform="matrix(1 0 0 1 460.5171 269.8353)" class="st1 st2">208</text>
</g>
<g id="F0206">
	<polyline class="st0" points="419.9,210.8 453.9,210.8 453.9,295.4 419.9,295.4 419.9,210.8 	"/>
	<text transform="matrix(1 0 0 1 426.572 269.8353)" class="st1 st2">206</text>
</g>
<g id="F062">
	<polyline class="st0" points="179.6,210.8 213.6,210.8 213.6,295.4 179.6,295.4 179.6,210.8 	"/>
	<text transform="matrix(1 0 0 1 188.2788 269.835)" class="st1 st2">62</text>
</g>
<g id="F060">
	<polyline class="st0" points="145.6,210.8 179.6,210.8 179.6,295.4 145.6,295.4 145.6,210.8 	"/>
	<text transform="matrix(1 0 0 1 154.2788 269.835)" class="st1 st2">60</text>
</g>
<g id="F058">
	<polyline class="st0" points="111.5,210.8 145.5,210.8 145.5,295.4 111.5,295.4 111.5,210.8 	"/>
	<text transform="matrix(1 0 0 1 123.2171 269.835)" class="st1 st2">58</text>
</g>
<g id="F056">
	<polyline class="st0" points="77.4,210.8 111.4,210.8 111.4,295.4 77.4,295.4 77.4,210.8 	"/>
	<text transform="matrix(1 0 0 1 86.1171 269.835)" class="st1 st2">56</text>
</g>
<g id="F0204">
	<polyline class="st0" points="351.6,210.8 419.9,210.8 419.9,295.4 351.6,295.4 351.6,210.8 	"/>
	<text transform="matrix(1 0 0 1 378.8105 269.835)" class="st1 st2">204</text>
</g>
<g id="F064">
	<polyline class="st0" points="213.6,210.8 281.8,210.8 281.8,295.4 213.6,295.4 213.6,210.8 	"/>
	<text transform="matrix(1 0 0 1 238.976 269.835)" class="st1 st2">64</text>
</g>
<g id="F0210">
	<polyline class="st0" points="487.8,295.4 521.8,295.4 521.8,210.8 487.8,210.8 487.8,295.4 	"/>
	<text transform="matrix(1 0 0 1 494.1831 269.8353)" class="st1 st2">210</text>
</g>
<g id="F01">
	<polyline class="st0" points="8.4,75.6 111.5,75.6 111.5,3.7 8.4,3.7 8.4,75.6 	"/>
	<text transform="matrix(1 0 0 1 54.5532 45.5592)" class="st1 st2">1</text>
</g>
<g id="F013">
	<polyline class="st0" points="521.8,75.6 624.8,75.6 624.8,3.7 521.8,3.7 521.8,75.6 	"/>
	<text transform="matrix(1 0 0 1 567.9032 45.5592)" class="st1 st2">13</text>
</g>
<g id="_x30_--">
	<polyline class="st0" points="8.4,141.8 111.5,141.8 111.5,75.6 8.4,75.6 8.4,141.8 	"/>
</g>
<g id="F012">
	<polyline class="st0" points="521.8,141.8 624.8,141.8 624.8,75.6 521.8,75.6 521.8,141.8 	"/>
	<text transform="matrix(1 0 0 1 567.9031 111.2565)" class="st1 st2">12</text>
</g>
<g id="_x30_--_1_">
	<polyline class="st0" points="8.4,177.8 81.5,177.8 81.5,141.8 8.4,141.8 8.4,177.8 	"/>
</g>
<g id="_x30_--_2_">
	<polyline class="st0" points="551.8,177.8 624.9,177.8 624.9,141.8 551.8,141.8 551.8,177.8 	"/>
</g>
<g id="F0212">
	<polyline class="st0" points="521.8,295.4 555.8,295.4 555.8,210.8 521.8,210.8 521.8,295.4 	"/>
	<text transform="matrix(1 0 0 1 529.8501 269.8353)" class="st1 st2">212</text>
</g>
<g id="F0MVRDV">
	<polygon class="st3" points="485.9,35.8 485.9,3.2 147.3,3.2 147.3,35.8 111.4,35.8 111.4,141.8 521.8,141.8 521.8,35.8 	"/>
</g>
<rect id="Entree" x="281.8" y="210.8" class="st3" width="69.8" height="84.6"/>
</svg>
