<?xml version="1.0" encoding="utf-8"?>
<!-- Generator: Adobe Illustrator 24.2.3, SVG Export Plug-In . SVG Version: 6.00 Build 0)  -->
<svg version="1.1" id="Layer_1" xmlns="http://www.w3.org/2000/svg" xmlns:xlink="http://www.w3.org/1999/xlink" x="0px" y="0px"
	 viewBox="0 0 622.6 308.6" style="enable-background:new 0 0 622.6 308.6;" xml:space="preserve">
<style type="text/css">
	.st0{fill:none;stroke:#000000;stroke-width:0.72;stroke-linecap:round;stroke-linejoin:round;stroke-miterlimit:10;}
	.st2{font-size:12px;}
	.st3{enable-background:new    ;}
</style>
<g id="outline">
	<polyline class="st0" points="544.4,155.2 543,155.2 543,163.1 544.4,163.1 544.4,155.2 	"/>
	<polyline class="st0" points="543,155.2 541.7,155.2 541.7,163.1 543,163.1 543,155.2 	"/>
	<polyline class="st0" points="541.7,155.2 540.2,155.2 540.2,163.1 541.7,163.1 541.7,155.2 	"/>
	<polyline class="st0" points="540.2,155.2 538.8,155.2 538.8,163.1 540.2,163.1 540.2,155.2 	"/>
	<polyline class="st0" points="277.3,225.6 283.1,225.6 283.1,231.8 277.3,231.8 277.3,225.6 	"/>
	<polyline class="st0" points="535.1,168.7 543,168.7 543,174.8 535.1,174.8 535.1,168.7 	"/>
	<polyline class="st0" points="530.4,166.9 521.5,166.9 521.5,176 530.4,176 530.4,166.9 	"/>
	<line class="st0" x1="307.4" y1="230.2" x2="309.2" y2="223.6"/>
	<line class="st0" x1="307.4" y1="237.7" x2="309.2" y2="244.3"/>
	<line class="st0" x1="307.4" y1="230.2" x2="309.2" y2="223.6"/>
	<line class="st0" x1="306.7" y1="230" x2="307.3" y2="223.2"/>
	<line class="st0" x1="306" y1="230" x2="305.3" y2="223.2"/>
	<line class="st0" x1="305.3" y1="230.2" x2="303.4" y2="223.6"/>
	<line class="st0" x1="304.6" y1="230.4" x2="301.6" y2="224.3"/>
	<line class="st0" x1="304" y1="230.8" x2="299.9" y2="225.4"/>
	<line class="st0" x1="303.4" y1="231.2" x2="298.3" y2="226.7"/>
	<line class="st0" x1="303" y1="231.8" x2="297.1" y2="228.2"/>
	<line class="st0" x1="302.6" y1="232.6" x2="296.3" y2="230"/>
	<line class="st0" x1="302.4" y1="233.3" x2="295.7" y2="232"/>
	<line class="st0" x1="302.4" y1="234" x2="295.6" y2="234"/>
	<line class="st0" x1="302.4" y1="234.7" x2="295.7" y2="235.9"/>
	<line class="st0" x1="302.6" y1="235.4" x2="296.3" y2="237.8"/>
	<line class="st0" x1="303" y1="236" x2="297.1" y2="239.6"/>
	<line class="st0" x1="303.4" y1="236.6" x2="298.3" y2="241.2"/>
	<line class="st0" x1="304" y1="237.1" x2="299.9" y2="242.5"/>
	<line class="st0" x1="304.6" y1="237.5" x2="301.6" y2="243.6"/>
	<line class="st0" x1="305.3" y1="237.7" x2="303.4" y2="244.3"/>
	<line class="st0" x1="306" y1="238" x2="305.3" y2="244.7"/>
	<line class="st0" x1="306.7" y1="238" x2="307.3" y2="244.7"/>
	<line class="st0" x1="307.4" y1="237.7" x2="309.2" y2="244.3"/>
	<path class="st0" d="M307.4,230.1c-1.6-0.5-3.4,0.2-4.4,1.5c-1,1.4-1,3.3,0,4.6c1,1.4,2.7,2,4.4,1.5"/>
	<path class="st0" d="M309.2,223.6c-4.4-1.2-9.1,0.4-11.7,4.1c-2.6,3.7-2.6,8.7,0,12.4s7.3,5.4,11.7,4.1"/>
	<polyline class="st0" points="335.9,244.1 342.2,245 351.2,245 351.2,222.4 342.2,222.4 335.9,223.2 335.9,244.1 	"/>
	<polyline class="st0" points="543,168.7 543,169.6 546,169.6 546,163.9 520,163.9 520,167.8 521.5,167.8 521.5,166.9 530.4,166.9 
		530.4,176 521.5,176 521.5,175.2 520,175.2 520,179 546,179 546,174 543,174 543,174.8 535.1,174.8 535.1,168.7 543,168.7 	"/>
	<polyline class="st0" points="277.3,241.7 283.1,241.7 283.1,235.4 277.3,235.4 277.3,241.7 	"/>
	<polyline class="st0" points="285.8,226.4 285.8,223.2 279.5,222.4 270.5,222.4 270.5,245 279.5,245 285.8,244.1 285.8,240.8 
		283.1,240.8 283.1,241.7 277.3,241.7 277.3,235.4 283.1,235.4 283.1,236.3 285.8,236.3 285.8,231 283.1,231 283.1,231.8 
		277.3,231.8 277.3,225.6 283.1,225.6 283.1,226.4 285.8,226.4 	"/>
	<polyline class="st0" points="520,196.6 546,196.6 546,179 520,179 520,196.6 	"/>
	<polyline class="st0" points="520,163.9 546,163.9 546,143 520,143 520,163.9 	"/>
	<polyline class="st0" points="77.3,155.2 78.7,155.2 78.7,163.1 77.3,163.1 77.3,155.2 	"/>
	<polyline class="st0" points="78.7,155.2 80,155.2 80,163.1 78.7,163.1 78.7,155.2 	"/>
	<polyline class="st0" points="80,155.2 81.5,155.2 81.5,163.1 80,163.1 80,155.2 	"/>
	<polyline class="st0" points="81.5,155.2 82.9,155.2 82.9,163.1 81.5,163.1 81.5,155.2 	"/>
	<polyline class="st0" points="86.6,168.7 78.7,168.7 78.7,174.8 86.6,174.8 86.6,168.7 	"/>
	<polyline class="st0" points="91.3,166.9 100.2,166.9 100.2,176 91.3,176 91.3,166.9 	"/>
	<polyline class="st0" points="285.8,244.1 279.5,245 270.5,245 270.5,222.4 279.5,222.4 285.8,223.2 285.8,244.1 	"/>
	<polyline class="st0" points="101.8,196.6 101.8,212 520,212 520,196.6 	"/>
	<polyline class="st0" points="78.7,168.7 78.7,169.6 75.7,169.6 75.7,163.9 101.8,163.9 101.8,167.8 100.2,167.8 100.2,166.9 
		91.3,166.9 91.3,176 100.2,176 100.2,175.2 101.8,175.2 101.8,179 75.7,179 75.7,174 78.7,174 78.7,174.8 86.6,174.8 86.6,168.7 
		78.7,168.7 	"/>
	<polyline class="st0" points="101.8,196.6 75.7,196.6 75.7,179 101.8,179 101.8,196.6 	"/>
	<polyline class="st0" points="101.8,163.9 75.7,163.9 75.7,143 101.8,143 101.8,163.9 	"/>
	<polyline class="st0" points="512.4,143 504.8,143 504.8,199.2 116.9,199.2 116.9,143 109.3,143 	"/>
	<polyline class="st0" points="520,143 516,143 516,4.4 619.1,4.4 619.1,296.6 2.6,296.6 2.6,4.4 105.7,4.4 105.7,143 101.8,143 	
		"/>
</g>
<g id="F5Kipstraat4">
	<polyline class="st0" points="527.3,109.1 607.7,109.1 607.7,143 527.3,143 527.3,109.1 	"/>
	<text transform="matrix(1 0 0 1 539.0416 128.6201)" class="st1 st2">Kipstraat 4</text>
</g>
<g id="F5P200">
	<polyline class="st0" points="532.9,212 344.9,212 344.9,254.3 378.8,254.3 378.8,296.6 516,296.6 516,254.3 532.9,254.3 
		532.9,212 	"/>
	<text transform="matrix(1 0 0 1 435.0596 254.6201)" class="st1 st2">P.200</text>
</g>
<g id="F5P194">
	<polyline class="st0" points="173.8,212 276.8,212 276.8,254.3 242.9,254.3 242.9,296.6 173.8,296.6 173.8,212 	"/>
	<text transform="matrix(1 0 0 1 202.0595 252.6201)" class="st1 st2">P.194</text>
</g>
<g id="F5P188U51">
	<polyline class="st0" points="57,212 14,212 14,143 57,143 57,212 	"/>
	<text transform="matrix(1 0 0 1 22.0595 177.6201)" class="st3"><tspan x="0" y="0" class="st1 st2">P.188</tspan><tspan x="0" y="14.4" class="st1 st2">U5.1</tspan></text>
</g>
<g id="F5P190">
	<polyline class="st0" points="2.6,212 173.8,212 173.8,296.6 2.6,296.6 2.6,212 	"/>
	<text transform="matrix(1 0 0 1 76.0595 252.6201)" class="st1 st2">P.190</text>
</g>
<g id="F5P188">
	<polyline class="st0" points="14,143 94.4,143 94.4,7 14,7 14,143 	"/>
	<text transform="matrix(1 0 0 1 43.0595 67.6201)" class="st1 st2">P.188</text>
</g>
<g id="F5Kipstraat6">
	<polyline class="st0" points="527.3,75 607.7,75 607.7,109.1 527.3,109.1 527.3,75 	"/>
	<text transform="matrix(1 0 0 1 539.0416 95.6201)" class="st1 st2">Kipstraat 6</text>
</g>
<g id="F5Kipstraat8-10">
	<polyline class="st0" points="527.3,7 607.7,7 607.7,75 527.3,75 527.3,7 	"/>
	<text transform="matrix(1 0 0 1 542.3787 39.7742)" class="st3"><tspan x="0" y="0" class="st1 st2">Kipstraat  </tspan><tspan x="13.3" y="14.4" class="st1 st2">8-10</tspan></text>
</g>
<g id="F5MT">
	<polyline class="st0" points="564.4,143 607.7,143 607.7,212 564.4,212 564.4,143 	"/>
	<text transform="matrix(1 0 0 1 578.0596 182.6201)" class="st1 st2">MT</text>
</g>
<g id="F5P202">
	<polyline class="st0" points="516,254.3 532.9,254.3 532.9,212 619.1,212 619.1,296.6 516,296.6 516,254.3 	"/>
	<text transform="matrix(1 0 0 1 567.0596 271.6201)" class="st1 st2">P.202</text>
</g>
<g id="F5P192">
	<polyline class="st0" points="242.9,254.3 378.8,254.3 378.8,296.6 242.9,296.6 242.9,254.3 	"/>
	<text transform="matrix(1 0 0 1 292.0595 280.6201)" class="st1 st2">P.192</text>
</g>
</svg>
