<?xml version="1.0" encoding="utf-8"?>
<!-- Generator: Adobe Illustrator 19.1.0, SVG Export Plug-In . SVG Version: 6.00 Build 0)  -->
<svg version="1.1" id="Layer_1" xmlns="http://www.w3.org/2000/svg" xmlns:xlink="http://www.w3.org/1999/xlink" x="0px" y="0px"
	 viewBox="-62 35.2 634 300" style="enable-background:new -62 35.2 634 300;" xml:space="preserve">
<style type="text/css">
	.st0{fill:none;stroke:#000000;stroke-width:0.72;stroke-linecap:round;stroke-linejoin:round;stroke-miterlimit:10;}
	.st1{fill:none;}
	.st2{font-family:'Helvetica';}
	.st3{font-size:12px;}
	.st4{letter-spacing:22;}
	.st5{letter-spacing:31;}
</style>
<g id="outline">
	<polyline class="st0" points="490.4,190.2 488.9,190.2 488.9,198.2 490.4,198.2 490.4,190.2 	"/>
	<polyline class="st0" points="488.9,190.2 487.6,190.2 487.6,198.2 488.9,198.2 488.9,190.2 	"/>
	<polyline class="st0" points="487.6,190.2 486.2,190.2 486.2,198.2 487.6,198.2 487.6,190.2 	"/>
	<polyline class="st0" points="486.2,190.2 484.7,190.2 484.7,198.2 486.2,198.2 486.2,190.2 	"/>
	<polyline class="st0" points="223.3,260.7 229,260.7 229,266.9 223.3,266.9 223.3,260.7 	"/>
	<polyline class="st0" points="481,203.8 488.9,203.8 488.9,209.9 481,209.9 481,203.8 	"/>
	<polyline class="st0" points="476.3,202 467.5,202 467.5,211.1 476.3,211.1 476.3,202 	"/>
	<line class="st0" x1="253.4" y1="265.2" x2="255.2" y2="258.6"/>
	<line class="st0" x1="253.4" y1="272.8" x2="255.2" y2="279.4"/>
	<line class="st0" x1="253.4" y1="265.2" x2="255.2" y2="258.6"/>
	<line class="st0" x1="252.7" y1="265.1" x2="253.3" y2="258.3"/>
	<line class="st0" x1="251.9" y1="265.1" x2="251.2" y2="258.3"/>
	<line class="st0" x1="251.2" y1="265.2" x2="249.3" y2="258.6"/>
	<line class="st0" x1="250.5" y1="265.5" x2="247.5" y2="259.4"/>
	<line class="st0" x1="249.9" y1="265.8" x2="245.8" y2="260.4"/>
	<line class="st0" x1="249.3" y1="266.3" x2="244.3" y2="261.8"/>
	<line class="st0" x1="248.9" y1="266.9" x2="243.1" y2="263.3"/>
	<line class="st0" x1="248.6" y1="267.6" x2="242.2" y2="265.1"/>
	<line class="st0" x1="248.3" y1="268.4" x2="241.6" y2="267"/>
	<line class="st0" x1="248.3" y1="269.1" x2="241.5" y2="269.1"/>
	<line class="st0" x1="248.3" y1="269.8" x2="241.6" y2="271"/>
	<line class="st0" x1="248.6" y1="270.5" x2="242.2" y2="272.9"/>
	<line class="st0" x1="248.9" y1="271.1" x2="243.1" y2="274.7"/>
	<line class="st0" x1="249.3" y1="271.7" x2="244.3" y2="276.3"/>
	<line class="st0" x1="249.9" y1="272.2" x2="245.8" y2="277.6"/>
	<line class="st0" x1="250.5" y1="272.6" x2="247.5" y2="278.7"/>
	<line class="st0" x1="251.2" y1="272.8" x2="249.3" y2="279.4"/>
	<line class="st0" x1="251.9" y1="273" x2="251.2" y2="279.8"/>
	<line class="st0" x1="252.7" y1="273" x2="253.3" y2="279.8"/>
	<line class="st0" x1="253.4" y1="272.8" x2="255.2" y2="279.4"/>
	<path class="st0" d="M253.3,265.2c-1.6-0.5-3.4,0.2-4.4,1.5c-1,1.4-1,3.3,0,4.6c1,1.4,2.7,2,4.4,1.5"/>
	<path class="st0" d="M255.2,258.7c-4.4-1.2-9.1,0.4-11.7,4.1c-2.6,3.7-2.6,8.7,0,12.4c2.6,3.7,7.3,5.4,11.7,4.1"/>
	<polyline class="st0" points="281.8,279.2 288.2,280.1 297.2,280.1 297.2,257.4 288.2,257.4 281.8,258.3 281.8,279.2 	"/>
	<polyline class="st0" points="488.9,203.8 488.9,204.6 491.9,204.6 491.9,199 465.9,199 465.9,202.8 467.5,202.8 467.5,202 
		476.3,202 476.3,211.1 467.5,211.1 467.5,210.3 465.9,210.3 465.9,214.1 491.9,214.1 491.9,209.1 488.9,209.1 488.9,209.9 
		481,209.9 481,203.8 488.9,203.8 	"/>
	<polyline class="st0" points="223.3,276.8 229,276.8 229,270.5 223.3,270.5 223.3,276.8 	"/>
	<polyline class="st0" points="231.8,261.5 231.8,258.3 225.4,257.4 216.4,257.4 216.4,280.1 225.4,280.1 231.8,279.2 231.8,275.9 
		229,275.9 229,276.8 223.3,276.8 223.3,270.5 229,270.5 229,271.4 231.8,271.4 231.8,266.1 229,266.1 229,266.9 223.3,266.9 
		223.3,260.7 229,260.7 229,261.5 231.8,261.5 	"/>
	<polyline class="st0" points="465.9,231.6 491.9,231.6 491.9,214.1 465.9,214.1 465.9,231.6 	"/>
	<polyline class="st0" points="465.9,199 491.9,199 491.9,178.1 465.9,178.1 465.9,199 	"/>
	<polyline class="st0" points="23.2,190.2 24.7,190.2 24.7,198.2 23.2,198.2 23.2,190.2 	"/>
	<polyline class="st0" points="24.7,190.2 26,190.2 26,198.2 24.7,198.2 24.7,190.2 	"/>
	<polyline class="st0" points="26,190.2 27.4,190.2 27.4,198.2 26,198.2 26,190.2 	"/>
	<polyline class="st0" points="27.4,190.2 28.9,190.2 28.9,198.2 27.4,198.2 27.4,190.2 	"/>
	<polyline class="st0" points="32.6,203.8 24.7,203.8 24.7,209.9 32.6,209.9 32.6,203.8 	"/>
	<polyline class="st0" points="37.3,202 46.1,202 46.1,211.1 37.3,211.1 37.3,202 	"/>
	<polyline class="st0" points="231.8,279.2 225.4,280.1 216.4,280.1 216.4,257.4 225.4,257.4 231.8,258.3 231.8,279.2 	"/>
	<polyline class="st0" points="47.7,231.6 47.7,247.1 465.9,247.1 465.9,231.6 	"/>
	<polyline class="st0" points="24.7,203.8 24.7,204.6 21.7,204.6 21.7,199 47.7,199 47.7,202.8 46.1,202.8 46.1,202 37.3,202 
		37.3,211.1 46.1,211.1 46.1,210.3 47.7,210.3 47.7,214.1 21.7,214.1 21.7,209.1 24.7,209.1 24.7,209.9 32.6,209.9 32.6,203.8 
		24.7,203.8 	"/>
	<polyline class="st0" points="47.7,231.6 21.7,231.6 21.7,214.1 47.7,214.1 47.7,231.6 	"/>
	<polyline class="st0" points="47.7,199 21.7,199 21.7,178.1 47.7,178.1 47.7,199 	"/>
	<polyline class="st0" points="458.3,178.1 450.8,178.1 450.8,234.3 62.8,234.3 62.8,178.1 55.3,178.1 	"/>
	<polyline class="st0" points="465.9,178.1 461.9,178.1 461.9,39.5 565,39.5 565,331.7 -51.4,331.7 -51.4,39.5 51.7,39.5 
		51.7,178.1 47.7,178.1 	"/>
	<polyline class="st1" points="568.5,335.3 568.5,35.1 -54.2,35.1 -54.2,335.3 568.5,335.3 	"/>
</g>
<g id="F1U11">
	<polyline class="st0" points="564.9,42 461.9,42 461.9,178.1 564.9,178.1 564.9,42 	"/>
	<text transform="matrix(1 0 0 1 495.0367 116.6999)" class="st2 st3">U11</text>
</g>
<g id="F1U04U05">
	<polygon class="st0" points="290.8,247.1 290.8,289.4 256.7,289.4 222.8,289.4 222.8,247.1 51.7,247.1 51.7,331.7 256.7,331.7 
		393.9,331.7 393.9,247.1 	"/>
	<text transform="matrix(1 0 0 1 162.0365 306.1778)" class="st2 st3">U04       </text>
	<text transform="matrix(1 0 0 1 207.4365 306.1778)" class="st2 st3 st4"> </text>
	<text transform="matrix(1 0 0 1 234.0365 306.1778)" class="st2 st3 st5">  </text>
	<text transform="matrix(1 0 0 1 306.0365 306.1778)" class="st2 st3"> U05</text>
</g>
<g id="F1U02">
	<polyline class="st0" points="2.9,247.1 -51.4,247.1 -51.4,178.1 2.9,178.1 2.9,247.1 	"/>
	<text transform="matrix(1 0 0 1 -31.2968 215.6999)" class="st2 st3">U02</text>
</g>
<g id="F01U03">
	<polyline class="st0" points="-51.4,247.1 51.7,247.1 51.7,331.7 -51.4,331.7 -51.4,247.1 	"/>
	<text transform="matrix(1 0 0 1 -8.6298 298.9776)" class="st2 st3">U 03</text>
</g>
<g id="F1U10">
	<polyline class="st0" points="510.3,231.6 510.3,178.1 565,178.1 565,247.1 530.9,247.1 530.9,231.6 510.3,231.6 	"/>
	<text transform="matrix(1 0 0 1 532.85 215.6999)" class="st2 st3">U10</text>
</g>
<g id="F1U09">
	<text transform="matrix(1 0 0 1 518 306.1778)" class="st2 st3">U09</text>
	<polyline class="st0" points="495.9,247.1 495.9,331.7 565,331.7 565,247.1 530.9,247.1 530.9,231.6 510.3,231.6 510.3,247.1 
		495.9,247.1 	"/>
</g>
<g id="F1U06">
	<polyline class="st0" points="393.9,247.1 427.9,247.1 427.9,331.7 393.9,331.7 393.9,247.1 	"/>
	<text transform="matrix(1 0 0 1 398.667 306.1778)" class="st2 st3">U 06</text>
</g>
<g id="F1U07">
	<polyline class="st0" points="427.9,331.7 461.9,331.7 461.9,247.1 427.9,247.1 427.9,331.7 	"/>
	<text transform="matrix(1 0 0 1 431.333 306.1778)" class="st2 st3">U 07</text>
</g>
<g id="F1U01">
	<polyline class="st0" points="-51.4,178.1 51.7,178.1 51.7,42 -51.4,42 -51.4,178.1 	"/>
	<text transform="matrix(1 0 0 1 -9.2968 107.6999)" class="st2 st3">U01</text>
</g>
<g id="F1U08">
	<polyline class="st0" points="461.9,331.7 495.9,331.7 495.9,247.1 461.9,247.1 461.9,331.7 	"/>
	<text transform="matrix(1 0 0 1 470 306.1778)" class="st2 st3">U08</text>
</g>
</svg>
