<?xml version="1.0" encoding="utf-8"?>
<!-- Generator: Adobe Illustrator 19.1.0, SVG Export Plug-In . SVG Version: 6.00 Build 0)  -->
<svg version="1.1" id="Layer_1" xmlns="http://www.w3.org/2000/svg" xmlns:xlink="http://www.w3.org/1999/xlink" x="0px" y="0px"
	 viewBox="-103 148.3 634 300" style="enable-background:new -103 148.3 634 300;" xml:space="preserve">
<style type="text/css">
	.st0{fill:none;stroke:#000000;stroke-width:0.72;stroke-linecap:round;stroke-linejoin:round;stroke-miterlimit:10;}
	.st1{fill:none;}
	.st2{font-family:'Helvetica';}
	.st3{font-size:12px;}
	.st4{letter-spacing:21;}
	.st5{letter-spacing:30;}
</style>
<g id="outline">
	<polyline class="st0" points="447.2,302.2 445.8,302.2 445.8,310.2 447.2,310.2 447.2,302.2 	"/>
	<polyline class="st0" points="445.8,302.2 444.5,302.2 444.5,310.2 445.8,310.2 445.8,302.2 	"/>
	<polyline class="st0" points="444.5,302.2 443.1,302.2 443.1,310.2 444.5,310.2 444.5,302.2 	"/>
	<polyline class="st0" points="443.1,302.2 441.6,302.2 441.6,310.2 443.1,310.2 443.1,302.2 	"/>
	<polyline class="st0" points="180.1,372.7 185.9,372.7 185.9,378.9 180.1,378.9 180.1,372.7 	"/>
	<polyline class="st0" points="437.9,315.8 445.8,315.8 445.8,321.9 437.9,321.9 437.9,315.8 	"/>
	<polyline class="st0" points="433.1,314 424.4,314 424.4,323.1 433.1,323.1 433.1,314 	"/>
	<line class="st0" x1="210.2" y1="377.2" x2="212" y2="370.6"/>
	<line class="st0" x1="210.2" y1="384.8" x2="212" y2="391.4"/>
	<line class="st0" x1="210.2" y1="377.2" x2="212" y2="370.6"/>
	<line class="st0" x1="209.5" y1="377.1" x2="210.1" y2="370.3"/>
	<line class="st0" x1="208.8" y1="377.1" x2="208" y2="370.3"/>
	<line class="st0" x1="208" y1="377.2" x2="206.1" y2="370.6"/>
	<line class="st0" x1="207.4" y1="377.5" x2="204.4" y2="371.4"/>
	<line class="st0" x1="206.8" y1="377.8" x2="202.6" y2="372.4"/>
	<line class="st0" x1="206.1" y1="378.3" x2="201.1" y2="373.8"/>
	<line class="st0" x1="205.8" y1="378.9" x2="200" y2="375.3"/>
	<line class="st0" x1="205.5" y1="379.6" x2="199" y2="377.1"/>
	<line class="st0" x1="205.1" y1="380.4" x2="198.5" y2="379"/>
	<line class="st0" x1="205.1" y1="381.1" x2="198.4" y2="381.1"/>
	<line class="st0" x1="205.1" y1="381.8" x2="198.5" y2="383"/>
	<line class="st0" x1="205.5" y1="382.5" x2="199" y2="384.9"/>
	<line class="st0" x1="205.8" y1="383.1" x2="200" y2="386.7"/>
	<line class="st0" x1="206.1" y1="383.7" x2="201.1" y2="388.3"/>
	<line class="st0" x1="206.8" y1="384.2" x2="202.6" y2="389.6"/>
	<line class="st0" x1="207.4" y1="384.6" x2="204.4" y2="390.7"/>
	<line class="st0" x1="208" y1="384.8" x2="206.1" y2="391.4"/>
	<line class="st0" x1="208.8" y1="385" x2="208" y2="391.8"/>
	<line class="st0" x1="209.5" y1="385" x2="210.1" y2="391.8"/>
	<line class="st0" x1="210.2" y1="384.8" x2="212" y2="391.4"/>
	<path class="st0" d="M210.1,377.2c-1.6-0.5-3.4,0.2-4.4,1.5c-1,1.4-1,3.3,0,4.6c1,1.4,2.7,2,4.4,1.5"/>
	<path class="st0" d="M212,370.7c-4.4-1.2-9.1,0.4-11.7,4.1c-2.6,3.7-2.6,8.7,0,12.4c2.6,3.7,7.3,5.4,11.7,4.1"/>
	<polyline class="st0" points="238.6,391.2 245.1,392.1 254.1,392.1 254.1,369.4 245.1,369.4 238.6,370.3 238.6,391.2 	"/>
	<polyline class="st0" points="445.8,315.8 445.8,316.6 448.8,316.6 448.8,311 422.8,311 422.8,314.8 424.4,314.8 424.4,314
		433.1,314 433.1,323.1 424.4,323.1 424.4,322.3 422.8,322.3 422.8,326.1 448.8,326.1 448.8,321.1 445.8,321.1 445.8,321.9
		437.9,321.9 437.9,315.8 445.8,315.8 	"/>
	<polyline class="st0" points="180.1,388.8 185.9,388.8 185.9,382.5 180.1,382.5 180.1,388.8 	"/>
	<polyline class="st0" points="188.6,373.5 188.6,370.3 182.2,369.4 173.2,369.4 173.2,392.1 182.2,392.1 188.6,391.2 188.6,387.9
		185.9,387.9 185.9,388.8 180.1,388.8 180.1,382.5 185.9,382.5 185.9,383.4 188.6,383.4 188.6,378.1 185.9,378.1 185.9,378.9
		180.1,378.9 180.1,372.7 185.9,372.7 185.9,373.5 188.6,373.5 	"/>
	<polyline class="st0" points="422.8,343.6 448.8,343.6 448.8,326.1 422.8,326.1 422.8,343.6 	"/>
	<polyline class="st0" points="422.8,311 448.8,311 448.8,290.1 422.8,290.1 422.8,311 	"/>
	<polyline class="st0" points="-20,302.2 -18.5,302.2 -18.5,310.2 -20,310.2 -20,302.2 	"/>
	<polyline class="st0" points="-18.5,302.2 -17.2,302.2 -17.2,310.2 -18.5,310.2 -18.5,302.2 	"/>
	<polyline class="st0" points="-17.2,302.2 -15.8,302.2 -15.8,310.2 -17.2,310.2 -17.2,302.2 	"/>
	<polyline class="st0" points="-15.8,302.2 -14.3,302.2 -14.3,310.2 -15.8,310.2 -15.8,302.2 	"/>
	<polyline class="st0" points="-10.6,315.8 -18.5,315.8 -18.5,321.9 -10.6,321.9 -10.6,315.8 	"/>
	<polyline class="st0" points="-5.9,314 2.9,314 2.9,323.1 -5.9,323.1 -5.9,314 	"/>
	<polyline class="st0" points="188.6,391.2 182.2,392.1 173.2,392.1 173.2,369.4 182.2,369.4 188.6,370.3 188.6,391.2 	"/>
	<polyline class="st0" points="4.5,343.6 4.5,359.1 422.8,359.1 422.8,343.6 	"/>
	<polyline class="st0" points="-18.5,315.8 -18.5,316.6 -21.5,316.6 -21.5,311 4.5,311 4.5,314.8 2.9,314.8 2.9,314 -5.9,314
		-5.9,323.1 2.9,323.1 2.9,322.3 4.5,322.3 4.5,326.1 -21.5,326.1 -21.5,321.1 -18.5,321.1 -18.5,321.9 -10.6,321.9 -10.6,315.8
		-18.5,315.8 	"/>
	<polyline class="st0" points="4.5,343.6 -21.5,343.6 -21.5,326.1 4.5,326.1 4.5,343.6 	"/>
	<polyline class="st0" points="4.5,311 -21.5,311 -21.5,290.1 4.5,290.1 4.5,311 	"/>
	<polyline class="st0" points="415.1,290.1 407.6,290.1 407.6,346.3 19.6,346.3 19.6,290.1 12.1,290.1 	"/>
	<polyline class="st0" points="422.8,290.1 418.8,290.1 418.8,151.5 521.8,151.5 521.8,443.7 -94.6,443.7 -94.6,151.5 8.5,151.5
		8.5,290.1 4.5,290.1 	"/>
	<polyline class="st1" points="525.3,447.3 525.3,147.1 -97.4,147.1 -97.4,447.3 525.3,447.3 	"/>
</g>
<g id="F1U11">
	<polyline class="st0" points="521.8,154 418.8,154 418.8,290.1 521.8,290.1 521.8,154 	"/>
	<text transform="matrix(1 0 0 1 451.8867 228.6575)" class="st2 st3">U11</text>
</g>
<g id="F1U04_05">
	<polygon class="st0" points="247.6,359.1 247.6,401.4 213.6,401.4 179.6,401.4 179.6,359.1 8.5,359.1 8.5,443.7 213.6,443.7
		350.8,443.7 350.8,359.1 	"/>
	<text transform="matrix(1 0 0 1 118.8865 418.1354)" class="st2 st3">U04       </text>
	<text transform="matrix(1 0 0 1 164.2865 418.1354)" class="st2 st3 st4"> </text>
	<text transform="matrix(1 0 0 1 190.8865 418.1354)" class="st2 st3 st5">  </text>
	<text transform="matrix(1 0 0 1 262.8865 418.1354)" class="st2 st3"> U05</text>
</g>
<g id="F1U02">
	<polyline class="st0" points="-40.2,359.1 -94.6,359.1 -94.6,290.1 -40.2,290.1 -40.2,359.1 	"/>
	<text transform="matrix(1 0 0 1 -74.4468 327.6575)" class="st2 st3">U02</text>
</g>
<g id="F1U03">
	<polyline class="st0" points="-94.6,359.1 8.5,359.1 8.5,443.7 -94.6,443.7 -94.6,359.1 	"/>
	<text transform="matrix(1 0 0 1 -51.7798 410.9352)" class="st2 st3">U 03</text>
</g>
<g id="F1U10">
	<polyline class="st0" points="467.1,343.6 467.1,290.1 521.8,290.1 521.8,359.1 487.8,359.1 487.8,343.6 467.1,343.6 	"/>
	<text transform="matrix(1 0 0 1 489.7 327.6575)" class="st2 st3">U10</text>
</g>
<g id="F1U09">
	<text transform="matrix(1 0 0 1 474.85 418.1354)" class="st2 st3">U09</text>
	<polyline class="st0" points="452.8,359.1 452.8,443.7 521.8,443.7 521.8,359.1 487.8,359.1 487.8,343.6 467.1,343.6 467.1,359.1
		452.8,359.1 	"/>
</g>
<g id="F1U06">
	<polyline class="st0" points="350.8,359.1 384.8,359.1 384.8,443.7 350.8,443.7 350.8,359.1 	"/>
	<text transform="matrix(1 0 0 1 355.517 418.1354)" class="st2 st3">U 06</text>
</g>
<g id="F1U07">
	<polyline class="st0" points="384.8,443.7 418.8,443.7 418.8,359.1 384.8,359.1 384.8,443.7 	"/>
	<text transform="matrix(1 0 0 1 388.183 418.1354)" class="st2 st3">U 07</text>
</g>
<g id="F1U01">
	<polyline class="st0" points="-94.6,290.1 8.5,290.1 8.5,154 -94.6,154 -94.6,290.1 	"/>
	<text transform="matrix(1 0 0 1 -52.4468 219.6575)" class="st2 st3">U01</text>
</g>
<g id="F1U08">
	<polyline class="st0" points="418.8,443.7 452.8,443.7 452.8,359.1 418.8,359.1 418.8,443.7 	"/>
	<text transform="matrix(1 0 0 1 426.85 418.1354)" class="st2 st3">U08</text>
</g>
</svg>
