<?xml version="1.0" encoding="utf-8"?>
<!-- Generator: Adobe Illustrator 21.0.0, SVG Export Plug-In . SVG Version: 6.00 Build 0)  -->
<svg version="1.1" id="Layer_1" xmlns="http://www.w3.org/2000/svg" xmlns:xlink="http://www.w3.org/1999/xlink" x="0px" y="0px"
	 viewBox="0 0 634 300" style="enable-background:new 0 0 634 300;" xml:space="preserve">
<style type="text/css">
	.st0{fill:none;stroke:#000000;stroke-miterlimit:10;}
	.st1{fill:none;stroke:#000000;stroke-width:0.5;stroke-miterlimit:10;}
	.st2{font-family:'Helvetica';}
	.st3{font-size:12px;}
	.st4{display:none;}
	.st5{display:inline;fill:none;stroke:#000000;stroke-miterlimit:10;}
	.st6{display:inline;}
	.st7{fill:none;stroke:#000000;stroke-width:0.4558;stroke-linecap:round;stroke-linejoin:round;stroke-miterlimit:10;}
	.st8{fill:none;stroke:#000000;stroke-width:0.6599;stroke-linecap:round;stroke-linejoin:round;stroke-miterlimit:10;}
	.st9{fill:none;stroke:#000000;stroke-width:0.5014;stroke-linecap:round;stroke-linejoin:round;stroke-miterlimit:10;}
	.st10{fill:none;stroke:#000000;stroke-width:0.4963;stroke-linecap:round;stroke-linejoin:round;stroke-miterlimit:10;}
	.st11{fill:none;stroke:#000000;stroke-width:0.5471;stroke-linecap:round;stroke-linejoin:round;stroke-miterlimit:10;}
	.st12{fill:none;stroke:#000000;stroke-width:0.5105;stroke-linecap:round;stroke-linejoin:round;stroke-miterlimit:10;}
	.st13{fill:none;stroke:#000000;stroke-width:0.5806;stroke-linecap:round;stroke-linejoin:round;stroke-miterlimit:10;}
	.st14{fill:none;stroke:#000000;stroke-width:0.6596;stroke-linecap:round;stroke-linejoin:round;stroke-miterlimit:10;}
	.st15{fill:none;stroke:#000000;stroke-width:0.5111;stroke-linecap:round;stroke-linejoin:round;stroke-miterlimit:10;}
	.st16{fill:none;stroke:#000000;stroke-width:0.4703;stroke-linecap:round;stroke-linejoin:round;stroke-miterlimit:10;}
	.st17{fill:none;stroke:#000000;stroke-width:0.4983;stroke-linecap:round;stroke-linejoin:round;stroke-miterlimit:10;}
	.st18{font-size:8px;}
	.st19{fill:none;stroke:#000000;stroke-width:0.4301;stroke-linecap:round;stroke-linejoin:round;stroke-miterlimit:10;}
	.st20{fill:none;stroke:#000000;stroke-width:0.4489;stroke-linecap:round;stroke-linejoin:round;stroke-miterlimit:10;}
	.st21{fill:none;stroke:#000000;stroke-width:0.4941;stroke-linecap:round;stroke-linejoin:round;stroke-miterlimit:10;}
	.st22{fill:none;stroke:#000000;stroke-width:0.856;stroke-linecap:round;stroke-linejoin:round;stroke-miterlimit:10;}
</style>
<g id="Layer_1_1_">
	<g id="outline">
		<polyline class="st0" points="551.4,154.6 550,154.6 550,162.5 551.4,162.5 551.4,154.6 		"/>
		<polyline points="550,154.6 548.6,154.6 548.6,162.5 550,162.5 550,154.6 		"/>
		<polyline class="st0" points="548.6,154.6 547.2,154.6 547.2,162.5 548.6,162.5 548.6,154.6 		"/>
		<polyline class="st0" points="547.2,154.6 545.8,154.6 545.8,162.5 547.2,162.5 547.2,154.6 		"/>
		<polyline class="st0" points="284.3,225 290,225 290,231.2 284.3,231.2 284.3,225 		"/>
		<polyline class="st0" points="542,168.1 550,168.1 550,174.2 542,174.2 542,168.1 		"/>
		<polyline class="st0" points="537.4,166.3 528.5,166.3 528.5,175.4 537.4,175.4 537.4,166.3 		"/>
		<line class="st1" x1="314.4" y1="229.6" x2="316.2" y2="223"/>
		<line class="st1" x1="314.4" y1="237.1" x2="316.2" y2="243.7"/>
		<line class="st1" x1="314.4" y1="229.6" x2="316.2" y2="223"/>
		<line class="st1" x1="313.7" y1="229.4" x2="314.3" y2="222.6"/>
		<line class="st1" x1="313" y1="229.4" x2="312.2" y2="222.6"/>
		<line class="st1" x1="312.2" y1="229.6" x2="310.3" y2="223"/>
		<line class="st1" x1="311.5" y1="229.8" x2="308.5" y2="223.7"/>
		<line class="st1" x1="310.9" y1="230.2" x2="306.8" y2="224.8"/>
		<line class="st1" x1="310.3" y1="230.6" x2="305.3" y2="226.1"/>
		<line class="st1" x1="310" y1="231.2" x2="304.1" y2="227.6"/>
		<line class="st1" x1="309.6" y1="232" x2="303.2" y2="229.4"/>
		<line class="st1" x1="309.4" y1="232.7" x2="302.6" y2="231.4"/>
		<line class="st1" x1="309.4" y1="233.4" x2="302.5" y2="233.4"/>
		<line class="st1" x1="309.4" y1="234.1" x2="302.6" y2="235.3"/>
		<line class="st1" x1="309.6" y1="234.8" x2="303.2" y2="237.2"/>
		<line class="st1" x1="310" y1="235.4" x2="304.1" y2="239"/>
		<line class="st1" x1="310.3" y1="236" x2="305.3" y2="240.6"/>
		<line class="st1" x1="310.9" y1="236.5" x2="306.8" y2="241.9"/>
		<line class="st1" x1="311.5" y1="236.9" x2="308.5" y2="243"/>
		<line class="st1" x1="312.2" y1="237.1" x2="310.3" y2="243.7"/>
		<line class="st1" x1="313" y1="237.4" x2="312.2" y2="244.1"/>
		<line class="st1" x1="313.7" y1="237.4" x2="314.3" y2="244.1"/>
		<line class="st1" x1="314.4" y1="237.1" x2="316.2" y2="243.7"/>
		<path class="st1" d="M314.4,229.5c-1.6-0.5-3.4,0.2-4.4,1.5c-1,1.4-1,3.3,0,4.6c1,1.4,2.7,2,4.4,1.5"/>
		<path class="st1" d="M316.2,223c-4.4-1.2-9.1,0.4-11.7,4.1s-2.6,8.7,0,12.4s7.3,5.4,11.7,4.1"/>
		<polyline class="st0" points="342.8,243.5 349.2,244.4 358.2,244.4 358.2,221.8 349.2,221.8 342.8,222.6 342.8,243.5 		"/>
		<polyline class="st0" points="550,168.1 550,169 553,169 553,163.3 526.9,163.3 526.9,167.2 528.5,167.2 528.5,166.3 537.4,166.3 
			537.4,175.4 528.5,175.4 528.5,174.6 526.9,174.6 526.9,178.4 553,178.4 553,173.4 550,173.4 550,174.2 542,174.2 542,168.1 
			550,168.1 		"/>
		<polyline class="st0" points="284.3,241.1 290,241.1 290,234.8 284.3,234.8 284.3,241.1 		"/>
		<polyline class="st0" points="292.8,225.8 292.8,222.6 286.4,221.8 277.4,221.8 277.4,244.4 286.4,244.4 292.8,243.5 292.8,240.2 
			290,240.2 290,241.1 284.3,241.1 284.3,234.8 290,234.8 290,235.7 292.8,235.7 292.8,230.4 290,230.4 290,231.2 284.3,231.2 
			284.3,225 290,225 290,225.8 292.8,225.8 		"/>
		<polyline class="st0" points="526.9,196 553,196 553,178.4 526.9,178.4 526.9,196 		"/>
		<polyline class="st0" points="526.9,163.3 553,163.3 553,142.4 526.9,142.4 526.9,163.3 		"/>
		<polyline class="st0" points="84.2,154.6 85.7,154.6 85.7,162.5 84.2,162.5 84.2,154.6 		"/>
		<polyline class="st0" points="85.7,154.6 87,154.6 87,162.5 85.7,162.5 85.7,154.6 		"/>
		<polyline class="st0" points="87,154.6 88.4,154.6 88.4,162.5 87,162.5 87,154.6 		"/>
		<polyline class="st0" points="88.4,154.6 89.9,154.6 89.9,162.5 88.4,162.5 88.4,154.6 		"/>
		<polyline class="st0" points="93.6,168.1 85.7,168.1 85.7,174.2 93.6,174.2 93.6,168.1 		"/>
		<polyline class="st0" points="98.3,166.3 107.2,166.3 107.2,175.4 98.3,175.4 98.3,166.3 		"/>
		<polyline class="st0" points="292.8,243.5 286.4,244.4 277.4,244.4 277.4,221.8 286.4,221.8 292.8,222.6 292.8,243.5 		"/>
		<polyline class="st0" points="108.7,196 108.7,211.4 526.9,211.4 526.9,196 		"/>
		<polyline class="st0" points="85.7,168.1 85.7,169 82.7,169 82.7,163.3 108.7,163.3 108.7,167.2 107.2,167.2 107.2,166.3 
			98.3,166.3 98.3,175.4 107.2,175.4 107.2,174.6 108.7,174.6 108.7,178.4 82.7,178.4 82.7,173.4 85.7,173.4 85.7,174.2 93.6,174.2 
			93.6,168.1 85.7,168.1 		"/>
		<polyline class="st0" points="108.7,196 82.7,196 82.7,178.4 108.7,178.4 108.7,196 		"/>
		<polyline class="st0" points="108.7,163.3 82.7,163.3 82.7,142.4 108.7,142.4 108.7,163.3 		"/>
		<polyline class="st0" points="519.4,142.4 511.8,142.4 511.8,198.6 123.8,198.6 123.8,142.4 116.3,142.4 		"/>
		<polyline class="st0" points="526.9,142.4 523,142.4 523,3.8 626,3.8 626,296 9.6,296 9.6,3.8 112.7,3.8 112.7,142.4 108.7,142.4 
					"/>
	</g>
	<g id="F2U08">
		<polygon class="st0" points="557,6.4 557,28.2 580.4,28.2 580.4,40.4 580.4,74.4 626,74.4 626,40.4 626,6.4 		"/>
		<text transform="matrix(1 0 0 1 595.5195 39.5201)" class="st2 st3">U08</text>
	</g>
	<g id="F2U7B" class="st4">
		<polyline class="st5" points="580.4,74.4 626,74.4 626,108.5 580.4,108.5 580.4,74.4 		"/>
		<text transform="matrix(1 0 0 1 590.5195 91.0201)" class="st6 st2 st3">U07B</text>
	</g>
	<g id="F2U7A" class="st4">
		<polyline class="st5" points="580.4,108.5 626,108.5 626,142.4 580.4,142.4 580.4,108.5 		"/>
		<text transform="matrix(1 0 0 1 588.0195 129.5201)" class="st6 st2 st3">U07A</text>
	</g>
	<g id="F2U07">
		<g id="F2U7B_1_">
			<polyline class="st0" points="580.4,74.4 626,74.4 626,108.5 580.4,108.5 580.4,74.4 			"/>
			<text transform="matrix(1 0 0 1 590.5195 91.0201)" class="st2 st3">U07B</text>
		</g>
		<g id="F2U7A_1_">
			<polyline class="st0" points="580.4,108.5 626,108.5 626,142.4 580.4,142.4 580.4,108.5 			"/>
			<text transform="matrix(1 0 0 1 588.0195 129.5201)" class="st2 st3">U07A</text>
		</g>
	</g>
	<g id="F2U09">
		<polyline class="st0" points="523,40.4 568.6,40.4 568.6,74.4 523,74.4 523,40.4 		"/>
		<text transform="matrix(1 0 0 1 539.0195 63.0201)" class="st2 st3">U09</text>
	</g>
	<g id="F2U10">
		<polyline class="st0" points="568.6,74.4 523,74.4 523,108.5 568.6,108.5 568.6,74.4 		"/>
		<text transform="matrix(1 0 0 1 538.0195 97.0201)" class="st2 st3">U10</text>
	</g>
	<g id="F2U11">
		<polyline class="st0" points="556.9,108.5 523,108.5 523,142.4 556.9,142.4 556.9,108.5 		"/>
		<text transform="matrix(1 0 0 1 532.1865 128.5201)" class="st2 st3">U11</text>
	</g>
	<g id="F2U01">
		<polygon class="st0" points="9.5,6.4 9.6,40.4 9.6,74.4 55.2,74.4 55.2,40.4 55.2,28.2 78.6,28.2 78.6,6.4 		"/>
		<text transform="matrix(1 0 0 1 23.02 32.6866)" class="st2 st3">U01</text>
	</g>
	<g id="F2U02">
		<polygon class="st0" points="9.6,74.4 9.6,108.5 9.6,142.4 55.2,142.4 55.2,108.5 55.2,74.4 		"/>
		<text transform="matrix(1 0 0 1 21.353 105.6866)" class="st2 st3">U02</text>
	</g>
	<g id="F2U03">
		<polygon class="st0" points="67.1,40.4 67.1,74.4 67.1,108.5 78.7,108.5 78.7,142.4 112.7,142.4 112.7,108.5 112.7,74.4 
			112.7,40.4 		"/>
		<text transform="matrix(1 0 0 1 85.353 82.0201)" class="st2 st3">U03</text>
	</g>
	<g id="F2U06">
		<polyline class="st0" points="571.3,142.4 571.3,211.4 351.8,211.4 351.8,253.7 317.8,253.7 317.8,296 626,296 626,142.4 
			571.3,142.4 		"/>
	</g>
	<g id="F2U04" class="st4">
		<polyline class="st5" points="64,142.4 9.6,142.4 9.6,296 146.8,296 146.8,211.4 64,211.4 64,142.4 		"/>
		<text transform="matrix(1 0 0 1 72.02 249.3531)" class="st6 st2 st3">U04</text>
	</g>
	<g id="F2U05" class="st4">
		<polyline class="st5" points="146.8,211.4 283.8,211.4 283.8,253.7 317.8,253.7 317.8,296 146.8,296 146.8,211.4 		"/>
		<text transform="matrix(1 0 0 1 211.6865 252.0201)" class="st6 st2 st3">U05</text>
	</g>
	<g id="F2U04U05">
		<g id="F2U04_1_">
			<polyline class="st0" points="64,142.4 9.6,142.4 9.6,296 146.8,296 146.8,211.4 64,211.4 64,142.4 			"/>
			<text transform="matrix(1 0 0 1 72.02 249.3531)" class="st2 st3">U04</text>
		</g>
		<g id="F2U05_1_">
			<polyline class="st0" points="146.8,211.4 283.8,211.4 283.8,253.7 317.8,253.7 317.8,296 146.8,296 146.8,211.4 			"/>
			<text transform="matrix(1 0 0 1 211.6865 252.0201)" class="st2 st3">U05</text>
		</g>
	</g>
	<g id="F221">
		<rect id="_x3C_Path_x3E_" x="317.9" y="261" class="st0" width="49.8" height="35"/>
		<text id="_x32_.2" transform="matrix(1 0 0 1 335.6865 281.3535)" class="st2 st3">2.1</text>
	</g>
	<g id="F222">
		<rect id="_x3C_Path_x3E__1_" x="367.7" y="261" class="st7" width="20" height="35"/>
		<text id="_x32_.2_1_" transform="matrix(1 0 0 1 369.5032 283.0201)" class="st2 st3">2.2</text>
	</g>
	<g id="F223">
		<rect id="_x3C_Path_x3E__2_" x="387.6" y="261" class="st8" width="41.9" height="35"/>
		<text id="_x32_.2_2_" transform="matrix(1 0 0 1 400.136 283.0197)" class="st2 st3">2.3</text>
	</g>
	<g id="F224">
		<rect id="_x3C_Path_x3E__3_" x="429.5" y="261" class="st9" width="24.2" height="35"/>
		<text id="_x32_.2_3_" transform="matrix(1 0 0 1 433.3196 283.0199)" class="st2 st3">2.4</text>
	</g>
	<g id="F225">
		<rect id="_x3C_Path_x3E__4_" x="453.6" y="257.8" class="st10" width="21.7" height="38.2"/>
		<text id="_x32_.2_4_" transform="matrix(1 0 0 1 454.9862 283.0199)" class="st2 st3">2.5</text>
	</g>
	<g id="F226">
		<rect id="_x3C_Path_x3E__5_" x="475.3" y="257.8" class="st10" width="21.7" height="38.2"/>
		<text id="_x32_.2_5_" transform="matrix(1 0 0 1 476.6528 283.0199)" class="st2 st3">2.6</text>
	</g>
	<g id="F227">
		<rect id="_x3C_Path_x3E__6_" x="497" y="254.8" class="st11" width="24.4" height="41.2"/>
		<text id="_x32_.2_6_" transform="matrix(1 0 0 1 501.3195 283.0199)" class="st2 st3">2.7</text>
	</g>
	<g id="F228">
		<rect id="_x3C_Path_x3E__7_" x="520.7" y="254.8" class="st12" width="21.3" height="41.2"/>
		<text id="_x32_.2_7_" transform="matrix(1 0 0 1 523.0906 283.0199)" class="st2 st3">2.8</text>
	</g>
	<g id="F229">
		<rect id="_x3C_Path_x3E__8_" x="541.8" y="254.8" class="st12" width="21.3" height="41.2"/>
		<text id="_x32_.2_8_" transform="matrix(1 0 0 1 544.1179 283.0199)" class="st2 st3">2.9</text>
	</g>
	<g id="F2210">
		<path class="st13" d="M589.7,270c-8.4,0-15.2-6.8-15.2-15.2H563V296h27.5v-26.1C590.2,269.9,590,270,589.7,270z"/>
		<text id="_x32_.2_9_" transform="matrix(1 0 0 1 565.3733 283.0199)" class="st2 st3">2.10</text>
	</g>
	<g id="F2211">
		<text id="_x32_.2_10_" transform="matrix(1 0 0 1 592.8651 283.0199)" class="st2 st3">2.11</text>
		<path class="st14" d="M604.9,254.8c0,8.1-6.4,14.7-14.4,15.2v26H626v-41.2H604.9z"/>
	</g>
	<g id="F2212">
		<text id="_x32_.2_11_" transform="matrix(1 0 0 1 599.8651 241.7751)" class="st2 st3">2.12</text>
		<path class="st15" d="M597.1,224.3v17.2c4.6,2.6,7.8,7.6,7.8,13.3H626v-30.4h-28.9V224.3z"/>
	</g>
	<g id="F2213">
		<rect id="_x3C_Path_x3E__12_" x="597.1" y="198.6" class="st16" width="28.9" height="25.7"/>
		<text id="_x32_.2_12_" transform="matrix(1 0 0 1 599.8651 216.0301)" class="st2 st3">2.13</text>
	</g>
	<g id="F2214">
		<rect id="_x3C_Path_x3E__13_" x="597.1" y="169.7" class="st17" width="28.9" height="28.9"/>
		<text id="_x32_.2_13_" transform="matrix(1 0 0 1 599.8651 188.285)" class="st2 st3">2.14</text>
	</g>
	<g id="F2219">
		<text id="_x32_.2_14_" transform="matrix(1 0 0 1 573.6003 230.2768)" class="st2 st18">2.19</text>
		<path class="st19" d="M589.7,239.6c0.3,0,0.6,0,0.9,0v-27.9H571v31.8h8.6C582.2,241,585.8,239.6,589.7,239.6z"/>
	</g>
	<g id="F2220">
		<rect id="_x3C_Path_x3E__15_" x="551.4" y="211.7" class="st19" width="19.6" height="31.8"/>
		<text id="_x32_.2_15_" transform="matrix(1 0 0 1 553.0597 230.2768)" class="st2 st18">2.20</text>
	</g>
	<g id="F2224">
		<rect id="_x3C_Path_x3E__16_" x="503.5" y="211.7" class="st19" width="19.6" height="31.8"/>
		<text id="_x32_.2_16_" transform="matrix(1 0 0 1 505.1713 230.2768)" class="st2 st18">2.24</text>
	</g>
	<g id="F2225">
		<rect id="_x3C_Path_x3E__17_" x="482.2" y="211.7" class="st20" width="21.3" height="31.8"/>
		<text id="_x32_.2_17_" transform="matrix(1 0 0 1 485.5924 230.2768)" class="st2 st18">2.25</text>
	</g>
	<g id="F2226">
		<polygon id="_x3C_Path_x3E__18_" class="st21" points="482.6,243.5 462,243.5 462.3,227.6 456.7,227.6 456.7,211.7 482.6,211.7 		
			"/>
		<text id="_x32_.2_18_" transform="matrix(1 0 0 1 464.6442 230.2768)" class="st2 st18">2.26</text>
	</g>
	<g id="F2228">
		<polygon id="_x3C_Path_x3E__9_" class="st21" points="430.9,243.5 451.4,243.5 451.1,227.6 456.7,227.6 456.7,211.7 430.9,211.7 
					"/>
		<text id="_x32_.2_19_" transform="matrix(1 0 0 1 433.3197 230.2772)" class="st2 st18">2.28</text>
	</g>
	<g id="F2229">
		<rect id="_x3C_Path_x3E__10_" x="351.8" y="211.8" class="st22" width="79.1" height="31.2"/>
		<text id="_x32_.2_20_" transform="matrix(1 0 0 1 377.65 232.0501)" class="st2 st3">2.29</text>
	</g>
</g>
</svg>
