<?xml version="1.0" encoding="utf-8"?>
<!-- Generator: Adobe Illustrator 21.0.2, SVG Export Plug-In . SVG Version: 6.00 Build 0)  -->
<svg version="1.1" id="Layer_1" xmlns="http://www.w3.org/2000/svg" xmlns:xlink="http://www.w3.org/1999/xlink" x="0px" y="0px"
	 viewBox="0 0 634 300" style="enable-background:new 0 0 634 300;" xml:space="preserve">
<style type="text/css">
	.st0{fill:none;stroke:#000000;stroke-miterlimit:10;}
	.st1{fill:none;stroke:#000000;stroke-width:0.5;stroke-miterlimit:10;}
	.st2{font-family:'Helvetica';}
	.st3{font-size:12px;}
	.st4{display:none;}
	.st5{display:inline;fill:none;stroke:#000000;stroke-miterlimit:10;}
	.st6{display:inline;}
	.st7{enable-background:new    ;}
	.st8{font-size:8px;}
	.st9{fill:none;}
	.st10{fill:none;stroke:#000000;stroke-width:0.72;stroke-linecap:round;stroke-linejoin:round;stroke-miterlimit:10;}
	.st11{font-size:6px;}
</style>
<g id="outline">
	<polyline class="st0" points="551.4,154.6 550,154.6 550,162.5 551.4,162.5 551.4,154.6 	"/>
	<polyline points="550,154.6 548.6,154.6 548.6,162.5 550,162.5 550,154.6 	"/>
	<polyline class="st0" points="548.6,154.6 547.2,154.6 547.2,162.5 548.6,162.5 548.6,154.6 	"/>
	<polyline class="st0" points="547.2,154.6 545.8,154.6 545.8,162.5 547.2,162.5 547.2,154.6 	"/>
	<polyline class="st0" points="284.3,225 290,225 290,231.2 284.3,231.2 284.3,225 	"/>
	<polyline class="st0" points="542,168.1 550,168.1 550,174.2 542,174.2 542,168.1 	"/>
	<polyline class="st0" points="537.4,166.3 528.5,166.3 528.5,175.4 537.4,175.4 537.4,166.3 	"/>
	<line class="st1" x1="314.4" y1="229.6" x2="316.2" y2="223"/>
	<line class="st1" x1="314.4" y1="237.1" x2="316.2" y2="243.7"/>
	<line class="st1" x1="314.4" y1="229.6" x2="316.2" y2="223"/>
	<line class="st1" x1="313.7" y1="229.4" x2="314.3" y2="222.6"/>
	<line class="st1" x1="313" y1="229.4" x2="312.2" y2="222.6"/>
	<line class="st1" x1="312.2" y1="229.6" x2="310.3" y2="223"/>
	<line class="st1" x1="311.5" y1="229.8" x2="308.5" y2="223.7"/>
	<line class="st1" x1="310.9" y1="230.2" x2="306.8" y2="224.8"/>
	<line class="st1" x1="310.3" y1="230.6" x2="305.3" y2="226.1"/>
	<line class="st1" x1="310" y1="231.2" x2="304.1" y2="227.6"/>
	<line class="st1" x1="309.6" y1="232" x2="303.2" y2="229.4"/>
	<line class="st1" x1="309.4" y1="232.7" x2="302.6" y2="231.4"/>
	<line class="st1" x1="309.4" y1="233.4" x2="302.5" y2="233.4"/>
	<line class="st1" x1="309.4" y1="234.1" x2="302.6" y2="235.3"/>
	<line class="st1" x1="309.6" y1="234.8" x2="303.2" y2="237.2"/>
	<line class="st1" x1="310" y1="235.4" x2="304.1" y2="239"/>
	<line class="st1" x1="310.3" y1="236" x2="305.3" y2="240.6"/>
	<line class="st1" x1="310.9" y1="236.5" x2="306.8" y2="241.9"/>
	<line class="st1" x1="311.5" y1="236.9" x2="308.5" y2="243"/>
	<line class="st1" x1="312.2" y1="237.1" x2="310.3" y2="243.7"/>
	<line class="st1" x1="313" y1="237.4" x2="312.2" y2="244.1"/>
	<line class="st1" x1="313.7" y1="237.4" x2="314.3" y2="244.1"/>
	<line class="st1" x1="314.4" y1="237.1" x2="316.2" y2="243.7"/>
	<path class="st1" d="M314.4,229.5c-1.6-0.5-3.4,0.2-4.4,1.5c-1,1.4-1,3.3,0,4.6c1,1.4,2.7,2,4.4,1.5"/>
	<path class="st1" d="M316.2,223c-4.4-1.2-9.1,0.4-11.7,4.1s-2.6,8.7,0,12.4s7.3,5.4,11.7,4.1"/>
	<polyline class="st0" points="342.8,243.5 349.2,244.4 358.2,244.4 358.2,221.8 349.2,221.8 342.8,222.6 342.8,243.5 	"/>
	<polyline class="st0" points="550,168.1 550,169 553,169 553,163.3 526.9,163.3 526.9,167.2 528.5,167.2 528.5,166.3 537.4,166.3
		537.4,175.4 528.5,175.4 528.5,174.6 526.9,174.6 526.9,178.4 553,178.4 553,173.4 550,173.4 550,174.2 542,174.2 542,168.1
		550,168.1 	"/>
	<polyline class="st0" points="284.3,241.1 290,241.1 290,234.8 284.3,234.8 284.3,241.1 	"/>
	<polyline class="st0" points="292.8,225.8 292.8,222.6 286.4,221.8 277.4,221.8 277.4,244.4 286.4,244.4 292.8,243.5 292.8,240.2
		290,240.2 290,241.1 284.3,241.1 284.3,234.8 290,234.8 290,235.7 292.8,235.7 292.8,230.4 290,230.4 290,231.2 284.3,231.2
		284.3,225 290,225 290,225.8 292.8,225.8 	"/>
	<polyline class="st0" points="526.9,196 553,196 553,178.4 526.9,178.4 526.9,196 	"/>
	<polyline class="st0" points="526.9,163.3 553,163.3 553,142.4 526.9,142.4 526.9,163.3 	"/>
	<polyline class="st0" points="84.2,154.6 85.7,154.6 85.7,162.5 84.2,162.5 84.2,154.6 	"/>
	<polyline class="st0" points="85.7,154.6 87,154.6 87,162.5 85.7,162.5 85.7,154.6 	"/>
	<polyline class="st0" points="87,154.6 88.4,154.6 88.4,162.5 87,162.5 87,154.6 	"/>
	<polyline class="st0" points="88.4,154.6 89.9,154.6 89.9,162.5 88.4,162.5 88.4,154.6 	"/>
	<polyline class="st0" points="93.6,168.1 85.7,168.1 85.7,174.2 93.6,174.2 93.6,168.1 	"/>
	<polyline class="st0" points="98.3,166.3 107.2,166.3 107.2,175.4 98.3,175.4 98.3,166.3 	"/>
	<polyline class="st0" points="292.8,243.5 286.4,244.4 277.4,244.4 277.4,221.8 286.4,221.8 292.8,222.6 292.8,243.5 	"/>
	<polyline class="st0" points="108.7,196 108.7,211.4 526.9,211.4 526.9,196 	"/>
	<polyline class="st0" points="85.7,168.1 85.7,169 82.7,169 82.7,163.3 108.7,163.3 108.7,167.2 107.2,167.2 107.2,166.3
		98.3,166.3 98.3,175.4 107.2,175.4 107.2,174.6 108.7,174.6 108.7,178.4 82.7,178.4 82.7,173.4 85.7,173.4 85.7,174.2 93.6,174.2
		93.6,168.1 85.7,168.1 	"/>
	<polyline class="st0" points="108.7,196 82.7,196 82.7,178.4 108.7,178.4 108.7,196 	"/>
	<polyline class="st0" points="108.7,163.3 82.7,163.3 82.7,142.4 108.7,142.4 108.7,163.3 	"/>
	<polyline class="st0" points="519.4,142.4 511.8,142.4 511.8,198.6 123.8,198.6 123.8,142.4 116.3,142.4 	"/>
	<polyline class="st0" points="526.9,142.4 523,142.4 523,3.8 626,3.8 626,296 9.6,296 9.6,3.8 112.7,3.8 112.7,142.4 108.7,142.4
		"/>
</g>
<g id="F2U08">
	<polygon class="st0" points="557,6.4 557,28.2 580.4,28.2 580.4,40.4 580.4,74.4 626,74.4 626,40.4 626,6.4 	"/>
	<text transform="matrix(1 0 0 1 595.5195 39.5202)" class="st2 st3">U08</text>
</g>
<g id="F2U7B" class="st4">
	<polyline class="st5" points="580.4,74.4 626,74.4 626,108.5 580.4,108.5 580.4,74.4 	"/>
	<text transform="matrix(1 0 0 1 590.5195 91.0202)" class="st6 st2 st3">U07B</text>
</g>
<g id="F2U7A" class="st4">
	<polyline class="st5" points="580.4,108.5 626,108.5 626,142.4 580.4,142.4 580.4,108.5 	"/>
	<text transform="matrix(1 0 0 1 588.0195 129.5202)" class="st6 st2 st3">U07A</text>
</g>
<g id="F2U07">
	<g id="F2U7B_1_">
		<polyline class="st0" points="580.4,74.4 626,74.4 626,108.5 580.4,108.5 580.4,74.4 		"/>
		<text transform="matrix(1 0 0 1 590.5195 91.0202)" class="st2 st3">U07B</text>
	</g>
	<g id="F2U7A_1_">
		<polyline class="st0" points="580.4,108.5 626,108.5 626,142.4 580.4,142.4 580.4,108.5 		"/>
		<text transform="matrix(1 0 0 1 588.0195 129.5202)" class="st2 st3">U07A</text>
	</g>
</g>
<g id="F2U09">
	<polyline class="st0" points="523,40.4 568.6,40.4 568.6,74.4 523,74.4 523,40.4 	"/>
	<text transform="matrix(1 0 0 1 539.0195 63.0202)" class="st2 st3">U09</text>
</g>
<g id="F2U10">
	<polyline class="st0" points="568.6,74.4 523,74.4 523,108.5 568.6,108.5 568.6,74.4 	"/>
	<text transform="matrix(1 0 0 1 538.0195 97.0202)" class="st2 st3">U10</text>
</g>
<g id="F2U11">
	<polyline class="st0" points="556.9,108.5 523,108.5 523,142.4 556.9,142.4 556.9,108.5 	"/>
	<text transform="matrix(1 0 0 1 532.1865 128.5202)" class="st2 st3">U11</text>
</g>
<g id="F2U01">
	<polygon class="st0" points="9.5,6.4 9.6,40.4 9.6,74.4 55.2,74.4 55.2,40.4 55.2,28.2 78.6,28.2 78.6,6.4 	"/>
	<text transform="matrix(1 0 0 1 23.02 32.6867)" class="st2 st3">U01</text>
</g>
<g id="F2U02">
	<polygon class="st0" points="9.6,74.4 9.6,108.5 9.6,142.4 55.2,142.4 55.2,108.5 55.2,74.4 	"/>
	<text transform="matrix(1 0 0 1 21.353 105.6867)" class="st2 st3">U02</text>
</g>
<g id="F2U03">
	<polygon class="st0" points="67.1,74.4 67.1,74.4 67.1,108.5 78.7,108.5 78.7,142.4 112.7,142.4 112.7,108.5 112.7,74.4
		112.7,74.4 	"/>
	<text transform="matrix(1 0 0 1 85.353 100.0202)" class="st2 st3">U03</text>
</g>
<g id="F221">
	<polygon class="st0" points="9.6,250.1 9.6,272.8 9.6,295.4 50,295.4 50,272.8 50,250.1 	"/>
	<text transform="matrix(1.1309 0 0 1 20.6284 275.686)" class="st2 st3">2.1</text>
</g>
<g id="F222">
	<polygon class="st0" points="50,250.1 50,272.8 50,295.4 84.1,295.4 84.1,272.8 84.1,250.1 	"/>
	<text id="_x32_.2" transform="matrix(1 0 0 1 58.353 275.6866)" class="st2 st3">2.2</text>
</g>
<g id="F223">
	<polygon class="st0" points="84.2,250.1 84.2,272.8 84.2,295.4 117.3,295.4 117.3,272.8 117.3,250.1 	"/>
	<text id="_x32_.3" transform="matrix(1 0 0 1 91.7197 275.6866)" class="st2 st3">2.3</text>
</g>
<g id="F224">
	<polygon class="st0" points="117.5,250.1 117.5,272.8 117.5,295.4 150.6,295.4 150.6,272.8 150.6,250.1 	"/>
	<text id="_x32_.4" transform="matrix(1 0 0 1 125.0864 275.6866)" class="st2 st3">2.4</text>
</g>
<g id="F225">
	<polygon class="st0" points="150.8,250.1 150.8,272.8 150.8,295.4 183.9,295.4 183.9,272.8 183.9,250.1 	"/>
	<text id="_x32_.5" transform="matrix(1 0 0 1 158.4531 275.6866)" class="st2 st3">2.5</text>
</g>
<g id="F226">
	<polygon class="st0" points="184.1,250.1 184.1,272.8 184.1,295.4 217.1,295.4 217.1,272.8 217.1,250.1 	"/>
	<text id="_x32_.6" transform="matrix(1 0 0 1 191.8198 275.6866)" class="st2 st3">2.6</text>
</g>
<g id="F227">
	<polygon class="st0" points="217.2,250.1 217.2,272.8 217.2,295.4 250.2,295.4 250.2,272.8 250.2,250.1 	"/>
	<text id="_x32_.7" transform="matrix(1 0 0 1 225.1865 275.6866)" class="st2 st3">2.7</text>
</g>
<g id="F2RB">
	<polygon class="st0" points="250.3,266.5 250.3,281 250.3,295.4 283.3,295.4 283.3,281 283.3,266.5 	"/>
	<text id="_x32_.7_1_" transform="matrix(1 0 0 1 255.2865 278.6866)" class="st7"><tspan x="0" y="0" class="st2 st8">Riek </tspan><tspan x="0" y="9.6" class="st2 st8">Bakker</tspan></text>
</g>
<g id="F228">
	<polygon class="st0" points="388.1,250.1 388.1,272.8 388.1,295.4 420.7,295.4 420.7,272.8 420.7,250.1 	"/>
	<text id="_x32_.8" transform="matrix(1 0 0 1 396.8115 275.6866)" class="st2 st3">2.8</text>
</g>
<g id="F229">
	<polygon class="st0" points="420.9,250.1 420.9,272.8 420.9,295.4 453.6,295.4 453.6,272.8 453.6,250.1 	"/>
	<text id="_x32_.9" transform="matrix(1 0 0 1 429.6787 275.6866)" class="st2 st3">2.9</text>
</g>
<g id="F2210">
	<polygon class="st0" points="453.8,250.1 453.8,272.8 453.8,295.4 486.4,295.4 486.4,272.8 486.4,250.1 	"/>
	<text id="_x32_.10" transform="matrix(1 0 0 1 459.2095 275.6866)" class="st2 st3">2.10</text>
</g>
<g id="F2211">
	<polygon class="st0" points="486.6,250.1 486.6,272.8 486.6,295.4 519.3,295.4 519.3,272.8 519.3,250.1 	"/>
	<text id="_x32_.11" transform="matrix(1 0 0 1 492.519 275.6866)" class="st2 st3">2.11</text>
</g>
<g id="F2212">
	<polygon class="st0" points="519.5,250.1 519.5,272.8 519.5,295.4 552.1,295.4 552.1,272.8 552.1,250.1 	"/>
	<text id="_x32_.12" transform="matrix(1 0 0 1 524.9443 275.6866)" class="st2 st3">2.12</text>
</g>
<g id="F2213">
	<polygon class="st0" points="552.3,250.1 552.3,272.8 552.3,295.4 585,295.4 585,272.8 585,250.1 	"/>
	<text id="_x32_.13" transform="matrix(1 0 0 1 557.8115 275.6866)" class="st2 st3">2.13</text>
</g>
<g id="F2214">
	<polygon class="st0" points="585,250.1 585,272.8 585,295.4 625.9,295.4 625.9,272.8 625.9,250.1 	"/>
	<text id="_x32_.14" transform="matrix(1 0 0 1 593.8115 275.6866)" class="st2 st3">2.14</text>
</g>
<g id="F2215">
	<polygon class="st0" points="591.9,211.9 591.9,231.1 591.9,250.1 625.8,250.1 625.8,231.1 625.8,211.9 	"/>
	<text id="_x32_.15" transform="matrix(1 0 0 1 597.6865 235.3537)" class="st2 st3">2.15</text>
</g>
<g id="F2U100">
	<polygon class="st0" points="580.4,142.4 580.4,177.1 580.4,211.4 625.8,211.4 625.8,177.1 625.8,142.4 	"/>
	<text id="_x32_.15_2_" transform="matrix(1 0 0 1 589.6865 181.6537)" class="st2 st3">U100</text>
</g>
<g id="F220">
	<polygon class="st0" points="9.9,211.9 9.9,231.1 9.9,250.1 43.8,250.1 43.8,231.1 43.8,211.9 	"/>
	<text id="_x32_.15_1_" transform="matrix(1 0 0 1 15.6865 235.3537)" class="st2 st3">2.0</text>
</g>
<g id="F2RL">
	<polygon class="st9" points="55.1,211.9 55.1,231.1 55.1,250.1 117.5,250.1 117.5,231.1 117.5,211.9 	"/>
	<text id="_x32_.15_4_" transform="matrix(1 0 0 1 62.8865 228.3537)" class="st7"><tspan x="0" y="0" class="st2 st8">Ruud Lubbers</tspan><tspan x="0" y="9.6" class="st2 st8">Keuken</tspan></text>
</g>
<g id="F2D01">
	<polyline class="st10" points="122,228.3 134,228.3 134,241.2 122,241.2 122,228.3 	"/>
	<text transform="matrix(1 0 0 1 122.0437 235.9047)" class="st2 st11">D01</text>
</g>
<g id="F2D04">
	<polyline class="st10" points="134.1,215 146.1,215 146.1,227.9 134.1,227.9 134.1,215 	"/>
	<text transform="matrix(1 0 0 1 134.053 222.5119)" class="st2 st11">D04</text>
</g>
<g id="F2D02">
	<polyline class="st10" points="122.1,215 134.1,215 134.1,227.9 122.1,227.9 122.1,215 	"/>
	<text transform="matrix(1 0 0 1 122.0437 222.5119)" class="st2 st11">D02</text>
</g>
<g id="F2D05">
	<polyline class="st10" points="152.4,228.3 164.4,228.3 164.4,241.2 152.4,241.2 152.4,228.3 	"/>
	<text transform="matrix(1 0 0 1 152.344 235.8082)" class="st2 st11">D05</text>
</g>
<g id="F2D03">
	<polyline class="st10" points="134.1,228.4 146.1,228.4 146.1,241.3 134.1,241.3 134.1,228.4 	"/>
	<text transform="matrix(1 0 0 1 134.0498 235.9083)" class="st2 st11">D03</text>
</g>
<g id="F2D06">
	<polyline class="st10" points="152.4,215 164.4,215 164.4,227.9 152.4,227.9 152.4,215 	"/>
	<text transform="matrix(1 0 0 1 152.3469 222.5119)" class="st2 st11">D06</text>
</g>
<g id="F2D09">
	<polyline class="st10" points="185.8,228.6 197.8,228.6 197.8,241.5 185.8,241.5 185.8,228.6 	"/>
	<text transform="matrix(1 0 0 1 185.8242 236.1198)" class="st2 st11">D09</text>
</g>
<g id="F2D08">
	<polyline class="st10" points="164.4,215 176.4,215 176.4,227.9 164.4,227.9 164.4,215 	"/>
	<text transform="matrix(1 0 0 1 164.356 222.5121)" class="st2 st11">D08</text>
</g>
<g id="F2D07">
	<polyline class="st10" points="164.4,228.4 176.4,228.4 176.4,241.3 164.4,241.3 164.4,228.4 	"/>
	<text transform="matrix(1 0 0 1 164.353 235.9086)" class="st2 st11">D07</text>
</g>
<g id="F2D10">
	<polyline class="st10" points="185.8,215.2 197.8,215.2 197.8,228.1 185.8,228.1 185.8,215.2 	"/>
	<text transform="matrix(1 0 0 1 185.8271 222.8024)" class="st2 st11">D10</text>
</g>
<g id="F2D13">
	<polyline class="st10" points="217.2,228.1 229.2,228.1 229.2,241 217.2,241 217.2,228.1 	"/>
	<text transform="matrix(1 0 0 1 217.1865 235.7069)" class="st2 st11">D13</text>
</g>
<g id="F2D12">
	<polyline class="st10" points="197.8,215.2 209.8,215.2 209.8,228 197.8,228 197.8,215.2 	"/>
	<text transform="matrix(1 0 0 1 197.833 222.7401)" class="st2 st11">D12</text>
</g>
<g id="F2D11">
	<polyline class="st10" points="197.8,228.6 209.8,228.6 209.8,241.5 197.8,241.5 197.8,228.6 	"/>
	<text transform="matrix(1 0 0 1 197.8301 236.1078)" class="st2 st11">D11</text>
</g>
<g id="F2D16">
	<polyline class="st10" points="229.2,215.5 241.2,215.5 241.2,228.4 229.2,228.4 229.2,215.5 	"/>
	<text transform="matrix(1 0 0 1 229.1978 223.0104)" class="st2 st11">D16</text>
</g>
<g id="F2D15">
	<polyline class="st10" points="229.2,228.2 241.2,228.2 241.2,241 229.2,241 229.2,228.2 	"/>
	<text transform="matrix(1 0 0 1 229.1948 235.7731)" class="st2 st11">D15</text>
</g>
<g id="F2D14">
	<polyline class="st10" points="217.2,215.5 229.2,215.5 229.2,228.4 217.2,228.4 217.2,215.5 	"/>
	<text transform="matrix(1 0 0 1 217.189 222.9984)" class="st2 st11">D14</text>
</g>
<g id="F2D19">
	<polyline class="st10" points="258.8,228.6 270.8,228.6 270.8,241.5 258.8,241.5 258.8,228.6 	"/>
	<text transform="matrix(1 0 0 1 258.8364 236.1576)" class="st2 st11">D19</text>
</g>
<g id="F2D20">
	<polyline class="st10" points="258.8,215.4 270.8,215.4 270.8,228.3 258.8,228.3 258.8,215.4 	"/>
	<text transform="matrix(1 0 0 1 258.8364 222.9484)" class="st2 st11">D20</text>
</g>
<g id="F2D18">
	<polyline class="st10" points="247,215.4 259,215.4 259,228.3 247,228.3 247,215.4 	"/>
	<text transform="matrix(1 0 0 1 246.9941 222.9484)" class="st2 st11">D18</text>
</g>
<g id="F2D17">
	<polyline class="st10" points="247,228.6 259,228.6 259,241.5 247,241.5 247,228.6 	"/>
	<text transform="matrix(1 0 0 1 246.9941 236.1576)" class="st2 st11">D17</text>
</g>
<g id="F2D21">
	<polyline class="st10" points="365.9,228.7 377.9,228.7 377.9,241.6 365.9,241.6 365.9,228.7 	"/>
	<text transform="matrix(1 0 0 1 365.9395 236.1964)" class="st2 st11">D21</text>
</g>
<g id="F2D22">
	<polyline class="st10" points="365.9,215.7 377.9,215.7 377.9,228.6 365.9,228.6 365.9,215.7 	"/>
	<text transform="matrix(1 0 0 1 365.9395 223.1964)" class="st2 st11">D22</text>
</g>
<g id="F2D24">
	<polyline class="st10" points="377.9,215.7 389.9,215.7 389.9,228.6 377.9,228.6 377.9,215.7 	"/>
	<text transform="matrix(1 0 0 1 377.9395 223.1964)" class="st2 st11">D24</text>
</g>
<g id="F2D23">
	<polyline class="st10" points="377.9,228.7 389.9,228.7 389.9,241.6 377.9,241.6 377.9,228.7 	"/>
	<text transform="matrix(1 0 0 1 377.9395 236.1964)" class="st2 st11">D23</text>
</g>
<g id="F2D25">
	<polyline class="st10" points="396.7,228.7 408.7,228.7 408.7,241.6 396.7,241.6 396.7,228.7 	"/>
	<text transform="matrix(1 0 0 1 396.6943 236.2465)" class="st2 st11">D25</text>
</g>
<g id="F2D26">
	<polyline class="st10" points="396.7,215.7 408.7,215.7 408.7,228.6 396.7,228.6 396.7,215.7 	"/>
	<text transform="matrix(1 0 0 1 396.6943 223.2465)" class="st2 st11">D26</text>
</g>
<g id="F2D28">
	<polyline class="st10" points="408.7,215.7 420.7,215.7 420.7,228.6 408.7,228.6 408.7,215.7 	"/>
	<text transform="matrix(1 0 0 1 408.6943 223.2465)" class="st2 st11">D28</text>
</g>
<g id="F2D27">
	<polyline class="st10" points="408.7,228.7 420.7,228.7 420.7,241.6 408.7,241.6 408.7,228.7 	"/>
	<text transform="matrix(1 0 0 1 408.6943 236.2465)" class="st2 st11">D27</text>
</g>
<g id="F2D29">
	<polyline class="st10" points="425.3,228.6 437.3,228.6 437.3,241.5 425.3,241.5 425.3,228.6 	"/>
	<text transform="matrix(1 0 0 1 425.2456 236.1466)" class="st2 st11">D29</text>
</g>
<g id="F2D30">
	<polyline class="st10" points="425.3,215.6 437.3,215.6 437.3,228.5 425.3,228.5 425.3,215.6 	"/>
	<text transform="matrix(1 0 0 1 425.2456 223.1466)" class="st2 st11">D30</text>
</g>
<g id="F2D32">
	<polyline class="st10" points="437.3,215.6 449.3,215.6 449.3,228.5 437.3,228.5 437.3,215.6 	"/>
	<text transform="matrix(1 0 0 1 437.2456 223.1466)" class="st2 st11">D32</text>
</g>
<g id="F2D31">
	<polyline class="st10" points="437.3,228.6 449.3,228.6 449.3,241.5 437.3,241.5 437.3,228.6 	"/>
	<text transform="matrix(1 0 0 1 437.2456 236.1466)" class="st2 st11">D31</text>
</g>
<g id="F2D33">
	<polyline class="st10" points="471,228.6 483,228.6 483,241.5 471,241.5 471,228.6 	"/>
	<text transform="matrix(1 0 0 1 471.0425 236.1215)" class="st2 st11">D33</text>
</g>
<g id="F3D20">
	<polyline class="st10" points="471,215.6 483,215.6 483,228.5 471,228.5 471,215.6 	"/>
	<text transform="matrix(1 0 0 1 471.0425 223.1215)" class="st2 st11">D34</text>
</g>
<g id="F3D36">
	<polyline class="st10" points="483,215.6 495,215.6 495,228.5 483,228.5 483,215.6 	"/>
	<text transform="matrix(1 0 0 1 483.0425 223.1215)" class="st2 st11">D36</text>
</g>
<g id="F2D35">
	<polyline class="st10" points="483,228.6 495,228.6 495,241.5 483,241.5 483,228.6 	"/>
	<text transform="matrix(1 0 0 1 483.0425 236.1215)" class="st2 st11">D35</text>
</g>
<g id="F2D37">
	<polyline class="st10" points="499,228.9 511,228.9 511,241.8 499,241.8 499,228.9 	"/>
	<text transform="matrix(1 0 0 1 499.0146 236.4716)" class="st2 st11">D37</text>
</g>
<g id="F2D38">
	<polyline class="st10" points="499,215.9 511,215.9 511,228.8 499,228.8 499,215.9 	"/>
	<text transform="matrix(1 0 0 1 499.0146 223.4716)" class="st2 st11">D38</text>
</g>
<g id="F2D39">
	<polyline class="st10" points="511,215.9 523,215.9 523,228.8 511,228.8 511,215.9 	"/>
	<text transform="matrix(1 0 0 1 511.0146 223.4716)" class="st2 st11">D40</text>
</g>
<g id="F2D40">
	<polyline class="st10" points="511,228.9 523,228.9 523,241.8 511,241.8 511,228.9 	"/>
	<text transform="matrix(1 0 0 1 511.0146 236.4716)" class="st2 st11">D39</text>
</g>
<g id="F2U04">
	<path class="st0" d="M78.7,142.4"/>
	<polygon class="st0" points="112.7,74.5 112.7,74.4 112.7,40.4 67.1,40.4 67.1,74.4 67.1,74.5 	"/>
	<text transform="matrix(1 0 0 1 85.353 67.0202)" class="st2 st3">U04</text>
</g>
<g id="F2U">
	<polygon class="st0" points="9.7,142.4 9.7,177.1 9.7,211.4 55.1,211.4 55.1,177.1 55.1,142.4 	"/>
	<text id="_x32_.15_3_" transform="matrix(1 0 0 1 18.9866 181.6537)" class="st2 st3">U</text>
</g>
</svg>
