<?xml version="1.0" encoding="utf-8"?>
<!-- Generator: Adobe Illustrator 19.1.0, SVG Export Plug-In . SVG Version: 6.00 Build 0)  -->
<svg version="1.1" id="Layer_1" xmlns="http://www.w3.org/2000/svg" xmlns:xlink="http://www.w3.org/1999/xlink" x="0px" y="0px"
	 viewBox="-322 191 634 300" style="enable-background:new -322 191 634 300;" xml:space="preserve">
<style type="text/css">
	.st0{fill:none;stroke:#000000;stroke-width:0.72;stroke-linecap:round;stroke-linejoin:round;stroke-miterlimit:10;}
	.st1{font-family:'Helvetica';}
	.st2{font-size:12px;}
</style>
<g id="outline">
	<polyline class="st0" points="229.4,345.6 228,345.6 228,353.5 229.4,353.5 229.4,345.6 	"/>
	<polyline class="st0" points="228,345.6 226.6,345.6 226.6,353.5 228,353.5 228,345.6 	"/>
	<polyline class="st0" points="226.6,345.6 225.2,345.6 225.2,353.5 226.6,353.5 226.6,345.6 	"/>
	<polyline class="st0" points="225.2,345.6 223.8,345.6 223.8,353.5 225.2,353.5 225.2,345.6 	"/>
	<polyline class="st0" points="-37.7,416 -32,416 -32,422.2 -37.7,422.2 -37.7,416 	"/>
	<polyline class="st0" points="220,359.1 228,359.1 228,365.2 220,365.2 220,359.1 	"/>
	<polyline class="st0" points="215.4,357.3 206.5,357.3 206.5,366.4 215.4,366.4 215.4,357.3 	"/>
	<line class="st0" x1="-7.6" y1="420.6" x2="-5.8" y2="414"/>
	<line class="st0" x1="-7.6" y1="428.1" x2="-5.8" y2="434.7"/>
	<line class="st0" x1="-7.6" y1="420.6" x2="-5.8" y2="414"/>
	<line class="st0" x1="-8.3" y1="420.4" x2="-7.7" y2="413.6"/>
	<line class="st0" x1="-9" y1="420.4" x2="-9.8" y2="413.6"/>
	<line class="st0" x1="-9.8" y1="420.6" x2="-11.7" y2="414"/>
	<line class="st0" x1="-10.5" y1="420.8" x2="-13.5" y2="414.7"/>
	<line class="st0" x1="-11.1" y1="421.2" x2="-15.2" y2="415.8"/>
	<line class="st0" x1="-11.7" y1="421.6" x2="-16.7" y2="417.1"/>
	<line class="st0" x1="-12" y1="422.2" x2="-17.9" y2="418.6"/>
	<line class="st0" x1="-12.4" y1="423" x2="-18.8" y2="420.4"/>
	<line class="st0" x1="-12.6" y1="423.7" x2="-19.4" y2="422.4"/>
	<line class="st0" x1="-12.6" y1="424.4" x2="-19.5" y2="424.4"/>
	<line class="st0" x1="-12.6" y1="425.1" x2="-19.4" y2="426.3"/>
	<line class="st0" x1="-12.4" y1="425.8" x2="-18.8" y2="428.2"/>
	<line class="st0" x1="-12" y1="426.4" x2="-17.9" y2="430"/>
	<line class="st0" x1="-11.7" y1="427" x2="-16.7" y2="431.6"/>
	<line class="st0" x1="-11.1" y1="427.5" x2="-15.2" y2="432.9"/>
	<line class="st0" x1="-10.5" y1="427.9" x2="-13.5" y2="434"/>
	<line class="st0" x1="-9.8" y1="428.1" x2="-11.7" y2="434.7"/>
	<line class="st0" x1="-9" y1="428.4" x2="-9.8" y2="435.1"/>
	<line class="st0" x1="-8.3" y1="428.4" x2="-7.7" y2="435.1"/>
	<line class="st0" x1="-7.6" y1="428.1" x2="-5.8" y2="434.7"/>
	<path class="st0" d="M-7.6,420.5c-1.6-0.5-3.4,0.2-4.4,1.5c-1,1.4-1,3.3,0,4.6c1,1.4,2.7,2,4.4,1.5"/>
	<path class="st0" d="M-5.8,414c-4.4-1.2-9.1,0.4-11.7,4.1c-2.6,3.7-2.6,8.7,0,12.4c2.6,3.7,7.3,5.4,11.7,4.1"/>
	<polyline class="st0" points="20.8,434.5 27.2,435.4 36.2,435.4 36.2,412.8 27.2,412.8 20.8,413.6 20.8,434.5 	"/>
	<polyline class="st0" points="228,359.1 228,360 231,360 231,354.3 204.9,354.3 204.9,358.2 206.5,358.2 206.5,357.3 215.4,357.3 
		215.4,366.4 206.5,366.4 206.5,365.6 204.9,365.6 204.9,369.4 231,369.4 231,364.4 228,364.4 228,365.2 220,365.2 220,359.1 
		228,359.1 	"/>
	<polyline class="st0" points="-37.7,432.1 -32,432.1 -32,425.8 -37.7,425.8 -37.7,432.1 	"/>
	<polyline class="st0" points="-29.2,416.8 -29.2,413.6 -35.6,412.8 -44.6,412.8 -44.6,435.4 -35.6,435.4 -29.2,434.5 -29.2,431.2 
		-32,431.2 -32,432.1 -37.7,432.1 -37.7,425.8 -32,425.8 -32,426.7 -29.2,426.7 -29.2,421.4 -32,421.4 -32,422.2 -37.7,422.2 
		-37.7,416 -32,416 -32,416.8 -29.2,416.8 	"/>
	<polyline class="st0" points="204.9,387 231,387 231,369.4 204.9,369.4 204.9,387 	"/>
	<polyline class="st0" points="204.9,354.3 231,354.3 231,333.4 204.9,333.4 204.9,354.3 	"/>
	<polyline class="st0" points="-237.8,345.6 -236.3,345.6 -236.3,353.5 -237.8,353.5 -237.8,345.6 	"/>
	<polyline class="st0" points="-236.3,345.6 -235,345.6 -235,353.5 -236.3,353.5 -236.3,345.6 	"/>
	<polyline class="st0" points="-235,345.6 -233.6,345.6 -233.6,353.5 -235,353.5 -235,345.6 	"/>
	<polyline class="st0" points="-233.6,345.6 -232.1,345.6 -232.1,353.5 -233.6,353.5 -233.6,345.6 	"/>
	<polyline class="st0" points="-228.4,359.1 -236.3,359.1 -236.3,365.2 -228.4,365.2 -228.4,359.1 	"/>
	<polyline class="st0" points="-223.7,357.3 -214.8,357.3 -214.8,366.4 -223.7,366.4 -223.7,357.3 	"/>
	<polyline class="st0" points="-29.2,434.5 -35.6,435.4 -44.6,435.4 -44.6,412.8 -35.6,412.8 -29.2,413.6 -29.2,434.5 	"/>
	<polyline class="st0" points="-213.3,387 -213.3,402.4 204.9,402.4 204.9,387 	"/>
	<polyline class="st0" points="-236.3,359.1 -236.3,360 -239.3,360 -239.3,354.3 -213.3,354.3 -213.3,358.2 -214.8,358.2 
		-214.8,357.3 -223.7,357.3 -223.7,366.4 -214.8,366.4 -214.8,365.6 -213.3,365.6 -213.3,369.4 -239.3,369.4 -239.3,364.4 
		-236.3,364.4 -236.3,365.2 -228.4,365.2 -228.4,359.1 -236.3,359.1 	"/>
	<polyline class="st0" points="-213.3,387 -239.3,387 -239.3,369.4 -213.3,369.4 -213.3,387 	"/>
	<polyline class="st0" points="-213.3,354.3 -239.3,354.3 -239.3,333.4 -213.3,333.4 -213.3,354.3 	"/>
	<polyline class="st0" points="197.4,333.4 189.8,333.4 189.8,389.6 -198.2,389.6 -198.2,333.4 -205.7,333.4 	"/>
	<polyline class="st0" points="204.9,333.4 201,333.4 201,194.8 304,194.8 304,487 -312.4,487 -312.4,194.8 -209.3,194.8 
		-209.3,333.4 -213.3,333.4 	"/>
</g>
<g id="F2U08">
	<polygon class="st0" points="235,197.4 235,219.2 258.4,219.2 258.4,231.4 258.4,265.4 304,265.4 304,231.4 304,197.4 	"/>
	<text transform="matrix(1 0 0 1 273.5195 230.5201)" class="st1 st2">U08</text>
</g>
<g id="F2U7B">
	<polyline class="st0" points="258.4,265.4 304,265.4 304,299.5 258.4,299.5 258.4,265.4 	"/>
	<text transform="matrix(1 0 0 1 268.5195 282.0201)" class="st1 st2">U07B</text>
</g>
<g id="F2U7A">
	<polyline class="st0" points="258.4,299.5 304,299.5 304,333.4 258.4,333.4 258.4,299.5 	"/>
	<text transform="matrix(1 0 0 1 266.0195 320.5201)" class="st1 st2">U07A</text>
</g>
<g id="F2U09">
	<polyline class="st0" points="201,231.4 246.6,231.4 246.6,265.4 201,265.4 201,231.4 	"/>
	<text transform="matrix(1 0 0 1 217.0195 254.0201)" class="st1 st2">U09</text>
</g>
<g id="F2U10">
	<polyline class="st0" points="246.6,265.4 201,265.4 201,299.5 246.6,299.5 246.6,265.4 	"/>
	<text transform="matrix(1 0 0 1 216.0195 288.0201)" class="st1 st2">U10</text>
</g>
<g id="F2U11">
	<polyline class="st0" points="234.9,299.5 201,299.5 201,333.4 234.9,333.4 234.9,299.5 	"/>
	<text transform="matrix(1 0 0 1 210.1865 319.5201)" class="st1 st2">U11</text>
</g>
<g id="F2U01">
	<polygon class="st0" points="-312.5,197.4 -312.4,231.4 -312.4,265.4 -266.8,265.4 -266.8,231.4 -266.8,219.2 -243.4,219.2 
		-243.4,197.4 	"/>
	<text transform="matrix(1 0 0 1 -298.98 223.6866)" class="st1 st2">U01</text>
</g>
<g id="F2U02">
	<polygon class="st0" points="-312.4,265.4 -312.4,299.5 -312.4,333.4 -266.8,333.4 -266.8,299.5 -266.8,265.4 	"/>
	<text transform="matrix(1 0 0 1 -300.647 296.6866)" class="st1 st2">U02</text>
</g>
<g id="F2U03">
	<polygon class="st0" points="-254.9,231.4 -254.9,265.4 -254.9,299.5 -243.3,299.5 -243.3,333.4 -209.3,333.4 -209.3,299.5 
		-209.3,265.4 -209.3,231.4 	"/>
	<text transform="matrix(1 0 0 1 -236.647 273.0201)" class="st1 st2">U03</text>
</g>
<g id="F2U04">
	<polyline class="st0" points="-258,333.4 -312.4,333.4 -312.4,487 -175.2,487 -175.2,402.4 -258,402.4 -258,333.4 	"/>
	<text transform="matrix(1 0 0 1 -249.98 440.3531)" class="st1 st2">U04</text>
</g>
<g id="F2U06">
	<polyline class="st0" points="249.3,333.4 249.3,402.4 29.8,402.4 29.8,444.7 -4.2,444.7 -4.2,487 304,487 304,333.4 249.3,333.4 	
		"/>
</g>
<g id="F2U05">
	<polyline class="st0" points="-175.2,402.4 -38.2,402.4 -38.2,444.7 -4.2,444.7 -4.2,487 -175.2,487 -175.2,402.4 	"/>
	<text transform="matrix(1 0 0 1 -110.3135 443.0201)" class="st1 st2">U05</text>
</g>
</svg>
