<?xml version="1.0" encoding="utf-8"?>
<!-- Generator: Adobe Illustrator 24.2.2, SVG Export Plug-In . SVG Version: 6.00 Build 0)  -->
<svg version="1.1" id="Layer_1" xmlns="http://www.w3.org/2000/svg" xmlns:xlink="http://www.w3.org/1999/xlink" x="0px" y="0px"
	 viewBox="0 0 643 300" style="enable-background:new 0 0 643 300;" xml:space="preserve">
<style type="text/css">
	.st0{fill:none;stroke:#000000;stroke-width:0.72;stroke-linecap:round;stroke-linejoin:round;stroke-miterlimit:10;}
	.st1{font-family:'Helvetica';}
	.st2{font-size:12px;}
	.st3{font-size:6px;}
	.st4{font-family:'ArialMT';}
	.st5{font-size:7px;}
	.st6{fill:none;}
	.st7{font-size:14px;}
</style>
<g id="outline">
	<polyline class="st0" points="556.2,153.7 554.7,153.7 554.7,161.7 556.2,161.7 556.2,153.7 	"/>
	<polyline class="st0" points="554.7,153.7 553.4,153.7 553.4,161.7 554.7,161.7 554.7,153.7 	"/>
	<polyline class="st0" points="553.4,153.7 552,153.7 552,161.7 553.4,161.7 553.4,153.7 	"/>
	<polyline class="st0" points="552,153.7 550.5,153.7 550.5,161.7 552,161.7 552,153.7 	"/>
	<polyline class="st0" points="289.1,224.2 294.8,224.2 294.8,230.4 289.1,230.4 289.1,224.2 	"/>
	<polyline class="st0" points="546.8,167.3 554.7,167.3 554.7,173.4 546.8,173.4 546.8,167.3 	"/>
	<line class="st0" x1="319.2" y1="228.7" x2="321" y2="222.1"/>
	<line class="st0" x1="319.2" y1="236.3" x2="321" y2="242.9"/>
	<line class="st0" x1="319.2" y1="228.7" x2="321" y2="222.1"/>
	<line class="st0" x1="318.5" y1="228.6" x2="319.1" y2="221.8"/>
	<line class="st0" x1="317.7" y1="228.6" x2="317" y2="221.8"/>
	<line class="st0" x1="317" y1="228.7" x2="315.1" y2="222.1"/>
	<line class="st0" x1="316.2" y1="229" x2="313.2" y2="222.9"/>
	<line class="st0" x1="315.7" y1="229.3" x2="311.6" y2="223.9"/>
	<line class="st0" x1="315.1" y1="229.8" x2="310.1" y2="225.3"/>
	<line class="st0" x1="314.7" y1="230.4" x2="308.9" y2="226.8"/>
	<line class="st0" x1="314.4" y1="231.1" x2="308" y2="228.6"/>
	<line class="st0" x1="314.1" y1="231.9" x2="307.4" y2="230.5"/>
	<line class="st0" x1="314.1" y1="232.6" x2="307.2" y2="232.6"/>
	<line class="st0" x1="314.1" y1="233.3" x2="307.4" y2="234.5"/>
	<line class="st0" x1="314.4" y1="234" x2="308" y2="236.4"/>
	<line class="st0" x1="314.7" y1="234.6" x2="308.9" y2="238.2"/>
	<line class="st0" x1="315.1" y1="235.2" x2="310.1" y2="239.8"/>
	<line class="st0" x1="315.7" y1="235.7" x2="311.6" y2="241.1"/>
	<line class="st0" x1="316.2" y1="236.1" x2="313.2" y2="242.2"/>
	<line class="st0" x1="317" y1="236.3" x2="315.1" y2="242.9"/>
	<line class="st0" x1="317.7" y1="236.5" x2="317" y2="243.3"/>
	<line class="st0" x1="318.5" y1="236.5" x2="319.1" y2="243.3"/>
	<line class="st0" x1="319.2" y1="236.3" x2="321" y2="242.9"/>
	<path class="st0" d="M319.1,228.7c-1.6-0.5-3.4,0.2-4.4,1.5c-1,1.4-1,3.3,0,4.6c1,1.4,2.7,2,4.4,1.5"/>
	<path class="st0" d="M321,222.2c-4.4-1.2-9.1,0.4-11.7,4.1c-2.6,3.7-2.6,8.7,0,12.4s7.3,5.4,11.7,4.1"/>
	<polyline class="st0" points="347.6,242.7 354,243.6 363,243.6 363,220.9 354,220.9 347.6,221.8 347.6,242.7 	"/>
	<polyline class="st0" points="554.7,167.3 554.7,168.1 557.7,168.1 557.7,162.5 531.7,162.5 531.7,166.3 533.2,166.3 533.2,165.5 
		542,165.5 542,174.6 533.2,174.6 533.2,173.8 531.7,173.8 531.7,177.6 557.7,177.6 557.7,172.6 554.7,172.6 554.7,173.4 
		546.8,173.4 546.8,167.3 554.7,167.3 	"/>
	<polyline class="st0" points="289.1,240.3 294.8,240.3 294.8,234 289.1,234 289.1,240.3 	"/>
	<polyline class="st0" points="297.6,225 297.6,221.8 291.2,220.9 282.2,220.9 282.2,243.6 291.2,243.6 297.6,242.7 297.6,239.4 
		294.8,239.4 294.8,240.3 289.1,240.3 289.1,234 294.8,234 294.8,234.9 297.6,234.9 297.6,229.6 294.8,229.6 294.8,230.4 
		289.1,230.4 289.1,224.2 294.8,224.2 294.8,225 297.6,225 	"/>
	<polyline class="st0" points="531.7,195.1 557.7,195.1 557.7,177.6 531.7,177.6 531.7,195.1 	"/>
	<polyline class="st0" points="531.7,162.5 557.7,162.5 557.7,141.6 531.7,141.6 531.7,162.5 	"/>
	<polyline class="st0" points="89,153.7 90.5,153.7 90.5,161.7 89,161.7 89,153.7 	"/>
	<polyline class="st0" points="90.5,153.7 91.8,153.7 91.8,161.7 90.5,161.7 90.5,153.7 	"/>
	<polyline class="st0" points="91.8,153.7 93.2,153.7 93.2,161.7 91.8,161.7 91.8,153.7 	"/>
	<polyline class="st0" points="93.2,153.7 94.7,153.7 94.7,161.7 93.2,161.7 93.2,153.7 	"/>
	<polyline class="st0" points="98.4,167.3 90.5,167.3 90.5,173.4 98.4,173.4 98.4,167.3 	"/>
	<polyline class="st0" points="297.6,242.7 291.2,243.6 282.2,243.6 282.2,220.9 291.2,220.9 297.6,221.8 297.6,242.7 	"/>
	<polyline class="st0" points="113.5,195.1 113.5,210.6 531.7,210.6 531.7,195.1 	"/>
	<polyline class="st0" points="90.5,167.3 90.5,168.1 87.5,168.1 87.5,162.5 113.5,162.5 113.5,166.3 111.9,166.3 111.9,165.5 
		103.1,165.5 103.1,174.6 111.9,174.6 111.9,173.8 113.5,173.8 113.5,177.6 87.5,177.6 87.5,172.6 90.5,172.6 90.5,173.4 
		98.4,173.4 98.4,167.3 90.5,167.3 	"/>
	<polyline class="st0" points="113.5,195.1 87.5,195.1 87.5,177.6 113.5,177.6 113.5,195.1 	"/>
	<polyline class="st0" points="113.5,162.5 87.5,162.5 87.5,141.6 113.5,141.6 113.5,162.5 	"/>
	<polyline class="st0" points="524,141.6 516.5,141.6 516.5,197.8 128.6,197.8 128.6,141.6 121.1,141.6 	"/>
	<polyline class="st0" points="531.7,141.6 527.7,141.6 527.7,3 630.8,3 630.8,295.2 14.4,295.2 14.4,3 117.5,3 117.5,141.6 
		113.5,141.6 	"/>
</g>
<g id="F33145">
	<polyline class="st0" points="561.8,5.5 561.8,27.4 585.1,27.4 585.1,39.6 630.8,39.6 630.8,5.5 561.8,5.5 	"/>
	<text id="_x33_.16_1_" transform="matrix(1.0645 0 0 1 593.5586 24.5146)" class="st1 st2">3.145</text>
</g>
<g id="F3316">
	<polyline class="st0" points="576,39.6 630.8,39.6 630.8,73.6 576,73.6 576,39.6 	"/>
	<text id="_x33_.16" transform="matrix(1.0645 0 0 1 593.5586 61.5146)" class="st1 st2">3.16</text>
</g>
<g id="F3317">
	<polyline class="st0" points="576,73.6 630.8,73.6 630.8,107.6 576,107.6 576,73.6 	"/>
	<text id="_x33_.17" transform="matrix(1.0645 0 0 1 593.5586 94.5146)" class="st1 st2">3.17</text>
</g>
<g id="F3318">
	<polyline class="st0" points="576,107.6 630.8,107.6 630.8,141.6 576,141.6 576,107.6 	"/>
	<text id="_x33_.18" transform="matrix(1.0645 0 0 1 593.5586 126.5151)" class="st1 st2">3.18</text>
</g>
<g id="F3313">
	<polyline class="st0" points="527.7,39.6 564,39.6 564,73.6 527.7,73.6 527.7,39.6 	"/>
	<text id="_x33_.13" transform="matrix(1.0645 0 0 1 533.5586 62.5151)" class="st1 st2">3.13</text>
</g>
<g id="F3312">
	<polyline class="st0" points="563.9,73.6 527.6,73.6 527.6,107.7 563.9,107.7 563.9,73.6 	"/>
	<text id="_x33_.12" transform="matrix(1.0645 0 0 1 533.5049 93.1816)" class="st1 st2">3.12</text>
</g>
<g id="F3311">
	<polyline class="st0" points="563.9,107.7 527.7,107.7 527.7,141.6 563.9,141.6 563.9,107.7 	"/>
	<text id="_x33_.11" transform="matrix(1.0645 0 0 1 533.5586 127.1816)" class="st1 st2">3.11</text>
</g>
<g id="F331">
	<polyline class="st0" points="83.4,5.5 83.4,27.4 60,27.4 60,39.6 14.4,39.6 14.2,5.5 83.4,5.5 	"/>
	<text transform="matrix(1 0 0 1 33.4102 24.1815)" class="st1 st2">3.1</text>
</g>
<g id="F332B">
	<polyline class="st0" points="60,73.6 14.4,73.6 14.4,107.7 60,107.7 60,73.6 	"/>
	<text transform="matrix(1 0 0 1 25.4103 94.5145)" class="st1 st2">3.2 B</text>
</g>
<g id="F333">
	<polyline class="st0" points="60,107.7 14.4,107.7 14.4,141.6 60,141.6 60,107.7 	"/>
	<text transform="matrix(1 0 0 1 31.4102 127.1815)" class="st1 st2">3.3</text>
</g>
<g id="F335">
	<text transform="matrix(1 0 0 1 89.7437 94.515)" class="st1 st2">3.5</text>
	<polygon class="st0" points="117.5,107.7 117.5,39.6 71.9,39.6 71.9,107.7 83.8,107.7 83.8,141.6 117.8,141.6 117.8,107.7 	"/>
</g>
<g id="F337">
	<polyline class="st0" points="68.7,210.6 14.4,210.6 14.4,141.6 68.7,141.6 68.7,210.6 	"/>
	<text transform="matrix(1 0 0 1 35.0772 183.8485)" class="st1 st2">3.7</text>
</g>
<g id="F3310">
	<polyline class="st0" points="576,141.6 576,210.6 596.6,210.6 596.6,295.2 630.8,295.2 630.8,141.6 576,141.6 	"/>
	<text transform="matrix(1 0 0 1 593.0767 185.1815)" class="st1 st2">3.10</text>
</g>
<g id="F3U04">
	<polyline class="st0" points="14.4,244.3 48.5,244.3 48.5,295.2 14.4,295.2 14.4,244.3 	"/>
	<text transform="matrix(1 0 0 1 20.2437 276.1815)" class="st1 st2">U04</text>
</g>
<g id="F3U05">
	<polyline class="st0" points="48.5,252.9 83.5,252.9 83.5,295.2 48.5,295.2 48.5,252.9 	"/>
	<text transform="matrix(1 0 0 1 56.7437 276.1815)" class="st1 st2">U05</text>
</g>
<g id="F3U01">
	<polyline class="st0" points="68.7,210.6 14.4,210.6 14.4,244.3 68.7,244.3 68.7,210.6 	"/>
	<text transform="matrix(1 0 0 1 32.7437 230.6815)" class="st1 st2">U01</text>
</g>
<g id="F3U06">
	<polyline class="st0" points="83.5,252.9 117.5,252.9 117.5,295.2 83.5,295.2 83.5,252.9 	"/>
	<text transform="matrix(1 0 0 1 91.2437 276.1815)" class="st1 st2">U06</text>
</g>
<g id="F3U07">
	<polyline class="st0" points="117.5,252.9 151.5,252.9 151.5,295.2 117.5,295.2 117.5,252.9 	"/>
	<text transform="matrix(1 0 0 1 125.2437 276.1815)" class="st1 st2">U07</text>
</g>
<g id="F3U08">
	<polyline class="st0" points="151.5,252.9 185.5,252.9 185.5,295.2 151.5,295.2 151.5,252.9 	"/>
	<text transform="matrix(1 0 0 1 156.7437 276.1815)" class="st1 st2">U08</text>
</g>
<g id="F3U09">
	<polyline class="st0" points="287.6,252.9 321.5,252.9 321.5,295.2 287.6,295.2 287.6,252.9 	"/>
	<text transform="matrix(1 0 0 1 292.5239 276.1815)" class="st1 st2">U09</text>
</g>
<g id="F3U16">
	<polyline class="st0" points="253.6,252.9 287.5,252.9 287.5,295.2 253.6,295.2 253.6,252.9 	"/>
	<text transform="matrix(1 0 0 1 258.4739 276.1815)" class="st1 st2">U16</text>
</g>
<g id="F3U17">
	<polyline class="st0" points="219.6,252.9 253.5,252.9 253.5,295.2 219.6,295.2 219.6,252.9 	"/>
	<text transform="matrix(1 0 0 1 224.5239 276.1815)" class="st1 st2">U17</text>
</g>
<g id="F3U18">
	<polyline class="st0" points="185.6,252.8 219.5,252.8 219.5,295.2 185.6,295.2 185.6,252.8 	"/>
	<text transform="matrix(1 0 0 1 190.499 276.1315)" class="st1 st2">U18</text>
</g>
<g id="F3D19">
	<polyline class="st0" points="191,228.5 203,228.5 203,241.4 191,241.4 191,228.5 	"/>
	<text transform="matrix(1 0 0 1 190.9941 236.0463)" class="st1 st3">D19</text>
</g>
<g id="F3D20">
	<polyline class="st0" points="191,215.5 203,215.5 203,228.4 191,228.4 191,215.5 	"/>
	<text transform="matrix(1 0 0 1 190.9941 223.0463)" class="st1 st3">D20</text>
</g>
<g id="F3D18">
	<polyline class="st0" points="203,215.5 215,215.5 215,228.4 203,228.4 203,215.5 	"/>
	<text transform="matrix(1 0 0 1 202.9941 223.0463)" class="st1 st3">D18</text>
</g>
<g id="F3D17">
	<polyline class="st0" points="203,228.5 215,228.5 215,241.4 203,241.4 203,228.5 	"/>
	<text transform="matrix(1 0 0 1 202.9941 236.0463)" class="st1 st3">D17</text>
</g>
<g id="F3D23">
	<polyline class="st0" points="158,228.5 170,228.5 170,241.4 158,241.4 158,228.5 	"/>
	<text transform="matrix(1 0 0 1 157.9578 236.0463)" class="st1 st3">D23</text>
</g>
<g id="F3D24">
	<polyline class="st0" points="158,215.5 170,215.5 170,228.4 158,228.4 158,215.5 	"/>
	<text transform="matrix(1 0 0 1 157.9578 223.0463)" class="st1 st3">D24</text>
</g>
<g id="F3D22">
	<polyline class="st0" points="170,215.5 182,215.5 182,228.4 170,228.4 170,215.5 	"/>
	<text transform="matrix(1 0 0 1 169.9578 223.0463)" class="st1 st3">D22</text>
</g>
<g id="F3D21_1_">
	<polyline class="st0" points="170,228.5 182,228.5 182,241.4 170,241.4 170,228.5 	"/>
	<text transform="matrix(1 0 0 1 169.9578 236.0463)" class="st1 st3">D21</text>
</g>
<g id="F3U03">
	<polyline class="st0" points="254.6,210.6 288.6,210.6 288.6,220.9 282.2,220.9 282.2,244.3 254.6,244.3 254.6,210.6 	"/>
	<text transform="matrix(1 0 0 1 258.7437 232.1815)" class="st1 st2">U03</text>
</g>
<g id="F3U02">
	<polyline class="st0" points="220.5,210.6 254.6,210.6 254.6,244.3 220.5,244.3 220.5,210.6 	"/>
	<text transform="matrix(1 0 0 1 227.7437 232.8413)" class="st1 st2">U02</text>
</g>
<g id="F3U10">
	<polyline class="st0" points="321.5,252.9 355.6,252.9 355.6,295.2 321.5,295.2 321.5,252.9 	"/>
	<text transform="matrix(1 0 0 1 328.7437 276.1815)" class="st1 st2">U10</text>
</g>
<g id="F3U11">
	<polyline class="st0" points="459.7,261.4 493.7,261.4 493.7,295.2 459.7,295.2 459.7,261.4 	"/>
	<text transform="matrix(1 0 0 1 467.2437 278.6815)" class="st1 st2">U11</text>
</g>
<g id="F3U12">
	<polyline class="st0" points="493.7,252.9 527.7,252.9 527.7,295.2 493.7,295.2 493.7,252.9 	"/>
	<text transform="matrix(1 0 0 1 501.2437 278.6815)" class="st1 st2">U12</text>
</g>
<g id="F3U13">
	<polyline class="st0" points="527.7,252.9 561.7,252.9 561.7,295.2 527.7,295.2 527.7,252.9 	"/>
	<text transform="matrix(1 0 0 1 533.2036 278.9831)" class="st1 st2">U13</text>
</g>
<g id="F3U15">
	<polygon class="st0" points="493.7,210.6 459.7,210.6 459.7,244.3 493.7,244.3 527.7,244.3 527.7,210.6 	"/>
	<text transform="matrix(1 0 0 1 483.2437 231.5565)" class="st1 st2">U15</text>
</g>
<g id="F3U14">
	<polyline class="st0" points="596.6,244.3 561.7,244.3 596.6,244.3 596.6,295.2 561.7,295.2 561.7,244.3 	"/>
	<path class="st0" d="M561.7,244.3"/>
	<text transform="matrix(1 0 0 1 566.0786 278.9829)" class="st1 st2">U14</text>
</g>
<g id="F3JC">
	<rect x="561.7" y="211.3" class="st0" width="35" height="33"/>
	<text transform="matrix(1 0 0 1 568.0786 226.2002)" class="st4 st5">Johan </text>
	<text transform="matrix(1 0 0 1 568.0786 234.6002)" class="st4 st5">Cruyff</text>
</g>
<g id="F3DK">
	<polyline class="st0" points="425.5,295.2 459.7,295.2 459.7,274 425.5,274 425.5,295.2 	"/>
	<text transform="matrix(1 0 0 1 429.5 287.7581)" class="st4 st5">Dirk Kuyt</text>
</g>
<g id="F3MK">
	<polyline class="st6" points="363,262 459.7,262 459.7,211.2 363,211.2 363,262 	"/>
	<text transform="matrix(0.9545 0 0 1 376.3105 244.2998)" class="st4 st7">Maaskantine</text>
</g>
<g id="F332A">
	<polyline class="st0" points="60,39.6 14.4,39.6 14.4,73.6 60,73.6 60,39.6 	"/>
	<text transform="matrix(1 0 0 1 25.4103 60.4395)" class="st1 st2">3.2 A</text>
</g>
</svg>
