<?xml version="1.0" encoding="utf-8"?>
<!-- Generator: Adobe Illustrator 19.1.0, SVG Export Plug-In . SVG Version: 6.00 Build 0)  -->
<svg version="1.1" id="Layer_1" xmlns="http://www.w3.org/2000/svg" xmlns:xlink="http://www.w3.org/1999/xlink" x="0px" y="0px"
	 viewBox="-99 148.3 643 300" style="enable-background:new -99 148.3 643 300;" xml:space="preserve">
<style type="text/css">
	.st0{fill:none;stroke:#000000;stroke-width:0.72;stroke-linecap:round;stroke-linejoin:round;stroke-miterlimit:10;}
	.st1{font-family:'Helvetica';}
	.st2{font-size:12px;}
	.st3{font-size:6px;}
</style>
<g id="outline">
	<polyline class="st0" points="457.2,302 455.7,302 455.7,310 457.2,310 457.2,302 	"/>
	<polyline class="st0" points="455.7,302 454.4,302 454.4,310 455.7,310 455.7,302 	"/>
	<polyline class="st0" points="454.4,302 453,302 453,310 454.4,310 454.4,302 	"/>
	<polyline class="st0" points="453,302 451.5,302 451.5,310 453,310 453,302 	"/>
	<polyline class="st0" points="190.1,372.5 195.8,372.5 195.8,378.7 190.1,378.7 190.1,372.5 	"/>
	<polyline class="st0" points="447.8,315.6 455.7,315.6 455.7,321.7 447.8,321.7 447.8,315.6 	"/>
	<line class="st0" x1="220.2" y1="377" x2="222" y2="370.4"/>
	<line class="st0" x1="220.2" y1="384.6" x2="222" y2="391.2"/>
	<line class="st0" x1="220.2" y1="377" x2="222" y2="370.4"/>
	<line class="st0" x1="219.5" y1="376.9" x2="220.1" y2="370.1"/>
	<line class="st0" x1="218.7" y1="376.9" x2="218" y2="370.1"/>
	<line class="st0" x1="218" y1="377" x2="216.1" y2="370.4"/>
	<line class="st0" x1="217.2" y1="377.3" x2="214.2" y2="371.2"/>
	<line class="st0" x1="216.7" y1="377.6" x2="212.6" y2="372.2"/>
	<line class="st0" x1="216.1" y1="378.1" x2="211.1" y2="373.6"/>
	<line class="st0" x1="215.7" y1="378.7" x2="209.9" y2="375.1"/>
	<line class="st0" x1="215.4" y1="379.4" x2="209" y2="376.9"/>
	<line class="st0" x1="215.1" y1="380.2" x2="208.4" y2="378.8"/>
	<line class="st0" x1="215.1" y1="380.9" x2="208.2" y2="380.9"/>
	<line class="st0" x1="215.1" y1="381.6" x2="208.4" y2="382.8"/>
	<line class="st0" x1="215.4" y1="382.3" x2="209" y2="384.7"/>
	<line class="st0" x1="215.7" y1="382.9" x2="209.9" y2="386.5"/>
	<line class="st0" x1="216.1" y1="383.5" x2="211.1" y2="388.1"/>
	<line class="st0" x1="216.7" y1="384" x2="212.6" y2="389.4"/>
	<line class="st0" x1="217.2" y1="384.4" x2="214.2" y2="390.5"/>
	<line class="st0" x1="218" y1="384.6" x2="216.1" y2="391.2"/>
	<line class="st0" x1="218.7" y1="384.8" x2="218" y2="391.6"/>
	<line class="st0" x1="219.5" y1="384.8" x2="220.1" y2="391.6"/>
	<line class="st0" x1="220.2" y1="384.6" x2="222" y2="391.2"/>
	<path class="st0" d="M220.1,377c-1.6-0.5-3.4,0.2-4.4,1.5c-1,1.4-1,3.3,0,4.6c1,1.4,2.7,2,4.4,1.5"/>
	<path class="st0" d="M222,370.5c-4.4-1.2-9.1,0.4-11.7,4.1c-2.6,3.7-2.6,8.7,0,12.4c2.6,3.7,7.3,5.4,11.7,4.1"/>
	<polyline class="st0" points="248.6,391 255,391.9 264,391.9 264,369.2 255,369.2 248.6,370.1 248.6,391 	"/>
	<polyline class="st0" points="455.7,315.6 455.7,316.4 458.7,316.4 458.7,310.8 432.7,310.8 432.7,314.6 434.2,314.6 434.2,313.8 
		443,313.8 443,322.9 434.2,322.9 434.2,322.1 432.7,322.1 432.7,325.9 458.7,325.9 458.7,320.9 455.7,320.9 455.7,321.7 
		447.8,321.7 447.8,315.6 455.7,315.6 	"/>
	<polyline class="st0" points="190.1,388.6 195.8,388.6 195.8,382.3 190.1,382.3 190.1,388.6 	"/>
	<polyline class="st0" points="198.6,373.3 198.6,370.1 192.2,369.2 183.2,369.2 183.2,391.9 192.2,391.9 198.6,391 198.6,387.7 
		195.8,387.7 195.8,388.6 190.1,388.6 190.1,382.3 195.8,382.3 195.8,383.2 198.6,383.2 198.6,377.9 195.8,377.9 195.8,378.7 
		190.1,378.7 190.1,372.5 195.8,372.5 195.8,373.3 198.6,373.3 	"/>
	<polyline class="st0" points="432.7,343.4 458.7,343.4 458.7,325.9 432.7,325.9 432.7,343.4 	"/>
	<polyline class="st0" points="432.7,310.8 458.7,310.8 458.7,289.9 432.7,289.9 432.7,310.8 	"/>
	<polyline class="st0" points="-10,302 -8.5,302 -8.5,310 -10,310 -10,302 	"/>
	<polyline class="st0" points="-8.5,302 -7.2,302 -7.2,310 -8.5,310 -8.5,302 	"/>
	<polyline class="st0" points="-7.2,302 -5.8,302 -5.8,310 -7.2,310 -7.2,302 	"/>
	<polyline class="st0" points="-5.8,302 -4.3,302 -4.3,310 -5.8,310 -5.8,302 	"/>
	<polyline class="st0" points="-0.6,315.6 -8.5,315.6 -8.5,321.7 -0.6,321.7 -0.6,315.6 	"/>
	<polyline class="st0" points="198.6,391 192.2,391.9 183.2,391.9 183.2,369.2 192.2,369.2 198.6,370.1 198.6,391 	"/>
	<polyline class="st0" points="14.5,343.4 14.5,358.9 432.7,358.9 432.7,343.4 	"/>
	<polyline class="st0" points="-8.5,315.6 -8.5,316.4 -11.5,316.4 -11.5,310.8 14.5,310.8 14.5,314.6 12.9,314.6 12.9,313.8 
		4.1,313.8 4.1,322.9 12.9,322.9 12.9,322.1 14.5,322.1 14.5,325.9 -11.5,325.9 -11.5,320.9 -8.5,320.9 -8.5,321.7 -0.6,321.7 
		-0.6,315.6 -8.5,315.6 	"/>
	<polyline class="st0" points="14.5,343.4 -11.5,343.4 -11.5,325.9 14.5,325.9 14.5,343.4 	"/>
	<polyline class="st0" points="14.5,310.8 -11.5,310.8 -11.5,289.9 14.5,289.9 14.5,310.8 	"/>
	<polyline class="st0" points="425,289.9 417.5,289.9 417.5,346.1 29.6,346.1 29.6,289.9 22.1,289.9 	"/>
	<polyline class="st0" points="432.7,289.9 428.7,289.9 428.7,151.3 531.8,151.3 531.8,443.5 -84.6,443.5 -84.6,151.3 18.5,151.3 
		18.5,289.9 14.5,289.9 	"/>
</g>
<g id="Layer_38">
	<polyline class="st0" points="462.8,153.8 462.8,175.7 486.1,175.7 486.1,187.9 531.8,187.9 531.8,153.8 462.8,153.8 	"/>
</g>
<g id="Layer_37">
	<polyline class="st0" points="486.1,187.9 531.8,187.9 531.8,289.9 486.1,289.9 486.1,187.9 	"/>
</g>
<g id="Layer_36">
	<polyline class="st0" points="428.7,187.9 474.2,187.9 474.2,221.9 428.7,221.9 428.7,187.9 	"/>
</g>
<g id="Layer_35">
	<polyline class="st0" points="474.2,221.9 428.7,221.9 428.7,256 474.2,256 474.2,221.9 	"/>
</g>
<g id="F3311">
	<polyline class="st0" points="462.7,256 428.7,256 428.7,289.9 462.7,289.9 462.7,256 	"/>
	<text id="_x33_.11" transform="matrix(1 0 0 1 434.2032 275.4816)" class="st1 st2">3.11</text>
</g>
<g id="F331">
	<polyline class="st0" points="-15.6,153.8 -15.6,175.7 -39,175.7 -39,187.9 -84.6,187.9 -84.8,153.8 -15.6,153.8 	"/>
	<text transform="matrix(1 0 0 1 -65.5898 172.4815)" class="st1 st2">3.1</text>
</g>
<g id="F332">
	<polyline class="st0" points="-39,187.9 -84.6,187.9 -84.6,256 -39,256 -39,187.9 	"/>
	<text transform="matrix(1 0 0 1 -67.2563 220.815)" class="st1 st2">3.2</text>
</g>
<g id="F333">
	<polyline class="st0" points="-39,256 -84.6,256 -84.6,289.9 -39,289.9 -39,256 	"/>
	<text transform="matrix(1 0 0 1 -67.5898 275.4815)" class="st1 st2">3.3</text>
</g>
<g id="F334">
	<polyline class="st0" points="18.5,187.9 -27.1,187.9 -27.1,221.9 18.5,221.9 18.5,187.9 	"/>
	<text transform="matrix(1 0 0 1 -10.2563 210.815)" class="st1 st2">3.4</text>
</g>
<g id="F335">
	<polyline class="st0" points="-27.1,221.9 18.5,221.9 18.5,256 -27.1,256 -27.1,221.9 	"/>
	<text transform="matrix(1 0 0 1 -9.2563 242.815)" class="st1 st2">3.5</text>
</g>
<g id="F336">
	<polyline class="st0" points="-15.5,256 18.5,256 18.5,289.9 -15.5,289.9 -15.5,256 	"/>
	<text transform="matrix(1 0 0 1 -4.9228 276.815)" class="st1 st2">3.6</text>
</g>
<g id="F337">
	<polyline class="st0" points="-30.3,358.9 -84.6,358.9 -84.6,289.9 -30.3,289.9 -30.3,358.9 	"/>
	<text transform="matrix(1 0 0 1 -63.9228 332.1485)" class="st1 st2">3.7</text>
</g>
<g id="F3310">
	<polyline class="st0" points="477,289.9 477,358.9 497.6,358.9 497.6,443.5 531.8,443.5 531.8,289.9 477,289.9 	"/>
	<text transform="matrix(1 0 0 1 494.0767 333.4815)" class="st1 st2">3.10</text>
</g>
<g id="F3U04">
	<polyline class="st0" points="-84.6,392.6 -50.5,392.6 -50.5,443.5 -84.6,443.5 -84.6,392.6 	"/>
	<text transform="matrix(1 0 0 1 -78.7563 424.4815)" class="st1 st2">U04</text>
</g>
<g id="F3U05">
	<polyline class="st0" points="-50.5,401.2 -15.5,401.2 -15.5,443.5 -50.5,443.5 -50.5,401.2 	"/>
	<text transform="matrix(1 0 0 1 -42.2563 424.4815)" class="st1 st2">U05</text>
</g>
<g id="F3U01">
	<polyline class="st0" points="-30.3,358.9 -84.6,358.9 -84.6,392.6 -30.3,392.6 -30.3,358.9 	"/>
	<text transform="matrix(1 0 0 1 -66.2563 378.9815)" class="st1 st2">U01</text>
</g>
<g id="F3U06">
	<polyline class="st0" points="-15.5,401.2 18.5,401.2 18.5,443.5 -15.5,443.5 -15.5,401.2 	"/>
	<text transform="matrix(1 0 0 1 -7.7563 424.4815)" class="st1 st2">U06</text>
</g>
<g id="F3U07">
	<polyline class="st0" points="18.5,401.2 52.5,401.2 52.5,443.5 18.5,443.5 18.5,401.2 	"/>
	<text transform="matrix(1 0 0 1 26.2437 424.4815)" class="st1 st2">U07</text>
</g>
<g id="F3U08">
	<polyline class="st0" points="52.5,401.2 86.5,401.2 86.5,443.5 52.5,443.5 52.5,401.2 	"/>
	<text transform="matrix(1 0 0 1 57.7437 424.4815)" class="st1 st2">U08</text>
</g>
<g id="F3U09">
	<polyline class="st0" points="189.6,401.2 223.5,401.2 223.5,443.5 189.6,443.5 189.6,401.2 	"/>
	<text transform="matrix(1 0 0 1 194.5239 424.4815)" class="st1 st2">U09</text>
</g>
<g id="F3D09">
	<polyline class="st0" points="125,402.5 137,402.5 137,415.4 125,415.4 125,402.5 	"/>
	<text transform="matrix(1 0 0 1 124.9941 410.0581)" class="st1 st3">D09</text>
</g>
<g id="F3D01">
	<polyline class="st0" points="171,402.5 183,402.5 183,415.4 171,415.4 171,402.5 	"/>
	<text transform="matrix(1 0 0 1 170.9941 410.0581)" class="st1 st3">D01</text>
</g>
<g id="F3D04">
	<polyline class="st0" points="159,402.5 171,402.5 171,415.4 159,415.4 159,402.5 	"/>
	<text transform="matrix(1 0 0 1 158.9941 410.0581)" class="st1 st3">D04</text>
</g>
<g id="F3D02">
	<polyline class="st0" points="171,415.5 183,415.5 183,428.4 171,428.4 171,415.5 	"/>
	<text transform="matrix(1 0 0 1 170.9941 423.0581)" class="st1 st3">D02</text>
</g>
<g id="F3D05">
	<polyline class="st0" points="159,415.5 171,415.5 171,428.4 159,428.4 159,415.5 	"/>
	<text transform="matrix(1 0 0 1 158.9941 423.0581)" class="st1 st3">D05</text>
</g>
<g id="F3D03">
	<polyline class="st0" points="171,428.5 183,428.5 183,441.4 171,441.4 171,428.5 	"/>
	<text transform="matrix(1 0 0 1 170.9941 436.0581)" class="st1 st3">D03</text>
</g>
<g id="F3D06">
	<polyline class="st0" points="159,428.5 171,428.5 171,441.4 159,441.4 159,428.5 	"/>
	<text transform="matrix(1 0 0 1 158.9941 436.0581)" class="st1 st3">D06</text>
</g>
<g id="F3D08">
	<polyline class="st0" points="137,415.5 149,415.5 149,428.4 137,428.4 137,415.5 	"/>
	<text transform="matrix(1 0 0 1 136.9941 423.0581)" class="st1 st3">D08</text>
</g>
<g id="F3D07">
	<polyline class="st0" points="137,402.5 149,402.5 149,415.4 137,415.4 137,402.5 	"/>
	<text transform="matrix(1 0 0 1 136.9941 410.0581)" class="st1 st3">D07</text>
</g>
<g id="F3D10">
	<polyline class="st0" points="125,415.4 137,415.4 137,428.3 125,428.3 125,415.4 	"/>
	<text transform="matrix(1 0 0 1 124.9941 422.9874)" class="st1 st3">D10</text>
</g>
<g id="F3D13">
	<polyline class="st0" points="104,428.5 116,428.5 116,441.4 104,441.4 104,428.5 	"/>
	<text transform="matrix(1 0 0 1 103.9941 436.0581)" class="st1 st3">D13</text>
</g>
<g id="F3D12">
	<polyline class="st0" points="104,415.6 116,415.6 116,428.4 104,428.4 104,415.6 	"/>
	<text transform="matrix(1 0 0 1 103.9941 423.125)" class="st1 st3">D12</text>
</g>
<g id="F3D11">
	<polyline class="st0" points="104,402.8 116,402.8 116,415.7 104,415.7 104,402.8 	"/>
	<text transform="matrix(1 0 0 1 103.9941 410.3465)" class="st1 st3">D11</text>
</g>
<g id="F3D16">
	<polyline class="st0" points="92,428.5 104,428.5 104,441.4 92,441.4 92,428.5 	"/>
	<text transform="matrix(1 0 0 1 91.9941 436.0581)" class="st1 st3">D16</text>
</g>
<g id="F3D15">
	<polyline class="st0" points="92,415.6 104,415.6 104,428.4 92,428.4 92,415.6 	"/>
	<text transform="matrix(1 0 0 1 91.9941 423.1248)" class="st1 st3">D15</text>
</g>
<g id="F3D14">
	<polyline class="st0" points="92,402.8 104,402.8 104,415.7 92,415.7 92,402.8 	"/>
	<text transform="matrix(1 0 0 1 91.9941 410.3463)" class="st1 st3">D14</text>
</g>
<g id="F3D19">
	<polyline class="st0" points="92,376.8 104,376.8 104,389.7 92,389.7 92,376.8 	"/>
	<text transform="matrix(1 0 0 1 91.9941 384.3463)" class="st1 st3">D19</text>
</g>
<g id="F3D20">
	<polyline class="st0" points="92,363.8 104,363.8 104,376.7 92,376.7 92,363.8 	"/>
	<text transform="matrix(1 0 0 1 91.9941 371.3463)" class="st1 st3">D20</text>
</g>
<g id="F3D18">
	<polyline class="st0" points="104,363.8 116,363.8 116,376.7 104,376.7 104,363.8 	"/>
	<text transform="matrix(1 0 0 1 103.9941 371.3463)" class="st1 st3">D18</text>
</g>
<g id="F3D17">
	<polyline class="st0" points="104,376.8 116,376.8 116,389.7 104,389.7 104,376.8 	"/>
	<text transform="matrix(1 0 0 1 103.9941 384.3463)" class="st1 st3">D17</text>
</g>
<g id="F2U03">
	<polyline class="st0" points="155.6,358.9 189.6,358.9 189.6,369.2 183.2,369.2 183.2,392.6 155.6,392.6 155.6,358.9 	"/>
	<text transform="matrix(1 0 0 1 159.7437 380.4815)" class="st1 st2">U03</text>
</g>
<g id="F3U02">
	<polyline class="st0" points="121.5,358.9 155.6,358.9 155.6,392.6 121.5,392.6 121.5,358.9 	"/>
	<text transform="matrix(1 0 0 1 128.7437 381.1413)" class="st1 st2">U02</text>
</g>
<g id="F3U10">
	<polyline class="st0" points="223.5,401.2 257.6,401.2 257.6,443.5 223.5,443.5 223.5,401.2 	"/>
	<text transform="matrix(1 0 0 1 230.7437 424.4815)" class="st1 st2">U10</text>
</g>
<g id="F3U11">
	<polyline class="st0" points="360.7,409.7 394.7,409.7 394.7,443.5 360.7,443.5 360.7,409.7 	"/>
	<text transform="matrix(1 0 0 1 368.2437 426.9815)" class="st1 st2">U11</text>
</g>
<g id="F3U12">
	<polyline class="st0" points="394.7,401.2 428.7,401.2 428.7,443.5 394.7,443.5 394.7,401.2 	"/>
	<text transform="matrix(1 0 0 1 402.2437 426.9815)" class="st1 st2">U12</text>
</g>
<g id="F3U13">
	<polyline class="st0" points="428.7,401.2 462.7,401.2 462.7,443.5 428.7,443.5 428.7,401.2 	"/>
	<text transform="matrix(1 0 0 1 434.2036 427.2831)" class="st1 st2">U13</text>
</g>
<g id="F3U15">
	<polygon class="st0" points="394.7,358.9 360.7,358.9 360.7,392.6 394.7,392.6 428.7,392.6 428.7,358.9 	"/>
	<text transform="matrix(1 0 0 1 384.2437 379.8565)" class="st1 st2">U15</text>
</g>
<g id="F3U14">
	<polyline class="st0" points="497.6,392.6 462.7,392.6 497.6,392.6 497.6,443.5 462.7,443.5 462.7,392.6 	"/>
	<path class="st0" d="M462.7,392.6"/>
	<text transform="matrix(1 0 0 1 467.0786 427.2829)" class="st1 st2">U14</text>
</g>
<g id="Layer_52">
	<rect x="462.7" y="359.6" class="st0" width="35" height="33"/>
</g>
<g id="Layer_3">
	<polyline class="st0" points="326.5,443.5 360.7,443.5 360.7,422.3 326.5,422.3 326.5,443.5 	"/>
</g>
</svg>
