<?xml version="1.0" encoding="utf-8"?>
<!-- Generator: Adobe Illustrator 19.1.0, SVG Export Plug-In . SVG Version: 6.00 Build 0)  -->
<svg version="1.1" id="Layer_1" xmlns="http://www.w3.org/2000/svg" xmlns:xlink="http://www.w3.org/1999/xlink" x="0px" y="0px"
	 viewBox="-316.8 191.2 643 300" style="enable-background:new -316.8 191.2 643 300;" xml:space="preserve">
<style type="text/css">
	.st0{fill:none;stroke:#000000;stroke-width:0.72;stroke-linecap:round;stroke-linejoin:round;stroke-miterlimit:10;}
	.st1{font-family:'Helvetica';}
	.st2{font-size:12px;}
	.st3{font-size:6px;}
</style>
<g id="outline">
	<polyline class="st0" points="234.3,345.9 232.8,345.9 232.8,353.9 234.3,353.9 234.3,345.9 	"/>
	<polyline class="st0" points="232.8,345.9 231.5,345.9 231.5,353.9 232.8,353.9 232.8,345.9 	"/>
	<polyline class="st0" points="231.5,345.9 230.1,345.9 230.1,353.9 231.5,353.9 231.5,345.9 	"/>
	<polyline class="st0" points="230.1,345.9 228.6,345.9 228.6,353.9 230.1,353.9 230.1,345.9 	"/>
	<polyline class="st0" points="-32.8,416.4 -27.1,416.4 -27.1,422.6 -32.8,422.6 -32.8,416.4 	"/>
	<polyline class="st0" points="224.9,359.5 232.8,359.5 232.8,365.6 224.9,365.6 224.9,359.5 	"/>
	<line class="st0" x1="-2.7" y1="420.9" x2="-0.9" y2="414.3"/>
	<line class="st0" x1="-2.7" y1="428.5" x2="-0.9" y2="435.1"/>
	<line class="st0" x1="-2.7" y1="420.9" x2="-0.9" y2="414.3"/>
	<line class="st0" x1="-3.4" y1="420.8" x2="-2.8" y2="414"/>
	<line class="st0" x1="-4.2" y1="420.8" x2="-4.9" y2="414"/>
	<line class="st0" x1="-4.9" y1="420.9" x2="-6.8" y2="414.3"/>
	<line class="st0" x1="-5.6" y1="421.2" x2="-8.6" y2="415.1"/>
	<line class="st0" x1="-6.2" y1="421.5" x2="-10.3" y2="416.1"/>
	<line class="st0" x1="-6.8" y1="422" x2="-11.8" y2="417.5"/>
	<line class="st0" x1="-7.2" y1="422.6" x2="-13" y2="419"/>
	<line class="st0" x1="-7.5" y1="423.3" x2="-13.9" y2="420.8"/>
	<line class="st0" x1="-7.8" y1="424.1" x2="-14.5" y2="422.7"/>
	<line class="st0" x1="-7.8" y1="424.8" x2="-14.6" y2="424.8"/>
	<line class="st0" x1="-7.8" y1="425.5" x2="-14.5" y2="426.7"/>
	<line class="st0" x1="-7.5" y1="426.2" x2="-13.9" y2="428.6"/>
	<line class="st0" x1="-7.2" y1="426.8" x2="-13" y2="430.4"/>
	<line class="st0" x1="-6.8" y1="427.4" x2="-11.8" y2="432"/>
	<line class="st0" x1="-6.2" y1="427.9" x2="-10.3" y2="433.3"/>
	<line class="st0" x1="-5.6" y1="428.3" x2="-8.6" y2="434.4"/>
	<line class="st0" x1="-4.9" y1="428.5" x2="-6.8" y2="435.1"/>
	<line class="st0" x1="-4.2" y1="428.7" x2="-4.9" y2="435.5"/>
	<line class="st0" x1="-3.4" y1="428.7" x2="-2.8" y2="435.5"/>
	<line class="st0" x1="-2.7" y1="428.5" x2="-0.9" y2="435.1"/>
	<path class="st0" d="M-2.8,420.9c-1.6-0.5-3.4,0.2-4.4,1.5c-1,1.4-1,3.3,0,4.6c1,1.4,2.7,2,4.4,1.5"/>
	<path class="st0" d="M-0.9,414.4c-4.4-1.2-9.1,0.4-11.7,4.1s-2.6,8.7,0,12.4c2.6,3.7,7.3,5.4,11.7,4.1"/>
	<polyline class="st0" points="25.7,434.9 32.1,435.8 41.1,435.8 41.1,413.1 32.1,413.1 25.7,414 25.7,434.9 	"/>
	<polyline class="st0" points="232.8,359.5 232.8,360.3 235.8,360.3 235.8,354.7 209.8,354.7 209.8,358.5 211.4,358.5 211.4,357.7 
		220.2,357.7 220.2,366.8 211.4,366.8 211.4,366 209.8,366 209.8,369.8 235.8,369.8 235.8,364.8 232.8,364.8 232.8,365.6 
		224.9,365.6 224.9,359.5 232.8,359.5 	"/>
	<polyline class="st0" points="-32.8,432.5 -27.1,432.5 -27.1,426.2 -32.8,426.2 -32.8,432.5 	"/>
	<polyline class="st0" points="-24.3,417.2 -24.3,414 -30.7,413.1 -39.7,413.1 -39.7,435.8 -30.7,435.8 -24.3,434.9 -24.3,431.6 
		-27.1,431.6 -27.1,432.5 -32.8,432.5 -32.8,426.2 -27.1,426.2 -27.1,427.1 -24.3,427.1 -24.3,421.8 -27.1,421.8 -27.1,422.6 
		-32.8,422.6 -32.8,416.4 -27.1,416.4 -27.1,417.2 -24.3,417.2 	"/>
	<polyline class="st0" points="209.8,387.3 235.8,387.3 235.8,369.8 209.8,369.8 209.8,387.3 	"/>
	<polyline class="st0" points="209.8,354.7 235.8,354.7 235.8,333.8 209.8,333.8 209.8,354.7 	"/>
	<polyline class="st0" points="-232.9,345.9 -231.4,345.9 -231.4,353.9 -232.9,353.9 -232.9,345.9 	"/>
	<polyline class="st0" points="-231.4,345.9 -230.1,345.9 -230.1,353.9 -231.4,353.9 -231.4,345.9 	"/>
	<polyline class="st0" points="-230.1,345.9 -228.7,345.9 -228.7,353.9 -230.1,353.9 -230.1,345.9 	"/>
	<polyline class="st0" points="-228.7,345.9 -227.2,345.9 -227.2,353.9 -228.7,353.9 -228.7,345.9 	"/>
	<polyline class="st0" points="-223.5,359.5 -231.4,359.5 -231.4,365.6 -223.5,365.6 -223.5,359.5 	"/>
	<polyline class="st0" points="-24.3,434.9 -30.7,435.8 -39.7,435.8 -39.7,413.1 -30.7,413.1 -24.3,414 -24.3,434.9 	"/>
	<polyline class="st0" points="-208.4,387.3 -208.4,402.8 209.8,402.8 209.8,387.3 	"/>
	<polyline class="st0" points="-231.4,359.5 -231.4,360.3 -234.4,360.3 -234.4,354.7 -208.4,354.7 -208.4,358.5 -210,358.5 
		-210,357.7 -218.8,357.7 -218.8,366.8 -210,366.8 -210,366 -208.4,366 -208.4,369.8 -234.4,369.8 -234.4,364.8 -231.4,364.8 
		-231.4,365.6 -223.5,365.6 -223.5,359.5 -231.4,359.5 	"/>
	<polyline class="st0" points="-208.4,387.3 -234.4,387.3 -234.4,369.8 -208.4,369.8 -208.4,387.3 	"/>
	<polyline class="st0" points="-208.4,354.7 -234.4,354.7 -234.4,333.8 -208.4,333.8 -208.4,354.7 	"/>
	<polyline class="st0" points="202.2,333.8 194.7,333.8 194.7,390 -193.3,390 -193.3,333.8 -200.8,333.8 	"/>
	<polyline class="st0" points="209.8,333.8 205.8,333.8 205.8,195.2 308.9,195.2 308.9,487.4 -307.5,487.4 -307.5,195.2 
		-204.4,195.2 -204.4,333.8 -208.4,333.8 	"/>
</g>
<g id="Layer_38">
	<polyline class="st0" points="239.9,197.7 239.9,219.6 263.3,219.6 263.3,231.8 308.9,231.8 308.9,197.7 239.9,197.7 	"/>
</g>
<g id="Layer_37">
	<polyline class="st0" points="263.3,231.8 308.9,231.8 308.9,333.8 263.3,333.8 263.3,231.8 	"/>
</g>
<g id="Layer_36">
	<polyline class="st0" points="205.8,231.8 251.4,231.8 251.4,265.8 205.8,265.8 205.8,231.8 	"/>
</g>
<g id="Layer_35">
	<polyline class="st0" points="251.4,265.8 205.8,265.8 205.8,299.9 251.4,299.9 251.4,265.8 	"/>
</g>
<g id="Layer_34">
	<polyline class="st0" points="239.8,299.9 205.8,299.9 205.8,333.8 239.8,333.8 239.8,299.9 	"/>
</g>
<g id="F331">
	<polyline class="st0" points="-238.5,197.7 -238.5,219.6 -261.9,219.6 -261.9,231.8 -307.5,231.8 -307.6,197.7 -238.5,197.7 	"/>
	<text transform="matrix(1 0 0 1 -288.4398 216.4015)" class="st1 st2">3.1</text>
</g>
<g id="F332">
	<polyline class="st0" points="-261.9,231.8 -307.5,231.8 -307.5,299.9 -261.9,299.9 -261.9,231.8 	"/>
	<text transform="matrix(1 0 0 1 -290.1063 264.735)" class="st1 st2">3.2</text>
</g>
<g id="F333">
	<polyline class="st0" points="-261.9,299.9 -307.5,299.9 -307.5,333.8 -261.9,333.8 -261.9,299.9 	"/>
	<text transform="matrix(1 0 0 1 -290.4398 319.4015)" class="st1 st2">3.3</text>
</g>
<g id="F334">
	<polyline class="st0" points="-204.4,231.8 -250,231.8 -250,265.8 -204.4,265.8 -204.4,231.8 	"/>
	<text transform="matrix(1 0 0 1 -233.1063 254.735)" class="st1 st2">3.4</text>
</g>
<g id="F335">
	<polyline class="st0" points="-250,265.8 -204.4,265.8 -204.4,299.9 -250,299.9 -250,265.8 	"/>
	<text transform="matrix(1 0 0 1 -232.1063 286.735)" class="st1 st2">3.5</text>
</g>
<g id="F336">
	<polyline class="st0" points="-238.4,299.9 -204.4,299.9 -204.4,333.8 -238.4,333.8 -238.4,299.9 	"/>
	<text transform="matrix(1 0 0 1 -227.7728 320.735)" class="st1 st2">3.6</text>
</g>
<g id="F337">
	<polyline class="st0" points="-253.2,402.8 -307.5,402.8 -307.5,333.8 -253.2,333.8 -253.2,402.8 	"/>
	<text transform="matrix(1 0 0 1 -286.7728 376.0685)" class="st1 st2">3.7</text>
</g>
<g id="F3310">
	<polyline class="st0" points="254.2,333.8 254.2,402.8 274.8,402.8 274.8,487.4 308.9,487.4 308.9,333.8 254.2,333.8 	"/>
	<text transform="matrix(1 0 0 1 271.2267 377.4015)" class="st1 st2">3.10</text>
</g>
<g id="F3U04">
	<polyline class="st0" points="-307.5,436.5 -273.4,436.5 -273.4,487.4 -307.5,487.4 -307.5,436.5 	"/>
	<text transform="matrix(1 0 0 1 -301.6063 468.4015)" class="st1 st2">U04</text>
</g>
<g id="F3U05">
	<polyline class="st0" points="-273.4,445.1 -238.4,445.1 -238.4,487.4 -273.4,487.4 -273.4,445.1 	"/>
	<text transform="matrix(1 0 0 1 -265.1063 468.4015)" class="st1 st2">U05</text>
</g>
<g id="F3U01">
	<polyline class="st0" points="-253.2,402.8 -307.5,402.8 -307.5,436.5 -253.2,436.5 -253.2,402.8 	"/>
	<text transform="matrix(1 0 0 1 -289.1063 422.9015)" class="st1 st2">U01</text>
</g>
<g id="F3U06">
	<polyline class="st0" points="-238.4,445.1 -204.4,445.1 -204.4,487.4 -238.4,487.4 -238.4,445.1 	"/>
	<text transform="matrix(1 0 0 1 -230.6063 468.4015)" class="st1 st2">U06</text>
</g>
<g id="F3U07">
	<polyline class="st0" points="-204.4,445.1 -170.4,445.1 -170.4,487.4 -204.4,487.4 -204.4,445.1 	"/>
	<text transform="matrix(1 0 0 1 -196.6063 468.4015)" class="st1 st2">U07</text>
</g>
<g id="F3U08">
	<polyline class="st0" points="-170.4,445.1 -136.4,445.1 -136.4,487.4 -170.4,487.4 -170.4,445.1 	"/>
	<text transform="matrix(1 0 0 1 -165.1063 468.4015)" class="st1 st2">U08</text>
</g>
<g id="F309">
	<polyline class="st0" points="-33.3,445.1 0.6,445.1 0.6,487.4 -33.3,487.4 -33.3,445.1 	"/>
	<text transform="matrix(1 0 0 1 -24.3261 468.4015)" class="st1 st2">U09</text>
</g>
<g id="F3D09">
	<polyline class="st0" points="-97.9,446.4 -85.9,446.4 -85.9,459.3 -97.9,459.3 -97.9,446.4 	"/>
	<text transform="matrix(1 0 0 1 -97.8559 453.9781)" class="st1 st3">D09</text>
</g>
<g id="F3D01">
	<polyline class="st0" points="-51.9,446.4 -39.9,446.4 -39.9,459.3 -51.9,459.3 -51.9,446.4 	"/>
	<text transform="matrix(1 0 0 1 -51.8559 453.9781)" class="st1 st3">D01</text>
</g>
<g id="F3D04">
	<polyline class="st0" points="-63.9,446.4 -51.9,446.4 -51.9,459.3 -63.9,459.3 -63.9,446.4 	"/>
	<text transform="matrix(1 0 0 1 -63.8559 453.9781)" class="st1 st3">D04</text>
</g>
<g id="F3D02">
	<polyline class="st0" points="-51.9,459.4 -39.9,459.4 -39.9,472.3 -51.9,472.3 -51.9,459.4 	"/>
	<text transform="matrix(1 0 0 1 -51.8559 466.9781)" class="st1 st3">D02</text>
</g>
<g id="F3D05">
	<polyline class="st0" points="-63.9,459.4 -51.9,459.4 -51.9,472.3 -63.9,472.3 -63.9,459.4 	"/>
	<text transform="matrix(1 0 0 1 -63.8559 466.9781)" class="st1 st3">D05</text>
</g>
<g id="F3D03">
	<polyline class="st0" points="-51.9,472.4 -39.9,472.4 -39.9,485.3 -51.9,485.3 -51.9,472.4 	"/>
	<text transform="matrix(1 0 0 1 -51.8559 479.9781)" class="st1 st3">D03</text>
</g>
<g id="F3D06">
	<polyline class="st0" points="-63.9,472.4 -51.9,472.4 -51.9,485.3 -63.9,485.3 -63.9,472.4 	"/>
	<text transform="matrix(1 0 0 1 -63.8559 479.9781)" class="st1 st3">D06</text>
</g>
<g id="F3D08">
	<polyline class="st0" points="-85.9,459.4 -73.9,459.4 -73.9,472.3 -85.9,472.3 -85.9,459.4 	"/>
	<text transform="matrix(1 0 0 1 -85.8559 466.9781)" class="st1 st3">D08</text>
</g>
<g id="F3D07">
	<polyline class="st0" points="-85.9,446.4 -73.9,446.4 -73.9,459.3 -85.9,459.3 -85.9,446.4 	"/>
	<text transform="matrix(1 0 0 1 -85.8559 453.9781)" class="st1 st3">D07</text>
</g>
<g id="F3D10">
	<polyline class="st0" points="-97.9,459.3 -85.9,459.3 -85.9,472.2 -97.9,472.2 -97.9,459.3 	"/>
	<text transform="matrix(1 0 0 1 -97.8559 466.9074)" class="st1 st3">D10</text>
</g>
<g id="F3D13">
	<polyline class="st0" points="-118.9,472.4 -106.9,472.4 -106.9,485.3 -118.9,485.3 -118.9,472.4 	"/>
	<text transform="matrix(1 0 0 1 -118.8559 479.9781)" class="st1 st3">D13</text>
</g>
<g id="F3D12">
	<polyline class="st0" points="-118.9,459.5 -106.9,459.5 -106.9,472.3 -118.9,472.3 -118.9,459.5 	"/>
	<text transform="matrix(1 0 0 1 -118.8559 467.045)" class="st1 st3">D12</text>
</g>
<g id="F3D11">
	<polyline class="st0" points="-118.9,446.7 -106.9,446.7 -106.9,459.6 -118.9,459.6 -118.9,446.7 	"/>
	<text transform="matrix(1 0 0 1 -118.8559 454.2665)" class="st1 st3">D11</text>
</g>
<g id="F3D16">
	<polyline class="st0" points="-130.9,472.4 -118.9,472.4 -118.9,485.3 -130.9,485.3 -130.9,472.4 	"/>
	<text transform="matrix(1 0 0 1 -130.8559 479.9781)" class="st1 st3">D16</text>
</g>
<g id="F3D15">
	<polyline class="st0" points="-130.9,459.5 -118.9,459.5 -118.9,472.3 -130.9,472.3 -130.9,459.5 	"/>
	<text transform="matrix(1 0 0 1 -130.8559 467.0448)" class="st1 st3">D15</text>
</g>
<g id="F3D14">
	<polyline class="st0" points="-130.9,446.7 -118.9,446.7 -118.9,459.6 -130.9,459.6 -130.9,446.7 	"/>
	<text transform="matrix(1 0 0 1 -130.8559 454.2663)" class="st1 st3">D14</text>
</g>
<g id="F3D19">
	<polyline class="st0" points="-130.9,420.7 -118.9,420.7 -118.9,433.6 -130.9,433.6 -130.9,420.7 	"/>
	<text transform="matrix(1 0 0 1 -130.8559 428.2663)" class="st1 st3">D19</text>
</g>
<g id="F3D20">
	<polyline class="st0" points="-130.9,407.7 -118.9,407.7 -118.9,420.6 -130.9,420.6 -130.9,407.7 	"/>
	<text transform="matrix(1 0 0 1 -130.8559 415.2663)" class="st1 st3">D20</text>
</g>
<g id="F3D18">
	<polyline class="st0" points="-118.9,407.7 -106.9,407.7 -106.9,420.6 -118.9,420.6 -118.9,407.7 	"/>
	<text transform="matrix(1 0 0 1 -118.8559 415.2663)" class="st1 st3">D18</text>
</g>
<g id="F3D17">
	<polyline class="st0" points="-118.9,420.7 -106.9,420.7 -106.9,433.6 -118.9,433.6 -118.9,420.7 	"/>
	<text transform="matrix(1 0 0 1 -118.8559 428.2663)" class="st1 st3">D17</text>
</g>
<g id="F2U03">
	<polyline class="st0" points="-67.3,402.8 -33.3,402.8 -33.3,413.1 -39.7,413.1 -39.7,436.5 -67.3,436.5 -67.3,402.8 	"/>
	<text transform="matrix(1 0 0 1 -63.1063 424.4015)" class="st1 st2">U03</text>
</g>
<g id="F3U02">
	<polyline class="st0" points="-101.4,402.8 -67.3,402.8 -67.3,436.5 -101.4,436.5 -101.4,402.8 	"/>
	<text transform="matrix(1 0 0 1 -94.1063 425.0613)" class="st1 st2">U02</text>
</g>
<g id="F3U10">
	<polyline class="st0" points="0.6,445.1 34.7,445.1 34.7,487.4 0.6,487.4 0.6,445.1 	"/>
	<text transform="matrix(1 0 0 1 9.8937 468.4015)" class="st1 st2">U10</text>
</g>
<g id="F3U11">
	<polyline class="st0" points="137.8,453.6 171.8,453.6 171.8,487.4 137.8,487.4 137.8,453.6 	"/>
	<text transform="matrix(1 0 0 1 145.3937 470.9015)" class="st1 st2">U11</text>
</g>
<g id="F3U12">
	<text transform="matrix(1 0 0 1 179.3937 470.9015)" class="st1 st2">U12</text>
	<polyline class="st0" points="171.8,445.1 205.8,445.1 205.8,487.4 171.8,487.4 171.8,445.1 	"/>
</g>
<g id="F3U13">
	<polyline class="st0" points="205.8,445.1 239.8,445.1 239.8,487.4 205.8,487.4 205.8,445.1 	"/>
	<text transform="matrix(1 0 0 1 211.3536 471.2031)" class="st1 st2">U13</text>
</g>
<g id="F3U15">
	<polygon class="st0" points="171.8,402.8 137.8,402.8 137.8,436.5 171.8,436.5 205.8,436.5 205.8,402.8 	"/>
	<text transform="matrix(1 0 0 1 161.3937 423.7765)" class="st1 st2">U15</text>
</g>
<g id="F3U14">
	<polyline class="st0" points="274.8,436.5 239.8,436.5 274.8,436.5 274.8,487.4 239.8,487.4 239.8,436.5 	"/>
	<path class="st0" d="M239.8,436.5"/>
	<text transform="matrix(1 0 0 1 244.2286 471.2029)" class="st1 st2">U14</text>
</g>
<g id="Layer_52">
	<rect x="239.8" y="403.5" class="st0" width="35" height="33"/>
</g>
<g id="Layer_3">
	<polyline class="st0" points="103.7,487.4 137.8,487.4 137.8,466.2 103.7,466.2 103.7,487.4 	"/>
</g>
</svg>
