<?xml version="1.0" encoding="utf-8"?>
<!-- Generator: Adobe Illustrator 21.0.2, SVG Export Plug-In . SVG Version: 6.00 Build 0)  -->
<svg version="1.1" id="Layer_1" xmlns="http://www.w3.org/2000/svg" xmlns:xlink="http://www.w3.org/1999/xlink" x="0px" y="0px"
	 viewBox="0 0 622.6 300.2" style="enable-background:new 0 0 622.6 300.2;" xml:space="preserve">
<style type="text/css">
	.st0{fill:none;stroke:#000000;stroke-width:0.72;stroke-linecap:round;stroke-linejoin:round;stroke-miterlimit:10;}
	.st1{font-family:'MyriadPro-Regular';}
	.st2{font-size:12px;}
	.st3{enable-background:new    ;}
	.st4{font-size:7px;}
</style>
<g id="outline">
	<polyline class="st0" points="544.4,155.2 543,155.2 543,163.1 544.4,163.1 544.4,155.2 	"/>
	<polyline class="st0" points="543,155.2 541.7,155.2 541.7,163.1 543,163.1 543,155.2 	"/>
	<polyline class="st0" points="541.7,155.2 540.2,155.2 540.2,163.1 541.7,163.1 541.7,155.2 	"/>
	<polyline class="st0" points="540.2,155.2 538.8,155.2 538.8,163.1 540.2,163.1 540.2,155.2 	"/>
	<polyline class="st0" points="277.3,225.6 283.1,225.6 283.1,231.8 277.3,231.8 277.3,225.6 	"/>
	<polyline class="st0" points="535.1,168.7 543,168.7 543,174.8 535.1,174.8 535.1,168.7 	"/>
	<polyline class="st0" points="530.4,166.9 521.5,166.9 521.5,176 530.4,176 530.4,166.9 	"/>
	<line class="st0" x1="307.4" y1="230.2" x2="309.2" y2="223.6"/>
	<line class="st0" x1="307.4" y1="237.7" x2="309.2" y2="244.3"/>
	<line class="st0" x1="307.4" y1="230.2" x2="309.2" y2="223.6"/>
	<line class="st0" x1="306.7" y1="230" x2="307.3" y2="223.2"/>
	<line class="st0" x1="306" y1="230" x2="305.3" y2="223.2"/>
	<line class="st0" x1="305.3" y1="230.2" x2="303.4" y2="223.6"/>
	<line class="st0" x1="304.6" y1="230.4" x2="301.6" y2="224.3"/>
	<line class="st0" x1="304" y1="230.8" x2="299.9" y2="225.4"/>
	<line class="st0" x1="303.4" y1="231.2" x2="298.3" y2="226.7"/>
	<line class="st0" x1="303" y1="231.8" x2="297.1" y2="228.2"/>
	<line class="st0" x1="302.6" y1="232.6" x2="296.3" y2="230"/>
	<line class="st0" x1="302.4" y1="233.3" x2="295.7" y2="232"/>
	<line class="st0" x1="302.4" y1="234" x2="295.6" y2="234"/>
	<line class="st0" x1="302.4" y1="234.7" x2="295.7" y2="235.9"/>
	<line class="st0" x1="302.6" y1="235.4" x2="296.3" y2="237.8"/>
	<line class="st0" x1="303" y1="236" x2="297.1" y2="239.6"/>
	<line class="st0" x1="303.4" y1="236.6" x2="298.3" y2="241.2"/>
	<line class="st0" x1="304" y1="237.1" x2="299.9" y2="242.5"/>
	<line class="st0" x1="304.6" y1="237.5" x2="301.6" y2="243.6"/>
	<line class="st0" x1="305.3" y1="237.7" x2="303.4" y2="244.3"/>
	<line class="st0" x1="306" y1="238" x2="305.3" y2="244.7"/>
	<line class="st0" x1="306.7" y1="238" x2="307.3" y2="244.7"/>
	<line class="st0" x1="307.4" y1="237.7" x2="309.2" y2="244.3"/>
	<path class="st0" d="M307.4,230.1c-1.6-0.5-3.4,0.2-4.4,1.5c-1,1.4-1,3.3,0,4.6c1,1.4,2.7,2,4.4,1.5"/>
	<path class="st0" d="M309.2,223.6c-4.4-1.2-9.1,0.4-11.7,4.1c-2.6,3.7-2.6,8.7,0,12.4s7.3,5.4,11.7,4.1"/>
	<polyline class="st0" points="335.9,244.1 342.2,245 351.2,245 351.2,222.4 342.2,222.4 335.9,223.2 335.9,244.1 	"/>
	<polyline class="st0" points="543,168.7 543,169.6 546,169.6 546,163.9 520,163.9 520,167.8 521.5,167.8 521.5,166.9 530.4,166.9
		530.4,176 521.5,176 521.5,175.2 520,175.2 520,179 546,179 546,174 543,174 543,174.8 535.1,174.8 535.1,168.7 543,168.7 	"/>
	<polyline class="st0" points="277.3,241.7 283.1,241.7 283.1,235.4 277.3,235.4 277.3,241.7 	"/>
	<polyline class="st0" points="285.8,226.4 285.8,223.2 279.5,222.4 270.5,222.4 270.5,245 279.5,245 285.8,244.1 285.8,240.8
		283.1,240.8 283.1,241.7 277.3,241.7 277.3,235.4 283.1,235.4 283.1,236.3 285.8,236.3 285.8,231 283.1,231 283.1,231.8
		277.3,231.8 277.3,225.6 283.1,225.6 283.1,226.4 285.8,226.4 	"/>
	<polyline class="st0" points="520,196.6 546,196.6 546,179 520,179 520,196.6 	"/>
	<polyline class="st0" points="520,163.9 546,163.9 546,143 520,143 520,163.9 	"/>
	<polyline class="st0" points="77.3,155.2 78.7,155.2 78.7,163.1 77.3,163.1 77.3,155.2 	"/>
	<polyline class="st0" points="78.7,155.2 80,155.2 80,163.1 78.7,163.1 78.7,155.2 	"/>
	<polyline class="st0" points="80,155.2 81.5,155.2 81.5,163.1 80,163.1 80,155.2 	"/>
	<polyline class="st0" points="81.5,155.2 82.9,155.2 82.9,163.1 81.5,163.1 81.5,155.2 	"/>
	<polyline class="st0" points="86.6,168.7 78.7,168.7 78.7,174.8 86.6,174.8 86.6,168.7 	"/>
	<polyline class="st0" points="91.3,166.9 100.2,166.9 100.2,176 91.3,176 91.3,166.9 	"/>
	<polyline class="st0" points="285.8,244.1 279.5,245 270.5,245 270.5,222.4 279.5,222.4 285.8,223.2 285.8,244.1 	"/>
	<polyline class="st0" points="101.8,196.6 101.8,212 520,212 520,196.6 	"/>
	<polyline class="st0" points="78.7,168.7 78.7,169.6 75.7,169.6 75.7,163.9 101.8,163.9 101.8,167.8 100.2,167.8 100.2,166.9
		91.3,166.9 91.3,176 100.2,176 100.2,175.2 101.8,175.2 101.8,179 75.7,179 75.7,174 78.7,174 78.7,174.8 86.6,174.8 86.6,168.7
		78.7,168.7 	"/>
	<polyline class="st0" points="101.8,196.6 75.7,196.6 75.7,179 101.8,179 101.8,196.6 	"/>
	<polyline class="st0" points="101.8,163.9 75.7,163.9 75.7,143 101.8,143 101.8,163.9 	"/>
	<polyline class="st0" points="512.4,143 504.8,143 504.8,199.2 116.9,199.2 116.9,143 109.3,143 	"/>
	<polyline class="st0" points="520,143 516,143 516,4.4 619.1,4.4 619.1,296.6 2.6,296.6 2.6,4.4 105.7,4.4 105.7,143 101.8,143
		"/>
</g>
<g id="F4U12">
	<polyline class="st0" points="564.4,143 564.4,212 550,212 550,296.6 619.1,296.6 619.1,143 564.4,143 	"/>
	<text transform="matrix(1 0 0 1 575.3926 247.9533)" class="st1 st2">U12</text>
</g>
<g id="F4U11">
	<polyline class="st0" points="448,296.6 550,296.6 550,212 448,212 448,296.6 	"/>
	<text transform="matrix(1 0 0 1 496.7266 261.9532)" class="st1 st2">U11</text>
</g>
<g id="F4U10">
	<polyline class="st0" points="448,212 344.9,212 344.9,222.4 351.2,222.4 351.2,245 344.9,245 344.9,254.3 378.8,254.3
		378.8,296.6 448,296.6 448,212 	"/>
	<text transform="matrix(1 0 0 1 396.0596 243.9533)" class="st1 st2">U10</text>
</g>
<g id="F4U13">
	<polygon class="st0" points="549,36.6 549,7 618.6,7 618.6,143 515.5,143 516.5,36.6 	"/>
	<text transform="matrix(1 0 0 1 560.3931 90.287)" class="st1 st2">U13</text>
</g>
<g id="F4U09">
	<polyline class="st0" points="310.8,254.3 378.8,254.3 378.8,296.6 310.8,296.6 310.8,254.3 	"/>
	<text transform="matrix(1 0 0 1 340.0596 277.2872)" class="st1 st2">U09</text>
</g>
<g id="F4U08">
	<polyline class="st0" points="102.9,212 287.5,212 287.5,222.4 283.2,222.4 283.2,245 287.5,245 287.5,254.3 309.5,254.3
		309.5,296.6 102.9,296.6 102.9,212 	"/>
	<text transform="matrix(1 0 0 1 126.0596 265.6202)" class="st1 st2">U08</text>
</g>
<g id="F4U01">
	<polyline class="st0" points="71.6,7 71.6,28.8 48.2,28.8 48.2,41 2.6,41 2.5,7 71.6,7 	"/>
	<text transform="matrix(1 0 0 1 30.0596 22.6203)" class="st1 st2">U01</text>
</g>
<g id="F4U02A">
	<polyline class="st0" points="48.2,41 2.6,41 2.6,75 48.2,75 48.2,41 	"/>
	<text transform="matrix(1 0 0 1 17.0596 58.6203)" class="st1 st2">U02A</text>
</g>
<g id="F4U02B">
	<polyline class="st0" points="48.2,75 2.6,75 2.6,109.1 48.2,109.1 48.2,75 	"/>
	<text transform="matrix(1 0 0 1 11.0596 99.6203)" class="st1 st2">U02B</text>
</g>
<g id="F4U03">
	<polyline class="st0" points="48.2,109.1 2.6,109.1 2.6,143 48.2,143 48.2,109.1 	"/>
	<text transform="matrix(1 0 0 1 15.0596 130.6203)" class="st1 st2">U03</text>
</g>
<g id="F4U04">
	<polyline class="st0" points="105.7,41 60.1,41 60.1,75 105.7,75 105.7,41 	"/>
	<text transform="matrix(1 0 0 1 79.0596 60.6203)" class="st1 st2">U04</text>
</g>
<g id="F4U05">
	<polyline class="st0" points="60.1,75 105.7,75 105.7,109.1 60.1,109.1 60.1,75 	"/>
	<text transform="matrix(1 0 0 1 80.0596 94.6203)" class="st1 st2">U05</text>
</g>
<g id="F4U06">
	<polyline class="st0" points="71.8,109.1 105.7,109.1 105.7,143 71.8,143 71.8,109.1 	"/>
	<text transform="matrix(1 0 0 1 80.0596 126.6203)" class="st1 st2">U06</text>
</g>
<g id="F4U07">
	<polyline class="st0" points="57,143 2.6,143 2.6,212 57,212 57,143 	"/>
	<text transform="matrix(1 0 0 1 18.0596 176.6203)" class="st1 st2">U07</text>
</g>
<g id="F4U08B">
	<polyline class="st0" points="48.2,255.1 2.6,255.1 2.6,296.6 48.2,296.6 48.2,255.1 	"/>
	<text transform="matrix(1 0 0 1 11.0596 282.7203)" class="st1 st2">U08B</text>
</g>
<g id="F4U08C">
	<polyline class="st0" points="102.9,255.1 48.5,255.1 48.5,296.6 102.9,296.6 102.9,255.1 	"/>
	<text transform="matrix(1 0 0 1 60.9596 283.7203)" class="st1 st2">U08C</text>
</g>
<g id="F4U08A">
	<rect x="2.6" y="212.1" class="st0" width="32.4" height="42.9"/>
	<text transform="matrix(1 0 0 1 5.2263 240.5496)" class="st1 st2">U08A</text>
</g>
<g id="F4NK">
	<rect x="68.1" y="212.2" class="st0" width="35" height="33"/>
	<text transform="matrix(1 0 0 1 74.4786 227.1002)" class="st3"><tspan x="0" y="0" class="st1 st4">Neelie</tspan><tspan x="0" y="8.4" class="st1 st4">Kroes</tspan></text>
</g>
</svg>
